<?xml version="1.0" encoding="UTF-8"?>
<svg width="571px" height="368px" viewBox="0 0 571 368" version="1.1" xmlns="http://www.w3.org/2000/svg" xmlns:xlink="http://www.w3.org/1999/xlink" xmlns:sketch="http://www.bohemiancoding.com/sketch/ns">
    <!-- Generator: Sketch 3.5.1 (25234) - http://www.bohemiancoding.com/sketch -->
    <title>autotune</title>
    <desc>Created with Sketch.</desc>
    <defs></defs>
    <g id="Page-1" stroke="none" stroke-width="1" fill="none" fill-rule="evenodd" sketch:type="MSPage">
        <path d="M447.5,63.5 L447.5,157.5" id="Line" stroke="#979797" stroke-width="3" stroke-linecap="square" sketch:type="MSShapeGroup"></path>
        <path id="Line-decoration-1" d="M447.5,63.5 L450.5,74.3 L444.5,74.3 L447.5,63.5 Z" stroke="#979797" stroke-width="3" stroke-linecap="square"></path>
        <path id="Line-decoration-2" d="M447.5,157.5 L450.5,146.7 L444.5,146.7 L447.5,157.5 Z" stroke="#979797" stroke-width="3" stroke-linecap="square"></path>
        <path d="M197.5,294.5 L197.5,327.515148" id="Line" stroke="#979797" stroke-width="3" stroke-linecap="square" sketch:type="MSShapeGroup"></path>
        <path id="Line-decoration-1" d="M197.5,294.5 L200.5,305.3 L194.5,305.3 L197.5,294.5 Z" stroke="#979797" stroke-width="3" stroke-linecap="square"></path>
        <path id="Line-decoration-2" d="M197.5,327.515148 L200.5,316.715148 L194.5,316.715148 L197.5,327.515148 Z" stroke="#979797" stroke-width="3" stroke-linecap="square"></path>
        <text id="D" sketch:type="MSTextLayer" transform="translate(182.000000, 310.500000) rotate(-90.000000) translate(-182.000000, -310.500000) " font-family="Helvetica" font-size="16" font-weight="normal" fill="#979797">
            <tspan x="176" y="316">D</tspan>
        </text>
        <path d="M467.507355,244.5 L399.5,244.5" id="Line" stroke="#979797" stroke-width="3" stroke-linecap="square" sketch:type="MSShapeGroup"></path>
        <path id="Line-decoration-1" d="M467.507355,244.5 L456.707355,247.5 L456.707355,241.5 L467.507355,244.5 Z" stroke="#979797" stroke-width="3" stroke-linecap="square"></path>
        <path id="Line-decoration-2" d="M399.5,244.5 L410.3,247.5 L410.3,241.5 L399.5,244.5 Z" stroke="#979797" stroke-width="3" stroke-linecap="square"></path>
        <text id="P" sketch:type="MSTextLayer" font-family="Helvetica" font-size="16" font-weight="normal" fill="#979797">
            <tspan x="428" y="233">P</tspan>
        </text>
        <text id="2A" sketch:type="MSTextLayer" transform="translate(437.000000, 122.500000) rotate(-90.000000) translate(-437.000000, -122.500000) " font-family="Helvetica" font-size="16" font-weight="normal" fill="#979797">
            <tspan x="427" y="128">2A</tspan>
        </text>
        <text id="output" sketch:type="MSTextLayer" font-family="Helvetica" font-size="16" font-weight="normal" sketch:alignment="middle" fill="#FF7F00">
            <tspan x="135.257812" y="282">output</tspan>
        </text>
        <text id="temperature" sketch:type="MSTextLayer" font-family="Helvetica" font-size="16" font-weight="normal" fill="#377EB8">
            <tspan x="135" y="52">temperature</tspan>
        </text>
        <text id="new-setpoint" sketch:type="MSTextLayer" font-family="Helvetica" font-size="16" font-weight="normal" fill="#E41A1C">
            <tspan x="135" y="95">new setpoint</tspan>
        </text>
        <path d="M-152.979242,66.6017373 L-152.249542,66.6477292 L-151.519112,66.6923475 L-150.789411,66.7355328 L-150.059711,66.7773599 L-149.330011,66.8178573 L-148.600311,66.8570533 L-147.87061,66.8949752 L-147.140181,66.9316861 L-146.409751,66.9671739 L-145.679321,67.0014645 L-144.948891,67.0345832 L-144.218461,67.0665549 L-143.488031,67.097404 L-142.757601,67.1271541 L-142.027171,67.1558287 L-141.296741,67.1834505 L-140.566554,67.2100332 L-139.836854,67.2355914 L-139.107154,67.2601646 L-138.377454,67.2837735 L-137.647753,67.3064387 L-136.918053,67.3281803 L-136.188353,67.3490178 L-135.458653,67.3689707 L-134.728953,67.3880576 L-133.999252,67.4062971 L-133.269552,67.4237071 L-132.539852,67.4403054 L-131.810152,67.4561094 L-131.080451,67.4711359 L-130.350751,67.4854015 L-129.621051,67.4989226 L-128.891351,67.511715 L-128.161164,67.5238022 L-127.431464,67.5351832 L-126.701764,67.5458815 L-125.972063,67.5559115 L-125.242363,67.5652877 L-124.512663,67.574024 L-123.782963,67.5821342 L-123.053262,67.5896318 L-122.323562,67.5965298 L-121.593862,67.6028414 L-120.864162,67.608579 L-120.134461,67.613755 L-119.404761,67.6183816 L-118.675061,67.6224705 L-117.945361,67.6260335 L-117.215661,67.6290819 L-116.485474,67.6316283 L-115.755774,67.6336803 L-115.026073,67.6352505 L-114.296373,67.6363492 L-113.566673,67.6369866 L-112.836973,67.6371729 L-112.107272,67.6369179 L-111.377572,67.6362311 L-110.647872,67.6351219 L-109.918172,67.6335996 L-109.188472,67.6316732 L-108.458771,67.6293515 L-107.729071,67.6266432 L-106.999371,67.6235567 L-106.269671,67.6201004 L-105.53997,67.6162823 L-104.81027,67.6121104 L-104.080083,67.6075894 L-103.350383,67.6027329 L-102.620683,67.5975455 L-101.890983,67.5920344 L-101.161283,67.586207 L-100.431582,67.58007 L-99.7018821,67.5736305 L-98.9721819,67.5668951 L-98.2424817,67.5598705 L-97.5127814,67.552563 L-96.7830812,67.5449789 L-96.053381,67.5371245 L-95.3236807,67.5290057 L-94.5939805,67.5206286 L-93.8642803,67.5119988 L-93.13458,67.5031221 L-92.4048798,67.4940041 L-91.6746931,67.4846438 L-90.9449929,67.4750591 L-90.2152927,67.465249 L-89.4855924,67.4552186 L-88.7558922,67.4449729 L-88.026192,67.4345169 L-87.2964917,67.4238553 L-86.5667915,67.4129928 L-85.8370913,67.401934 L-85.1073911,67.3906835 L-84.3776908,67.3792455 L-83.6479906,67.3676245 L-82.9182904,67.3558247 L-82.1885901,67.3438501 L-81.4588899,67.3317049 L-80.7291897,67.319393 L-79.999003,67.30691 L-79.2693027,67.2942762 L-78.5396025,67.2814871 L-77.8099023,67.2685464 L-77.0802021,67.2554576 L-76.3505018,67.2422243 L-75.6208016,67.2288498 L-74.8911014,67.2153375 L-74.1614011,67.2016907 L-73.4317009,67.1879126 L-72.7020007,67.1740063 L-71.9723004,67.1599749 L-71.2426002,67.1458214 L-70.5129,67.1315489 L-69.7831998,67.11716 L-69.0534995,67.1026578 L-68.3237993,67.0880449 L-67.5936126,67.0733143 L-66.8639124,67.0584881 L-66.1342121,67.0435593 L-65.4045119,67.0285304 L-64.6748117,67.0134038 L-63.9451115,66.998182 L-63.2154112,66.9828674 L-62.485711,66.9674623 L-61.7560108,66.9519691 L-61.0263105,66.9363899 L-60.2966103,66.9207269 L-59.5669101,66.9049823 L-58.8372098,66.8891583 L-58.1075096,66.8732568 L-57.3778094,66.8572798 L-56.6481092,66.8412294 L-55.9184089,66.8251075 L-55.1882222,66.8089052 L-54.458522,66.7926458 L-53.7288218,66.7763205 L-52.9991215,66.759931 L-52.2694213,66.743479 L-51.5397211,66.7269663 L-50.8100208,66.7103944 L-50.0803206,66.6937652 L-49.3506204,66.67708 L-48.6209202,66.6603406 L-47.8912199,66.6435484 L-47.1615197,66.6267049 L-46.4318195,66.6098116 L-45.7021192,66.5928699 L-44.972419,66.5758813 L-44.2427188,66.5588471 L-43.5125321,66.5417572 L-42.7828319,66.5246357 L-42.0531316,66.5074727 L-41.3234314,66.4902692 L-40.5937312,66.4730266 L-39.8640309,66.4557461 L-39.1343307,66.4384288 L-38.4046305,66.4210759 L-37.6749302,66.4036886 L-36.94523,66.386268 L-36.2155298,66.368815 L-35.4858296,66.3513309 L-34.7561293,66.3338167 L-34.0264291,66.3162733 L-33.2967289,66.2987018 L-32.5670286,66.2811031 L-31.8373284,66.2634782 L-31.1071417,66.2458163 L-30.3774415,66.2281418 L-29.6477412,66.2104439 L-28.918041,66.1927234 L-28.1883408,66.1749812 L-27.4586406,66.1572181 L-26.7289403,66.139435 L-25.9992401,66.1216326 L-25.2695399,66.1038118 L-24.5398396,66.0859733 L-23.8101394,66.0681178 L-23.0804392,66.0502462 L-22.3507389,66.0323591 L-21.6210387,66.0144573 L-20.8913385,65.9965414 L-20.1616383,65.9786121 L-19.431938,65.9606701 L-18.7017513,65.9427041 L-17.9720511,65.9247386 L-17.2423509,65.9067622 L-16.5126506,65.8887757 L-15.7829504,65.8707796 L-15.0532502,65.8527744 L-14.32355,65.8347608 L-13.5938497,65.8167392 L-12.8641495,65.7987104 L-12.1344493,65.7806747 L-11.404749,65.7626327 L-10.6750488,65.744585 L-9.94534857,65.7265319 L-9.21564834,65.7084741 L-8.48594811,65.6904119 L-7.75624788,65.6723459 L-7.02606119,65.6542645 L-6.29636096,65.6361922 L-5.56666073,65.6181174 L-4.8369605,65.6000405 L-4.10726027,65.581962 L-3.37756004,65.5638823 L-2.64785981,65.5458017 L-1.91815958,65.5277207 L-1.18845935,65.5096396 L-0.458759117,65.4915589 L0.270941113,65.4734788 L1.00064134,65.4553998 L1.73034157,65.4373222 L2.4600418,65.4192463 L3.18974203,65.4011726 L3.91944226,65.3831012 L4.64914249,65.3650326 L5.37932919,65.3469551 L6.10902942,65.3288929 L6.83872965,65.3108344 L7.56842988,65.2927798 L8.29813011,65.2747295 L9.02783034,65.2566837 L9.75753057,65.2386428 L10.4872308,65.2206069 L11.216931,65.2025764 L11.9466313,65.1845514 L12.6763315,65.1665324 L13.4060317,65.1485194 L14.1357319,65.1305128 L14.8654322,65.1125127 L15.5951324,65.0945195 L16.3248326,65.0765332 L17.0545329,65.0585543 L17.7847196,65.0405708 L18.5144198,65.022607 L19.24412,65.0046511 L19.9738203,64.9867033 L20.7035205,64.9687638 L21.4332207,64.9508327 L22.1629209,64.9329103 L22.8926212,64.9149968 L23.6223214,64.8970923 L24.3520216,64.879197 L25.0817219,64.8613111 L25.8114221,64.8434347 L26.5411223,64.825568 L27.2708226,64.8077112 L28.0005228,64.7898644 L28.730223,64.7720278 L29.4604097,64.7541896 L30.1908396,64.736356 L30.9212696,64.718533 L31.6516995,64.7007208 L32.3821294,64.6829195 L33.1125594,64.6651293 L33.8429893,64.6473502 L34.5734192,64.6295824 L35.3038492,64.611826 L36.0342791,64.5940812 L36.764709,64.576348 L37.4951389,64.5586267 L38.2255689,64.5409172 L38.9559988,64.5232197 L39.6864287,64.5055343 L40.4168587,64.4878611 L41.1472886,64.4702002 L41.8774753,64.4525576 L42.6079052,64.4349217 L43.3383351,64.4172983 L44.0687651,64.3996877 L44.799195,64.3820898 L45.5296249,64.3645048 L46.2600549,64.3469328 L46.9904848,64.3293738 L47.7209147,64.3118279 L48.4513447,64.2942952 L49.1817746,64.2767758 L49.9122045,64.2592698 L50.6426344,64.2417772 L51.3730644,64.2242981 L52.1034943,64.2068325 L52.8339242,64.1893806 L53.5643542,64.1719424 L54.2945409,64.1545238 L55.0249708,64.1371132 L55.7554007,64.1197165 L56.4858307,64.1023337 L57.2162606,64.0849649 L57.9466905,64.0676103 L58.6771204,64.0502697 L59.4075504,64.0329433 L60.1379803,64.0156311 L60.8684102,63.9983332 L61.5988402,63.9810497 L62.3292701,63.9637805 L63.0597,63.9465257 L63.79013,63.9292854 L64.5205599,63.9120596 L65.2509898,63.8948483 L65.9811765,63.8776574 L66.7116064,63.8604754 L67.4420364,63.843308 L68.1724663,63.8261554 L68.9028962,63.8090175 L69.6333262,63.7918943 L70.3637561,63.774786 L71.094186,63.7576926 L71.824616,63.740614 L72.5550459,63.7235503 L73.2854758,63.7065016 L74.0159057,63.6894678 L74.7463357,63.6724491 L75.4767656,63.6554453 L76.2071955,63.6384567 L76.9376255,63.6214831 L77.6680554,63.6045246 L78.3982421,63.5875869 L79.128672,63.5706587 L79.859102,63.5537456 L80.5895319,63.5368478 L81.3199618,63.5199652 L82.0503917,63.5030978 L82.7808217,63.4862456 L83.5112516,63.4694088 L84.2416815,63.4525872 L84.9721115,63.4357809 L85.7025414,63.41899 L86.4329713,63.4022144 L87.1634013,63.3854542 L87.8938312,63.3687093 L88.6242611,63.3519798 L89.354691,63.3352657 L90.085121,63.318567 L90.8153077,63.3018893 L91.5457376,63.2852215 L92.2761675,63.2685691 L93.0065975,63.2519322 L93.7370274,63.2353107 L94.4674573,63.2187047 L95.1978873,63.2021142 L95.9283172,63.1855391 L96.6587471,63.1689796 L97.389177,63.1524356 L98.119607,63.135907 L98.8500369,63.119394 L99.5804668,63.1028965 L100.310897,63.0864146 L101.041327,63.0699482 L101.771757,63.0534973 L102.501943,63.0370674 L103.232373,63.0206476 L103.962803,63.0042433 L104.693233,62.9878546 L105.423663,62.9714815 L106.154093,62.9551238 L106.884523,62.9387818 L107.614953,62.9224553 L108.345383,62.9061444 L109.075813,62.889849 L109.806243,62.8735692 L110.536673,62.8573049 L111.267102,62.8410562 L111.997532,62.8248231 L112.727962,62.8086055 L113.458392,62.7924035 L114.188822,62.776217 L114.919009,62.7600515 L115.649439,62.7438961 L116.379869,62.7277562 L117.110299,62.711632 L117.840729,62.6955232 L118.571159,62.67943 L119.301588,62.6633523 L120.032018,62.6472902 L120.762448,62.6312436 L121.492878,62.6152125 L122.223308,62.5991969 L122.953738,62.5831969 L123.684168,62.5672123 L124.414598,62.5512433 L125.145028,62.5352897 L125.875458,62.5193517 L126.605888,62.5034291 L127.336074,62.4875273 L128.066504,62.4716357 L128.796934,62.4557595 L129.527364,62.4398988 L130.257794,62.4240536 L130.988224,62.4082238 L131.718654,62.3924095 L132.449084,62.3766106 L133.179514,62.3608271 L133.909944,62.345059 L134.640374,62.3293064 L135.370804,62.3135691 L136.101234,62.2978473 L136.831664,62.2821408 L137.562093,62.2664497 L138.292523,62.250774 L139.02271,62.2351189 L139.75314,62.2194739 L140.48357,62.2038442 L141.214,62.1882299 L141.94443,62.1726309 L142.67486,62.1570472 L143.40529,62.1414788 L144.13572,62.1259258 L144.86615,62.110388 L145.596579,62.0948655 L146.327009,62.0793583 L147.057439,62.0638663 L147.787869,62.0483896 L148.518299,62.0329281 L149.248729,62.0174818 L149.979159,62.0020508 L150.709589,61.986635 L151.439776,61.9712395 L152.170206,61.9558541 L152.900636,61.9404838 L153.631065,61.9251287 L154.361495,61.9097888 L155.091925,61.894464 L155.822355,61.8791543 L156.552785,61.8638598 L157.283215,61.8485804 L158.013645,61.833316 L158.744075,61.8180668 L159.474505,61.8028327 L160.204935,61.7876136 L160.935365,61.7724095 L161.665795,61.7572206 L162.396225,61.7420466 L163.126655,61.7268877 L163.856841,61.7117488 L164.587271,61.6966199 L165.317701,61.6815059 L166.048131,61.6664069 L166.778561,61.6513229 L167.508991,61.6362539 L168.239421,61.6211998 L168.969851,61.6061606 L169.700281,61.5911363 L170.430711,61.5761269 L171.161141,61.5611324 L171.891571,61.5461528 L172.622,61.5311881 L173.35243,61.5162382 L174.08286,61.5013031 L174.81329,61.4863829 L175.543477,61.4714824 L176.273907,61.4565918 L177.004337,61.441716 L177.734767,61.426855 L178.465197,61.4120087 L179.195627,61.3971772 L179.926057,61.3823604 L180.656486,61.3675583 L181.386916,61.352771 L182.117346,61.3379983 L182.847776,61.3232404 L183.578206,61.3084971 L184.308636,61.2937685 L185.039066,61.2790545 L185.769496,61.2643552 L186.499926,61.2496705 L187.230356,61.2350004 L187.960543,61.2203498 L188.690972,61.2057089 L189.421402,61.1910825 L190.151832,61.1764708 L190.882262,61.1618735 L191.612692,61.1472908 L192.343122,61.1327227 L193.073552,61.118169 L193.803982,61.1036298 L194.534412,61.0891051 L195.264842,61.0745949 L195.995272,61.0600991 L196.725702,61.0456178 L197.456132,61.0311509 L198.186562,61.0166984 L198.916991,61.0022604 L199.647421,60.9878367 L200.377608,60.9734322 L201.108038,60.9590372 L201.838468,60.9446566 L202.568898,60.9302903 L203.299328,60.9159384 L204.029758,60.9016007 L204.760188,60.8872774 L205.490618,60.8729683 L206.221048,60.8586736 L206.951477,60.844393 L207.681907,60.8301267 L208.412337,60.8158747 L209.142767,60.8016368 L209.873197,60.7874132 L210.603627,60.7732037 L211.334057,60.7590085 L212.064244,60.7448321 L212.793944,60.7306793 L213.523644,60.7165406 L214.253344,60.7024159 L214.983045,60.6883054 L215.712745,60.6742089 L216.442445,60.6601265 L217.172145,60.6460582 L217.901846,60.6320038 L218.631546,60.6179635 L219.361246,60.6039372 L220.090946,60.5899248 L220.820646,60.5759265 L221.550347,60.5619421 L222.280047,60.5479716 L223.009747,60.5340151 L223.739447,60.5200725 L224.469634,60.53612 L225.199334,60.7045613 L225.929035,61.0353656 L226.658735,61.5249929 L227.388435,62.1699771 L228.118135,62.9669243 L228.847835,63.9125111 L229.577536,65.0034837 L230.307236,66.2366556 L231.036936,67.6089071 L231.766636,69.1171832 L232.496337,70.7584928 L233.226037,72.5299069 L233.955737,74.4285577 L234.685437,76.4516371 L235.415138,78.5963955 L236.144838,80.8601405 L236.875024,83.2418611 L237.604725,85.7358011 L238.334425,88.3409812 L239.064125,91.0549269 L239.793825,93.875215 L240.523526,96.799473 L241.253226,99.8253777 L241.982926,102.950654 L242.712626,106.173076 L243.442327,109.490461 L244.172027,112.900676 L244.901727,116.401628 L245.631427,119.99127 L246.361127,123.667599 L247.090828,127.428652 L247.820528,131.272506 L248.550715,135.188005 L249.280415,138.936588 L250.010115,142.435363 L250.739815,145.689692 L251.469516,148.704827 L252.199216,151.48591 L252.928916,154.037976 L253.658616,156.365955 L254.388316,158.474676 L255.118017,160.368866 L255.847717,162.053153 L256.577417,163.53207 L257.307117,164.810055 L258.036818,165.891454 L258.766518,166.780523 L259.496218,167.481426 L260.225918,167.998246 L260.956105,168.335141 L261.685805,168.495577 L262.415505,168.483669 L263.145206,168.303166 L263.874906,167.957741 L264.604606,167.450989 L265.334306,166.786433 L266.064007,165.967519 L266.793707,164.997623 L267.523407,163.880051 L268.253107,162.61804 L268.982808,161.214758 L269.712508,159.673309 L270.442208,157.996731 L271.171908,156.188 L271.901608,154.250029 L272.631309,152.18567 L273.361495,149.996217 L274.091196,147.687324 L274.820896,145.260251 L275.550596,142.71762 L276.280296,140.061998 L277.009997,137.295899 L277.739697,134.421785 L278.469397,131.442065 L279.199097,128.3591 L279.928797,125.1752 L280.658498,121.892627 L281.388198,118.513598 L282.117898,115.04028 L282.847598,111.474799 L283.577299,107.819233 L284.306999,104.075618 L285.037186,100.255466 L285.766886,96.5976213 L286.496586,93.1846537 L287.226286,90.0113058 L287.955986,87.0724294 L288.685687,84.3629835 L289.415387,81.8780318 L290.145087,79.6127412 L290.874787,77.5623787 L291.604488,75.7223101 L292.334188,74.0879977 L293.063888,72.6549982 L293.793588,71.4189607 L294.523289,70.3756251 L295.252989,69.5208198 L295.982689,68.8504602 L296.712389,68.3605466 L297.442576,68.0470119 L298.172276,67.9064369 L298.901976,67.9347994 L299.631677,68.1284228 L300.361377,68.4837071 L301.091077,68.997127 L301.820777,69.6652309 L302.550478,70.484639 L303.280178,71.4520418 L304.009878,72.5641991 L304.739578,73.8179377 L305.469278,75.2101508 L306.198979,76.7377963 L306.928679,78.3978956 L307.658379,80.1875318 L308.388079,82.1038491 L309.11778,84.1440512 L309.847966,86.3068806 L310.577667,88.586773 L311.307367,90.9825041 L312.037067,93.4915034 L312.766767,96.1112542 L313.496467,98.839292 L314.226168,101.673204 L314.955868,104.610627 L315.685568,107.649249 L316.415268,110.786803 L317.144969,114.021072 L317.874669,117.349884 L318.604369,120.771113 L319.334069,124.282677 L320.063769,127.882537 L320.79347,131.568697 L321.523656,135.329464 L322.253357,138.925811 L322.983057,142.275663 L323.712757,145.384313 L324.442457,148.256945 L325.172158,150.898635 L325.901858,153.314354 L326.631558,155.508968 L327.361258,157.487243 L328.090958,159.253847 L328.820659,160.813347 L329.550359,162.170218 L330.280059,163.328841 L331.009759,164.293506 L331.73946,165.068414 L332.46916,165.657676 L333.19886,166.065322 L333.929047,166.295389 L334.658747,166.351435 L335.388447,166.237451 L336.118147,165.957141 L336.847848,165.514129 L337.577548,164.911966 L338.307248,164.154126 L339.036948,163.244013 L339.766649,162.184959 L340.496349,160.980228 L341.226049,159.633014 L341.955749,158.146446 L342.68545,156.523586 L343.41515,154.767435 L344.14485,152.880929 L344.87455,150.866944 L345.60425,148.728295 L346.334437,146.466193 L347.064137,144.086353 L347.793838,141.589952 L348.523538,138.979577 L349.253238,136.257764 L349.982938,133.426992 L350.712639,130.489693 L351.442339,127.448245 L352.172039,124.304978 L352.901739,121.062172 L353.631439,117.722061 L354.36114,114.286832 L355.09084,110.758625 L355.82054,107.139538 L356.55024,103.431622 L357.279941,99.6368886 L358.010127,95.7671523 L358.739828,92.0618957 L359.469528,88.6026423 L360.199228,85.3841109 L360.928928,82.4011304 L361.658628,79.648637 L362.388329,77.1216726 L363.118029,74.8153821 L363.847729,72.7250116 L364.577429,70.8459061 L365.30713,69.1735075 L366.03683,67.7033526 L366.76653,66.4310711 L367.49623,65.3523838 L368.225931,64.4631003 L368.955631,63.7591178 L369.685331,63.2364187 L370.415518,62.8908973 L371.145218,62.7191599 L371.874918,62.7171458 L372.604618,62.881162 L373.334319,63.2075922 L374.064019,63.6928956 L374.793719,64.3336049 L375.523419,65.1263253 L376.25312,66.0677325 L376.98282,67.1545715 L377.71252,68.3836552 L378.44222,69.7518628 L379.17192,71.2561386 L379.901621,72.8934904 L380.631321,74.6609885 L381.361021,76.5557643 L382.090721,78.5750088 L382.820908,80.7174389 L383.550608,82.9775054 L384.280309,85.3539586 L385.010009,87.8442164 L385.739709,90.4457508 L386.469409,93.1560863 L387.199109,95.9727992 L387.92881,98.8935162 L388.65851,101.915913 L389.38821,105.037716 L390.11791,108.256695 L390.847611,111.57067 L391.577311,114.977504 L392.307011,118.475107 L393.036711,122.06143 L393.766412,125.734469 L394.496598,129.482148 L395.226298,133.064857 L395.955999,136.401489 L396.685699,139.497328 L397.415399,142.357551 L398.145099,144.987224 L398.8748,147.39131 L399.6045,149.574668 L400.3342,151.542055 L401.0639,153.29813 L401.793601,154.847455 L402.523301,156.194497 L403.253001,157.343628 L403.982701,158.299133 L404.712401,159.065203 L405.442102,159.645946 L406.171802,160.045382 L406.901989,160.267538 L407.631689,160.315975 L408.361389,160.194674 L409.091089,159.907331 L409.82079,159.457565 L410.55049,158.84892 L411.28019,158.084865 L412.00989,157.168799 L412.73959,156.104048 L413.469291,154.89387 L414.198991,153.541454 L414.928691,152.049923 L415.658391,150.422335 L416.388092,148.661686 L417.117792,146.770906 L417.847492,144.752867 L418.577192,142.61038 L419.307379,140.344648 L420.037079,137.961387 L420.766779,135.461765 L421.49648,132.848368 L422.22618,130.123725 L422.95588,127.290313 L423.68558,124.350558 L424.415281,121.306836 L425.144981,118.161471 L425.874681,114.916741 L426.604381,111.574875 L427.334081,108.138057 L428.063782,104.608424 L428.793482,100.988068 L429.523182,97.2790403 L430.252882,93.4833461 L430.983069,89.6131656 L431.712769,85.9085653 L432.44247,82.4500818 L433.17217,79.2324314 L433.90187,76.2504404 L434.63157,73.4990428 L435.36127,70.973278 L436.090971,68.6682888 L436.820671,66.5793189 L437.550371,64.7017112 L438.280071,63.0309054 L439.009772,61.5624363 L439.739472,60.2919314 L440.469172,59.2151095 L441.198872,58.3277784 L441.928573,57.6258332 L442.658273,57.1052545 L443.388459,56.7619362 L444.11816,56.5924797 L444.84786,56.5928243 L445.57756,56.7592751 L446.30726,57.088214 L447.036961,57.5760986 L447.766661,58.2194601 L448.496361,59.0149018 L449.226061,59.9590982 L449.955762,61.0487925 L450.685462,62.2807962 L451.415162,63.6519871 L452.144862,65.1593078 L452.874562,66.799765 L453.604263,68.5704275 L454.333963,70.4684253 L455.063663,72.4909482 L455.79385,74.6367139 L456.52355,76.9001677 L457.25325,79.2800606 L457.982951,81.7738094 L458.712651,84.378885 L459.442351,87.0928106 L460.172051,89.9131615 L460.901751,92.837563 L461.631452,95.8636905 L462.361152,98.9892675 L463.090852,102.212065 L463.820552,105.529901 L464.550253,108.940637 L465.279953,112.442183 L466.009653,116.032488 L466.739353,119.709548 L467.46954,123.460917 L468.19924,127.046399 L468.92894,130.385868 L469.658641,133.484608 L470.388341,136.347793 L471.118041,138.980489 L471.847741,141.387657 L472.577442,143.574154 L473.307142,145.544737 L474.036842,147.304063 L474.766542,148.856692 L475.496243,150.207091 L476.225943,151.359631 L476.955643,152.318594 L477.685343,153.088172 L478.415043,153.67247 L479.144744,154.075508 L479.87493,154.301314 L480.604631,154.353442 L481.334331,154.235877 L482.064031,153.952312 L482.793731,153.506366 L483.523432,152.901581 L484.253132,152.141426 L484.982832,151.229298 L485.712532,150.168523 L486.442232,148.962358 L487.171933,147.61399 L487.901633,146.126543 L488.631333,144.503073 L489.361033,142.746575 L490.090734,140.859979 L490.820434,138.846155 L491.550134,136.707915 L492.280321,134.446462 L493.010021,132.067506 L493.739721,129.57222 L494.469421,126.963185 L495.199122,124.242932 L495.928822,121.413937 L496.658522,118.478625 L497.388222,115.43937 L498.117923,112.298498 L498.847623,109.058284 L499.577323,105.720959 L500.307023,102.288703 L501.036724,98.763655 L501.766424,95.1479064 L502.496124,91.4435061 L503.225824,87.6524601 L503.956011,83.7873244 L504.685711,80.0887342 L505.415411,76.6362509 L506.145112,73.4245908 L506.874812,70.4485805 L507.604512,67.7031539 L508.334212,65.1833506 L509.063913,62.8843134 L509.793613,60.8012862 L510.523313,58.9296119 L511.253013,57.2647302 L511.982713,55.802176 L512.712414,54.5375771 L513.442114,53.4666521 L514.171814,52.585209 L514.901514,51.889143 L515.631215,51.3744347 L516.361401,51.036982 L517.091102,50.8733786 L517.820802,50.8795676 L518.550502,51.0518543 L519.280202,51.3866208 L520.009902,51.8803246 L520.739603,52.5294969 L521.469303,53.3307412 L522.199003,54.2807319 L522.928703,55.3762125 L523.658404,56.6139944 L524.388104,57.9909553 L525.117804,59.5040382 L525.847504,61.1502497 L526.577204,62.9266586 L527.306905,64.8303949 L528.036605,66.8586485 L528.766792,69.0101412 L529.496492,71.2793103 L530.226192,73.664911 L530.955892,76.1643601 L531.685593,78.7751283 L532.415293,81.4947392 L533.144993,84.3207678 L533.874693,87.2508397 L534.604393,90.2826302 L535.334094,93.4138629 L536.063794,96.6423089 L536.793494,99.9657857 L537.523194,103.382157 L538.252895,106.889329 L538.982595,110.485254 L539.712295,114.167927 L540.442482,117.924529 L541.172182,121.514287 L541.901882,124.858054 L542.631582,127.961114 L543.361283,130.828639 L544.090983,133.465696 L544.820683,135.877244 L545.550383,138.06814 L546.280084,140.043141 L547.009784,141.806903 L547.739484,143.363986 L548.469184,144.718855 L549.198885,145.875883 L549.928585,146.839349 L550.658285,147.613447 L551.387985,148.20228 L552.117685,148.609868 L552.847872,148.840241 L553.577572,148.896949 L554.307273,148.783976 L555.036973,148.505016 L555.766673,148.063689 L556.496373,147.463535 L557.226074,146.708023 L557.955774,145.80055 L558.685474,144.744442 L559.415174,143.542954 L560.144874,142.199275 L560.874575,140.716526 L561.604275,139.097766 L562.333975,137.345986 L563.063675,135.464118 L563.793376,133.455032 L564.523076,131.321538 L565.253263,129.064844 L565.982963,126.690651 L566.712663,124.200136 L567.442363,121.595881 L568.172063,118.880414 L568.901764,116.056213 L569.631464,113.125701 L570.361164,110.091254 L571.090864,106.955196 L571.820565,103.719803 L572.550265,100.387303 L573.279965,96.9598796 L574.009665,93.4396689 L574.739366,89.828763 L575.469066,86.1292106 L576.198766,82.3430175 L576.928953,78.4831214 L577.659383,74.7871472 L578.389813,71.3377424 L579.120242,68.1296081 L579.850672,65.1575559 L580.581102,62.4165054 L581.311532,59.9014822 L582.041962,57.6076153 L582.772392,55.5301353 L583.502822,53.6643723 L584.233252,52.0057536 L584.963682,50.5498018 L585.694112,49.2921327 L586.424542,48.2284538 L587.154972,47.3545617 L587.885402,46.6663407 L588.615832,46.159761 L589.346018,45.8309572 L590.076448,45.6758474 L590.806878,45.6907876 L591.537308,45.8720735 L592.267738,46.2160781 L592.998168,46.7192499 L593.728598,47.3781116 L594.459028,48.1892582 L595.189458,49.149356 L595.919888,50.2551405 L596.650318,51.5034155 L597.380748,52.8910513 L598.111177,54.4149836 L598.841607,56.0722119 L599.572037,57.8597983 L600.302467,59.7748663 L601.032897,61.8145991 L601.763084,63.9754993 L602.493514,66.2563068 L603.223944,68.6536779 L603.954374,71.165024 L604.684804,73.78781 L605.415233,76.5195542 L606.145663,79.3578264 L606.876093,82.3002472 L607.606523,85.3444868 L608.336953,88.4882641 L609.067383,91.7293457 L609.797813,95.0655445 L610.528243,98.4947195 L611.258673,102.014774 L611.989103,105.623655 L612.719533,109.319354 L613.449719,113.098628 L614.180149,116.96207 L614.910579,120.906548 L615.641009,124.930216 L616.371439,129.031263 L617.101869,133.207921 L617.832299,137.458454 L618.562729,141.781166 L619.293159,146.174393 L620.023589,150.636509 L620.754019,155.165921 L621.484449,159.761068 L622.214879,164.420423 L622.945309,169.14249 L623.675739,173.925805 L624.406168,178.768935 L625.136598,183.670475 L625.866785,188.549225 L626.597215,193.170329 L627.327645,197.521074 L628.058075,201.60726 L628.788505,205.434563 L629.518935,209.008543 L630.249365,212.334644 L630.979795,215.418195 L631.710225,218.264416 L632.440654,220.878416 L633.171084,223.265199 L633.901514,225.429664 L634.631944,227.37661 L635.362374,229.110733 L636.092804,230.636633 L636.823234,231.958813 L637.553421,233.081342 L638.283851,234.009285 L639.014281,234.746463 L639.744711,235.297015 L640.47514,235.664996 L641.20557,235.854373 L641.936,235.869034 L642.66643,235.712783 L643.39686,235.389347 L644.12729,234.902374 L644.85772,234.255437 L645.58815,233.452032 L646.31858,232.495584 L647.04901,231.389448 L647.77944,230.136906 L648.50987,228.741174 L649.2403,227.2054 L649.970486,225.533244 L650.700916,223.726611 L651.431346,221.78899 L652.161776,219.723274 L652.892206,217.532297 L653.622636,215.218832 L654.353066,212.785596 L655.083496,210.235248 L655.813926,207.570391 L656.544356,204.793576 L657.274786,201.907299 L658.005216,198.914005 L658.735645,195.816086 L659.466075,192.615885 L660.196505,189.315699 L660.926935,185.917772 L661.657365,182.424304 L662.387552,178.83866 L663.117982,175.160558 L663.848412,171.393242 L664.578842,167.538734 L665.309272,163.599013 L666.039702,159.576017 L666.770131,155.471643 L667.500561,151.287751 L668.230991,147.026158 L668.961421,142.688646 L669.691851,138.276959 L670.422281,133.792804 L671.152711,129.237854 L671.883141,124.613744 L672.613571,119.922078 L673.344001,115.164424 L674.074188,110.345052 L674.804617,105.654398 L675.535047,101.231337 L676.265477,97.0701322 L676.995907,93.1651663 L677.726337,89.5109396 L678.456767,86.1020664 L679.187197,82.9332738 L679.917627,79.9993981 L680.648057,77.2953838 L681.378487,74.8162803 L682.108917,72.5572404 L682.839347,70.5135177 L683.569777,68.6804649 L684.300207,67.0535313 L685.030636,65.6282613 L685.761066,64.400292 L686.491253,63.3656644 L687.221683,62.5195074 L687.952113,61.8581019 L688.682543,61.3774374 L689.412973,61.0735871 L690.143403,60.9427061 L690.873833,60.9810296 L691.604263,61.1848713 L692.334693,61.5506215 L693.065122,62.0747463 L693.795552,62.7537849 L694.525982,63.584349 L695.256412,64.5631209 L695.986842,65.686852 L696.717272,66.9523615 L697.447702,68.3565349 L698.178132,69.8963227 L698.908319,71.5681603 L699.638749,73.3702386 L700.369179,75.29916 L701.099608,77.3521215 L701.830038,79.5263785 L702.560468,81.8192439 L703.290898,84.2280864 L704.021328,86.7503298 L704.751758,89.3834515 L705.482188,92.1249816 L706.212618,94.9725018 L706.943048,97.9236441 L707.673478,100.97609 L708.403908,104.12757 L709.134338,107.375861 L709.864768,110.718786 L710.594954,114.150195 L711.325384,117.465357 L712.055814,120.540182 L712.786244,123.379841 L713.516674,125.989397 L714.247104,128.373808 L714.977534,130.537929 L715.707964,132.486511 L716.438394,134.22421 L717.168824,135.755583 L717.899254,137.085092 L718.629684,138.217106 L719.360113,139.155904 L720.090543,139.905673 L720.820973,140.470517 L721.551403,140.854452 L722.281833,141.061409 L723.01202,141.095256 L723.74245,140.959786 L724.47288,140.65865 L725.20331,140.195462 L725.93374,139.573763 L726.66417,138.797017 L727.394599,137.868619 L728.125029,136.79189 L728.855459,135.570083 L729.585889,134.206385 L730.316319,132.703914 L731.046749,131.065724 L731.777179,129.294806 L732.507609,127.394087 L733.238039,125.366434 L733.968469,123.214654 L734.698899,120.941496 L735.429085,118.550467 L736.159515,116.042607 L736.889945,113.421274 L737.620375,110.688995 L738.350805,107.848241 L739.081235,104.901436 L739.811665,101.850951 L740.542095,98.6991066 L741.272525,95.4481771 L742.002955,92.1003883 L742.733385,88.6579196 L743.463815,85.1229047 L744.194245,81.4974332 L744.924675,77.7835506 L745.655105,73.9832602 L746.385534,70.098523 L747.115721,66.1380048 L747.846151,62.3170358 L748.576581,58.7456184 L749.307011,55.4183913 L750.037441,52.3301048 L750.767871,49.4756187 L751.498301,46.8499 L752.228731,44.4480203 L752.959161,42.2651542 L753.689591,40.2965766 L754.42002,38.5376609 L755.15045,36.9838771 L755.88088,35.6307893 L756.61131,34.4740543 L757.34174,33.5094192 L758.07217,32.73272 L758.8026,32.1398792 L759.532787,31.7270126 L760.263217,31.4899369 L760.993647,31.4249918 L761.724076,31.5284293 L762.454506,31.7965796 L763.184936,32.2258494 L763.915366,32.8127205 L764.645796,33.5537477 L765.376226,34.445558 L766.106656,35.4848485 L766.837086,36.6683851 L767.567516,37.9930015 L768.297946,39.455597 L769.028376,41.0531359 L769.758806,42.7826456 L770.489236,44.6412156 L771.219666,46.6259961 L771.949852,48.7334745 L772.680282,50.9623234 L773.410712,53.309186 L774.141142,55.771443 L774.871572,58.3465297 L775.602002,61.0319347 L776.332432,63.8251995 L777.062862,66.7239165 L777.793292,69.7257284 L778.523722,72.8283272 L779.254152,76.029453 L779.984582,79.3268933 L780.715011,82.7184814 L781.445441,86.2020961 L782.175871,89.7756604 L782.906301,93.4371407 L783.636488,97.1832839 L784.366918,101.014637 L785.097348,104.928057 L785.827778,108.921675 L786.558208,112.993661 L787.288638,117.142223 L788.019068,121.365608 L788.749497,125.662097 L789.479927,130.030009 L790.210357,134.467697 L790.940787,138.973549 L791.671217,143.545986 L792.401647,148.183464 L793.132077,152.884468 L793.862507,157.647517 L794.592937,162.471161 L795.323367,167.35398 L796.053554,172.236889 L796.783983,176.875229 L797.514413,181.243174 L798.244843,185.346524 L798.975273,189.190956 L799.705703,192.78203 L800.436133,196.12519 L801.166563,199.225766 L801.896993,202.088977 L802.627423,204.719935 L803.357853,207.123642 L804.088283,209.305 L804.818713,211.268805 L805.549143,213.019755 L806.279573,214.562451 L807.010002,215.901396 L807.740432,217.041 L808.470619,217.985299 L809.201049,218.739149 L809.931479,219.306344 L810.661909,219.690937 L811.392339,219.896898 L812.122769,219.928113 L812.853199,219.788389 L813.583629,219.48145 L814.314059,219.010946 L815.044488,218.380449 L815.774918,217.593457 L816.505348,216.653395 L817.235778,215.563617 L817.966208,214.327407 L818.696638,212.94798 L819.427068,211.428483 L820.157255,209.772575 L820.887685,207.982168 L821.618115,206.060748 L822.348545,204.011207 L823.078974,201.836379 L823.809404,199.539039 L824.539834,197.121902 L825.270264,194.587628 L826.000694,191.938823 L826.731124,189.178034 L827.461554,186.307759 L828.191984,183.330442 L828.922414,180.248478 L829.652844,177.064209 L830.383274,173.77993 L831.113704,170.397887 L831.844134,166.920281 L832.57432,163.35047 L833.30475,159.688184 L834.03518,155.936662 L834.76561,152.097925 L835.49604,148.173953 L836.22647,144.166684 L836.9569,140.078016 L837.68733,135.909807 L838.41776,131.663876 L839.14819,127.342005 L839.87862,122.945937 L840.60905,118.477381 L841.339479,113.938007 L842.069909,109.329453 L842.800339,104.653323 L843.530769,99.9111839 L844.261199,95.1045737 L844.991386,90.3961584 L845.721816,85.9543733 L846.452246,81.77517 L847.182676,77.8529162 L847.913106,74.1820967 L848.643536,70.7573113 L849.373965,67.5732723 L850.104395,64.6248021 L850.834825,61.9068311 L851.565255,59.4143952 L852.295685,57.1426338 L853.026115,55.0867875 L853.756545,53.2421962 L854.486975,51.6042969 L855.217405,50.1686214 L855.947835,48.9307951 L856.678022,47.8868501 L857.408451,47.0318978 L858.138881,46.3622108 L858.869311,45.8737677 L859.599741,45.562631 L860.330171,45.424945 L861.060601,45.4569347 L861.791031,45.6549036 L862.521461,46.0152323 L863.251891,46.5343768 L863.982321,47.2088671 L864.712751,48.0353056 L865.443181,49.0103653 L866.173611,50.1307887 L866.904041,51.3933863 L867.63447,52.7950351 L868.3649,54.3326771 L869.095087,56.0027401 L869.825517,57.8034058 L870.555947,59.7312693 L871.286377,61.78352 L872.016807,63.9574057 L872.747237,66.2502319 L873.477667,68.65936 L874.208097,71.1822069 L874.938527,73.8162429 L875.668956,76.5589914 L876.399386,79.4080274 L877.129816,82.3609765 L877.860246,85.4155138 L878.590676,88.5693631 L879.321106,91.8202955 L880.051536,95.1661288 L880.781723,98.6035659 L881.512153,102.132806 L882.242583,105.750669 L882.973013,109.455152 L883.703442,113.244289 L884.433872,117.116159 L885.164302,121.068878 L885.894732,125.100603 L886.625162,129.209529 L887.355592,133.39389 L888.086022,137.651955 L888.816452,141.98203 L889.546882,146.382456 L890.277312,150.85161 L891.007742,155.387902 L891.738172,159.989775 L892.468602,164.655704 L893.198788,169.358967 L893.929218,173.856764 L894.659648,178.08729 L895.390078,182.05628 L896.120508,185.769347 L896.850938,189.231989 L897.581368,192.449588 L898.311798,195.427414 L899.042228,198.170629 L899.772658,200.684285 L900.503088,202.97333 L901.233518,205.042608 L901.963948,206.896865 L902.694377,208.540743 L903.424807,209.978793 L904.155237,211.215466 L904.885667,212.255124 L905.615854,213.101786 L906.346284,213.760194 L907.076714,214.23413 L907.807144,214.527602 L908.537574,214.644533 L909.268004,214.588766 L909.998433,214.364066 L910.728863,213.974115 L911.459293,213.422522 L912.189723,212.712818 L912.920153,211.848463 L913.650583,210.832843 L914.381013,209.669273 L915.111443,208.361001 L915.841873,206.911206 L916.572303,205.323 L917.30249,203.600028 L918.032919,201.744124 L918.763349,199.758763 L919.493779,197.646806 L920.224209,195.411054 L920.954639,193.05425 L921.685069,190.579079 L922.415499,187.988172 L923.145929,185.284104 L923.876359,182.469395 L924.606789,179.546514 L925.337219,176.517878 L926.067649,173.385853 L926.798079,170.152757 L927.528509,166.820859 L928.258939,163.392379 L928.989368,159.869493 L929.719555,156.25555 L930.449985,152.550226 L931.180415,148.756751 L931.910845,144.877125 L932.641275,140.913305 L933.371705,136.867207 L934.102135,132.740708 L934.832565,128.535644 L935.562995,124.253815 L936.293425,119.896981 L937.023854,115.466868 L937.754284,110.965162 L938.484714,106.393519 L939.215144,101.753555 L939.945574,97.0468556 L940.676004,92.2749726 L941.406434,87.4394249 L942.136621,82.64364 L942.867051,78.1081782 L943.597481,73.837502 L944.327911,69.8259329 L945.05834,66.0679106 L945.78877,62.5579906 L946.5192,59.2908421 L947.24963,56.261245 L947.98006,53.4640882 L948.71049,50.894367 L949.44092,48.5471811 L950.17135,46.417732 L950.90178,44.5013215 L951.63221,42.7933491 L952.36264,41.2893104 L953.09307,39.9847946 L953.823256,38.8758204 L954.553686,37.9574213 L955.284116,37.2258584 L956.014546,36.6770773 L956.744976,36.3071081 L957.475406,36.1120639 L958.205836,36.0881385 L958.936266,36.2316052 L959.666696,36.5388149 L960.397126,37.0061947 L961.127556,37.6302461 L961.857986,38.4075437 L962.588416,39.3347332 L963.318845,40.4085305 L964.049275,41.6257199 L964.779705,42.9831529 L965.510135,44.4777463 L966.240322,46.1059173 L966.970752,47.8657956 L967.701182,49.7539669 L968.431612,51.7675976 L969.162042,53.903913 L969.892472,56.1601964 L970.622902,58.5337878 L971.353331,61.0220826 L972.083761,63.6225307 L972.814191,66.332635 L973.544621,69.1499506 L974.275051,72.0720838 L975.005481,75.0966905 L975.735911,78.2214759 L976.466341,81.4441929 L977.196771,84.7626412 L977.927201,88.1746667 L978.657388,91.6769784 L979.387817,95.269845 L980.118247,98.9500928 L980.848677,102.715742 L981.579107,106.564854 L982.309537,110.495531 L983.039967,114.505914 L983.770397,118.594183 L984.500827,122.758558 L985.231257,126.997294 L985.961687,131.308683 L986.692117,135.691052 L987.422547,140.142765 L988.152977,144.662218 L988.883407,149.247842 L989.613836,153.8981 L990.344023,158.60491 L991.074453,163.155341 L991.804883,167.437577 L992.535313,171.457373 L993.265743,175.22036 L993.996173,178.732053 L994.726603,181.997854 L995.457033,185.02305 L996.187463,187.812819 L996.917893,190.37223 L997.648322,192.706249 L998.378752,194.819735 L999.109182,196.717449 L999.839612,198.404051 L1000.57004,199.884104 L1001.30047,201.162076 L1002.0309,202.242342 L1002.76109,203.128922 L1003.49152,203.826601 L1004.22195,204.339159 L1004.95238,204.670616 L1005.68281,204.824911 L1006.41324,204.805899 L1007.14367,204.617356 L1007.8741,204.262978 L1008.60453,203.746385 L1009.33496,203.071121 L1010.06539,202.240655 L1010.79582,201.258386 L1011.52625,200.127641 L1012.25668,198.851677 L1012.98711,197.433684 L1013.71754,195.876784 L1014.44797,194.184037 L1015.17815,192.359066 L1015.90858,190.403585 L1016.63901,188.321052 L1017.36944,186.114277 L1018.09987,183.786013 L1018.8303,181.338954 L1019.56073,178.775738 L1020.29116,176.098949 L1021.02159,173.311117 L1021.75202,170.414718 L1022.48245,167.412176 L1023.21288,164.305868 L1023.94331,161.098117 L1024.67374,157.7912 L1025.40417,154.387345 L1026.1346,150.888736 L1026.86479,147.298719 L1027.59522,143.616994 L1028.32565,139.846791 L1029.05608,135.990115 L1029.78651,132.04893 L1030.51694,128.025158 L1031.24737,123.920683 L1031.9778,119.737348 L1032.70823,115.476956 L1033.43866,111.141276 L1034.16909,106.732038 L1034.89952,102.250935 L1035.62995,97.699626 L1036.36038,93.079735 L1037.09081,88.392852 L1037.82124,83.6405336 L1038.55167,78.824304 L1039.28186,74.0019835 L1040.01229,69.4187628 L1040.74272,65.1015488 L1041.47315,61.0446374 L1042.20358,57.2424431 L1042.93401,53.6894971 L1043.66444,50.3804442 L1044.39487,47.3100409 L1045.12529,44.4731531 L1045.85572,41.8647533 L1046.58615,39.4799192 L1047.31658,37.3138307 L1048.04701,35.3617683 L1048.77744,33.6191109 L1049.50787,32.0813335 L1050.2383,30.7440055 L1050.96873,29.6027888 L1051.69892,28.6537201 L1052.42935,27.8920089 L1053.15978,27.3139304 L1053.89021,26.915497 L1054.62064,26.6928039 L1055.35107,26.6420279 L1056.0815,26.7594254 L1056.81193,27.0413309 L1057.54236,27.4841554 L1058.27279,28.0843845 L1059.00322,28.8385772 L1059.73365,29.7433643 L1060.46408,30.7954469 L1061.19451,31.9915945 L1061.92494,33.3286446 L1062.65537,34.8035 L1063.38556,36.4125705 L1064.11599,38.1539597 L1064.84642,40.0242469 L1065.57685,42.0205854 L1066.30728,44.1401881 L1067.03771,46.3803261 L1067.76814,48.7383273 L1068.49857,51.2115754 L1069.229,53.7975086 L1069.95943,56.4936187 L1070.68986,59.2974497 L1071.42029,62.206597 L1072.15072,65.2187061 L1072.88115,68.3314716 L1073.61158,71.5426363 L1074.34201,74.8499901 L1075.07244,78.251369 L1075.80262,81.7434759 L1076.53305,85.3265632 L1077.26348,88.9974518 L1077.99391,92.7541527 L1078.72434,96.5947186 L1079.45477,100.517243 L1080.1852,104.519859 L1080.91563,108.600738 L1081.64606,112.758092 L1082.37649,116.990168 L1083.10692,121.29525 L1083.83735,125.671658 L1084.56778,130.117748 L1085.29821,134.63191 L1086.02864,139.212566 L1086.75907,143.858174 L1087.4895,148.567221 L1088.21969,153.179368 L1088.95012,157.523881 L1089.68055,161.604803 L1090.41098,165.42779 L1091.14141,168.99838 L1091.87184,172.321997 L1092.60227,175.403952 L1093.3327,178.249443 L1094.06313,180.863563 L1094.79356,183.251296 L1095.52399,185.417523 L1096.25442,187.367025 L1096.98485,189.104481 L1097.71528,190.634474 L1098.44571,191.961491 L1099.17614,193.089926 L1099.90632,194.0238 L1100.63675,194.767948 L1101.36718,195.326151 L1102.09761,195.702447 L1102.82804,195.90079 L1103.55847,195.925053 L1104.2889,195.779028 L1105.01933,195.466425 L1105.74976,194.99088 L1106.48019,194.355951 L1107.21062,193.565125 L1107.94105,192.621812 L1108.67148,191.529354 L1109.40191,190.291023 L1110.13234,188.91002 L1110.86277,187.389484 L1111.5932,185.732484 L1112.32339,183.942645 L1113.05382,182.021719 L1113.78425,179.973162 L1114.51468,177.799797 L1115.24511,175.504388 L1115.97554,173.08964 L1116.70597,170.558204 L1117.4364,167.912674 L1118.16683,165.15559 L1118.89726,162.289439 L1119.62769,159.316656 L1120.35812,156.239626 L1121.08855,153.060684 L1121.81898,149.782115 L1122.54941,146.406159 L1123.27984,142.935005 L1124.01002,139.372003 L1124.74045,135.716878 L1125.47088,131.972861 L1126.20131,128.141963 L1126.93174,124.226159 L1127.66217,120.227378 L1128.3926,116.147511 L1129.12303,111.98841 L1129.85346,107.751887 L1130.58389,103.439715 L1131.31432,99.0536336 L1132.04475,94.5953429 L1132.77518,90.0665086 L1133.50561,85.4687617 L1134.23604,80.8036987 L1134.96647,76.0728831 L1135.6969,71.2778455 L1136.42709,66.4444854 L1137.15752,61.8149564 L1137.88795,57.452601 L1138.61838,53.3516906 L1139.34881,49.5066159 L1140.07924,45.9118844 L1140.80967,42.562118 L1141.5401,39.4520508 L1142.27053,36.5765264 L1143.00096,33.9304962 L1143.73139,31.5090162 L1144.46182,29.3072461 L1145.19225,27.3204458 L1145.92268,25.5439745 L1146.65311,23.9732879 L1147.38354,22.6039362 L1148.11397,21.4315627 L1148.84416,20.4521958 L1149.57459,19.6610071 L1150.30502,19.0542646 L1151.03545,18.6279632 L1151.76588,18.3781817 L1152.49631,18.3010804 L1153.22674,18.3928996 L1153.95717,18.649958 L1154.6876,19.0686513 L1155.41803,19.6454499 L1156.14846,20.3768982 L1156.87889,21.2596123 L1157.60932,22.2902793 L1158.33975,23.4656548 L1159.07017,24.7825626 L1159.8006,26.2378924 L1160.53079,27.828047 L1161.26122,29.5511048 L1161.99165,31.4036388 L1162.72208,33.3827902 L1163.45251,35.4857601 L1164.18294,37.7098076 L1164.91337,40.0522492 L1165.6438,42.5104574 L1166.37423,45.0818594 L1167.10466,47.7639362 L1167.83509,50.5542213 L1168.56552,53.4502997 L1169.29595,56.4498067 L1170.02638,59.5504272 L1170.75681,62.7498942 L1171.48724,66.045988 L1172.21767,69.4365354 L1172.94786,72.9182336 L1173.67829,76.4913192 L1174.40872,80.1526078 L1175.13915,83.9001018 L1175.86958,87.7318457 L1176.60001,91.6459246 L1177.33044,95.6404636 L1178.06087,99.7136272 L1178.7913,103.863618 L1179.52173,108.088676 L1180.25216,112.387078 L1180.98259,116.757138 L1181.71302,121.197203 L1182.44345,125.705657 L1183.17388,130.280916 L1183.90431,134.921429 L1184.63474,139.625679 L1185.36492,144.292083 L1186.09535,148.698685 L1186.82578,152.840528 L1187.55621,156.723291 L1188.28664,160.352537 L1189.01707,163.733712 L1189.7475,166.87215 L1190.47793,169.773071 L1191.20836,172.44159 L1191.93879,174.882712 L1192.66922,177.101341 L1193.39965,179.102275 L1194.13008,180.890216 L1194.86051,182.469764 L1195.59094,183.845428 L1196.32137,185.021617 L1197.05156,186.00236 L1197.78199,186.792537 L1198.51242,187.395932 L1199.24285,187.816601 L1199.97328,188.058516 L1200.70371,188.125564 L1201.43414,188.021554 L1202.16457,187.750213 L1202.895,187.315191 L1203.62543,186.720064 L1204.35586,185.96833 L1205.08629,185.063417 L1205.81672,184.008679 L1206.54715,182.807403 L1207.27758,181.462804 L1208.00801,179.978033 L1208.73844,178.356174 L1209.46862,176.600854 L1210.19905,174.713857 L1210.92948,172.698644 L1211.65991,170.558047 L1212.39034,168.294843 L1213.12077,165.911749 L1213.8512,163.411427 L1214.58163,160.796482 L1215.31206,158.069464 L1216.04249,155.232872 L1216.77292,152.289152 L1217.50335,149.240697 L1218.23378,146.089854 L1218.96421,142.838917 L1219.69464,139.490135 L1220.42507,136.045708 L1221.1555,132.507791 L1221.88569,128.879718 L1222.61612,125.161138 L1223.34655,121.355265 L1224.07698,117.464082 L1224.80741,113.489527 L1225.53784,109.433498 L1226.26827,105.297855 L1226.9987,101.084419 L1227.72913,96.7949699 L1228.45956,92.4312544 L1229.18999,87.9949804 L1229.92042,83.4878208 L1230.65085,78.9114132 L1231.38128,74.2673613 L1232.11171,69.5572351 L1232.84214,64.7825719 L1233.57233,59.9510983 L1234.30276,55.2741357 L1235.03319,50.8655161 L1235.76362,46.7194863 L1236.49404,42.8304129 L1237.22447,39.19278 L1237.9549,35.8011865 L1238.68533,32.650344 L1239.41576,29.7350741 L1240.14619,27.0503063 L1240.87662,24.5910759 L1241.60705,22.3525214 L1242.33748,20.3298829 L1243.06791,18.5184994 L1243.79834,16.9138071 L1244.52877,15.5113375 L1245.2592,14.306715 L1245.98939,13.2959602 L1246.71982,12.4742058 L1247.45025,11.8377129 L1248.18068,11.3824594 L1248.91111,11.1045071 L1249.64154,11 L1250.37197,11.0651623 L1251.1024,11.296297 L1251.83283,11.6897842 L1252.56326,12.2420794 L1253.29369,12.9497121 L1254.02412,13.8092839 L1254.75455,14.8174676 L1255.48498,15.9710052 L1256.21541,17.2667067 L1256.94584,18.7014485 L1257.67627,20.2721723 L1258.40646,21.9752944 L1259.13689,23.8090181 L1259.86732,25.769927 L1260.59775,27.85521 L1261.32818,30.0621148 L1262.05861,32.3879463 L1262.78904,34.8300656 L1263.51947,37.385889 L1264.2499,40.0528868 L1264.98033,42.8285817 L1265.71076,45.7105485 L1266.44119,48.6964125 L1267.17162,51.7838484 L1267.90205,54.9705796 L1268.63248,58.2543769 L1269.36291,61.6330579 L1270.09309,65.1033143 L1270.82352,68.6653661 L1271.55395,72.3160241 L1272.28438,76.0532822 L1273.01481,79.8751765 L1273.74524,83.7797837 L1274.47567,87.7652212 L1275.2061,91.8296453 L1275.93653,95.971251 L1276.66696,100.188271 L1277.39739,104.478975 L1278.12782,108.841668 L1278.85825,113.274692 L1279.58868,117.776423 L1280.31911,122.345271 L1281.04954,126.979677 L1281.77997,131.678119 L1282.51016,136.384143 L1283.24059,140.852124 L1283.97102,145.054172 L1284.70145,148.995991 L1285.43188,152.683167 L1286.16231,156.12117 L1286.89274,159.315356 L1287.62317,162.270969 L1288.3536,164.993144 L1289.08403,167.486909 L1289.81446,169.757187 L1290.54489,171.8088 L1291.27532,173.646466 L1292.00575,175.274808 L1292.73618,176.698352 L1293.46661,177.921528 L1294.19704,178.948675 L1294.92722,179.783796 L1295.65765,180.431605 L1296.38808,180.895865 L1297.11851,181.180565 L1297.84894,181.28961 L1298.57937,181.226824 L1299.3098,180.995951 L1300.04023,180.600656 L1300.77066,180.04453 L1301.50109,179.331087 L1302.23152,178.463769 L1302.96195,177.445945 L1303.69238,176.280914 L1304.42281,174.971908 L1305.15324,173.522089 L1305.88367,171.934555 L1306.61386,170.212934 L1307.34356,168.360965 L1308.07326,166.380443 L1308.80296,164.274208 L1309.53266,162.045038 L1310.26236,159.695656 L1310.99206,157.228724 L1311.72176,154.646854 L1312.45146,151.952598 L1313.18116,149.14846 L1313.91086,146.236887 L1314.64056,143.220279 L1315.37026,140.100983 L1316.09996,136.8813 L1316.82966,133.563479 L1317.55936,130.149726 L1318.28906,126.642198" id="Shape" stroke="#377EB8" stroke-width="2" sketch:type="MSShapeGroup"></path>
        <path d="M-153.234375,290.640837 L215.652597,290.640837 L215.652597,328.730413 L245.373416,328.730413 L245.373416,254.312168 L285.460019,254.312168 L285.460019,328.730413 L319.956868,328.730413 L319.956868,254.312168 L356.442018,254.312168 L356.442018,328.730413 L394.189596,328.730413 L394.189596,254.312168 L430.129629,254.312168 L430.129629,328.730413 L467.044893,328.730413 L467.044893,254.312168 L502.858356,254.312168 L502.858356,328.730413 L537.052723,328.730413 L537.052723,254.312168 L576.750161,254.312168" id="Path-4" stroke="#FF7F00" stroke-width="2" sketch:type="MSShapeGroup"></path>
        <path d="M-152.477644,103 L714.75776,103" id="Line" stroke="#E41A1C" stroke-width="2" stroke-linecap="square" stroke-dasharray="3,5" sketch:type="MSShapeGroup"></path>
        <text id="u" sketch:type="MSTextLayer" font-family="Helvetica" font-size="12" font-weight="normal" fill="#979797">
            <tspan x="435" y="238">u</tspan>
        </text>
    </g>
</svg>