<svg version="1.1" class="highcharts-root" style="font-family:&quot;Lucida Grande&quot;, &quot;Lucida Sans Unicode&quot;, Arial, Helvetica, sans-serif;font-size:12px;" xmlns="http://www.w3.org/2000/svg" width="800" height="523" viewBox="0 0 800 523"><desc>Created with Highcharts 5.0.9</desc><defs><clipPath id="highcharts-fndqeav-9"><rect x="0" y="0" width="719" height="419" fill="none"></rect></clipPath></defs><rect fill="#ffffff" class="highcharts-background" x="0" y="0" width="800" height="523" rx="0" ry="0"></rect><rect fill="none" class="highcharts-plot-background" x="71" y="10" width="719" height="419"></rect><g class="highcharts-grid highcharts-xaxis-grid "><path fill="none" opacity="1" class="highcharts-grid-line" d="M 76.5 10 L 76.5 429"></path><path fill="none" opacity="1" class="highcharts-grid-line" d="M 147.5 10 L 147.5 429"></path><path fill="none" opacity="1" class="highcharts-grid-line" d="M 218.5 10 L 218.5 429"></path><path fill="none" opacity="1" class="highcharts-grid-line" d="M 288.5 10 L 288.5 429"></path><path fill="none" opacity="1" class="highcharts-grid-line" d="M 359.5 10 L 359.5 429"></path><path fill="none" opacity="1" class="highcharts-grid-line" d="M 429.5 10 L 429.5 429"></path><path fill="none" opacity="1" class="highcharts-grid-line" d="M 500.5 10 L 500.5 429"></path><path fill="none" opacity="1" class="highcharts-grid-line" d="M 571.5 10 L 571.5 429"></path><path fill="none" opacity="1" class="highcharts-grid-line" d="M 641.5 10 L 641.5 429"></path><path fill="none" opacity="1" class="highcharts-grid-line" d="M 712.5 10 L 712.5 429"></path><path fill="none" opacity="1" class="highcharts-grid-line" d="M 782.5 10 L 782.5 429"></path></g><g class="highcharts-grid highcharts-yaxis-grid "><path fill="none" stroke="#aaa" stroke-width="1" opacity="1" class="highcharts-grid-line" d="M 71 429.5 L 790 429.5"></path><path fill="none" stroke="#aaa" stroke-width="1" opacity="1" class="highcharts-grid-line" d="M 71 382.5 L 790 382.5"></path><path fill="none" stroke="#aaa" stroke-width="1" opacity="1" class="highcharts-grid-line" d="M 71 336.5 L 790 336.5"></path><path fill="none" stroke="#aaa" stroke-width="1" opacity="1" class="highcharts-grid-line" d="M 71 289.5 L 790 289.5"></path><path fill="none" stroke="#aaa" stroke-width="1" opacity="1" class="highcharts-grid-line" d="M 71 243.5 L 790 243.5"></path><path fill="none" stroke="#aaa" stroke-width="1" opacity="1" class="highcharts-grid-line" d="M 71 196.5 L 790 196.5"></path><path fill="none" stroke="#aaa" stroke-width="1" opacity="1" class="highcharts-grid-line" d="M 71 150.5 L 790 150.5"></path><path fill="none" stroke="#aaa" stroke-width="1" opacity="1" class="highcharts-grid-line" d="M 71 103.5 L 790 103.5"></path><path fill="none" stroke="#aaa" stroke-width="1" opacity="1" class="highcharts-grid-line" d="M 71 57.5 L 790 57.5"></path><path fill="none" stroke="#aaa" stroke-width="1" opacity="1" class="highcharts-grid-line" d="M 71 9.5 L 790 9.5"></path></g><rect fill="none" class="highcharts-plot-border" x="71" y="10" width="719" height="419"></rect><g class="highcharts-axis highcharts-xaxis "><path fill="none" class="highcharts-tick" stroke="#ccd6eb" stroke-width="1" d="M 76.5 429 L 76.5 439" opacity="1"></path><path fill="none" class="highcharts-tick" stroke="#ccd6eb" stroke-width="1" d="M 147.5 429 L 147.5 439" opacity="1"></path><path fill="none" class="highcharts-tick" stroke="#ccd6eb" stroke-width="1" d="M 218.5 429 L 218.5 439" opacity="1"></path><path fill="none" class="highcharts-tick" stroke="#ccd6eb" stroke-width="1" d="M 288.5 429 L 288.5 439" opacity="1"></path><path fill="none" class="highcharts-tick" stroke="#ccd6eb" stroke-width="1" d="M 359.5 429 L 359.5 439" opacity="1"></path><path fill="none" class="highcharts-tick" stroke="#ccd6eb" stroke-width="1" d="M 429.5 429 L 429.5 439" opacity="1"></path><path fill="none" class="highcharts-tick" stroke="#ccd6eb" stroke-width="1" d="M 500.5 429 L 500.5 439" opacity="1"></path><path fill="none" class="highcharts-tick" stroke="#ccd6eb" stroke-width="1" d="M 571.5 429 L 571.5 439" opacity="1"></path><path fill="none" class="highcharts-tick" stroke="#ccd6eb" stroke-width="1" d="M 641.5 429 L 641.5 439" opacity="1"></path><path fill="none" class="highcharts-tick" stroke="#ccd6eb" stroke-width="1" d="M 712.5 429 L 712.5 439" opacity="1"></path><path fill="none" class="highcharts-tick" stroke="#ccd6eb" stroke-width="1" d="M 782.5 429 L 782.5 439" opacity="1"></path><text x="430.5" text-anchor="middle" transform="translate(0,0)" class="highcharts-axis-title" style="color:#666666;fill:#666666;" y="467"><tspan>Time (min)</tspan></text><path fill="none" class="highcharts-axis-line" stroke="#ccd6eb" stroke-width="1" d="M 71 429.5 L 790 429.5"></path></g><g class="highcharts-axis highcharts-yaxis "><text x="25.140625" text-anchor="middle" transform="translate(0,0) rotate(270 25.140625 219.5)" class="highcharts-axis-title" style="color:#666666;fill:#666666;" y="219.5"><tspan>Temperature (°C)</tspan></text><path fill="none" class="highcharts-axis-line" d="M 71 10 L 71 429"></path></g><g class="highcharts-series-group"><g class="highcharts-series highcharts-series-0 highcharts-line-series highcharts-color-0 " transform="translate(71,10) scale(1 1)" clip-path="url(#highcharts-fndqeav-9)"><path fill="none" d="M 7.0490196078431 381.7167724244287 L 7.7558391372885 381.6013210159595 L 8.4619525533179 381.4111007396392 L 9.1680659693473 381.14766683917907 L 9.8741793853768 380.81261791341257 L 10.580292801406 380.4075192631991 L 11.286406217436 379.9339035834746 L 11.993225746881 379.3926979604824 L 12.700045276326 378.78581586947354 L 13.406864805771 378.1147004731507 L 14.113684335216 377.3807648368018 L 14.82050386466 376.58539255445777 L 15.527323394105 375.72993836202505 L 16.23414292355 374.81572873766396 L 16.940962452995 373.8440624896779 L 17.64778198244 372.81621133217345 L 18.35436614075 371.7339224390761 L 19.06047955678 370.6004689873007 L 19.766592972811 369.4167768031821 L 20.472706388841 368.18396366691064 L 21.178819804871 366.90312405608586 L 21.884933220901 365.5753296300473 L 22.591046636931 364.2016297041401 L 23.297160052961 362.7830517141245 L 24.003273468991 361.3206016709348 L 24.709386885021 359.8152646059872 L 25.415500301051 358.26800500723374 L 26.121613717081 356.6797672461546 L 26.827727133111 355.0514759958765 L 27.533840549141 353.3840366406024 L 28.239953965171 351.6783356765324 L 28.946067381201 349.93524110445355 L 29.652180797231 348.15560281416975 L 30.358764955541 346.34033854621856 L 31.064878371571 344.4967191651597 L 31.770991787601 342.624519579173 L 32.477105203632 340.72440058020163 L 33.183218619662 338.7970091612793 L 33.889332035692 336.84297880335475 L 34.595445451722 334.86292975615805 L 35.301558867752 332.85746931322785 L 36.007672283782 330.82719208122273 L 36.713785699812 328.7726802436394 L 37.419899115842 326.69450381904574 L 38.126012531872 324.59322091395074 L 38.832125947902 322.46937797041755 L 39.538239363932 320.32351000853316 L 40.244352779962 318.15614086383545 L 40.950466195992 315.9677834198097 L 41.657050354302 313.7574610679308 L 42.363163770332 311.53261290964537 L 43.069277186362 309.29596299399805 L 43.775390602392 307.04781458418165 L 44.481504018422 304.7884645832211 L 45.187617434452 302.5182036662034 L 45.893730850483 300.23731640976143 L 46.599844266513 297.94608141886357 L 47.305957682543 295.6447714509712 L 48.012071098573 293.33365353761474 L 48.718184514603 291.01298910344275 L 49.424297930633 288.68303408279775 L 50.130411346663 286.3440390338694 L 50.836524762693 283.9962492504761 L 51.542638178723 281.63990487152057 L 52.248751594753 279.27524098817474 L 52.954865010783 276.90248774883423 L 53.661449169093 274.52081478505613 L 54.367562585123 272.1400543086234 L 55.073676001153 269.7605742364205 L 55.779789417183 267.3823961307582 L 56.485902833213 265.0055410577079 L 57.192016249243 262.6300295974629 L 57.898129665273 260.25588185448555 L 58.604243081304 257.8831174674384 L 59.310356497334 255.51175561891407 L 60.016469913364 253.14181504496 L 60.722583329394 250.77331404440648 L 61.428696745424 248.4062704880012 L 62.134810161454 246.04070182735163 L 62.840923577484 243.67662510368376 L 63.547036993514 241.31405695641786 L 64.253150409544 238.95301363156696 L 64.959263825574 236.59351098995856 L 65.665847983884 234.23611070037282 L 66.371961399914 231.89046167647652 L 67.078074815944 229.55528291758222 L 67.784188231974 227.23039509462626 L 68.490301648004 224.91562256698933 L 69.196415064034 222.6107933058866 L 69.902528480064 220.31573881934466 L 70.608641896094 218.03029407874354 L 71.314755312125 215.7542974468771 L 72.020868728155 213.48759060751956 L 72.726982144185 211.2300184964434 L 73.433095560215 208.98142923388096 L 74.139208976245 206.74167405838347 L 74.845322392275 204.51060726205694 L 75.551435808305 202.2880861271432 L 76.257549224335 200.07397086391876 L 76.964133382645 197.8666575202528 L 77.670246798675 195.67346367013974 L 78.376360214705 193.4969309405063 L 79.082473630735 191.3367419941742 L 79.788587046765 189.1925860597405 L 80.494700462795 187.06415879516243 L 81.200813878825 184.95116215417616 L 81.906927294855 182.85330425549182 L 82.613040710885 180.77029925470544 L 83.319154126915 178.70186721887472 L 84.025267542945 176.6477340036995 L 84.731380958976 174.60763113325388 L 85.437494375006 172.58129568222367 L 86.143607791036 170.56847016058063 L 86.849721207066 168.56890240066315 L 87.555834623096 166.58234544659675 L 88.261948039126 164.60855744601722 L 88.968532197436 162.64648397060148 L 89.674645613466 160.70430207785472 L 90.380759029496 158.78202404087307 L 91.086872445526 156.87925667952635 L 91.792985861556 154.99561496402305 L 92.499099277586 153.1307218455541 L 93.205212693616 151.28420809046486 L 93.911326109646 149.45571211786034 L 94.617439525676 147.64487984059213 L 95.323552941706 145.85136450955434 L 96.029666357736 144.07482656120544 L 96.735779773766 142.31493346826431 L 97.441893189797 140.57135959351058 L 98.148006605827 138.84378604661833 L 98.854120021857 137.13190054396938 L 99.560233437887 135.4353972713741 L 100.26634685392 133.75397674965416 L 100.97293101223 132.08786266130824 L 101.67904442826 130.44392996446703 L 102.38515784429 128.82098780767615 L 103.09127126032 127.21861314711026 L 103.79738467635 125.63639171716147 L 104.50349809238 124.07391784803451 L 105.20961150841 122.53079428712772 L 105.91572492444 121.00663202412346 L 106.62183834047 119.50105011972198 L 107.3279517565 118.01367553792159 L 108.03406517253 116.54414298179904 L 108.74017858856 115.09209473268749 L 109.44629200459 113.65718049270646 L 110.15240542062 112.23905723056532 L 110.85851883665 110.83738903056292 L 111.56463225268 109.45184694473244 L 112.27121641099 108.08120159525254 L 112.97732982702 106.72996122524495 L 113.68344324305 105.39963196322714 L 114.38955665908 104.0897864159868 L 115.09567007511 102.80000606491296 L 115.80178349114 101.52988108158348 L 116.50789690717 100.27901014717116 L 117.2140103232 99.04700027561847 L 117.92012373923 97.83346664047525 L 118.62623715526 96.63803240534168 L 119.33235057129 95.46032855782857 L 120.03846398732 94.2999937469753 L 120.74457740335 93.15667412404031 L 121.45069081938 92.03002318660407 L 122.15680423541 90.91970162591065 L 122.86291765144 89.82537717737767 L 123.56903106747 88.74672447422222 L 124.27561522578 87.6830060899627 L 124.98172864181 86.63869070719494 L 125.68784205784 85.61365231796975 L 126.39395547387 84.60749274621475 L 127.1000688899 83.61982208803272 L 127.80618230593 82.65025853979552 L 128.51229572196 81.69842822981565 L 129.21840913799 80.76396505351045 L 129.92452255402 79.84651051199535 L 130.63063597005 78.9457135540315 L 131.33674938608 78.0612304212575 L 132.04286280211 77.19272449663191 L 132.74897621814 76.33986615603385 L 133.45508963417 75.502332622945 L 134.1612030502 74.67980782614626 L 134.86731646623 73.8719822603777 L 135.57342988226 73.0785528498921 L 136.28001404057 72.29953346556692 L 136.9861274566 71.5381676965701 L 137.69224087263 70.7937488470863 L 138.39835428866 70.06592361469592 L 139.10446770469 69.35434604017144 L 139.81058112072 68.65867735487365 L 140.51669453675 67.97858583131824 L 141.22280795278 67.31374663685591 L 141.92892136881 66.66384169038554 L 142.63503478484 66.02855952204521 L 143.34114820087 65.40759513582702 L 144.0472616169 64.80064987503283 L 144.75337503293 64.20743129054267 L 145.45948844896 63.62765301180815 L 146.16560186499 63.06103462052971 L 146.87171528102 62.50730152696565 L 147.57829943933 61.96582864259079 L 148.28441285536 61.43837423503163 L 148.99052627139 60.92549177271121 L 149.69663968742 60.426874823391756 L 150.40275310345 59.94222332649201 L 151.10886651948 59.471243460664596 L 151.81497993551 59.013647514138995 L 152.52109335154 58.56915375775225 L 153.22720676757 58.13748632061737 L 153.9333201836 57.71837506838028 L 154.63943359963 57.31155548400102 L 155.34554701566 56.916768551017185 L 156.05166043169 56.5337606392315 L 156.75777384772 56.16228339277495 L 157.46388726375 55.80209362049317 L 158.17000067978 55.452953188618324 L 158.87611409581 55.11462891566333 L 159.58269825412 54.786779176373216 L 160.28881167015 54.47080485869327 L 160.99492508618 54.16657813830375 L 161.70103850221 53.87384970676362 L 162.40715191824 53.5923754417492 L 163.11326533427 53.32191629927553 L 163.8193787503 53.06223820815711 L 164.52549216633 52.81311196666172 L 165.23160558236 52.57431314130997 L 165.93771899839 52.345621967781824 L 166.64383241442 52.12682325387976 L 167.34994583045 51.91770628450837 L 168.05605924648 51.71806472863341 L 168.76217266251 51.527696548164556 L 169.46828607854 51.34640390874216 L 170.17439949457 51.173993092369244 L 170.8805129106 51.010274411869034 L 171.58709706891 50.85517638964791 L 172.29321048494 50.709369166814554 L 172.99932390097 50.572594213178604 L 173.705437317 50.444657827668436 L 174.41155073303 50.32537034055815 L 175.11766414906 50.2145460296872 L 175.82377756509 50.11200303841781 L 176.52989098112 50.01756329530025 L 177.23600439715 49.93105243540339 L 177.94211781318 49.85229972328415 L 178.64823122921 49.78113797755475 L 179.35434464524 49.717403497021905 L 180.06045806127 49.66093598835664 L 180.7665714773 49.61157849526745 L 181.47268489333 49.56917732914815 L 182.17879830936 49.53358200116327 L 182.88538246767 49.504628118466826 L 183.5922019971 49.4823660068609 L 184.29902152653 49.46682205411571 L 185.00584105595 49.457850252140815 L 185.71266058538 49.455307636341956 L 186.41948011481 49.45905422230419 L 187.12629964423 49.468952943787826 L 187.83311917366 49.484869592024154 L 188.53993870308 49.50667275626694 L 189.24675823251 49.534233765581405 L 189.95357776194 49.56742663184514 L 190.66039729136 49.60612799393664 L 191.36721682079 49.65021706308039 L 192.07403635022 49.69957556932883 L 192.78085587964 49.75408770916772 L 193.48767540907 49.81364009419667 L 194.1944949385 49.87812170088529 L 194.90107909679 49.947393343998385 L 195.60789862621 50.02132432639792 L 196.31471815564 50.09977080182489 L 197.02153768507 50.182632783412316 L 197.72835721449 50.269812370260865 L 198.43517674392 50.36121370404237 L 199.14199627335 50.45674292650182 L 199.84881580277 50.5563081378491 L 200.5556353322 50.659819356010075 L 201.26245486162 50.767188476728506 L 201.96927439105 50.87832923450452 L 202.67609392048 50.99315716433057 L 203.3829134499 51.11158956423765 L 204.08973297933 51.23354545861088 L 204.79655250876 51.35894556227686 L 205.50337203818 51.487712245329305 L 206.21019156761 51.619769498691596 L 206.9167757259 51.754893021138514 L 207.62359525533 51.892820891380836 L 208.33041478475 52.03342987782406 L 209.03723431418 52.17665865534428 L 209.74405384361 52.322447180048414 L 210.45087337303 52.47073666261798 L 211.15769290246 52.62146954219941 L 211.86451243189 52.77458946085193 L 212.57133196131 52.93004123851318 L 213.27815149074 53.087770848496746 L 213.98497102017 53.24772539349033 L 214.69179054959 53.40985308205899 L 215.39861007902 53.57410320563565 L 216.10542960844 53.74042611599049 L 216.81224913787 53.908773203164 L 217.5190686673 54.07909687387041 L 218.22565282559 54.25129144119427 L 218.93247235501 54.42508837939363 L 219.63929188444 54.60013537470462 L 220.34611141387 54.7764015558904 L 221.05293094329 54.95385669876157 L 221.75975047272 55.132471212713995 L 222.46657000215 55.312216127541774 L 223.17338953157 55.493063080525985 L 223.880209061 55.67498430379385 L 224.58702859043 55.85795261194386 L 225.29384811985 56.04194138991909 L 226.00066764928 56.22692458114096 L 226.70748717871 56.41287667588563 L 227.41430670813 56.59977269990412 L 228.12112623756 56.78758820328113 L 228.82794576699 56.97629924951838 L 229.53476529641 57.16588240485328 L 230.2413494547 57.35618930702515 L 230.94816898413 57.54680334397642 L 231.65498851356 57.73753385172074 L 232.36180804298 57.928374323827654 L 233.06862757241 58.119318393294975 L 233.77544710183 58.3103598296492 L 234.48226663126 58.50149253609851 L 235.18908616069 58.69271054674971 L 235.89590569011 58.88400802387997 L 236.60272521954 59.07537925526759 L 237.30954474897 59.26681865157491 L 238.01636427839 59.45832074379075 L 238.72318380782 59.64988018072353 L 239.43000333725 59.84149172654321 L 240.13682286667 60.0331502583806 L 240.8436423961 60.22485076397135 L 241.55046192553 60.4165883393556 L 242.25704608382 60.60807612980551 L 242.96386561324 60.79894337839869 L 243.67068514267 60.98911748598414 L 244.3775046721 61.17860959227056 L 245.08432420152 61.367430608520976 L 245.79114373095 61.55559122230301 L 246.49796326037 61.74310190213595 L 247.2047827898 61.92997290204676 L 247.91160231923 62.11621426602659 L 248.61842184865 62.3018358323979 L 249.32524137808 62.48684723808918 L 250.03206090751 62.671257922821496 L 250.73888043693 62.85507713320504 L 251.44569996636 63.038313926756246 L 252.15251949579 63.22097717582574 L 252.85933902521 63.403075571448426 L 253.5659231835 63.584552272663586 L 254.27274271293 63.76510240500386 L 254.97956224236 63.94440500856825 L 255.68638177178 64.12248352472471 L 256.39320130121 64.29936090972859 L 257.10002083064 64.47505964481286 L 257.80684036006 64.64960174606313 L 258.51365988949 64.82300877409591 L 259.22047941892 64.99530184352903 L 259.92729894834 65.1665016322537 L 260.63411847777 65.3366283905205 L 261.34093800719 65.50570194983158 L 262.04775753662 65.6737417316495 L 262.75457706605 65.84076675591939 L 263.46139659547 66.00679564942794 L 264.1682161249 66.17184665397042 L 264.87503565433 66.33593763436318 L 265.58161981262 66.49895924439636 L 266.28843934204 66.66054348601028 L 266.99525887147 66.8205717509037 L 267.7020784009 66.97907460004814 L 268.40889793032 67.13608196049319 L 269.11571745975 67.29162313856227 L 269.82253698918 67.44572683275419 L 270.5293565186 67.5984211463878 L 271.23617604803 67.74973359998404 L 271.94299557746 67.89969114338442 L 272.64981510688 68.04832016762072 L 273.35663463631 68.19564651653815 L 274.06345416573 68.34169549817483 L 274.77027369516 68.48649189590776 L 275.47709322459 68.63005997936324 L 276.18391275401 68.77242351510455 L 276.89073228344 68.91360577708826 L 277.59731644173 69.05338808904077 L 278.30413597116 69.19151308271131 L 279.01095550058 69.32795849917477 L 279.71777503001 69.46275808241552 L 280.42459455944 69.59594487567546 L 281.13141408886 69.72755123603326 L 281.83823361829 69.85760884867227 L 282.54505314772 69.98614874085956 L 283.25187267714 70.11320129562671 L 283.95869220657 70.23879626517311 L 284.665511736 70.36296278398606 L 285.37233126542 70.485729381689 L 286.07915079485 70.60712399562459 L 286.78597032428 70.72717398316809 L 287.4927898537 70.84590613379851 L 288.19960938313 70.96334668090441 L 288.90619354142 71.0794759835905 L 289.61301307085 71.19408270447173 L 290.31983260027 71.30698997206883 L 291.0266521297 71.41823245317806 L 291.73347165912 71.52784409414613 L 292.44029118855 71.63585813586405 L 293.14711071798 71.74230712843013 L 293.8539302474 71.84722294552944 L 294.56074977683 71.95063679849704 L 295.26756930626 72.05257925009693 L 295.97438883568 72.15308022801446 L 296.68120836511 72.25216903806506 L 297.38802789454 72.34987437712863 L 298.09484742396 72.44622434581828 L 298.80166695339 72.54124646088155 L 299.50848648282 72.63496766734556 L 300.21530601224 72.72741435040791 L 300.92189017053 72.81852911760257 L 301.62870969996 72.90810246968249 L 302.33552922939 72.99609019393301 L 303.04234875881 73.08252499649291 L 303.74916828824 73.16743890343031 L 304.45598781767 73.25086327488913 L 305.16280734709 73.33282881894598 L 305.86962687652 73.41336560516822 L 306.57644640594 73.49250307790078 L 307.28326593537 73.5702700692687 L 307.9900854648 73.64669481191123 L 308.69690499422 73.7218049514546 L 309.40372452365 73.79562755872075 L 310.11054405308 73.86818914168668 L 310.8173635825 73.93951565718862 L 311.52418311193 74.00963252239046 L 312.23100264136 74.07856462600455 L 312.93758679965 74.14619940927372 L 313.64440632907 74.21242130461548 L 314.3512258585 74.2772347245828 L 315.05804538793 74.34066899897505 L 315.76486491735 74.40275284744894 L 316.47168444678 74.46351439220615 L 317.17850397621 74.52298117042659 L 317.88532350563 74.5811801464356 L 318.59214303506 74.63813772362028 L 319.29896256448 74.69387975610039 L 320.00578209391 74.74843156015066 L 320.71260162334 74.80181792539071 L 321.41942115276 74.85406312574122 L 322.12624068219 74.90519093014933 L 322.83306021162 74.95522461309486 L 323.53987974104 75.00418696487554 L 324.24646389933 75.05207935708216 L 324.95328342876 75.09880775324939 L 325.66010295819 75.14431317948277 L 326.36692248761 75.18862132683512 L 327.07374201704 75.23175735168888 L 327.78056154647 75.27374588687763 L 328.48738107589 75.31461105257586 L 329.19420060532 75.35437646696317 L 329.90102013475 75.39306525666984 L 330.60783966417 75.43070006700088 L 331.3146591936 75.46730307194622 L 332.02147872303 75.50289598398797 L 332.72829825245 75.53750006370046 L 333.43511778188 75.57113612914998 L 334.1419373113 75.60382456510041 L 334.84875684073 75.63558533202752 L 335.55557637016 75.6664379749443 L 336.26216052845 75.69636810529187 L 336.96898005787 75.7253050013698 L 337.6757995873 75.75324594268523 L 338.38261911673 75.78021204111786 L 339.08943864615 75.80622396898644 L 339.79625817558 75.83130196819349 L 340.50307770501 75.85546585917933 L 341.20989723443 75.87873504969076 L 341.91671676386 75.90112854336616 L 342.62353629329 75.92266494813975 L 343.33035582271 75.94336248447439 L 344.03717535214 75.96323899342411 L 344.74399488157 75.98231194452438 L 345.45081441099 76.00059844352239 L 346.15763394042 76.01811523994434 L 346.86445346984 76.03487873450513 L 347.57127299927 76.05090498636594 L 348.27785715756 76.066168544351 L 348.98467668699 76.08064611393951 L 349.69149621641 76.09434910046753 L 350.39831574584 76.10729409032865 L 351.10513527527 76.11949732441519 L 351.81195480469 76.13097470530585 L 352.51877433412 76.14174180430359 L 353.22559386355 76.15181386832893 L 353.93241339297 76.16120582666463 L 354.6392329224 76.16993229756878 L 355.34605245183 76.17800759473948 L 356.05287198125 76.18544573365364 L 356.75969151068 76.19226043777343 L 357.46651104011 76.19846514461312 L 358.17333056953 76.20407301169831 L 358.88015009896 76.20909692238217 L 359.58673425726 76.21354679749521 L 360.29284767331 76.21740864226894 L 360.99896108936 76.22068831346758 L 361.70507450541 76.22339841105463 L 362.41118792146 76.22555127264945 L 363.11730133751 76.22715897898132 L 363.82341475356 76.22823335922436 L 364.52952816961 76.22878599622794 L 365.23564158566 76.22882823163769 L 365.94175500171 76.22837117090398 L 366.64786841776 76.2274256881957 L 367.35398183381 76.22600243120354 L 368.06009524986 76.22411182585131 L 368.76620866591 76.22176408089865 L 369.47232208195 76.21896919245864 L 370.178435498 76.21573694841874 L 370.88454891405 76.21207693276477 L 371.59113307238 76.20799575387781 L 372.29724648843 76.20350837247656 L 373.00335990448 76.19862123195429 L 373.70947332053 76.19334313257258 L 374.41558673658 76.1876826912191 L 375.12170015263 76.18164834522156 L 375.82781356868 76.17524835607458 L 376.53392698473 76.16849081310119 L 377.24004040078 76.16138363702481 L 377.94615381683 76.15393458347836 L 378.65226723288 76.14615124643268 L 379.35838064893 76.13804106155652 L 380.06449406498 76.12961130950856 L 380.77060748103 76.12086911915657 L 381.47672089708 76.111821470736 L 382.18283431313 76.10247519893659 L 382.88894772918 76.09283699592726 L 383.59553188751 76.08291862601692 L 384.30164530356 76.07275480331754 L 385.00775871961 76.0623447620332 L 385.71387213566 76.05169407610288 L 386.41998555171 76.04080820317222 L 387.12609896776 76.02969248701532 L 387.83221238381 76.0183521598999 L 388.53832579986 76.00679234490627 L 389.24443921591 75.99501805819074 L 389.95055263195 75.98303421121739 L 390.656666048 75.970845612929 L 391.36277946405 75.95845697187792 L 392.0688928801 75.94587289831418 L 392.77500629615 75.93309790622703 L 393.4811197122 75.92013641534857 L 394.18723312825 75.90699275310965 L 394.89381728658 75.89366382915762 L 395.59993070263 75.88020286400416 L 396.30604411868 75.86661641478054 L 397.01215753473 75.85290749422114 L 397.71827095078 75.83907905204495 L 398.42438436683 75.82513397627065 L 399.13049778288 75.81107509449322 L 399.83661119893 75.79690517514535 L 400.54272461498 75.78262692872408 L 401.24883803103 75.76824300899483 L 401.95495144708 75.75375601417431 L 402.66106486313 75.73916848808238 L 403.36717827918 75.72448292127234 L 404.07329169523 75.7097017521408 L 404.77940511128 75.69482736801183 L 405.48551852733 75.67986210619483 L 406.19163194338 75.6648082550276 L 406.89821610171 75.64966792155951 L 407.60432951776 75.63450396055805 L 408.31044293381 75.61931171164935 L 409.01655634986 75.60409210593588 L 409.72266976591 75.58884605482478 L 410.42878318195 75.57357445044141 L 411.134896598 75.55827816602942 L 411.84101001405 75.5429580563424 L 412.5471234301 75.5276149580298 L 413.25323684615 75.5122496900139 L 413.9593502622 75.49686305385643 L 414.66546367825 75.48145583412224 L 415.3715770943 75.46602879873058 L 416.07769051035 75.45058269930252 L 416.7838039264 75.43511827150087 L 417.48991734245 75.4196362353602 L 418.1960307585 75.40413729561277 L 418.90261491683 75.38863766242218 L 419.60872833288 75.37319114080759 L 420.31484174893 75.35778690797116 L 421.02095516498 75.34242436367214 L 421.72706858103 75.32710291986047 L 422.43318199708 75.31182200043185 L 423.13929541313 75.29658104097336 L 423.84540882918 75.28137948852617 L 424.55152224523 75.26621680134298 L 425.25763566128 75.25109244865735 L 425.96374907733 75.23600591045931 L 426.66986249338 75.22095667726512 L 427.37597590943 75.20594424990571 L 428.08208932548 75.19096813930793 L 428.78820274153 75.17602786628674 L 429.49431615758 75.16112296133957 L 430.20090031591 75.14624518540154 L 430.90701373195 75.13145458011667 L 431.613127148 75.1167553733402 L 432.31924056405 75.10214588155719 L 433.0253539801 75.08762445602355 L 433.73146739615 75.07318948204198 L 434.4375808122 75.05883937825377 L 435.14369422825 75.04457259594972 L 435.8498076443 75.03038761839127 L 436.55592106035 75.01628296014331 L 437.2620344764 75.00225716642325 L 437.96814789245 74.98830881246892 L 438.6742613085 74.974436502912 L 439.38037472455 74.9606388711689 L 440.0864881406 74.94691457883988 L 440.79260155665 74.93326231512566 L 441.4987149727 74.91968079625622 L 442.20529913103 74.90616972815388 L 442.91141254708 74.89278591465586 L 443.61752596313 74.87952229735896 L 444.32363937918 74.86637653629253 L 445.02975279523 74.85334633995632 L 445.73586621128 74.84042946431282 L 446.44197962733 74.82762371180064 L 447.14809304338 74.81492693036944 L 447.85420645943 74.80233701253366 L 448.56031987548 74.78985189444558 L 449.26643329153 74.77746955499327 L 449.97254670758 74.76518801490693 L 450.67866012363 74.75300533589217 L 451.38477353967 74.74091961978024 L 452.09088695572 74.72892900769034 L 452.79700037177 74.71703167921635 L 453.50311378782 74.70522585162547 L 454.20969794615 74.69352332051477 L 454.9158113622 74.68196453728581 L 455.62192477825 74.6705390408693 L 456.3280381943 74.65924416826226 L 457.03415161035 74.64807731169998 L 457.7402650264 74.6370359174997 L 458.44637844245 74.62611748494231 L 459.1524918585 74.6153195651712 L 459.85860527455 74.60463976011067 L 460.5647186906 74.59407572141794 L 461.27083210665 74.58362514944196 L 461.9769455227 74.57328579221615 L 462.68305893875 74.56305544446849 L 463.3891723548 74.55293194664796 L 464.09528577085 74.54291318397537 L 464.8013991869 74.53299708551498 L 465.50798334523 74.5231766348121 L 466.21409676128 74.51349169855985 L 466.92021017733 74.50394400422294 L 467.62632359338 74.49453076373521 L 468.33243700943 74.48524924690332 L 469.03855042548 74.47609678020939 L 469.74466384153 74.4670707456288 L 470.45077725758 74.45816857948017 L 471.15689067363 74.44938777129369 L 471.86300408967 74.44072586270835 L 472.56911750572 74.43218044638502 L 473.27523092177 74.42374916495208 L 473.98134433782 74.41542970996085 L 474.68745775387 74.40721982087268 L 475.39357116992 74.39911728406076 L 476.09968458597 74.39111993184031 L 476.80579800202 74.38322564150752 L 477.51238216035 74.37543335605335 L 478.2184955764 74.36777612730833 L 478.92460899245 74.3602486688556 L 479.6307224085 74.3528483132481 L 480.33683582455 74.3455724484408 L 481.0429492406 74.33841851664431 L 481.74906265665 74.33138401319127 L 482.4551760727 74.32446648543424 L 483.16128948875 74.31766353166978 L 483.8674029048 74.31097280007265 L 484.57351632085 74.30439198766192 L 485.2796297369 74.2979188392892 L 485.98574315295 74.29155114663888 L 486.691856569 74.28528674725868 L 487.39796998505 74.27912352360613 L 488.1040834011 74.27305940211562 L 488.81019681715 74.26709235228282 L 489.51678097548 74.26122807575177 L 490.22289439153 74.25548675115976 L 490.92900780758 74.24986201107521 L 491.63512122362 74.24435143545293 L 492.34123463967 74.23895265453444 L 493.04734805572 74.23366334780695 L 493.75346147177 74.22848124297877 L 494.45957488782 74.223404114976 L 495.16568830387 74.21842978495903 L 495.87180171992 74.21355611936684 L 496.57791513597 74.20878102897535 L 497.28402855202 74.20410246797184 L 497.99014196807 74.19951843305768 L 498.69625538412 74.19502696256052 L 499.40236880017 74.19062613557173 L 500.10848221622 74.18631407110058 L 500.81506637455 74.18208686098649 L 501.5211797906 74.17796179588578 L 502.22729320665 74.17393902571473 L 502.9334066227 74.17001640809355 L 503.63952003875 74.16619184518134 L 504.3456334548 74.16246328274826 L 505.05174687085 74.15882870927288 L 505.7578602869 74.15528615504815 L 506.46397370295 74.15183369132012 L 507.170087119 74.14846942943154 L 507.87620053505 74.14519151999241 L 508.5823139511 74.14199815205791 L 509.28842736715 74.13888755233671 L 509.9945407832 74.13585798440346 L 510.70065419925 74.13290774793461 L 511.4067676153 74.1300351779588 L 512.11288103134 74.12723864411913 L 512.81946518967 74.12451719815948 L 513.52557860572 74.12188257399862 L 514.23169202177 74.11933214930605 L 514.93780543782 74.116864144879 L 515.64391885387 74.11447681851666 L 516.35003226992 74.11216846425214 L 517.05614568597 74.10993741160132 L 517.76225910202 74.10778202482277 L 518.46837251807 74.10570070219899 L 519.17448593412 74.10369187532501 L 519.88059935017 74.1017540084199 L 520.58671276622 74.0998855976469 L 521.29282618227 74.09808517045121 L 521.99893959832 74.09635128490697 L 522.70505301437 74.09468252908476 L 523.41116643042 74.0930775204244 L 524.11727984647 74.0915349051246 L 524.8238640048 74.0900559476915 L 525.52997742085 74.08864568686352 L 526.2360908369 74.08730168516968 L 526.94220425295 74.08602252872834 L 527.648317669 74.08480683307835 L 528.35443108505 74.08365324256454 L 529.0605445011 74.08256042974062 L 529.76665791715 74.0815270947852 L 530.4727713332 74.08055196492279 L 531.17888474925 74.07963379386825 L 531.8849981653 74.07877136126763 L 532.59111158134 74.07796347216816 L 533.29722499739 74.07720895648401 L 534.00333841344 74.07650666848406 L 534.70945182949 74.07585548628111 L 535.41556524554 74.07525431133968 L 536.12214940387 74.07470186152034 L 536.82826281992 74.07420049836344 L 537.53437623597 74.0737497469442 L 538.24048965202 74.07334851531454 L 538.94660306807 74.07299573426019 L 539.65271648412 74.07269035682447 L 540.35882990017 74.07243135784756 L 541.06494331622 74.07221773351597 L 541.77105673227 74.07204850091398 L 542.47717014832 74.07192269759435 L 543.18328356437 74.07183938114997 L 543.88939698042 74.07179762879758 L 544.59551039647 74.0717965369708 L 545.30162381252 74.07183522091867 L 546.00773722857 74.07191281431955 L 546.71385064462 74.07202846889118 L 547.41996406067 74.07218135402229 L 548.126548219 74.07237090628695 L 548.83266163505 74.072596516219 L 549.5387750511 74.07285755176684 L 550.24488846715 74.07315323664886 L 550.9510018832 74.07348281075417 L 551.65711529925 74.07384552980886 L 552.3632287153 74.07424066504382 L 553.06934213134 74.07466750287739 L 553.77545554739 74.07512534459579 L 554.48156896344 74.07561350604578 L 555.18768237949 74.07613131733018 L 555.89379579554 74.07667812251333 L 556.59990921159 74.07725327933213 L 557.30602262764 74.07785615890953 L 558.01213604369 74.07848614547459 L 558.71824945974 74.07914263609518 L 559.42436287579 74.07982504040797 L 560.13094703412 74.08053247685007 L 560.83706045017 74.08126248183385 L 561.54317386622 74.08201499959819 L 562.24928728227 74.08278952463587 L 562.95540069832 74.0835855619818 L 563.66151411437 74.08440262699423 L 564.36762753042 74.08524024513991 L 565.07374094647 74.08609795178455 L 565.77985436252 74.08697529198867 L 566.48596777857 74.08787182030187 L 567.19208119462 74.08878710057019 L 567.89819461067 74.08972070573981 L 568.60430802672 74.09067221766946 L 569.31042144277 74.09164122694551 L 570.01653485882 74.09262733269856 L 570.72264827487 74.09363014242865 L 571.4292324332 74.09464982752701 L 572.13534584925 74.09568230883968 L 572.8414592653 74.0967270749224 L 573.54757268134 74.09778383675774 L 574.25368609739 74.09885231136792 L 574.95979951344 74.09993222169032 L 575.66591292949 74.10102329645537 L 576.37202634554 74.1021252700607 L 577.07813976159 74.10323788245825 L 577.78425317764 74.10436087903884 L 578.49036659369 74.10549401051827 L 579.19648000974 74.10663703282341 L 579.90259342579 74.10778970698931 L 580.60870684184 74.10895179905049 L 581.31482025789 74.11012307993451 L 582.02093367394 74.1113033253651 L 582.72704708999 74.11249231575948 L 583.43363124832 74.11368983244608 L 584.13974466437 74.1148909225372 L 584.84585808042 74.11609593871634 L 585.55197149647 74.11730477052123 L 586.25808491252 74.1185173098163 L 586.96419832857 74.11973345074136 L 587.67031174462 74.12095308966326 L 588.37642516067 74.1221761251341 L 589.08253857672 74.12340245784179 L 589.78865199277 74.12463199056504 L 590.49476540882 74.12586462813448 L 591.20087882487 74.1271002773845 L 591.90699224092 74.12833884711557 L 592.61310565697 74.12958024805351 L 593.31921907302 74.13082439280453 L 594.02533248906 74.1320711958225 L 594.73144590511 74.1333205733664 L 595.43803006344 74.13457116698316 L 596.14414347949 74.13581867677641 L 596.85025689554 74.13706395236949 L 597.55637031159 74.13830701651352 L 598.26248372764 74.13954789150955 L 598.96859714369 74.14078659922086 L 599.67471055974 74.14202316107679 L 600.38082397579 74.14325759808634 L 601.08693739184 74.14448993084704 L 601.79305080789 74.14572017955112 L 602.49916422394 74.1469483639932 L 603.20527763999 74.14817450358049 L 603.91139105604 74.14939861734177 L 604.61750447209 74.15062072393374 L 605.32361788814 74.15184084164804 L 606.02973130419 74.15305898841854 L 606.73631546252 74.15427580643126 L 607.44242887857 74.15548636621338 L 608.14854229462 74.15669034539576 L 608.85465571067 74.15788786216541 L 609.56076912672 74.15907903227065 L 610.26688254277 74.16026396907273 L 610.97299595882 74.16144278359695 L 611.67910937487 74.16261558457813 L 612.38522279092 74.16378247851259 L 613.09133620697 74.16494356969741 L 613.79744962302 74.16609896028444 L 614.50356303906 74.16724875032082 L 615.20967645511 74.1683930377917 L 615.91578987116 74.16953191866583 L 616.62190328721 74.17066548693356 L 617.32801670326 74.17179383465282 L 618.03413011931 74.17291705198517 L 618.74071427764 74.17403512509446 L 619.44682769369 74.1751433670621 L 620.15294110974 74.17624236600415 L 620.85905452579 74.17733230022202 L 621.56516794184 74.17841334432444 L 622.27128135789 74.17948566930528 L 622.97739477394 74.1805494426207 L 623.68350818999 74.18160482825834 L 624.38962160604 74.18265198681331 L 625.09573502209 74.18369107555566 L 625.80184843814 74.18472224850325 L 626.50796185419 74.18574565648322 L 627.21407527024 74.18676144720501 L 627.92018868629 74.18776976532081 L 628.62630210234 74.18877075249014 L 629.33241551839 74.18976454744433 L 630.03852893444 74.19075128604254 L 630.74511309277 74.19172994071374 L 631.45122650882 74.19269716420882 L 632.15733992487 74.19365382071459 L 632.86345334092 74.1946001202972 L 633.56956675697 74.19553626866866 L 634.27568017301 74.19646246727353 L 634.98179358906 74.19737891338133 L 635.68790700511 74.19828580017065 L 636.39402042116 74.19918331681549 L 637.10013383721 74.20007164856713 L 637.80624725326 74.20095097683839 L 638.51236066931 74.2018214792788 L 639.21847408536 74.20268332985842 L 639.92458750141 74.20353669893956 L 640.63070091746 74.20438175335534 L 641.33681433351 74.20521865647919 L 642.04339849184 74.20604798075823 L 642.74951190789 74.20686634532535 L 643.45562532394 74.20767362319242 L 644.16173873999 74.20847003883978 L 644.86785215604 74.20925581208667 L 645.57396557209 74.21003115819161 L 646.28007898814 74.21079628794172 L 646.98619240419 74.21155140775426 L 647.69230582024 74.21229671975863 L 648.39841923629 74.21303242189293 L 649.10453265234 74.21375870798875 L 649.81064606839 74.21447576784965 L 650.51675948444 74.21518378734652 L 651.22287290049 74.21588294849238 L 651.92898631654 74.21657342952017 L 652.63509973259 74.21725540496817 L 653.34121314864 74.21792904575238 L 654.04779730697 74.21859441766219 L 654.75391072301 74.21924870716657 L 655.46002413906 74.21989236805638 L 656.16613755511 74.2205256182412 L 656.87225097116 74.2211486711036 L 657.57836438721 74.22176173559541 L 658.28447780326 74.2223650163308 L 658.99059121931 74.22295871367294 L 659.69670463536 74.22354302382416 L 660.40281805141 74.22411813891324 L 661.10893146746 74.22468424707972 L 661.81504488351 74.2252415325541 L 662.52115829956 74.22579017574458 L 663.22727171561 74.22633035330887 L 663.93338513166 74.22686223824019 L 664.63949854771 74.22738599993818 L 665.34561196376 74.22790180428461 L 666.05219612209 74.22840913442133 L 666.75830953814 74.22890626439505 L 667.46442295419 74.22939373670943 L 668.17053637024 74.22987175139087 L 668.87664978629 74.23034050430817 L 669.58276320234 74.23080018726051 L 670.28887661839 74.23125098806304 L 670.99499003444 74.23169309062763 L 671.70110345049 74.2321266750435 L 672.40721686654 74.23255191766054 L 673.11333028259 74.23296899116326 L 673.81944369864 74.23337806464781 L 674.52555711469 74.23377930369878 L 675.23167053073 74.23417287045862 L 675.93778394678 74.23455892370208 L 676.64389736283 74.23493761890376 L 677.35048152116 74.23530928598615 L 678.05659493721 74.23567239830658 L 678.76270835326 74.23602694927831 L 679.46882176931 74.23637311783318 L 680.17493518536 74.23671107918176 L 680.88104860141 74.23704100489294 L 681.58716201746 74.23736306297013 L 682.29327543351 74.23767741792125 L 682.99938884956 74.23798423083798 L 683.70550226561 74.23828365946252 L 684.41161568166 74.23857585825755 L 685.11772909771 74.23886097847407 L 685.82384251376 74.23913916821954 L 686.52995592981 74.2394105725221 L 687.23606934586 74.23967533339697 L 687.94218276191 74.2399335899047 L 688.64829617796 74.24018547821748 L 689.35488033629 74.24043106934607 L 690.06099375234 74.24066930939131 L 690.76710716839 74.24090043015241 L 691.47322058444 74.2411245817442 L 692.17933400049 74.2413419111594 L 692.88544741654 74.24155256233445 L 693.59156083259 74.24175667621415 L 694.29767424864 74.2419543908074 L 695.00378766469 74.24214584125855 L 695.70990108073 74.24233115989654 L 696.41601449678 74.24251047630139 L 697.12212791283 74.24268391735694 L 697.82824132888 74.24285160730659 L 698.53435474493 74.24301366781276 L 699.24046816098 74.24317021800636 L 699.94658157703 74.24332137453933 L 700.65269499308 74.24346725163798 L 701.35927915141 74.24360771894419 L 702.06539256746 74.24374230381 L 702.77150598351 74.24387122398394 L 703.47761939956 74.2439946000539 L 704.18373281561 74.24411255009363 L 704.88984623166 74.24422518972489 L 705.59595964771 74.24433263216326 L 706.30207306376 74.24443498826747 L 707.00818647981 74.24453236658962 L 707.71429989586 74.24462487342453 L 708.42041331191 74.2447126128526 L 709.12652672796 74.24479568679135 L 709.83264014401 74.2448741950355 L 710.53875356006 74.2449482353041 L 711.24486697611 74.24501790328247 L 711.95098039216 74.24508329266496" class="highcharts-graph" stroke="#e41a1c" stroke-width="2" stroke-linejoin="round" stroke-linecap="round"></path><path fill="none" d="M -2.9509803921569002 381.7167724244287 L 7.0490196078431 381.7167724244287 L 7.7558391372885 381.6013210159595 L 8.4619525533179 381.4111007396392 L 9.1680659693473 381.14766683917907 L 9.8741793853768 380.81261791341257 L 10.580292801406 380.4075192631991 L 11.286406217436 379.9339035834746 L 11.993225746881 379.3926979604824 L 12.700045276326 378.78581586947354 L 13.406864805771 378.1147004731507 L 14.113684335216 377.3807648368018 L 14.82050386466 376.58539255445777 L 15.527323394105 375.72993836202505 L 16.23414292355 374.81572873766396 L 16.940962452995 373.8440624896779 L 17.64778198244 372.81621133217345 L 18.35436614075 371.7339224390761 L 19.06047955678 370.6004689873007 L 19.766592972811 369.4167768031821 L 20.472706388841 368.18396366691064 L 21.178819804871 366.90312405608586 L 21.884933220901 365.5753296300473 L 22.591046636931 364.2016297041401 L 23.297160052961 362.7830517141245 L 24.003273468991 361.3206016709348 L 24.709386885021 359.8152646059872 L 25.415500301051 358.26800500723374 L 26.121613717081 356.6797672461546 L 26.827727133111 355.0514759958765 L 27.533840549141 353.3840366406024 L 28.239953965171 351.6783356765324 L 28.946067381201 349.93524110445355 L 29.652180797231 348.15560281416975 L 30.358764955541 346.34033854621856 L 31.064878371571 344.4967191651597 L 31.770991787601 342.624519579173 L 32.477105203632 340.72440058020163 L 33.183218619662 338.7970091612793 L 33.889332035692 336.84297880335475 L 34.595445451722 334.86292975615805 L 35.301558867752 332.85746931322785 L 36.007672283782 330.82719208122273 L 36.713785699812 328.7726802436394 L 37.419899115842 326.69450381904574 L 38.126012531872 324.59322091395074 L 38.832125947902 322.46937797041755 L 39.538239363932 320.32351000853316 L 40.244352779962 318.15614086383545 L 40.950466195992 315.9677834198097 L 41.657050354302 313.7574610679308 L 42.363163770332 311.53261290964537 L 43.069277186362 309.29596299399805 L 43.775390602392 307.04781458418165 L 44.481504018422 304.7884645832211 L 45.187617434452 302.5182036662034 L 45.893730850483 300.23731640976143 L 46.599844266513 297.94608141886357 L 47.305957682543 295.6447714509712 L 48.012071098573 293.33365353761474 L 48.718184514603 291.01298910344275 L 49.424297930633 288.68303408279775 L 50.130411346663 286.3440390338694 L 50.836524762693 283.9962492504761 L 51.542638178723 281.63990487152057 L 52.248751594753 279.27524098817474 L 52.954865010783 276.90248774883423 L 53.661449169093 274.52081478505613 L 54.367562585123 272.1400543086234 L 55.073676001153 269.7605742364205 L 55.779789417183 267.3823961307582 L 56.485902833213 265.0055410577079 L 57.192016249243 262.6300295974629 L 57.898129665273 260.25588185448555 L 58.604243081304 257.8831174674384 L 59.310356497334 255.51175561891407 L 60.016469913364 253.14181504496 L 60.722583329394 250.77331404440648 L 61.428696745424 248.4062704880012 L 62.134810161454 246.04070182735163 L 62.840923577484 243.67662510368376 L 63.547036993514 241.31405695641786 L 64.253150409544 238.95301363156696 L 64.959263825574 236.59351098995856 L 65.665847983884 234.23611070037282 L 66.371961399914 231.89046167647652 L 67.078074815944 229.55528291758222 L 67.784188231974 227.23039509462626 L 68.490301648004 224.91562256698933 L 69.196415064034 222.6107933058866 L 69.902528480064 220.31573881934466 L 70.608641896094 218.03029407874354 L 71.314755312125 215.7542974468771 L 72.020868728155 213.48759060751956 L 72.726982144185 211.2300184964434 L 73.433095560215 208.98142923388096 L 74.139208976245 206.74167405838347 L 74.845322392275 204.51060726205694 L 75.551435808305 202.2880861271432 L 76.257549224335 200.07397086391876 L 76.964133382645 197.8666575202528 L 77.670246798675 195.67346367013974 L 78.376360214705 193.4969309405063 L 79.082473630735 191.3367419941742 L 79.788587046765 189.1925860597405 L 80.494700462795 187.06415879516243 L 81.200813878825 184.95116215417616 L 81.906927294855 182.85330425549182 L 82.613040710885 180.77029925470544 L 83.319154126915 178.70186721887472 L 84.025267542945 176.6477340036995 L 84.731380958976 174.60763113325388 L 85.437494375006 172.58129568222367 L 86.143607791036 170.56847016058063 L 86.849721207066 168.56890240066315 L 87.555834623096 166.58234544659675 L 88.261948039126 164.60855744601722 L 88.968532197436 162.64648397060148 L 89.674645613466 160.70430207785472 L 90.380759029496 158.78202404087307 L 91.086872445526 156.87925667952635 L 91.792985861556 154.99561496402305 L 92.499099277586 153.1307218455541 L 93.205212693616 151.28420809046486 L 93.911326109646 149.45571211786034 L 94.617439525676 147.64487984059213 L 95.323552941706 145.85136450955434 L 96.029666357736 144.07482656120544 L 96.735779773766 142.31493346826431 L 97.441893189797 140.57135959351058 L 98.148006605827 138.84378604661833 L 98.854120021857 137.13190054396938 L 99.560233437887 135.4353972713741 L 100.26634685392 133.75397674965416 L 100.97293101223 132.08786266130824 L 101.67904442826 130.44392996446703 L 102.38515784429 128.82098780767615 L 103.09127126032 127.21861314711026 L 103.79738467635 125.63639171716147 L 104.50349809238 124.07391784803451 L 105.20961150841 122.53079428712772 L 105.91572492444 121.00663202412346 L 106.62183834047 119.50105011972198 L 107.3279517565 118.01367553792159 L 108.03406517253 116.54414298179904 L 108.74017858856 115.09209473268749 L 109.44629200459 113.65718049270646 L 110.15240542062 112.23905723056532 L 110.85851883665 110.83738903056292 L 111.56463225268 109.45184694473244 L 112.27121641099 108.08120159525254 L 112.97732982702 106.72996122524495 L 113.68344324305 105.39963196322714 L 114.38955665908 104.0897864159868 L 115.09567007511 102.80000606491296 L 115.80178349114 101.52988108158348 L 116.50789690717 100.27901014717116 L 117.2140103232 99.04700027561847 L 117.92012373923 97.83346664047525 L 118.62623715526 96.63803240534168 L 119.33235057129 95.46032855782857 L 120.03846398732 94.2999937469753 L 120.74457740335 93.15667412404031 L 121.45069081938 92.03002318660407 L 122.15680423541 90.91970162591065 L 122.86291765144 89.82537717737767 L 123.56903106747 88.74672447422222 L 124.27561522578 87.6830060899627 L 124.98172864181 86.63869070719494 L 125.68784205784 85.61365231796975 L 126.39395547387 84.60749274621475 L 127.1000688899 83.61982208803272 L 127.80618230593 82.65025853979552 L 128.51229572196 81.69842822981565 L 129.21840913799 80.76396505351045 L 129.92452255402 79.84651051199535 L 130.63063597005 78.9457135540315 L 131.33674938608 78.0612304212575 L 132.04286280211 77.19272449663191 L 132.74897621814 76.33986615603385 L 133.45508963417 75.502332622945 L 134.1612030502 74.67980782614626 L 134.86731646623 73.8719822603777 L 135.57342988226 73.0785528498921 L 136.28001404057 72.29953346556692 L 136.9861274566 71.5381676965701 L 137.69224087263 70.7937488470863 L 138.39835428866 70.06592361469592 L 139.10446770469 69.35434604017144 L 139.81058112072 68.65867735487365 L 140.51669453675 67.97858583131824 L 141.22280795278 67.31374663685591 L 141.92892136881 66.66384169038554 L 142.63503478484 66.02855952204521 L 143.34114820087 65.40759513582702 L 144.0472616169 64.80064987503283 L 144.75337503293 64.20743129054267 L 145.45948844896 63.62765301180815 L 146.16560186499 63.06103462052971 L 146.87171528102 62.50730152696565 L 147.57829943933 61.96582864259079 L 148.28441285536 61.43837423503163 L 148.99052627139 60.92549177271121 L 149.69663968742 60.426874823391756 L 150.40275310345 59.94222332649201 L 151.10886651948 59.471243460664596 L 151.81497993551 59.013647514138995 L 152.52109335154 58.56915375775225 L 153.22720676757 58.13748632061737 L 153.9333201836 57.71837506838028 L 154.63943359963 57.31155548400102 L 155.34554701566 56.916768551017185 L 156.05166043169 56.5337606392315 L 156.75777384772 56.16228339277495 L 157.46388726375 55.80209362049317 L 158.17000067978 55.452953188618324 L 158.87611409581 55.11462891566333 L 159.58269825412 54.786779176373216 L 160.28881167015 54.47080485869327 L 160.99492508618 54.16657813830375 L 161.70103850221 53.87384970676362 L 162.40715191824 53.5923754417492 L 163.11326533427 53.32191629927553 L 163.8193787503 53.06223820815711 L 164.52549216633 52.81311196666172 L 165.23160558236 52.57431314130997 L 165.93771899839 52.345621967781824 L 166.64383241442 52.12682325387976 L 167.34994583045 51.91770628450837 L 168.05605924648 51.71806472863341 L 168.76217266251 51.527696548164556 L 169.46828607854 51.34640390874216 L 170.17439949457 51.173993092369244 L 170.8805129106 51.010274411869034 L 171.58709706891 50.85517638964791 L 172.29321048494 50.709369166814554 L 172.99932390097 50.572594213178604 L 173.705437317 50.444657827668436 L 174.41155073303 50.32537034055815 L 175.11766414906 50.2145460296872 L 175.82377756509 50.11200303841781 L 176.52989098112 50.01756329530025 L 177.23600439715 49.93105243540339 L 177.94211781318 49.85229972328415 L 178.64823122921 49.78113797755475 L 179.35434464524 49.717403497021905 L 180.06045806127 49.66093598835664 L 180.7665714773 49.61157849526745 L 181.47268489333 49.56917732914815 L 182.17879830936 49.53358200116327 L 182.88538246767 49.504628118466826 L 183.5922019971 49.4823660068609 L 184.29902152653 49.46682205411571 L 185.00584105595 49.457850252140815 L 185.71266058538 49.455307636341956 L 186.41948011481 49.45905422230419 L 187.12629964423 49.468952943787826 L 187.83311917366 49.484869592024154 L 188.53993870308 49.50667275626694 L 189.24675823251 49.534233765581405 L 189.95357776194 49.56742663184514 L 190.66039729136 49.60612799393664 L 191.36721682079 49.65021706308039 L 192.07403635022 49.69957556932883 L 192.78085587964 49.75408770916772 L 193.48767540907 49.81364009419667 L 194.1944949385 49.87812170088529 L 194.90107909679 49.947393343998385 L 195.60789862621 50.02132432639792 L 196.31471815564 50.09977080182489 L 197.02153768507 50.182632783412316 L 197.72835721449 50.269812370260865 L 198.43517674392 50.36121370404237 L 199.14199627335 50.45674292650182 L 199.84881580277 50.5563081378491 L 200.5556353322 50.659819356010075 L 201.26245486162 50.767188476728506 L 201.96927439105 50.87832923450452 L 202.67609392048 50.99315716433057 L 203.3829134499 51.11158956423765 L 204.08973297933 51.23354545861088 L 204.79655250876 51.35894556227686 L 205.50337203818 51.487712245329305 L 206.21019156761 51.619769498691596 L 206.9167757259 51.754893021138514 L 207.62359525533 51.892820891380836 L 208.33041478475 52.03342987782406 L 209.03723431418 52.17665865534428 L 209.74405384361 52.322447180048414 L 210.45087337303 52.47073666261798 L 211.15769290246 52.62146954219941 L 211.86451243189 52.77458946085193 L 212.57133196131 52.93004123851318 L 213.27815149074 53.087770848496746 L 213.98497102017 53.24772539349033 L 214.69179054959 53.40985308205899 L 215.39861007902 53.57410320563565 L 216.10542960844 53.74042611599049 L 216.81224913787 53.908773203164 L 217.5190686673 54.07909687387041 L 218.22565282559 54.25129144119427 L 218.93247235501 54.42508837939363 L 219.63929188444 54.60013537470462 L 220.34611141387 54.7764015558904 L 221.05293094329 54.95385669876157 L 221.75975047272 55.132471212713995 L 222.46657000215 55.312216127541774 L 223.17338953157 55.493063080525985 L 223.880209061 55.67498430379385 L 224.58702859043 55.85795261194386 L 225.29384811985 56.04194138991909 L 226.00066764928 56.22692458114096 L 226.70748717871 56.41287667588563 L 227.41430670813 56.59977269990412 L 228.12112623756 56.78758820328113 L 228.82794576699 56.97629924951838 L 229.53476529641 57.16588240485328 L 230.2413494547 57.35618930702515 L 230.94816898413 57.54680334397642 L 231.65498851356 57.73753385172074 L 232.36180804298 57.928374323827654 L 233.06862757241 58.119318393294975 L 233.77544710183 58.3103598296492 L 234.48226663126 58.50149253609851 L 235.18908616069 58.69271054674971 L 235.89590569011 58.88400802387997 L 236.60272521954 59.07537925526759 L 237.30954474897 59.26681865157491 L 238.01636427839 59.45832074379075 L 238.72318380782 59.64988018072353 L 239.43000333725 59.84149172654321 L 240.13682286667 60.0331502583806 L 240.8436423961 60.22485076397135 L 241.55046192553 60.4165883393556 L 242.25704608382 60.60807612980551 L 242.96386561324 60.79894337839869 L 243.67068514267 60.98911748598414 L 244.3775046721 61.17860959227056 L 245.08432420152 61.367430608520976 L 245.79114373095 61.55559122230301 L 246.49796326037 61.74310190213595 L 247.2047827898 61.92997290204676 L 247.91160231923 62.11621426602659 L 248.61842184865 62.3018358323979 L 249.32524137808 62.48684723808918 L 250.03206090751 62.671257922821496 L 250.73888043693 62.85507713320504 L 251.44569996636 63.038313926756246 L 252.15251949579 63.22097717582574 L 252.85933902521 63.403075571448426 L 253.5659231835 63.584552272663586 L 254.27274271293 63.76510240500386 L 254.97956224236 63.94440500856825 L 255.68638177178 64.12248352472471 L 256.39320130121 64.29936090972859 L 257.10002083064 64.47505964481286 L 257.80684036006 64.64960174606313 L 258.51365988949 64.82300877409591 L 259.22047941892 64.99530184352903 L 259.92729894834 65.1665016322537 L 260.63411847777 65.3366283905205 L 261.34093800719 65.50570194983158 L 262.04775753662 65.6737417316495 L 262.75457706605 65.84076675591939 L 263.46139659547 66.00679564942794 L 264.1682161249 66.17184665397042 L 264.87503565433 66.33593763436318 L 265.58161981262 66.49895924439636 L 266.28843934204 66.66054348601028 L 266.99525887147 66.8205717509037 L 267.7020784009 66.97907460004814 L 268.40889793032 67.13608196049319 L 269.11571745975 67.29162313856227 L 269.82253698918 67.44572683275419 L 270.5293565186 67.5984211463878 L 271.23617604803 67.74973359998404 L 271.94299557746 67.89969114338442 L 272.64981510688 68.04832016762072 L 273.35663463631 68.19564651653815 L 274.06345416573 68.34169549817483 L 274.77027369516 68.48649189590776 L 275.47709322459 68.63005997936324 L 276.18391275401 68.77242351510455 L 276.89073228344 68.91360577708826 L 277.59731644173 69.05338808904077 L 278.30413597116 69.19151308271131 L 279.01095550058 69.32795849917477 L 279.71777503001 69.46275808241552 L 280.42459455944 69.59594487567546 L 281.13141408886 69.72755123603326 L 281.83823361829 69.85760884867227 L 282.54505314772 69.98614874085956 L 283.25187267714 70.11320129562671 L 283.95869220657 70.23879626517311 L 284.665511736 70.36296278398606 L 285.37233126542 70.485729381689 L 286.07915079485 70.60712399562459 L 286.78597032428 70.72717398316809 L 287.4927898537 70.84590613379851 L 288.19960938313 70.96334668090441 L 288.90619354142 71.0794759835905 L 289.61301307085 71.19408270447173 L 290.31983260027 71.30698997206883 L 291.0266521297 71.41823245317806 L 291.73347165912 71.52784409414613 L 292.44029118855 71.63585813586405 L 293.14711071798 71.74230712843013 L 293.8539302474 71.84722294552944 L 294.56074977683 71.95063679849704 L 295.26756930626 72.05257925009693 L 295.97438883568 72.15308022801446 L 296.68120836511 72.25216903806506 L 297.38802789454 72.34987437712863 L 298.09484742396 72.44622434581828 L 298.80166695339 72.54124646088155 L 299.50848648282 72.63496766734556 L 300.21530601224 72.72741435040791 L 300.92189017053 72.81852911760257 L 301.62870969996 72.90810246968249 L 302.33552922939 72.99609019393301 L 303.04234875881 73.08252499649291 L 303.74916828824 73.16743890343031 L 304.45598781767 73.25086327488913 L 305.16280734709 73.33282881894598 L 305.86962687652 73.41336560516822 L 306.57644640594 73.49250307790078 L 307.28326593537 73.5702700692687 L 307.9900854648 73.64669481191123 L 308.69690499422 73.7218049514546 L 309.40372452365 73.79562755872075 L 310.11054405308 73.86818914168668 L 310.8173635825 73.93951565718862 L 311.52418311193 74.00963252239046 L 312.23100264136 74.07856462600455 L 312.93758679965 74.14619940927372 L 313.64440632907 74.21242130461548 L 314.3512258585 74.2772347245828 L 315.05804538793 74.34066899897505 L 315.76486491735 74.40275284744894 L 316.47168444678 74.46351439220615 L 317.17850397621 74.52298117042659 L 317.88532350563 74.5811801464356 L 318.59214303506 74.63813772362028 L 319.29896256448 74.69387975610039 L 320.00578209391 74.74843156015066 L 320.71260162334 74.80181792539071 L 321.41942115276 74.85406312574122 L 322.12624068219 74.90519093014933 L 322.83306021162 74.95522461309486 L 323.53987974104 75.00418696487554 L 324.24646389933 75.05207935708216 L 324.95328342876 75.09880775324939 L 325.66010295819 75.14431317948277 L 326.36692248761 75.18862132683512 L 327.07374201704 75.23175735168888 L 327.78056154647 75.27374588687763 L 328.48738107589 75.31461105257586 L 329.19420060532 75.35437646696317 L 329.90102013475 75.39306525666984 L 330.60783966417 75.43070006700088 L 331.3146591936 75.46730307194622 L 332.02147872303 75.50289598398797 L 332.72829825245 75.53750006370046 L 333.43511778188 75.57113612914998 L 334.1419373113 75.60382456510041 L 334.84875684073 75.63558533202752 L 335.55557637016 75.6664379749443 L 336.26216052845 75.69636810529187 L 336.96898005787 75.7253050013698 L 337.6757995873 75.75324594268523 L 338.38261911673 75.78021204111786 L 339.08943864615 75.80622396898644 L 339.79625817558 75.83130196819349 L 340.50307770501 75.85546585917933 L 341.20989723443 75.87873504969076 L 341.91671676386 75.90112854336616 L 342.62353629329 75.92266494813975 L 343.33035582271 75.94336248447439 L 344.03717535214 75.96323899342411 L 344.74399488157 75.98231194452438 L 345.45081441099 76.00059844352239 L 346.15763394042 76.01811523994434 L 346.86445346984 76.03487873450513 L 347.57127299927 76.05090498636594 L 348.27785715756 76.066168544351 L 348.98467668699 76.08064611393951 L 349.69149621641 76.09434910046753 L 350.39831574584 76.10729409032865 L 351.10513527527 76.11949732441519 L 351.81195480469 76.13097470530585 L 352.51877433412 76.14174180430359 L 353.22559386355 76.15181386832893 L 353.93241339297 76.16120582666463 L 354.6392329224 76.16993229756878 L 355.34605245183 76.17800759473948 L 356.05287198125 76.18544573365364 L 356.75969151068 76.19226043777343 L 357.46651104011 76.19846514461312 L 358.17333056953 76.20407301169831 L 358.88015009896 76.20909692238217 L 359.58673425726 76.21354679749521 L 360.29284767331 76.21740864226894 L 360.99896108936 76.22068831346758 L 361.70507450541 76.22339841105463 L 362.41118792146 76.22555127264945 L 363.11730133751 76.22715897898132 L 363.82341475356 76.22823335922436 L 364.52952816961 76.22878599622794 L 365.23564158566 76.22882823163769 L 365.94175500171 76.22837117090398 L 366.64786841776 76.2274256881957 L 367.35398183381 76.22600243120354 L 368.06009524986 76.22411182585131 L 368.76620866591 76.22176408089865 L 369.47232208195 76.21896919245864 L 370.178435498 76.21573694841874 L 370.88454891405 76.21207693276477 L 371.59113307238 76.20799575387781 L 372.29724648843 76.20350837247656 L 373.00335990448 76.19862123195429 L 373.70947332053 76.19334313257258 L 374.41558673658 76.1876826912191 L 375.12170015263 76.18164834522156 L 375.82781356868 76.17524835607458 L 376.53392698473 76.16849081310119 L 377.24004040078 76.16138363702481 L 377.94615381683 76.15393458347836 L 378.65226723288 76.14615124643268 L 379.35838064893 76.13804106155652 L 380.06449406498 76.12961130950856 L 380.77060748103 76.12086911915657 L 381.47672089708 76.111821470736 L 382.18283431313 76.10247519893659 L 382.88894772918 76.09283699592726 L 383.59553188751 76.08291862601692 L 384.30164530356 76.07275480331754 L 385.00775871961 76.0623447620332 L 385.71387213566 76.05169407610288 L 386.41998555171 76.04080820317222 L 387.12609896776 76.02969248701532 L 387.83221238381 76.0183521598999 L 388.53832579986 76.00679234490627 L 389.24443921591 75.99501805819074 L 389.95055263195 75.98303421121739 L 390.656666048 75.970845612929 L 391.36277946405 75.95845697187792 L 392.0688928801 75.94587289831418 L 392.77500629615 75.93309790622703 L 393.4811197122 75.92013641534857 L 394.18723312825 75.90699275310965 L 394.89381728658 75.89366382915762 L 395.59993070263 75.88020286400416 L 396.30604411868 75.86661641478054 L 397.01215753473 75.85290749422114 L 397.71827095078 75.83907905204495 L 398.42438436683 75.82513397627065 L 399.13049778288 75.81107509449322 L 399.83661119893 75.79690517514535 L 400.54272461498 75.78262692872408 L 401.24883803103 75.76824300899483 L 401.95495144708 75.75375601417431 L 402.66106486313 75.73916848808238 L 403.36717827918 75.72448292127234 L 404.07329169523 75.7097017521408 L 404.77940511128 75.69482736801183 L 405.48551852733 75.67986210619483 L 406.19163194338 75.6648082550276 L 406.89821610171 75.64966792155951 L 407.60432951776 75.63450396055805 L 408.31044293381 75.61931171164935 L 409.01655634986 75.60409210593588 L 409.72266976591 75.58884605482478 L 410.42878318195 75.57357445044141 L 411.134896598 75.55827816602942 L 411.84101001405 75.5429580563424 L 412.5471234301 75.5276149580298 L 413.25323684615 75.5122496900139 L 413.9593502622 75.49686305385643 L 414.66546367825 75.48145583412224 L 415.3715770943 75.46602879873058 L 416.07769051035 75.45058269930252 L 416.7838039264 75.43511827150087 L 417.48991734245 75.4196362353602 L 418.1960307585 75.40413729561277 L 418.90261491683 75.38863766242218 L 419.60872833288 75.37319114080759 L 420.31484174893 75.35778690797116 L 421.02095516498 75.34242436367214 L 421.72706858103 75.32710291986047 L 422.43318199708 75.31182200043185 L 423.13929541313 75.29658104097336 L 423.84540882918 75.28137948852617 L 424.55152224523 75.26621680134298 L 425.25763566128 75.25109244865735 L 425.96374907733 75.23600591045931 L 426.66986249338 75.22095667726512 L 427.37597590943 75.20594424990571 L 428.08208932548 75.19096813930793 L 428.78820274153 75.17602786628674 L 429.49431615758 75.16112296133957 L 430.20090031591 75.14624518540154 L 430.90701373195 75.13145458011667 L 431.613127148 75.1167553733402 L 432.31924056405 75.10214588155719 L 433.0253539801 75.08762445602355 L 433.73146739615 75.07318948204198 L 434.4375808122 75.05883937825377 L 435.14369422825 75.04457259594972 L 435.8498076443 75.03038761839127 L 436.55592106035 75.01628296014331 L 437.2620344764 75.00225716642325 L 437.96814789245 74.98830881246892 L 438.6742613085 74.974436502912 L 439.38037472455 74.9606388711689 L 440.0864881406 74.94691457883988 L 440.79260155665 74.93326231512566 L 441.4987149727 74.91968079625622 L 442.20529913103 74.90616972815388 L 442.91141254708 74.89278591465586 L 443.61752596313 74.87952229735896 L 444.32363937918 74.86637653629253 L 445.02975279523 74.85334633995632 L 445.73586621128 74.84042946431282 L 446.44197962733 74.82762371180064 L 447.14809304338 74.81492693036944 L 447.85420645943 74.80233701253366 L 448.56031987548 74.78985189444558 L 449.26643329153 74.77746955499327 L 449.97254670758 74.76518801490693 L 450.67866012363 74.75300533589217 L 451.38477353967 74.74091961978024 L 452.09088695572 74.72892900769034 L 452.79700037177 74.71703167921635 L 453.50311378782 74.70522585162547 L 454.20969794615 74.69352332051477 L 454.9158113622 74.68196453728581 L 455.62192477825 74.6705390408693 L 456.3280381943 74.65924416826226 L 457.03415161035 74.64807731169998 L 457.7402650264 74.6370359174997 L 458.44637844245 74.62611748494231 L 459.1524918585 74.6153195651712 L 459.85860527455 74.60463976011067 L 460.5647186906 74.59407572141794 L 461.27083210665 74.58362514944196 L 461.9769455227 74.57328579221615 L 462.68305893875 74.56305544446849 L 463.3891723548 74.55293194664796 L 464.09528577085 74.54291318397537 L 464.8013991869 74.53299708551498 L 465.50798334523 74.5231766348121 L 466.21409676128 74.51349169855985 L 466.92021017733 74.50394400422294 L 467.62632359338 74.49453076373521 L 468.33243700943 74.48524924690332 L 469.03855042548 74.47609678020939 L 469.74466384153 74.4670707456288 L 470.45077725758 74.45816857948017 L 471.15689067363 74.44938777129369 L 471.86300408967 74.44072586270835 L 472.56911750572 74.43218044638502 L 473.27523092177 74.42374916495208 L 473.98134433782 74.41542970996085 L 474.68745775387 74.40721982087268 L 475.39357116992 74.39911728406076 L 476.09968458597 74.39111993184031 L 476.80579800202 74.38322564150752 L 477.51238216035 74.37543335605335 L 478.2184955764 74.36777612730833 L 478.92460899245 74.3602486688556 L 479.6307224085 74.3528483132481 L 480.33683582455 74.3455724484408 L 481.0429492406 74.33841851664431 L 481.74906265665 74.33138401319127 L 482.4551760727 74.32446648543424 L 483.16128948875 74.31766353166978 L 483.8674029048 74.31097280007265 L 484.57351632085 74.30439198766192 L 485.2796297369 74.2979188392892 L 485.98574315295 74.29155114663888 L 486.691856569 74.28528674725868 L 487.39796998505 74.27912352360613 L 488.1040834011 74.27305940211562 L 488.81019681715 74.26709235228282 L 489.51678097548 74.26122807575177 L 490.22289439153 74.25548675115976 L 490.92900780758 74.24986201107521 L 491.63512122362 74.24435143545293 L 492.34123463967 74.23895265453444 L 493.04734805572 74.23366334780695 L 493.75346147177 74.22848124297877 L 494.45957488782 74.223404114976 L 495.16568830387 74.21842978495903 L 495.87180171992 74.21355611936684 L 496.57791513597 74.20878102897535 L 497.28402855202 74.20410246797184 L 497.99014196807 74.19951843305768 L 498.69625538412 74.19502696256052 L 499.40236880017 74.19062613557173 L 500.10848221622 74.18631407110058 L 500.81506637455 74.18208686098649 L 501.5211797906 74.17796179588578 L 502.22729320665 74.17393902571473 L 502.9334066227 74.17001640809355 L 503.63952003875 74.16619184518134 L 504.3456334548 74.16246328274826 L 505.05174687085 74.15882870927288 L 505.7578602869 74.15528615504815 L 506.46397370295 74.15183369132012 L 507.170087119 74.14846942943154 L 507.87620053505 74.14519151999241 L 508.5823139511 74.14199815205791 L 509.28842736715 74.13888755233671 L 509.9945407832 74.13585798440346 L 510.70065419925 74.13290774793461 L 511.4067676153 74.1300351779588 L 512.11288103134 74.12723864411913 L 512.81946518967 74.12451719815948 L 513.52557860572 74.12188257399862 L 514.23169202177 74.11933214930605 L 514.93780543782 74.116864144879 L 515.64391885387 74.11447681851666 L 516.35003226992 74.11216846425214 L 517.05614568597 74.10993741160132 L 517.76225910202 74.10778202482277 L 518.46837251807 74.10570070219899 L 519.17448593412 74.10369187532501 L 519.88059935017 74.1017540084199 L 520.58671276622 74.0998855976469 L 521.29282618227 74.09808517045121 L 521.99893959832 74.09635128490697 L 522.70505301437 74.09468252908476 L 523.41116643042 74.0930775204244 L 524.11727984647 74.0915349051246 L 524.8238640048 74.0900559476915 L 525.52997742085 74.08864568686352 L 526.2360908369 74.08730168516968 L 526.94220425295 74.08602252872834 L 527.648317669 74.08480683307835 L 528.35443108505 74.08365324256454 L 529.0605445011 74.08256042974062 L 529.76665791715 74.0815270947852 L 530.4727713332 74.08055196492279 L 531.17888474925 74.07963379386825 L 531.8849981653 74.07877136126763 L 532.59111158134 74.07796347216816 L 533.29722499739 74.07720895648401 L 534.00333841344 74.07650666848406 L 534.70945182949 74.07585548628111 L 535.41556524554 74.07525431133968 L 536.12214940387 74.07470186152034 L 536.82826281992 74.07420049836344 L 537.53437623597 74.0737497469442 L 538.24048965202 74.07334851531454 L 538.94660306807 74.07299573426019 L 539.65271648412 74.07269035682447 L 540.35882990017 74.07243135784756 L 541.06494331622 74.07221773351597 L 541.77105673227 74.07204850091398 L 542.47717014832 74.07192269759435 L 543.18328356437 74.07183938114997 L 543.88939698042 74.07179762879758 L 544.59551039647 74.0717965369708 L 545.30162381252 74.07183522091867 L 546.00773722857 74.07191281431955 L 546.71385064462 74.07202846889118 L 547.41996406067 74.07218135402229 L 548.126548219 74.07237090628695 L 548.83266163505 74.072596516219 L 549.5387750511 74.07285755176684 L 550.24488846715 74.07315323664886 L 550.9510018832 74.07348281075417 L 551.65711529925 74.07384552980886 L 552.3632287153 74.07424066504382 L 553.06934213134 74.07466750287739 L 553.77545554739 74.07512534459579 L 554.48156896344 74.07561350604578 L 555.18768237949 74.07613131733018 L 555.89379579554 74.07667812251333 L 556.59990921159 74.07725327933213 L 557.30602262764 74.07785615890953 L 558.01213604369 74.07848614547459 L 558.71824945974 74.07914263609518 L 559.42436287579 74.07982504040797 L 560.13094703412 74.08053247685007 L 560.83706045017 74.08126248183385 L 561.54317386622 74.08201499959819 L 562.24928728227 74.08278952463587 L 562.95540069832 74.0835855619818 L 563.66151411437 74.08440262699423 L 564.36762753042 74.08524024513991 L 565.07374094647 74.08609795178455 L 565.77985436252 74.08697529198867 L 566.48596777857 74.08787182030187 L 567.19208119462 74.08878710057019 L 567.89819461067 74.08972070573981 L 568.60430802672 74.09067221766946 L 569.31042144277 74.09164122694551 L 570.01653485882 74.09262733269856 L 570.72264827487 74.09363014242865 L 571.4292324332 74.09464982752701 L 572.13534584925 74.09568230883968 L 572.8414592653 74.0967270749224 L 573.54757268134 74.09778383675774 L 574.25368609739 74.09885231136792 L 574.95979951344 74.09993222169032 L 575.66591292949 74.10102329645537 L 576.37202634554 74.1021252700607 L 577.07813976159 74.10323788245825 L 577.78425317764 74.10436087903884 L 578.49036659369 74.10549401051827 L 579.19648000974 74.10663703282341 L 579.90259342579 74.10778970698931 L 580.60870684184 74.10895179905049 L 581.31482025789 74.11012307993451 L 582.02093367394 74.1113033253651 L 582.72704708999 74.11249231575948 L 583.43363124832 74.11368983244608 L 584.13974466437 74.1148909225372 L 584.84585808042 74.11609593871634 L 585.55197149647 74.11730477052123 L 586.25808491252 74.1185173098163 L 586.96419832857 74.11973345074136 L 587.67031174462 74.12095308966326 L 588.37642516067 74.1221761251341 L 589.08253857672 74.12340245784179 L 589.78865199277 74.12463199056504 L 590.49476540882 74.12586462813448 L 591.20087882487 74.1271002773845 L 591.90699224092 74.12833884711557 L 592.61310565697 74.12958024805351 L 593.31921907302 74.13082439280453 L 594.02533248906 74.1320711958225 L 594.73144590511 74.1333205733664 L 595.43803006344 74.13457116698316 L 596.14414347949 74.13581867677641 L 596.85025689554 74.13706395236949 L 597.55637031159 74.13830701651352 L 598.26248372764 74.13954789150955 L 598.96859714369 74.14078659922086 L 599.67471055974 74.14202316107679 L 600.38082397579 74.14325759808634 L 601.08693739184 74.14448993084704 L 601.79305080789 74.14572017955112 L 602.49916422394 74.1469483639932 L 603.20527763999 74.14817450358049 L 603.91139105604 74.14939861734177 L 604.61750447209 74.15062072393374 L 605.32361788814 74.15184084164804 L 606.02973130419 74.15305898841854 L 606.73631546252 74.15427580643126 L 607.44242887857 74.15548636621338 L 608.14854229462 74.15669034539576 L 608.85465571067 74.15788786216541 L 609.56076912672 74.15907903227065 L 610.26688254277 74.16026396907273 L 610.97299595882 74.16144278359695 L 611.67910937487 74.16261558457813 L 612.38522279092 74.16378247851259 L 613.09133620697 74.16494356969741 L 613.79744962302 74.16609896028444 L 614.50356303906 74.16724875032082 L 615.20967645511 74.1683930377917 L 615.91578987116 74.16953191866583 L 616.62190328721 74.17066548693356 L 617.32801670326 74.17179383465282 L 618.03413011931 74.17291705198517 L 618.74071427764 74.17403512509446 L 619.44682769369 74.1751433670621 L 620.15294110974 74.17624236600415 L 620.85905452579 74.17733230022202 L 621.56516794184 74.17841334432444 L 622.27128135789 74.17948566930528 L 622.97739477394 74.1805494426207 L 623.68350818999 74.18160482825834 L 624.38962160604 74.18265198681331 L 625.09573502209 74.18369107555566 L 625.80184843814 74.18472224850325 L 626.50796185419 74.18574565648322 L 627.21407527024 74.18676144720501 L 627.92018868629 74.18776976532081 L 628.62630210234 74.18877075249014 L 629.33241551839 74.18976454744433 L 630.03852893444 74.19075128604254 L 630.74511309277 74.19172994071374 L 631.45122650882 74.19269716420882 L 632.15733992487 74.19365382071459 L 632.86345334092 74.1946001202972 L 633.56956675697 74.19553626866866 L 634.27568017301 74.19646246727353 L 634.98179358906 74.19737891338133 L 635.68790700511 74.19828580017065 L 636.39402042116 74.19918331681549 L 637.10013383721 74.20007164856713 L 637.80624725326 74.20095097683839 L 638.51236066931 74.2018214792788 L 639.21847408536 74.20268332985842 L 639.92458750141 74.20353669893956 L 640.63070091746 74.20438175335534 L 641.33681433351 74.20521865647919 L 642.04339849184 74.20604798075823 L 642.74951190789 74.20686634532535 L 643.45562532394 74.20767362319242 L 644.16173873999 74.20847003883978 L 644.86785215604 74.20925581208667 L 645.57396557209 74.21003115819161 L 646.28007898814 74.21079628794172 L 646.98619240419 74.21155140775426 L 647.69230582024 74.21229671975863 L 648.39841923629 74.21303242189293 L 649.10453265234 74.21375870798875 L 649.81064606839 74.21447576784965 L 650.51675948444 74.21518378734652 L 651.22287290049 74.21588294849238 L 651.92898631654 74.21657342952017 L 652.63509973259 74.21725540496817 L 653.34121314864 74.21792904575238 L 654.04779730697 74.21859441766219 L 654.75391072301 74.21924870716657 L 655.46002413906 74.21989236805638 L 656.16613755511 74.2205256182412 L 656.87225097116 74.2211486711036 L 657.57836438721 74.22176173559541 L 658.28447780326 74.2223650163308 L 658.99059121931 74.22295871367294 L 659.69670463536 74.22354302382416 L 660.40281805141 74.22411813891324 L 661.10893146746 74.22468424707972 L 661.81504488351 74.2252415325541 L 662.52115829956 74.22579017574458 L 663.22727171561 74.22633035330887 L 663.93338513166 74.22686223824019 L 664.63949854771 74.22738599993818 L 665.34561196376 74.22790180428461 L 666.05219612209 74.22840913442133 L 666.75830953814 74.22890626439505 L 667.46442295419 74.22939373670943 L 668.17053637024 74.22987175139087 L 668.87664978629 74.23034050430817 L 669.58276320234 74.23080018726051 L 670.28887661839 74.23125098806304 L 670.99499003444 74.23169309062763 L 671.70110345049 74.2321266750435 L 672.40721686654 74.23255191766054 L 673.11333028259 74.23296899116326 L 673.81944369864 74.23337806464781 L 674.52555711469 74.23377930369878 L 675.23167053073 74.23417287045862 L 675.93778394678 74.23455892370208 L 676.64389736283 74.23493761890376 L 677.35048152116 74.23530928598615 L 678.05659493721 74.23567239830658 L 678.76270835326 74.23602694927831 L 679.46882176931 74.23637311783318 L 680.17493518536 74.23671107918176 L 680.88104860141 74.23704100489294 L 681.58716201746 74.23736306297013 L 682.29327543351 74.23767741792125 L 682.99938884956 74.23798423083798 L 683.70550226561 74.23828365946252 L 684.41161568166 74.23857585825755 L 685.11772909771 74.23886097847407 L 685.82384251376 74.23913916821954 L 686.52995592981 74.2394105725221 L 687.23606934586 74.23967533339697 L 687.94218276191 74.2399335899047 L 688.64829617796 74.24018547821748 L 689.35488033629 74.24043106934607 L 690.06099375234 74.24066930939131 L 690.76710716839 74.24090043015241 L 691.47322058444 74.2411245817442 L 692.17933400049 74.2413419111594 L 692.88544741654 74.24155256233445 L 693.59156083259 74.24175667621415 L 694.29767424864 74.2419543908074 L 695.00378766469 74.24214584125855 L 695.70990108073 74.24233115989654 L 696.41601449678 74.24251047630139 L 697.12212791283 74.24268391735694 L 697.82824132888 74.24285160730659 L 698.53435474493 74.24301366781276 L 699.24046816098 74.24317021800636 L 699.94658157703 74.24332137453933 L 700.65269499308 74.24346725163798 L 701.35927915141 74.24360771894419 L 702.06539256746 74.24374230381 L 702.77150598351 74.24387122398394 L 703.47761939956 74.2439946000539 L 704.18373281561 74.24411255009363 L 704.88984623166 74.24422518972489 L 705.59595964771 74.24433263216326 L 706.30207306376 74.24443498826747 L 707.00818647981 74.24453236658962 L 707.71429989586 74.24462487342453 L 708.42041331191 74.2447126128526 L 709.12652672796 74.24479568679135 L 709.83264014401 74.2448741950355 L 710.53875356006 74.2449482353041 L 711.24486697611 74.24501790328247 L 711.95098039216 74.24508329266496 L 721.95098039216 74.24508329266496" stroke-linejoin="round" visibility="visible" stroke="rgba(192,192,192,0.0001)" stroke-width="22" class="highcharts-tracker"></path></g><g class="highcharts-markers highcharts-series-0 highcharts-line-series highcharts-color-0 highcharts-tracker " transform="translate(71,10) scale(1 1)" clip-path="none"><path fill="#e41a1c" d="M 711 74.24508329266496 A 0 0 0 1 1 711 74.24508329266496 Z" class="highcharts-halo highcharts-color-0" fill-opacity="0.25"></path><path fill="#FFFFFF" d="M 717 74.24508329266496 A 6 6 0 1 1 716.9999970000002 74.23908329366496 Z" stroke="#e41a1c" stroke-width="3" visibility="hidden"></path></g></g><g class="highcharts-legend" transform="translate(311,482)"><rect fill="none" class="highcharts-legend-box" rx="0" ry="0" x="0" y="0" width="177" height="26" visibility="visible"></rect><g><g><g class="highcharts-legend-item highcharts-line-series highcharts-color-0 highcharts-series-0" transform="translate(8,3)"><path fill="none" d="M 0 11 L 16 11" class="highcharts-graph" stroke="#e41a1c" stroke-width="2"></path><text x="21" style="color:#333333;font-size:12px;font-weight:bold;cursor:pointer;fill:#333333;" text-anchor="start" y="15"><tspan>Measured temperature</tspan></text></g></g></g></g><g class="highcharts-axis-labels highcharts-xaxis-labels "><text x="77.34290619181378" style="color:#666666;cursor:default;font-size:11px;fill:#666666;" text-anchor="middle" transform="translate(0,0)" y="448" opacity="1">0</text><text x="147.9542477947477" style="color:#666666;cursor:default;font-size:11px;fill:#666666;" text-anchor="middle" transform="translate(0,0)" y="448" opacity="1">0.1</text><text x="218.5655893976816" style="color:#666666;cursor:default;font-size:11px;fill:#666666;" text-anchor="middle" transform="translate(0,0)" y="448" opacity="1">0.2</text><text x="289.17693100061547" style="color:#666666;cursor:default;font-size:11px;fill:#666666;" text-anchor="middle" transform="translate(0,0)" y="448" opacity="1">0.3</text><text x="359.78827260354944" style="color:#666666;cursor:default;font-size:11px;fill:#666666;" text-anchor="middle" transform="translate(0,0)" y="448" opacity="1">0.4</text><text x="430.3996142064833" style="color:#666666;cursor:default;font-size:11px;fill:#666666;" text-anchor="middle" transform="translate(0,0)" y="448" opacity="1">0.5</text><text x="501.01095580941717" style="color:#666666;cursor:default;font-size:11px;fill:#666666;" text-anchor="middle" transform="translate(0,0)" y="448" opacity="1">0.6</text><text x="571.6222974123511" style="color:#666666;cursor:default;font-size:11px;fill:#666666;" text-anchor="middle" transform="translate(0,0)" y="448" opacity="1">0.7</text><text x="642.233639015285" style="color:#666666;cursor:default;font-size:11px;fill:#666666;" text-anchor="middle" transform="translate(0,0)" y="448" opacity="1">0.8</text><text x="712.844980618219" style="color:#666666;cursor:default;font-size:11px;fill:#666666;" text-anchor="middle" transform="translate(0,0)" y="448" opacity="1">0.9</text><text x="783.456322221153" style="color:#666666;cursor:default;font-size:11px;fill:#666666;" text-anchor="middle" transform="translate(0,0)" y="448" opacity="1">1</text></g><g class="highcharts-axis-labels highcharts-yaxis-labels "><text x="56" style="color:#666666;cursor:default;font-size:11px;fill:#666666;" text-anchor="end" transform="translate(0,0)" y="434" opacity="1"><tspan>0</tspan></text><text x="56" style="color:#666666;cursor:default;font-size:11px;fill:#666666;" text-anchor="end" transform="translate(0,0)" y="387" opacity="1"><tspan>25</tspan></text><text x="56" style="color:#666666;cursor:default;font-size:11px;fill:#666666;" text-anchor="end" transform="translate(0,0)" y="340" opacity="1"><tspan>50</tspan></text><text x="56" style="color:#666666;cursor:default;font-size:11px;fill:#666666;" text-anchor="end" transform="translate(0,0)" y="294" opacity="1"><tspan>75</tspan></text><text x="56" style="color:#666666;cursor:default;font-size:11px;fill:#666666;" text-anchor="end" transform="translate(0,0)" y="247" opacity="1"><tspan>100</tspan></text><text x="56" style="color:#666666;cursor:default;font-size:11px;fill:#666666;" text-anchor="end" transform="translate(0,0)" y="201" opacity="1"><tspan>125</tspan></text><text x="56" style="color:#666666;cursor:default;font-size:11px;fill:#666666;" text-anchor="end" transform="translate(0,0)" y="154" opacity="1"><tspan>150</tspan></text><text x="56" style="color:#666666;cursor:default;font-size:11px;fill:#666666;" text-anchor="end" transform="translate(0,0)" y="108" opacity="1"><tspan>175</tspan></text><text x="56" style="color:#666666;cursor:default;font-size:11px;fill:#666666;" text-anchor="end" transform="translate(0,0)" y="61" opacity="1"><tspan>200</tspan></text><text x="56" style="color:#666666;cursor:default;font-size:11px;fill:#666666;" text-anchor="end" transform="translate(0,0)" y="15" opacity="1"><tspan>225</tspan></text></g><text x="790" class="highcharts-credits" text-anchor="end" style="cursor:pointer;color:#999999;font-size:9px;fill:#999999;" y="518"></text><g class="highcharts-label highcharts-tooltip highcharts-color-0" style="cursor:default;pointer-events:none;white-space:nowrap;" transform="translate(574,-9999)" opacity="0" visibility="visible"><path fill="none" class="highcharts-label-box highcharts-tooltip-box" d="M 3.5 0.5 L 221.5 0.5 C 224.5 0.5 224.5 0.5 224.5 3.5 L 224.5 43.5 C 224.5 46.5 224.5 46.5 221.5 46.5 L 214.5 46.5 208.5 52.5 202.5 46.5 3.5 46.5 C 0.5 46.5 0.5 46.5 0.5 43.5 L 0.5 3.5 C 0.5 0.5 0.5 0.5 3.5 0.5" isShadow="true" stroke="#000000" stroke-opacity="0.049999999999999996" stroke-width="5" transform="translate(1, 1)"></path><path fill="none" class="highcharts-label-box highcharts-tooltip-box" d="M 3.5 0.5 L 221.5 0.5 C 224.5 0.5 224.5 0.5 224.5 3.5 L 224.5 43.5 C 224.5 46.5 224.5 46.5 221.5 46.5 L 214.5 46.5 208.5 52.5 202.5 46.5 3.5 46.5 C 0.5 46.5 0.5 46.5 0.5 43.5 L 0.5 3.5 C 0.5 0.5 0.5 0.5 3.5 0.5" isShadow="true" stroke="#000000" stroke-opacity="0.09999999999999999" stroke-width="3" transform="translate(1, 1)"></path><path fill="none" class="highcharts-label-box highcharts-tooltip-box" d="M 3.5 0.5 L 221.5 0.5 C 224.5 0.5 224.5 0.5 224.5 3.5 L 224.5 43.5 C 224.5 46.5 224.5 46.5 221.5 46.5 L 214.5 46.5 208.5 52.5 202.5 46.5 3.5 46.5 C 0.5 46.5 0.5 46.5 0.5 43.5 L 0.5 3.5 C 0.5 0.5 0.5 0.5 3.5 0.5" isShadow="true" stroke="#000000" stroke-opacity="0.15" stroke-width="1" transform="translate(1, 1)"></path><path fill="rgba(247,247,247,0.85)" class="highcharts-label-box highcharts-tooltip-box" d="M 3.5 0.5 L 221.5 0.5 C 224.5 0.5 224.5 0.5 224.5 3.5 L 224.5 43.5 C 224.5 46.5 224.5 46.5 221.5 46.5 L 214.5 46.5 208.5 52.5 202.5 46.5 3.5 46.5 C 0.5 46.5 0.5 46.5 0.5 43.5 L 0.5 3.5 C 0.5 0.5 0.5 0.5 3.5 0.5" stroke="#e41a1c" stroke-width="1"></path><text x="8" style="font-size:12px;color:#333333;fill:#333333;" y="20"><tspan>1.00</tspan><tspan style="fill: #e41a1c; font-weight: bold;" x="8" dy="15">Measured temperature</tspan><tspan dx="0">: </tspan><tspan style="font-weight:bold" dx="0">185.13</tspan><tspan dx="0"> °C</tspan></text></g></svg>