<svg version="1.1" class="highcharts-root" style="font-family:&quot;Lucida Grande&quot;, &quot;Lucida Sans Unicode&quot;, Arial, Helvetica, sans-serif;font-size:12px;" xmlns="http://www.w3.org/2000/svg" width="800" height="523" viewBox="0 0 800 523"><desc>Created with Highcharts 5.0.9</desc><defs><clipPath id="highcharts-fndqeav-13"><rect x="0" y="0" width="719" height="419" fill="none"></rect></clipPath></defs><rect fill="#ffffff" class="highcharts-background" x="0" y="0" width="800" height="523" rx="0" ry="0"></rect><rect fill="none" class="highcharts-plot-background" x="71" y="10" width="719" height="419"></rect><g class="highcharts-grid highcharts-xaxis-grid "><path fill="none" opacity="1" class="highcharts-grid-line" d="M 76.5 10 L 76.5 429"></path><path fill="none" opacity="1" class="highcharts-grid-line" d="M 147.5 10 L 147.5 429"></path><path fill="none" opacity="1" class="highcharts-grid-line" d="M 218.5 10 L 218.5 429"></path><path fill="none" opacity="1" class="highcharts-grid-line" d="M 288.5 10 L 288.5 429"></path><path fill="none" opacity="1" class="highcharts-grid-line" d="M 359.5 10 L 359.5 429"></path><path fill="none" opacity="1" class="highcharts-grid-line" d="M 429.5 10 L 429.5 429"></path><path fill="none" opacity="1" class="highcharts-grid-line" d="M 500.5 10 L 500.5 429"></path><path fill="none" opacity="1" class="highcharts-grid-line" d="M 571.5 10 L 571.5 429"></path><path fill="none" opacity="1" class="highcharts-grid-line" d="M 641.5 10 L 641.5 429"></path><path fill="none" opacity="1" class="highcharts-grid-line" d="M 712.5 10 L 712.5 429"></path><path fill="none" opacity="1" class="highcharts-grid-line" d="M 782.5 10 L 782.5 429"></path></g><g class="highcharts-grid highcharts-yaxis-grid "><path fill="none" stroke="#aaa" stroke-width="1" opacity="1" class="highcharts-grid-line" d="M 71 429.5 L 790 429.5"></path><path fill="none" stroke="#aaa" stroke-width="1" opacity="1" class="highcharts-grid-line" d="M 71 382.5 L 790 382.5"></path><path fill="none" stroke="#aaa" stroke-width="1" opacity="1" class="highcharts-grid-line" d="M 71 336.5 L 790 336.5"></path><path fill="none" stroke="#aaa" stroke-width="1" opacity="1" class="highcharts-grid-line" d="M 71 289.5 L 790 289.5"></path><path fill="none" stroke="#aaa" stroke-width="1" opacity="1" class="highcharts-grid-line" d="M 71 243.5 L 790 243.5"></path><path fill="none" stroke="#aaa" stroke-width="1" opacity="1" class="highcharts-grid-line" d="M 71 196.5 L 790 196.5"></path><path fill="none" stroke="#aaa" stroke-width="1" opacity="1" class="highcharts-grid-line" d="M 71 150.5 L 790 150.5"></path><path fill="none" stroke="#aaa" stroke-width="1" opacity="1" class="highcharts-grid-line" d="M 71 103.5 L 790 103.5"></path><path fill="none" stroke="#aaa" stroke-width="1" opacity="1" class="highcharts-grid-line" d="M 71 57.5 L 790 57.5"></path><path fill="none" stroke="#aaa" stroke-width="1" opacity="1" class="highcharts-grid-line" d="M 71 9.5 L 790 9.5"></path></g><rect fill="none" class="highcharts-plot-border" x="71" y="10" width="719" height="419"></rect><g class="highcharts-axis highcharts-xaxis "><path fill="none" class="highcharts-tick" stroke="#ccd6eb" stroke-width="1" d="M 76.5 429 L 76.5 439" opacity="1"></path><path fill="none" class="highcharts-tick" stroke="#ccd6eb" stroke-width="1" d="M 147.5 429 L 147.5 439" opacity="1"></path><path fill="none" class="highcharts-tick" stroke="#ccd6eb" stroke-width="1" d="M 218.5 429 L 218.5 439" opacity="1"></path><path fill="none" class="highcharts-tick" stroke="#ccd6eb" stroke-width="1" d="M 288.5 429 L 288.5 439" opacity="1"></path><path fill="none" class="highcharts-tick" stroke="#ccd6eb" stroke-width="1" d="M 359.5 429 L 359.5 439" opacity="1"></path><path fill="none" class="highcharts-tick" stroke="#ccd6eb" stroke-width="1" d="M 429.5 429 L 429.5 439" opacity="1"></path><path fill="none" class="highcharts-tick" stroke="#ccd6eb" stroke-width="1" d="M 500.5 429 L 500.5 439" opacity="1"></path><path fill="none" class="highcharts-tick" stroke="#ccd6eb" stroke-width="1" d="M 571.5 429 L 571.5 439" opacity="1"></path><path fill="none" class="highcharts-tick" stroke="#ccd6eb" stroke-width="1" d="M 641.5 429 L 641.5 439" opacity="1"></path><path fill="none" class="highcharts-tick" stroke="#ccd6eb" stroke-width="1" d="M 712.5 429 L 712.5 439" opacity="1"></path><path fill="none" class="highcharts-tick" stroke="#ccd6eb" stroke-width="1" d="M 782.5 429 L 782.5 439" opacity="1"></path><text x="430.5" text-anchor="middle" transform="translate(0,0)" class="highcharts-axis-title" style="color:#666666;fill:#666666;" y="467"><tspan>Time (min)</tspan></text><path fill="none" class="highcharts-axis-line" stroke="#ccd6eb" stroke-width="1" d="M 71 429.5 L 790 429.5"></path></g><g class="highcharts-axis highcharts-yaxis "><text x="25.140625" text-anchor="middle" transform="translate(0,0) rotate(270 25.140625 219.5)" class="highcharts-axis-title" style="color:#666666;fill:#666666;" y="219.5"><tspan>Temperature (°C)</tspan></text><path fill="none" class="highcharts-axis-line" d="M 71 10 L 71 429"></path></g><g class="highcharts-series-group"><g class="highcharts-series highcharts-series-0 highcharts-line-series highcharts-color-0 " transform="translate(71,10) scale(1 1)" clip-path="url(#highcharts-fndqeav-13)"><path fill="none" d="M 7.0490196078431 381.7167724244287 L 7.7558391372885 381.6013210159595 L 8.4619525533179 381.4111007396392 L 9.1680659693473 381.14766683917907 L 9.8741793853768 380.81261791341257 L 10.580292801406 380.4075192631991 L 11.286406217436 379.9339035834746 L 11.993225746881 379.3926979604824 L 12.700045276326 378.78581586947354 L 13.406864805771 378.1147004731507 L 14.113684335216 377.3807648368018 L 14.82050386466 376.58539255445777 L 15.527323394105 375.72993836202505 L 16.23414292355 374.81572873766396 L 16.940962452995 373.8440624896779 L 17.64778198244 372.81621133217345 L 18.35436614075 371.7338457270436 L 19.06047955678 370.59930403026897 L 19.766592972811 369.41325797273237 L 20.472706388841 368.17685292356674 L 21.178819804871 366.89121037469437 L 21.884933220901 365.55742843710067 L 22.591046636931 364.17658232679366 L 23.297160052961 362.74972484066546 L 24.003273468991 361.2778868224642 L 24.709386885021 359.7620776190824 L 25.415500301051 358.20328552736333 L 26.121613717081 356.60247823162183 L 26.827727133111 354.9606032320725 L 27.533840549141 353.2785882643551 L 28.239953965171 351.5573417103426 L 28.946067381201 349.7977530004089 L 29.652180797231 348.00069300734026 L 30.358764955541 346.16680693688505 L 31.064878371571 344.30254439600645 L 31.770991787601 342.40765039951566 L 32.477105203632 340.4828308459146 L 33.183218619662 338.528776894947 L 33.889332035692 336.54616527395797 L 34.595445451722 334.535658577886 L 35.301558867752 332.49790556302105 L 36.007672283782 330.43354143465893 L 36.713785699812 328.3431881287753 L 37.419899115842 326.22745458785 L 38.126012531872 324.0869370309542 L 38.832125947902 321.92221921823045 L 39.538239363932 319.7338727098707 L 40.244352779962 317.52245711971807 L 40.950466195992 315.2885203635926 L 41.657050354302 313.0310881885693 L 42.363163770332 310.7571691083115 L 43.069277186362 308.4690008573607 L 43.775390602392 306.1669410246584 L 44.481504018422 303.85133970655784 L 45.187617434452 301.5225396625898 L 45.893730850483 299.1808764679943 L 46.599844266513 296.82667866307906 L 47.305957682543 294.4602678994759 L 48.012071098573 292.08195908335625 L 48.718184514603 289.69206051567244 L 49.424297930633 287.29087402948323 L 50.130411346663 284.8786951244259 L 50.836524762693 282.45581309839383 L 51.542638178723 280.0225111764754 L 52.248751594753 277.5790666372182 L 52.954865010783 275.12575093626435 L 53.661449169093 272.66167235227385 L 54.367562585123 270.1962536028801 L 55.073676001153 267.7296963342512 L 55.779789417183 265.2620765530956 L 56.485902833213 262.7934686342871 L 57.192016249243 260.3239453548282 L 57.898129665273 257.8535779271075 L 58.604243081304 255.38243603146728 L 59.310356497334 252.91058784809312 L 60.016469913364 250.4381000882412 L 60.722583329394 247.96503802481763 L 61.428696745424 245.49146552231807 L 62.134810161454 243.0174450661522 L 62.840923577484 240.54303779135097 L 63.547036993514 238.06830351068476 L 64.253150409544 235.5933007421891 L 64.959263825574 233.11808673612725 L 65.665847983884 230.6430722719405 L 66.371961399914 228.177757535339 L 67.078074815944 225.72080794822313 L 67.784188231974 223.27209251808998 L 68.490301648004 220.83148293179994 L 69.196415064034 218.39885349993946 L 69.902528480064 215.9740811023397 L 70.608641896094 213.55704513472585 L 71.314755312125 211.14762745647917 L 72.020868728155 208.74571233947842 L 72.726982144185 206.35118641801023 L 73.433095560215 203.96393863971636 L 74.139208976245 201.5838602175633 L 74.845322392275 199.21084458280663 L 75.551435808305 196.84478733893616 L 76.257549224335 194.4855862165756 L 76.964133382645 192.1315757517122 L 77.670246798675 189.7902008226802 L 78.376360214705 187.4638453022589 L 79.082473630735 185.15223068883932 L 79.788587046765 182.85508423482017 L 80.494700462795 180.5721388270664 L 81.200813878825 178.30313286985248 L 81.906927294855 176.04781017023421 L 82.613040710885 173.8059198258111 L 83.319154126915 171.57721611480903 L 84.025267542945 169.36145838845843 L 84.731380958976 167.15841096560416 L 85.437494375006 164.9678430295049 L 86.143607791036 162.78952852677384 L 86.849721207066 160.62324606842913 L 87.555834623096 158.4687788329947 L 88.261948039126 156.32591447161008 L 88.968532197436 154.19351687798263 L 89.674645613466 152.08005753969144 L 90.380759029496 149.98547380658704 L 91.086872445526 147.90939845219185 L 91.792985861556 145.85147185643535 L 92.499099277586 143.81134184760714 L 93.205212693616 141.78866354759504 L 93.911326109646 139.78309922034174 L 94.617439525676 137.79431812344842 L 95.323552941706 135.8219963628622 L 96.029666357736 133.86581675058147 L 96.735779773766 131.9254686653249 L 97.441893189797 130.00064791609145 L 98.148006605827 128.0910566085513 L 98.854120021857 126.196403014223 L 99.560233437887 124.31640144236025 L 100.26634685392 122.45077211450695 L 100.97293101223 120.59969716464144 L 101.67904442826 118.77050767621665 L 102.38515784429 116.96191621005244 L 103.09127126032 115.17351211960153 L 103.79738467635 113.40489327466582 L 104.50349809238 111.65566588443494 L 105.20961150841 109.92544432420397 L 105.91572492444 108.21385096568514 L 106.62183834047 106.52051601085253 L 107.3279517565 104.84507732923095 L 108.03406517253 103.18718029858235 L 108.74017858856 101.54647764888318 L 109.44629200459 99.9226293095578 L 110.15240542062 98.31530225987945 L 110.85851883665 96.72417038248466 L 111.56463225268 95.1489143199313 L 112.27121641099 93.58818741894527 L 112.97732982702 92.04698389113338 L 113.68344324305 90.52689610767919 L 114.38955665908 89.0274961639376 L 115.09567007511 87.54836503675267 L 115.80178349114 86.08909239990612 L 116.50789690717 84.64927644339241 L 117.2140103232 83.22852369645148 L 117.92012373923 81.82644885427919 L 118.62623715526 80.44267460834033 L 119.33235057129 79.07683148020669 L 120.03846398732 77.72855765885049 L 120.74457740335 76.39749884131345 L 121.45069081938 75.08330807669194 L 122.15680423541 73.78564561336555 L 122.86291765144 72.50417874939302 L 123.56903106747 71.23858168602567 L 124.27561522578 69.98802561919149 L 124.98172864181 68.7576228981057 L 125.68784205784 67.54722749569271 L 126.39395547387 66.3564291940454 L 127.1000688899 65.18482629454337 L 127.80618230593 64.03202544081404 L 128.51229572196 62.897641445378895 L 129.21840913799 61.781297119895555 L 129.92452255402 60.68262310893368 L 130.63063597005 59.60125772720505 L 131.33674938608 58.5368468001663 L 132.04286280211 57.48904350794936 L 132.74897621814 56.457508232523764 L 133.45508963417 55.441908408042536 L 134.1612030502 54.44191837428781 L 134.86731646623 53.45721923317694 L 135.57342988226 52.4874987082373 L 136.28001404057 51.532786750535365 L 136.9861274566 50.59698174705005 L 137.69224087263 49.679268585474404 L 138.39835428866 48.779272649376196 L 139.10446770469 47.89662710596485 L 139.81058112072 47.03097274434316 L 140.51669453675 46.18195781711313 L 141.22280795278 45.34923788527931 L 141.92892136881 44.53247566637066 L 142.63503478484 43.7313408857205 L 143.34114820087 42.94551013083594 L 144.0472616169 42.174666708797986 L 144.75337503293 41.41850050661799 L 145.45948844896 40.67670785450247 L 146.16560186499 39.948991391954735 L 146.87171528102 39.235059936662935 L 147.57829943933 38.53416632714311 L 148.28441285536 37.84858733378354 L 148.99052627139 37.179045628426536 L 149.69663968742 36.525206146952655 L 150.40275310345 35.886740790086094 L 151.10886651948 35.26332827864775 L 151.81497993551 34.65465401182746 L 152.52109335154 34.0604099283978 L 153.22720676757 33.48029437081095 L 153.9333201836 32.91401195211648 L 154.63943359963 32.361273425654645 L 155.34554701566 31.821795557448297 L 156.05166043169 31.295301001251175 L 156.75777384772 30.781518176191128 L 157.46388726375 30.28018114695692 L 158.17000067978 29.79102950647524 L 158.87611409581 29.3138082610227 L 159.58269825412 28.848100224886934 L 160.28881167015 28.39590472004744 L 160.99492508618 27.957096052009945 L 161.70103850221 27.531392037898286 L 162.40715191824 27.11851636293602 L 163.11326533427 26.718198458492566 L 163.8193787503 26.33017338267217 L 164.52549216633 25.954181703375866 L 165.23160558236 25.589969383797722 L 165.93771899839 25.237287670301953 L 166.64383241442 24.89589298262399 L 167.34994583045 24.56554680636185 L 168.05605924648 24.246015587693535 L 168.76217266251 23.937070630289668 L 169.46828607854 23.638487994361128 L 170.17439949457 23.35004839781118 L 170.8805129106 23.071537119435334 L 171.58709706891 22.802912490720075 L 172.29321048494 22.545361223203884 L 172.99932390097 22.298540745520654 L 173.705437317 22.062222682563515 L 174.41155073303 21.836183410518913 L 175.11766414906 21.62020395812374 L 175.82377756509 21.414069909973648 L 176.52989098112 21.2175713118433 L 177.23600439715 21.030502577968832 L 177.94211781318 20.85266240026374 L 178.64823122921 20.683853659416116 L 179.35434464524 20.52388333783523 L 180.06045806127 20.37256243440703 L 180.7665714773 20.229705881023904 L 181.47268489333 20.095132460843615 L 182.17879830936 19.96866472825252 L 182.88538246767 19.850052671495007 L 183.5922019971 19.73960196347423 L 184.29902152653 19.637567581241342 L 185.00584105595 19.543768328137446 L 185.71266058538 19.45802678284724 L 186.41948011481 19.380169220859955 L 187.12629964423 19.310025537561387 L 187.83311917366 19.24742917292849 L 188.53993870308 19.19221703779175 L 189.24675823251 19.144229441623963 L 189.95357776194 19.10331002184165 L 190.66039729136 19.069305674566692 L 191.36721682079 19.042066486837655 L 192.07403635022 19.02144567022043 L 192.78085587964 19.00729949581472 L 193.48767540907 18.99948723059913 L 194.1944949385 18.99787107510582 L 194.90107909679 19.002334239127947 L 195.60789862621 19.012967245066534 L 196.31471815564 19.029694340108676 L 197.02153768507 19.052382437709355 L 197.72835721449 19.08090122608968 L 198.43517674392 19.115123110504783 L 199.14199627335 19.1549231567202 L 199.84881580277 19.200179035664974 L 200.5556353322 19.25077096923087 L 201.26245486162 19.306581677202075 L 201.96927439105 19.36749632528722 L 202.67609392048 19.433402474233276 L 203.3829134499 19.504190029999904 L 204.08973297933 19.5797511949674 L 204.79655250876 19.659980420161105 L 205.50337203818 19.744774358467737 L 206.21019156761 19.834031818830624 L 206.9167757259 19.927597761629045 L 207.62359525533 20.02537313500153 L 208.33041478475 20.127230794999775 L 209.03723431418 20.233079703403746 L 209.74405384361 20.342830721877817 L 210.45087337303 20.456396572440383 L 211.15769290246 20.573691798761843 L 211.86451243189 20.694632728262263 L 212.57133196131 20.81913743499922 L 213.27815149074 20.947125703334393 L 213.98497102017 21.078518992343163 L 214.69179054959 21.21324040097602 L 215.39861007902 21.35121463393591 L 216.10542960844 21.49236796827398 L 216.81224913787 21.636628220673288 L 217.5190686673 21.78392471541548 L 218.22565282559 21.93413684348087 L 218.93247235501 22.087085245301125 L 219.63929188444 22.242496905429277 L 220.34611141387 22.400314935938525 L 221.05293094329 22.560483637924904 L 221.75975047272 22.722948476767954 L 222.46657000215 22.88765605790303 L 223.17338953157 23.05455410310509 L 223.880209061 23.223591427260317 L 224.58702859043 23.3947179156184 L 225.29384811985 23.567884501524418 L 226.00066764928 23.74304314460835 L 226.70748717871 23.920146809434016 L 227.41430670813 24.099149444588647 L 228.12112623756 24.28000596220494 L 228.82794576699 24.462672217912825 L 229.53476529641 24.64710499120895 L 230.2413494547 24.83315037879248 L 230.94816898413 25.020475664164564 L 231.65498851356 25.208894562766602 L 232.36180804298 25.39837933264579 L 233.06862757241 25.588902813929792 L 233.77544710183 25.780438416707796 L 234.48226663126 25.972960109173528 L 235.18908616069 26.166442406011072 L 235.89590569011 26.360860357019988 L 236.60272521954 26.556189535979627 L 237.30954474897 26.752406029744407 L 238.01636427839 26.94948642756583 L 238.72318380782 27.1474078106379 L 239.43000333725 27.346147741856498 L 240.13682286667 27.545684255796402 L 240.8436423961 27.74599584889495 L 241.55046192553 27.947061469834352 L 242.25704608382 28.148596186849772 L 242.96386561324 28.350268395760907 L 243.67068514267 28.551987518951876 L 244.3775046721 28.75374833633822 L 245.08432420152 28.955545740670516 L 245.79114373095 29.157374735179076 L 246.49796326037 29.359230431276785 L 247.2047827898 29.561108046298273 L 247.91160231923 29.763002901298762 L 248.61842184865 29.9649104188872 L 249.32524137808 30.1668261211114 L 250.03206090751 30.368745627386147 L 250.73888043693 30.57066465246345 L 251.44569996636 30.772579004441866 L 252.15251949579 30.97448458282622 L 252.85933902521 31.176377376617438 L 253.5659231835 31.378181330261327 L 254.27274271293 31.57960005953055 L 254.97956224236 31.780298405683027 L 255.68638177178 31.980287882767698 L 256.39320130121 32.17957976879666 L 257.10002083064 32.37818511064637 L 257.80684036006 32.57611472886549 L 258.51365988949 32.77337922237592 L 259.22047941892 32.969988973084014 L 259.92729894834 33.165954150387904 L 260.63411847777 33.36128471559721 L 261.34093800719 33.5559904262559 L 262.04775753662 33.7500808403783 L 262.75457706605 33.94356532059771 L 263.46139659547 34.13645303822625 L 264.1682161249 34.328752977229556 L 264.87503565433 34.520473938122905 L 265.58161981262 34.71148437969879 L 266.28843934204 34.901399530966216 L 266.99525887147 35.09007863238554 L 267.7020784009 35.2775446801507 L 268.40889793032 35.463820194812 L 269.11571745975 35.64892723116162 L 269.82253698918 35.83288738792737 L 270.5293565186 36.015721817251915 L 271.23617604803 36.19745123398434 L 271.94299557746 36.37809592476623 L 272.64981510688 36.55767575694415 L 273.35663463631 36.73621018728511 L 274.06345416573 36.91371827051489 L 274.77027369516 37.09021866768154 L 275.47709322459 37.26572965433866 L 276.18391275401 37.44026912856111 L 276.89073228344 37.61385461879951 L 277.59731644173 37.78622705920998 L 278.30413597116 37.9570996708959 L 279.01095550058 38.126434306556746 L 279.71777503001 38.294260941393475 L 280.42459455944 38.46060892908713 L 281.13141408886 38.625507014724406 L 281.83823361829 38.78898334745736 L 282.54505314772 38.95106549289466 L 283.25187267714 39.11178044524456 L 283.95869220657 39.27115463919415 L 284.665511736 39.42921396154554 L 285.37233126542 39.585983762614035 L 286.07915079485 39.741488867385726 L 286.78597032428 39.89575358644066 L 287.4927898537 40.04880172665298 L 288.19960938313 40.200656601668186 L 288.90619354142 40.35128287623439 L 289.61301307085 40.500428526520295 L 290.31983260027 40.64787092805818 L 291.0266521297 40.793644111562514 L 291.73347165912 40.93778140124823 L 292.44029118855 41.08031542952398 L 293.14711071798 41.22127815138555 L 293.8539302474 41.36070085849957 L 294.56074977683 41.498614193008336 L 295.26756930626 41.63504816103381 L 295.97438883568 41.77003214590707 L 296.68120836511 41.903594921126285 L 297.38802789454 42.03576466303548 L 298.09484742396 42.16656896324906 L 298.80166695339 42.296034840811046 L 299.50848648282 42.42418875410874 L 300.21530601224 42.5510566125281 L 300.92189017053 42.67655451676512 L 301.62870969996 42.80041420061053 L 302.33552922939 42.922568988622515 L 303.04234875881 43.04305347368137 L 303.74916828824 43.161901529945965 L 304.45598781767 43.27914632780471 L 305.16280734709 43.394820348511246 L 305.86962687652 43.50895539851933 L 306.57644640594 43.62158262352159 L 307.28326593537 43.73273252218911 L 307.9900854648 43.84243495963483 L 308.69690499422 43.95071918058869 L 309.40372452365 44.05761382230287 L 310.11054405308 44.163146927186745 L 310.8173635825 44.267345955182634 L 311.52418311193 44.37023779587537 L 312.23100264136 44.47184878036256 L 312.93758679965 44.57201413389396 L 313.64440632907 44.670572425887826 L 314.3512258585 44.767519979701376 L 315.05804538793 44.86288986194188 L 315.76486491735 44.95671445180784 L 316.47168444678 45.04902545539187 L 317.17850397621 45.13985391968066 L 317.88532350563 45.22923024626613 L 318.59214303506 45.317184204772445 L 319.29896256448 45.40374494599638 L 320.00578209391 45.4889410147826 L 320.71260162334 45.572800362628925 L 321.41942115276 45.65535036002757 L 322.12624068219 45.736617808550875 L 322.83306021162 45.81662895268437 L 323.53987974104 45.895409491417126 L 324.24646389933 45.97295118408613 L 324.95328342876 46.049107825860176 L 325.66010295819 46.123780795964876 L 326.36692248761 46.19700085688828 L 327.07374201704 46.268798131303924 L 327.78056154647 46.33920211537975 L 328.48738107589 46.4082416918107 L 329.19420060532 46.47594514257895 L 329.90102013475 46.542340161450056 L 330.60783966417 46.60745386621005 L 331.3146591936 46.67131281064576 L 332.02147872303 46.73394299627523 L 332.72829825245 46.79536988383984 L 333.43511778188 46.85561840454909 L 334.1419373113 46.91471297109916 L 334.84875684073 46.97267748845741 L 335.55557637016 47.02953536442294 L 336.26216052845 47.08525071595153 L 336.96898005787 47.13969653436152 L 337.6757995873 47.19285737883308 L 338.38261911673 47.24476013163593 L 339.08943864615 47.2954311156833 L 339.79625817558 47.34489610617544 L 340.50307770501 47.393180341988796 L 341.20989723443 47.44030853683091 L 341.91671676386 47.48630489017086 L 342.62353629329 47.531193097930384 L 343.33035582271 47.57499636296217 L 344.03717535214 47.61773740530663 L 344.74399488157 47.65943847223417 L 345.45081441099 47.70012134808081 L 346.15763394042 47.739807363876025 L 346.86445346984 47.778517406778235 L 347.57127299927 47.81627192930017 L 348.27785715756 47.85300368723665 L 348.98467668699 47.88865530737337 L 349.69149621641 47.923236783614925 L 350.39831574584 47.95677070558605 L 351.10513527527 47.98927919267754 L 351.81195480469 48.02078390383019 L 352.51877433412 48.05130604710706 L 353.22559386355 48.080866389080086 L 353.93241339297 48.10948526401063 L 354.6392329224 48.137182582843934 L 355.34605245183 48.163977842013026 L 356.05287198125 48.189890132064534 L 356.75969151068 48.214938146100565 L 357.46651104011 48.23914018804652 L 358.17333056953 48.26251418074821 L 358.88015009896 48.28507767389658 L 359.58673425726 48.306836636482274 L 360.29284767331 48.32772115511261 L 360.99896108936 48.34773305327525 L 361.70507450541 48.36689090351069 L 362.41118792146 48.38521289195995 L 363.11730133751 48.4027168263969 L 363.82341475356 48.41942014408795 L 364.52952816961 48.43533991949715 L 365.23564158566 48.450492871820984 L 365.94175500171 48.46489537237585 L 366.64786841776 48.47856345182572 L 367.35398183381 48.491512807262836 L 368.06009524986 48.50375880913771 L 368.76620866591 48.51531650804952 L 369.47232208195 48.526200641396315 L 370.178435498 48.536425639877336 L 370.88454891405 48.54600563387322 L 371.59113307238 48.554948667044414 L 372.29724648843 48.563209218897896 L 373.00335990448 48.57080288622717 L 373.70947332053 48.577744022702745 L 374.41558673658 48.58404668320992 L 375.12170015263 48.58972463006063 L 375.82781356868 48.594791339076096 L 376.53392698473 48.599260005541 L 377.24004040078 48.603143550031916 L 377.94615381683 48.60645462412765 L 378.65226723288 48.60920561599801 L 379.35838064893 48.61140865588237 L 380.06449406498 48.613075621446285 L 380.77060748103 48.61421814303259 L 381.47672089708 48.61484760879995 L 382.18283431313 48.614975169759646 L 382.88894772918 48.61461174470179 L 383.59553188751 48.6137574171629 L 384.30164530356 48.61241129361463 L 385.00775871961 48.61058365750597 L 385.71387213566 48.608285024503004 L 386.41998555171 48.60552569123297 L 387.12609896776 48.60231573984015 L 387.83221238381 48.5986650424386 L 388.53832579986 48.594583265481674 L 389.24443921591 48.590079874034586 L 389.95055263195 48.58516413596038 L 390.656666048 48.57984512601814 L 391.36277946405 48.57413172987606 L 392.0688928801 48.56803264804216 L 392.77500629615 48.561556399714505 L 393.4811197122 48.5547113265452 L 394.18723312825 48.54750559633516 L 394.89381728658 48.539942368187894 L 395.59993070263 48.53204569973599 L 396.30604411868 48.523820557307374 L 397.01215753473 48.51527425933432 L 397.71827095078 48.50641397166794 L 398.42438436683 48.497246710754894 L 399.13049778288 48.487779346738876 L 399.83661119893 48.478018606503724 L 400.54272461498 48.467971076648155 L 401.24883803103 48.45764320640558 L 401.95495144708 48.44704131049821 L 402.66106486313 48.436171571928014 L 403.36717827918 48.42504004472096 L 404.07329169523 48.41365265660261 L 404.77940511128 48.402015211629816 L 405.48551852733 48.39013339275442 L 406.19163194338 48.37801276434317 L 406.89821610171 48.3656561493969 L 407.60432951776 48.35310840290094 L 408.31044293381 48.3403684437273 L 409.01655634986 48.3274407190392 L 409.72266976591 48.31432958313184 L 410.42878318195 48.3010392993595 L 411.134896598 48.28757404202696 L 411.84101001405 48.273937898241456 L 412.5471234301 48.260134869721526 L 413.25323684615 48.24616887457853 L 413.9593502622 48.232043749048444 L 414.66546367825 48.217763249197276 L 415.3715770943 48.2033310525851 L 416.07769051035 48.18875075990104 L 416.7838039264 48.17402589655666 L 417.48991734245 48.15915991425754 L 418.1960307585 48.14415619252583 L 418.90261491683 48.12902810601736 L 419.60872833288 48.11382441600233 L 420.31484174893 48.09853735213869 L 421.02095516498 48.08316904616606 L 421.72706858103 48.06772158512348 L 422.43318199708 48.052197012282875 L 423.13929541313 48.03659732805363 L 423.84540882918 48.020924490876496 L 424.55152224523 48.00518041809693 L 425.25763566128 47.98936698681922 L 425.96374907733 47.973486034740915 L 426.66986249338 47.957539360975204 L 427.37597590943 47.941528726850436 L 428.08208932548 47.925455856697965 L 428.78820274153 47.90932243862102 L 429.49431615758 47.89313012524491 L 430.20090031591 47.87687165915895 L 430.90701373195 47.860608155967554 L 431.613127148 47.84434394110997 L 432.31924056405 47.8280793678951 L 433.0253539801 47.81181478194941 L 433.73146739615 47.79555052138022 L 434.4375808122 47.779286916928754 L 435.14369422825 47.76302429212791 L 435.8498076443 47.74676296345103 L 436.55592106035 47.73050324045619 L 437.2620344764 47.714245425929846 L 437.96814789245 47.69798981603486 L 438.6742613085 47.681736700441036 L 439.38037472455 47.66548636246415 L 440.0864881406 47.64923907919621 L 440.79260155665 47.63299512163917 L 441.4987149727 47.61675475482531 L 442.20529913103 47.600517907780954 L 442.91141254708 47.584348693089225 L 443.61752596313 47.56823988554896 L 444.32363937918 47.552190505298825 L 445.02975279523 47.536199592559456 L 445.73586621128 47.520266207225404 L 446.44197962733 47.50438942845142 L 447.14809304338 47.48856835425346 L 447.85420645943 47.47280210111995 L 448.56031987548 47.45708980362366 L 449.26643329153 47.44143061404918 L 449.97254670758 47.42582370202456 L 450.67866012363 47.410268254160826 L 451.38477353967 47.394763473698845 L 452.09088695572 47.379308580164036 L 452.79700037177 47.36390280902941 L 453.50311378782 47.34854541138475 L 454.20969794615 47.33325037545774 L 454.9158113622 47.31806840447365 L 455.62192477825 47.30298746649299 L 456.3280381943 47.288005676283376 L 457.03415161035 47.27312118757709 L 457.7402650264 47.25833219225888 L 458.44637844245 47.243636919574556 L 459.1524918585 47.22903363535556 L 459.85860527455 47.21452064125748 L 460.5647186906 47.20009627401561 L 461.27083210665 47.18575890471902 L 461.9769455227 47.17150693809219 L 462.68305893875 47.15733881180233 L 463.3891723548 47.14325299576831 L 464.09528577085 47.129247991496754 L 464.8013991869 47.11532233142077 L 465.50798334523 47.101467324463044 L 466.21409676128 47.08773692493736 L 466.92021017733 47.0741336433656 L 467.62632359338 47.06065499621536 L 468.33243700943 47.04729855140681 L 469.03855042548 47.03406192724498 L 469.74466384153 47.020942791371795 L 470.45077725758 47.0079388597382 L 471.15689067363 46.99504789560609 L 471.86300408967 46.98226770856115 L 472.56911750572 46.969596153552914 L 473.27523092177 46.95703112994772 L 473.98134433782 46.94457058061141 L 474.68745775387 46.9322124910027 L 475.39357116992 46.91995488828866 L 476.09968458597 46.907795840476865 L 476.80579800202 46.89573345556954 L 477.51238216035 46.88376663733203 L 478.2184955764 46.87194428808067 L 478.92460899245 46.860259345711256 L 479.6307224085 46.84870906295919 L 480.33683582455 46.83729074954482 L 481.0429492406 46.826001770983055 L 481.74906265665 46.814839547433735 L 482.4551760727 46.80380155255989 L 483.16128948875 46.79288531241565 L 483.8674029048 46.78208840435997 L 484.57351632085 46.77140845599132 L 485.2796297369 46.760843144099056 L 485.98574315295 46.75039019364863 L 486.691856569 46.74004737677279 L 487.39796998505 46.729812511796126 L 488.1040834011 46.719683462275384 L 488.81019681715 46.70965813605636 L 489.51678097548 46.699745899848836 L 490.22289439153 46.68998021189384 L 490.92900780758 46.680351657593064 L 491.63512122362 46.67085745291399 L 492.34123463967 46.66149487161391 L 493.04734805572 46.65226124403915 L 493.75346147177 46.643153955950254 L 494.45957488782 46.63417044736906 L 495.16568830387 46.625308211449806 L 495.87180171992 46.616564793379155 L 496.57791513597 46.60793778928996 L 497.28402855202 46.59942484520832 L 497.99014196807 46.59102365601183 L 498.69625538412 46.58273196441462 L 499.40236880017 46.57454755997907 L 500.10848221622 46.56646827813364 L 500.81506637455 46.55848797646877 L 501.5211797906 46.55063872491144 L 502.22729320665 46.542921455605494 L 502.9334066227 46.53533345691477 L 503.63952003875 46.52787207352134 L 504.3456334548 46.520534705258854 L 505.05174687085 46.513318805963706 L 505.7578602869 46.50622188235428 L 506.46397370295 46.49924149293071 L 507.170087119 46.49237524690045 L 507.87620053505 46.48562080312382 L 508.5823139511 46.47897586908209 L 509.28842736715 46.47243819986426 L 509.9945407832 46.46600559718428 L 510.70065419925 46.45967590840786 L 511.4067676153 46.453447025602316 L 512.11288103134 46.44731688461144 L 512.81946518967 46.44128441437448 L 513.52557860572 46.43537526921284 L 514.23169202177 46.42958497174641 L 514.93780543782 46.42391105612171 L 515.64391885387 46.41835110772445 L 516.35003226992 46.412902762114356 L 517.05614568597 46.40756370398441 L 517.76225910202 46.402331666136604 L 518.46837251807 46.39720442848733 L 519.17448593412 46.39217981708288 L 519.88059935017 46.38725570314307 L 520.58671276622 46.382430002124295 L 521.29282618227 46.37770067279655 L 521.99893959832 46.37306571634525 L 522.70505301437 46.36852317549108 L 523.41116643042 46.36407113362554 L 524.11727984647 46.359707713964895 L 524.8238640048 46.35543720594916 L 525.52997742085 46.35127448439408 L 526.2360908369 46.34721450850839 L 526.94220425295 46.34325512687644 L 527.648317669 46.339394232808104 L 528.35443108505 46.33562976341102 L 529.0605445011 46.331959698675405 L 529.76665791715 46.32838206059 L 530.4727713332 46.324894912262835 L 531.17888474925 46.321496357068725 L 531.8849981653 46.31818453781557 L 532.59111158134 46.31495763591869 L 533.29722499739 46.31181387060491 L 534.00333841344 46.3087514981205 L 534.70945182949 46.305768810969425 L 535.41556524554 46.30286413715186 L 536.12214940387 46.30003452221632 L 536.82826281992 46.29729212795252 L 537.53437623597 46.294636983373664 L 538.24048965202 46.29206724507884 L 538.94660306807 46.28958110800352 L 539.65271648412 46.28717680462535 L 540.35882990017 46.28485260418495 L 541.06494331622 46.28260681192046 L 541.77105673227 46.280437768316574 L 542.47717014832 46.27834384837831 L 543.18328356437 46.27632346090803 L 543.88939698042 46.27437504780579 L 544.59551039647 46.27249708338121 L 545.30162381252 46.27068807367988 L 546.00773722857 46.26894655582214 L 546.71385064462 46.26727109736055 L 547.41996406067 46.265660295642476 L 548.126548219 46.264113486747306 L 548.83266163505 46.262638160958545 L 549.5387750511 46.261232465536864 L 550.24488846715 46.2598949145256 L 550.9510018832 46.258624052884784 L 551.65711529925 46.257418455852076 L 552.3632287153 46.25627672831206 L 553.06934213134 46.25519750418016 L 553.77545554739 46.254179445799764 L 554.48156896344 46.253221243351675 L 555.18768237949 46.25232161427522 L 555.89379579554 46.251479302700545 L 556.59990921159 46.25069307889589 L 557.30602262764 46.249961738721424 L 558.01213604369 46.24928410310122 L 558.71824945974 46.24865901750144 L 559.42436287579 46.24808535141733 L 560.13094703412 46.24756391283768 L 560.83706045017 46.24709704968308 L 561.54317386622 46.24668323474987 L 562.24928728227 46.24632132230698 L 562.95540069832 46.24601019047219 L 563.66151411437 46.24574874072425 L 564.36762753042 46.24553589741197 L 565.07374094647 46.24537060728227 L 565.77985436252 46.245251839010564 L 566.48596777857 46.24517858274959 L 567.19208119462 46.245149849681184 L 567.89819461067 46.245164671577754 L 568.60430802672 46.24522210037628 L 569.31042144277 46.245321207757286 L 570.01653485882 46.245461084738736 L 570.72264827487 46.245640841268084 L 571.4292324332 46.24585983022661 L 572.13534584925 46.2461180994984 L 572.8414592653 46.246415362487824 L 573.54757268134 46.246750764517174 L 574.25368609739 46.24712346871382 L 574.95979951344 46.24753265564431 L 575.66591292949 46.2479775229441 L 576.37202634554 46.248457284969334 L 577.07813976159 46.24897117244632 L 577.78425317764 46.24951843213228 L 578.49036659369 46.250098326481805 L 579.19648000974 46.25071013331933 L 579.90259342579 46.25135314552267 L 580.60870684184 46.25202667070698 L 581.31482025789 46.25273003092104 L 582.02093367394 46.253462562346215 L 582.72704708999 46.254223615002104 L 583.43363124832 46.25501293304859 L 584.13974466437 46.255828237074866 L 584.84585808042 46.256669388201885 L 585.55197149647 46.257535806527244 L 586.25808491252 46.25842692424078 L 586.96419832857 46.25934218537475 L 587.67031174462 46.26028104555746 L 588.37642516067 46.261242971773754 L 589.08253857672 46.26222744212646 L 589.78865199277 46.26323394560859 L 590.49476540882 46.26426198187289 L 591.20087882487 46.265311061014586 L 591.90699224092 46.2663807033486 L 592.61310565697 46.267470439203066 L 593.31921907302 46.26857980870989 L 594.02533248906 46.269708361597566 L 594.73144590511 46.27085565699616 L 595.43803006344 46.27202087058714 L 596.14414347949 46.27320060542792 L 596.85025689554 46.274395271273534 L 597.55637031159 46.27560451841401 L 598.26248372764 46.27682800443972 L 598.96859714369 46.27806539410426 L 599.67471055974 46.27931635916002 L 600.38082397579 46.28058057822295 L 601.08693739184 46.28185773662983 L 601.79305080789 46.2831475262912 L 602.49916422394 46.28444964556189 L 603.20527763999 46.28576379910305 L 603.91139105604 46.28708969775306 L 604.61750447209 46.288427058398554 L 605.32361788814 46.28977560384817 L 606.02973130419 46.291135062710055 L 606.73631546252 46.29250593754034 L 607.44242887857 46.293883477647626 L 608.14854229462 46.295267416441504 L 608.85465571067 46.296657585939045 L 609.56076912672 46.29805382168644 L 610.26688254277 46.299455962681634 L 610.97299595882 46.300863851299994 L 611.67910937487 46.302277333233576 L 612.38522279092 46.30369625741179 L 613.09133620697 46.305120475938736 L 613.79744962302 46.30654984402645 L 614.50356303906 46.30798421993194 L 615.20967645511 46.309423464893655 L 615.91578987116 46.310867443064865 L 616.62190328721 46.312316021457946 L 617.32801670326 46.31376906988527 L 618.03413011931 46.31522646089769 L 618.74071427764 46.31668820546446 L 619.44682769369 46.31814897283107 L 620.15294110974 46.319609374430115 L 620.85905452579 46.32106938788604 L 621.56516794184 46.32252899132055 L 622.27128135789 46.323988163336765 L 622.97739477394 46.32544688301465 L 623.68350818999 46.32690512989848 L 624.38962160604 46.32836288398721 L 625.09573502209 46.32982012572546 L 625.80184843814 46.33127683599275 L 626.50796185419 46.33273299609726 L 627.21407527024 46.334188587764515 L 627.92018868629 46.33564359313027 L 628.62630210234 46.337097994731266 L 629.33241551839 46.338551775495034 L 630.03852893444 46.340004918735474 L 630.74511309277 46.34145626977386 L 631.45122650882 46.342901351332216 L 632.15733992487 46.344341210656296 L 632.86345334092 46.345775931476 L 633.56956675697 46.34720559580472 L 634.27568017301 46.348630283975695 L 634.98179358906 46.35005007467828 L 635.68790700511 46.3514650449913 L 636.39402042116 46.352875270415325 L 637.10013383721 46.35428082490836 L 637.80624725326 46.35568178091472 L 638.51236066931 46.357078209397514 L 639.21847408536 46.358470179871915 L 639.92458750141 46.359857760431794 L 640.63070091746 46.36124101777892 L 641.33681433351 46.36262001725561 L 642.04339849184 46.36399555539879 L 642.74951190789 46.36536263164567 L 643.45562532394 46.366721115593805 L 644.16173873999 46.368071165992944 L 644.86785215604 46.3694129383166 L 645.57396557209 46.37074658482442 L 646.28007898814 46.372072254634986 L 646.98619240419 46.373390093784906 L 647.69230582024 46.3747002452958 L 648.39841923629 46.37600284923832 L 649.10453265234 46.3772980427903 L 649.81064606839 46.37858596030031 L 650.51675948444 46.37986673334319 L 651.22287290049 46.38114049078018 L 651.92898631654 46.38240735881408 L 652.63509973259 46.383667461043444 L 653.34121314864 46.38492091851839 L 654.04779730697 46.38616786346614 L 654.75391072301 46.38740360778792 L 655.46002413906 46.38862886859857 L 656.16613755511 46.38984384856764 L 656.87225097116 46.39104874617118 L 657.57836438721 46.39224375577402 L 658.28447780326 46.393429067718785 L 658.99059121931 46.3946048684046 L 659.69670463536 46.39577134037444 L 660.40281805141 46.39692866239295 L 661.10893146746 46.39807700952446 L 661.81504488351 46.3992165532091 L 662.52115829956 46.40034746133989 L 663.22727171561 46.40146989833772 L 663.93338513166 46.402584025220506 L 664.63949854771 46.403689999673304 L 665.34561196376 46.40478797612195 L 666.05219612209 46.4058770990506 L 666.75830953814 46.40695400432361 L 667.46442295419 46.408019643877594 L 668.17053637024 46.409074240721054 L 668.87664978629 46.410118013238446 L 669.58276320234 46.411151175285625 L 670.28887661839 46.41217393628892 L 670.99499003444 46.413186501328084 L 671.70110345049 46.41418907123773 L 672.40721686654 46.41518184268625 L 673.11333028259 46.41616500826774 L 673.81944369864 46.417138756584734 L 674.52555711469 46.41810327232969 L 675.23167053073 46.41905873637239 L 675.93778394678 46.42000532582949 L 676.64389736283 46.42094321414976 L 677.35048152116 46.4218730555034 L 678.05659493721 46.42279146466052 L 678.76270835326 46.423698438208135 L 679.46882176931 46.42459420614642 L 680.17493518536 46.42547899370362 L 680.88104860141 46.4263530214339 L 681.58716201746 46.42721650531837 L 682.29327543351 46.428069656853836 L 682.99938884956 46.42891268315293 L 683.70550226561 46.42974578702888 L 684.41161568166 46.430569167089345 L 685.11772909771 46.4313830178221 L 685.82384251376 46.43218752968113 L 686.52995592981 46.43298288917049 L 687.23606934586 46.433769278923705 L 687.94218276191 46.43454687778865 L 688.64829617796 46.43531586090336 L 689.35488033629 46.43607638467637 L 690.06099375234 46.43682561653651 L 690.76710716839 46.437564087319686 L 691.47322058444 46.43829201584737 L 692.17933400049 46.43900961640139 L 692.88544741654 46.43971709881151 L 693.59156083259 46.440414668555036 L 694.29767424864 46.44110252683993 L 695.00378766469 46.441780870701905 L 695.70990108073 46.442449893084074 L 696.41601449678 46.44310978292515 L 697.12212791283 46.4437607252421 L 697.82824132888 46.44440290121298 L 698.53435474493 46.445036488255425 L 699.24046816098 46.44566166010253 L 699.94658157703 46.44627858688415 L 700.65269499308 46.44688743519964 L 701.35927915141 46.44748779173386 L 702.06539256746 46.44807786482784 L 702.77150598351 46.44865825785348 L 703.47761939956 46.44922916939436 L 704.18373281561 46.449790793908505 L 704.88984623166 46.45034332181643 L 705.59595964771 46.45088693958331 L 706.30207306376 46.45142182980311 L 707.00818647981 46.45194817127526 L 707.71429989586 46.45246613908819 L 708.42041331191 46.45297590469545 L 709.12652672796 46.45347763598761 L 709.83264014401 46.45397149736908 L 710.53875356006 46.45445764983208 L 711.24486697611 46.45493625102421 L 711.95098039216 46.455407455320085" class="highcharts-graph" stroke="#e41a1c" stroke-width="2" stroke-linejoin="round" stroke-linecap="round"></path><path fill="none" d="M -2.9509803921569002 381.7167724244287 L 7.0490196078431 381.7167724244287 L 7.7558391372885 381.6013210159595 L 8.4619525533179 381.4111007396392 L 9.1680659693473 381.14766683917907 L 9.8741793853768 380.81261791341257 L 10.580292801406 380.4075192631991 L 11.286406217436 379.9339035834746 L 11.993225746881 379.3926979604824 L 12.700045276326 378.78581586947354 L 13.406864805771 378.1147004731507 L 14.113684335216 377.3807648368018 L 14.82050386466 376.58539255445777 L 15.527323394105 375.72993836202505 L 16.23414292355 374.81572873766396 L 16.940962452995 373.8440624896779 L 17.64778198244 372.81621133217345 L 18.35436614075 371.7338457270436 L 19.06047955678 370.59930403026897 L 19.766592972811 369.41325797273237 L 20.472706388841 368.17685292356674 L 21.178819804871 366.89121037469437 L 21.884933220901 365.55742843710067 L 22.591046636931 364.17658232679366 L 23.297160052961 362.74972484066546 L 24.003273468991 361.2778868224642 L 24.709386885021 359.7620776190824 L 25.415500301051 358.20328552736333 L 26.121613717081 356.60247823162183 L 26.827727133111 354.9606032320725 L 27.533840549141 353.2785882643551 L 28.239953965171 351.5573417103426 L 28.946067381201 349.7977530004089 L 29.652180797231 348.00069300734026 L 30.358764955541 346.16680693688505 L 31.064878371571 344.30254439600645 L 31.770991787601 342.40765039951566 L 32.477105203632 340.4828308459146 L 33.183218619662 338.528776894947 L 33.889332035692 336.54616527395797 L 34.595445451722 334.535658577886 L 35.301558867752 332.49790556302105 L 36.007672283782 330.43354143465893 L 36.713785699812 328.3431881287753 L 37.419899115842 326.22745458785 L 38.126012531872 324.0869370309542 L 38.832125947902 321.92221921823045 L 39.538239363932 319.7338727098707 L 40.244352779962 317.52245711971807 L 40.950466195992 315.2885203635926 L 41.657050354302 313.0310881885693 L 42.363163770332 310.7571691083115 L 43.069277186362 308.4690008573607 L 43.775390602392 306.1669410246584 L 44.481504018422 303.85133970655784 L 45.187617434452 301.5225396625898 L 45.893730850483 299.1808764679943 L 46.599844266513 296.82667866307906 L 47.305957682543 294.4602678994759 L 48.012071098573 292.08195908335625 L 48.718184514603 289.69206051567244 L 49.424297930633 287.29087402948323 L 50.130411346663 284.8786951244259 L 50.836524762693 282.45581309839383 L 51.542638178723 280.0225111764754 L 52.248751594753 277.5790666372182 L 52.954865010783 275.12575093626435 L 53.661449169093 272.66167235227385 L 54.367562585123 270.1962536028801 L 55.073676001153 267.7296963342512 L 55.779789417183 265.2620765530956 L 56.485902833213 262.7934686342871 L 57.192016249243 260.3239453548282 L 57.898129665273 257.8535779271075 L 58.604243081304 255.38243603146728 L 59.310356497334 252.91058784809312 L 60.016469913364 250.4381000882412 L 60.722583329394 247.96503802481763 L 61.428696745424 245.49146552231807 L 62.134810161454 243.0174450661522 L 62.840923577484 240.54303779135097 L 63.547036993514 238.06830351068476 L 64.253150409544 235.5933007421891 L 64.959263825574 233.11808673612725 L 65.665847983884 230.6430722719405 L 66.371961399914 228.177757535339 L 67.078074815944 225.72080794822313 L 67.784188231974 223.27209251808998 L 68.490301648004 220.83148293179994 L 69.196415064034 218.39885349993946 L 69.902528480064 215.9740811023397 L 70.608641896094 213.55704513472585 L 71.314755312125 211.14762745647917 L 72.020868728155 208.74571233947842 L 72.726982144185 206.35118641801023 L 73.433095560215 203.96393863971636 L 74.139208976245 201.5838602175633 L 74.845322392275 199.21084458280663 L 75.551435808305 196.84478733893616 L 76.257549224335 194.4855862165756 L 76.964133382645 192.1315757517122 L 77.670246798675 189.7902008226802 L 78.376360214705 187.4638453022589 L 79.082473630735 185.15223068883932 L 79.788587046765 182.85508423482017 L 80.494700462795 180.5721388270664 L 81.200813878825 178.30313286985248 L 81.906927294855 176.04781017023421 L 82.613040710885 173.8059198258111 L 83.319154126915 171.57721611480903 L 84.025267542945 169.36145838845843 L 84.731380958976 167.15841096560416 L 85.437494375006 164.9678430295049 L 86.143607791036 162.78952852677384 L 86.849721207066 160.62324606842913 L 87.555834623096 158.4687788329947 L 88.261948039126 156.32591447161008 L 88.968532197436 154.19351687798263 L 89.674645613466 152.08005753969144 L 90.380759029496 149.98547380658704 L 91.086872445526 147.90939845219185 L 91.792985861556 145.85147185643535 L 92.499099277586 143.81134184760714 L 93.205212693616 141.78866354759504 L 93.911326109646 139.78309922034174 L 94.617439525676 137.79431812344842 L 95.323552941706 135.8219963628622 L 96.029666357736 133.86581675058147 L 96.735779773766 131.9254686653249 L 97.441893189797 130.00064791609145 L 98.148006605827 128.0910566085513 L 98.854120021857 126.196403014223 L 99.560233437887 124.31640144236025 L 100.26634685392 122.45077211450695 L 100.97293101223 120.59969716464144 L 101.67904442826 118.77050767621665 L 102.38515784429 116.96191621005244 L 103.09127126032 115.17351211960153 L 103.79738467635 113.40489327466582 L 104.50349809238 111.65566588443494 L 105.20961150841 109.92544432420397 L 105.91572492444 108.21385096568514 L 106.62183834047 106.52051601085253 L 107.3279517565 104.84507732923095 L 108.03406517253 103.18718029858235 L 108.74017858856 101.54647764888318 L 109.44629200459 99.9226293095578 L 110.15240542062 98.31530225987945 L 110.85851883665 96.72417038248466 L 111.56463225268 95.1489143199313 L 112.27121641099 93.58818741894527 L 112.97732982702 92.04698389113338 L 113.68344324305 90.52689610767919 L 114.38955665908 89.0274961639376 L 115.09567007511 87.54836503675267 L 115.80178349114 86.08909239990612 L 116.50789690717 84.64927644339241 L 117.2140103232 83.22852369645148 L 117.92012373923 81.82644885427919 L 118.62623715526 80.44267460834033 L 119.33235057129 79.07683148020669 L 120.03846398732 77.72855765885049 L 120.74457740335 76.39749884131345 L 121.45069081938 75.08330807669194 L 122.15680423541 73.78564561336555 L 122.86291765144 72.50417874939302 L 123.56903106747 71.23858168602567 L 124.27561522578 69.98802561919149 L 124.98172864181 68.7576228981057 L 125.68784205784 67.54722749569271 L 126.39395547387 66.3564291940454 L 127.1000688899 65.18482629454337 L 127.80618230593 64.03202544081404 L 128.51229572196 62.897641445378895 L 129.21840913799 61.781297119895555 L 129.92452255402 60.68262310893368 L 130.63063597005 59.60125772720505 L 131.33674938608 58.5368468001663 L 132.04286280211 57.48904350794936 L 132.74897621814 56.457508232523764 L 133.45508963417 55.441908408042536 L 134.1612030502 54.44191837428781 L 134.86731646623 53.45721923317694 L 135.57342988226 52.4874987082373 L 136.28001404057 51.532786750535365 L 136.9861274566 50.59698174705005 L 137.69224087263 49.679268585474404 L 138.39835428866 48.779272649376196 L 139.10446770469 47.89662710596485 L 139.81058112072 47.03097274434316 L 140.51669453675 46.18195781711313 L 141.22280795278 45.34923788527931 L 141.92892136881 44.53247566637066 L 142.63503478484 43.7313408857205 L 143.34114820087 42.94551013083594 L 144.0472616169 42.174666708797986 L 144.75337503293 41.41850050661799 L 145.45948844896 40.67670785450247 L 146.16560186499 39.948991391954735 L 146.87171528102 39.235059936662935 L 147.57829943933 38.53416632714311 L 148.28441285536 37.84858733378354 L 148.99052627139 37.179045628426536 L 149.69663968742 36.525206146952655 L 150.40275310345 35.886740790086094 L 151.10886651948 35.26332827864775 L 151.81497993551 34.65465401182746 L 152.52109335154 34.0604099283978 L 153.22720676757 33.48029437081095 L 153.9333201836 32.91401195211648 L 154.63943359963 32.361273425654645 L 155.34554701566 31.821795557448297 L 156.05166043169 31.295301001251175 L 156.75777384772 30.781518176191128 L 157.46388726375 30.28018114695692 L 158.17000067978 29.79102950647524 L 158.87611409581 29.3138082610227 L 159.58269825412 28.848100224886934 L 160.28881167015 28.39590472004744 L 160.99492508618 27.957096052009945 L 161.70103850221 27.531392037898286 L 162.40715191824 27.11851636293602 L 163.11326533427 26.718198458492566 L 163.8193787503 26.33017338267217 L 164.52549216633 25.954181703375866 L 165.23160558236 25.589969383797722 L 165.93771899839 25.237287670301953 L 166.64383241442 24.89589298262399 L 167.34994583045 24.56554680636185 L 168.05605924648 24.246015587693535 L 168.76217266251 23.937070630289668 L 169.46828607854 23.638487994361128 L 170.17439949457 23.35004839781118 L 170.8805129106 23.071537119435334 L 171.58709706891 22.802912490720075 L 172.29321048494 22.545361223203884 L 172.99932390097 22.298540745520654 L 173.705437317 22.062222682563515 L 174.41155073303 21.836183410518913 L 175.11766414906 21.62020395812374 L 175.82377756509 21.414069909973648 L 176.52989098112 21.2175713118433 L 177.23600439715 21.030502577968832 L 177.94211781318 20.85266240026374 L 178.64823122921 20.683853659416116 L 179.35434464524 20.52388333783523 L 180.06045806127 20.37256243440703 L 180.7665714773 20.229705881023904 L 181.47268489333 20.095132460843615 L 182.17879830936 19.96866472825252 L 182.88538246767 19.850052671495007 L 183.5922019971 19.73960196347423 L 184.29902152653 19.637567581241342 L 185.00584105595 19.543768328137446 L 185.71266058538 19.45802678284724 L 186.41948011481 19.380169220859955 L 187.12629964423 19.310025537561387 L 187.83311917366 19.24742917292849 L 188.53993870308 19.19221703779175 L 189.24675823251 19.144229441623963 L 189.95357776194 19.10331002184165 L 190.66039729136 19.069305674566692 L 191.36721682079 19.042066486837655 L 192.07403635022 19.02144567022043 L 192.78085587964 19.00729949581472 L 193.48767540907 18.99948723059913 L 194.1944949385 18.99787107510582 L 194.90107909679 19.002334239127947 L 195.60789862621 19.012967245066534 L 196.31471815564 19.029694340108676 L 197.02153768507 19.052382437709355 L 197.72835721449 19.08090122608968 L 198.43517674392 19.115123110504783 L 199.14199627335 19.1549231567202 L 199.84881580277 19.200179035664974 L 200.5556353322 19.25077096923087 L 201.26245486162 19.306581677202075 L 201.96927439105 19.36749632528722 L 202.67609392048 19.433402474233276 L 203.3829134499 19.504190029999904 L 204.08973297933 19.5797511949674 L 204.79655250876 19.659980420161105 L 205.50337203818 19.744774358467737 L 206.21019156761 19.834031818830624 L 206.9167757259 19.927597761629045 L 207.62359525533 20.02537313500153 L 208.33041478475 20.127230794999775 L 209.03723431418 20.233079703403746 L 209.74405384361 20.342830721877817 L 210.45087337303 20.456396572440383 L 211.15769290246 20.573691798761843 L 211.86451243189 20.694632728262263 L 212.57133196131 20.81913743499922 L 213.27815149074 20.947125703334393 L 213.98497102017 21.078518992343163 L 214.69179054959 21.21324040097602 L 215.39861007902 21.35121463393591 L 216.10542960844 21.49236796827398 L 216.81224913787 21.636628220673288 L 217.5190686673 21.78392471541548 L 218.22565282559 21.93413684348087 L 218.93247235501 22.087085245301125 L 219.63929188444 22.242496905429277 L 220.34611141387 22.400314935938525 L 221.05293094329 22.560483637924904 L 221.75975047272 22.722948476767954 L 222.46657000215 22.88765605790303 L 223.17338953157 23.05455410310509 L 223.880209061 23.223591427260317 L 224.58702859043 23.3947179156184 L 225.29384811985 23.567884501524418 L 226.00066764928 23.74304314460835 L 226.70748717871 23.920146809434016 L 227.41430670813 24.099149444588647 L 228.12112623756 24.28000596220494 L 228.82794576699 24.462672217912825 L 229.53476529641 24.64710499120895 L 230.2413494547 24.83315037879248 L 230.94816898413 25.020475664164564 L 231.65498851356 25.208894562766602 L 232.36180804298 25.39837933264579 L 233.06862757241 25.588902813929792 L 233.77544710183 25.780438416707796 L 234.48226663126 25.972960109173528 L 235.18908616069 26.166442406011072 L 235.89590569011 26.360860357019988 L 236.60272521954 26.556189535979627 L 237.30954474897 26.752406029744407 L 238.01636427839 26.94948642756583 L 238.72318380782 27.1474078106379 L 239.43000333725 27.346147741856498 L 240.13682286667 27.545684255796402 L 240.8436423961 27.74599584889495 L 241.55046192553 27.947061469834352 L 242.25704608382 28.148596186849772 L 242.96386561324 28.350268395760907 L 243.67068514267 28.551987518951876 L 244.3775046721 28.75374833633822 L 245.08432420152 28.955545740670516 L 245.79114373095 29.157374735179076 L 246.49796326037 29.359230431276785 L 247.2047827898 29.561108046298273 L 247.91160231923 29.763002901298762 L 248.61842184865 29.9649104188872 L 249.32524137808 30.1668261211114 L 250.03206090751 30.368745627386147 L 250.73888043693 30.57066465246345 L 251.44569996636 30.772579004441866 L 252.15251949579 30.97448458282622 L 252.85933902521 31.176377376617438 L 253.5659231835 31.378181330261327 L 254.27274271293 31.57960005953055 L 254.97956224236 31.780298405683027 L 255.68638177178 31.980287882767698 L 256.39320130121 32.17957976879666 L 257.10002083064 32.37818511064637 L 257.80684036006 32.57611472886549 L 258.51365988949 32.77337922237592 L 259.22047941892 32.969988973084014 L 259.92729894834 33.165954150387904 L 260.63411847777 33.36128471559721 L 261.34093800719 33.5559904262559 L 262.04775753662 33.7500808403783 L 262.75457706605 33.94356532059771 L 263.46139659547 34.13645303822625 L 264.1682161249 34.328752977229556 L 264.87503565433 34.520473938122905 L 265.58161981262 34.71148437969879 L 266.28843934204 34.901399530966216 L 266.99525887147 35.09007863238554 L 267.7020784009 35.2775446801507 L 268.40889793032 35.463820194812 L 269.11571745975 35.64892723116162 L 269.82253698918 35.83288738792737 L 270.5293565186 36.015721817251915 L 271.23617604803 36.19745123398434 L 271.94299557746 36.37809592476623 L 272.64981510688 36.55767575694415 L 273.35663463631 36.73621018728511 L 274.06345416573 36.91371827051489 L 274.77027369516 37.09021866768154 L 275.47709322459 37.26572965433866 L 276.18391275401 37.44026912856111 L 276.89073228344 37.61385461879951 L 277.59731644173 37.78622705920998 L 278.30413597116 37.9570996708959 L 279.01095550058 38.126434306556746 L 279.71777503001 38.294260941393475 L 280.42459455944 38.46060892908713 L 281.13141408886 38.625507014724406 L 281.83823361829 38.78898334745736 L 282.54505314772 38.95106549289466 L 283.25187267714 39.11178044524456 L 283.95869220657 39.27115463919415 L 284.665511736 39.42921396154554 L 285.37233126542 39.585983762614035 L 286.07915079485 39.741488867385726 L 286.78597032428 39.89575358644066 L 287.4927898537 40.04880172665298 L 288.19960938313 40.200656601668186 L 288.90619354142 40.35128287623439 L 289.61301307085 40.500428526520295 L 290.31983260027 40.64787092805818 L 291.0266521297 40.793644111562514 L 291.73347165912 40.93778140124823 L 292.44029118855 41.08031542952398 L 293.14711071798 41.22127815138555 L 293.8539302474 41.36070085849957 L 294.56074977683 41.498614193008336 L 295.26756930626 41.63504816103381 L 295.97438883568 41.77003214590707 L 296.68120836511 41.903594921126285 L 297.38802789454 42.03576466303548 L 298.09484742396 42.16656896324906 L 298.80166695339 42.296034840811046 L 299.50848648282 42.42418875410874 L 300.21530601224 42.5510566125281 L 300.92189017053 42.67655451676512 L 301.62870969996 42.80041420061053 L 302.33552922939 42.922568988622515 L 303.04234875881 43.04305347368137 L 303.74916828824 43.161901529945965 L 304.45598781767 43.27914632780471 L 305.16280734709 43.394820348511246 L 305.86962687652 43.50895539851933 L 306.57644640594 43.62158262352159 L 307.28326593537 43.73273252218911 L 307.9900854648 43.84243495963483 L 308.69690499422 43.95071918058869 L 309.40372452365 44.05761382230287 L 310.11054405308 44.163146927186745 L 310.8173635825 44.267345955182634 L 311.52418311193 44.37023779587537 L 312.23100264136 44.47184878036256 L 312.93758679965 44.57201413389396 L 313.64440632907 44.670572425887826 L 314.3512258585 44.767519979701376 L 315.05804538793 44.86288986194188 L 315.76486491735 44.95671445180784 L 316.47168444678 45.04902545539187 L 317.17850397621 45.13985391968066 L 317.88532350563 45.22923024626613 L 318.59214303506 45.317184204772445 L 319.29896256448 45.40374494599638 L 320.00578209391 45.4889410147826 L 320.71260162334 45.572800362628925 L 321.41942115276 45.65535036002757 L 322.12624068219 45.736617808550875 L 322.83306021162 45.81662895268437 L 323.53987974104 45.895409491417126 L 324.24646389933 45.97295118408613 L 324.95328342876 46.049107825860176 L 325.66010295819 46.123780795964876 L 326.36692248761 46.19700085688828 L 327.07374201704 46.268798131303924 L 327.78056154647 46.33920211537975 L 328.48738107589 46.4082416918107 L 329.19420060532 46.47594514257895 L 329.90102013475 46.542340161450056 L 330.60783966417 46.60745386621005 L 331.3146591936 46.67131281064576 L 332.02147872303 46.73394299627523 L 332.72829825245 46.79536988383984 L 333.43511778188 46.85561840454909 L 334.1419373113 46.91471297109916 L 334.84875684073 46.97267748845741 L 335.55557637016 47.02953536442294 L 336.26216052845 47.08525071595153 L 336.96898005787 47.13969653436152 L 337.6757995873 47.19285737883308 L 338.38261911673 47.24476013163593 L 339.08943864615 47.2954311156833 L 339.79625817558 47.34489610617544 L 340.50307770501 47.393180341988796 L 341.20989723443 47.44030853683091 L 341.91671676386 47.48630489017086 L 342.62353629329 47.531193097930384 L 343.33035582271 47.57499636296217 L 344.03717535214 47.61773740530663 L 344.74399488157 47.65943847223417 L 345.45081441099 47.70012134808081 L 346.15763394042 47.739807363876025 L 346.86445346984 47.778517406778235 L 347.57127299927 47.81627192930017 L 348.27785715756 47.85300368723665 L 348.98467668699 47.88865530737337 L 349.69149621641 47.923236783614925 L 350.39831574584 47.95677070558605 L 351.10513527527 47.98927919267754 L 351.81195480469 48.02078390383019 L 352.51877433412 48.05130604710706 L 353.22559386355 48.080866389080086 L 353.93241339297 48.10948526401063 L 354.6392329224 48.137182582843934 L 355.34605245183 48.163977842013026 L 356.05287198125 48.189890132064534 L 356.75969151068 48.214938146100565 L 357.46651104011 48.23914018804652 L 358.17333056953 48.26251418074821 L 358.88015009896 48.28507767389658 L 359.58673425726 48.306836636482274 L 360.29284767331 48.32772115511261 L 360.99896108936 48.34773305327525 L 361.70507450541 48.36689090351069 L 362.41118792146 48.38521289195995 L 363.11730133751 48.4027168263969 L 363.82341475356 48.41942014408795 L 364.52952816961 48.43533991949715 L 365.23564158566 48.450492871820984 L 365.94175500171 48.46489537237585 L 366.64786841776 48.47856345182572 L 367.35398183381 48.491512807262836 L 368.06009524986 48.50375880913771 L 368.76620866591 48.51531650804952 L 369.47232208195 48.526200641396315 L 370.178435498 48.536425639877336 L 370.88454891405 48.54600563387322 L 371.59113307238 48.554948667044414 L 372.29724648843 48.563209218897896 L 373.00335990448 48.57080288622717 L 373.70947332053 48.577744022702745 L 374.41558673658 48.58404668320992 L 375.12170015263 48.58972463006063 L 375.82781356868 48.594791339076096 L 376.53392698473 48.599260005541 L 377.24004040078 48.603143550031916 L 377.94615381683 48.60645462412765 L 378.65226723288 48.60920561599801 L 379.35838064893 48.61140865588237 L 380.06449406498 48.613075621446285 L 380.77060748103 48.61421814303259 L 381.47672089708 48.61484760879995 L 382.18283431313 48.614975169759646 L 382.88894772918 48.61461174470179 L 383.59553188751 48.6137574171629 L 384.30164530356 48.61241129361463 L 385.00775871961 48.61058365750597 L 385.71387213566 48.608285024503004 L 386.41998555171 48.60552569123297 L 387.12609896776 48.60231573984015 L 387.83221238381 48.5986650424386 L 388.53832579986 48.594583265481674 L 389.24443921591 48.590079874034586 L 389.95055263195 48.58516413596038 L 390.656666048 48.57984512601814 L 391.36277946405 48.57413172987606 L 392.0688928801 48.56803264804216 L 392.77500629615 48.561556399714505 L 393.4811197122 48.5547113265452 L 394.18723312825 48.54750559633516 L 394.89381728658 48.539942368187894 L 395.59993070263 48.53204569973599 L 396.30604411868 48.523820557307374 L 397.01215753473 48.51527425933432 L 397.71827095078 48.50641397166794 L 398.42438436683 48.497246710754894 L 399.13049778288 48.487779346738876 L 399.83661119893 48.478018606503724 L 400.54272461498 48.467971076648155 L 401.24883803103 48.45764320640558 L 401.95495144708 48.44704131049821 L 402.66106486313 48.436171571928014 L 403.36717827918 48.42504004472096 L 404.07329169523 48.41365265660261 L 404.77940511128 48.402015211629816 L 405.48551852733 48.39013339275442 L 406.19163194338 48.37801276434317 L 406.89821610171 48.3656561493969 L 407.60432951776 48.35310840290094 L 408.31044293381 48.3403684437273 L 409.01655634986 48.3274407190392 L 409.72266976591 48.31432958313184 L 410.42878318195 48.3010392993595 L 411.134896598 48.28757404202696 L 411.84101001405 48.273937898241456 L 412.5471234301 48.260134869721526 L 413.25323684615 48.24616887457853 L 413.9593502622 48.232043749048444 L 414.66546367825 48.217763249197276 L 415.3715770943 48.2033310525851 L 416.07769051035 48.18875075990104 L 416.7838039264 48.17402589655666 L 417.48991734245 48.15915991425754 L 418.1960307585 48.14415619252583 L 418.90261491683 48.12902810601736 L 419.60872833288 48.11382441600233 L 420.31484174893 48.09853735213869 L 421.02095516498 48.08316904616606 L 421.72706858103 48.06772158512348 L 422.43318199708 48.052197012282875 L 423.13929541313 48.03659732805363 L 423.84540882918 48.020924490876496 L 424.55152224523 48.00518041809693 L 425.25763566128 47.98936698681922 L 425.96374907733 47.973486034740915 L 426.66986249338 47.957539360975204 L 427.37597590943 47.941528726850436 L 428.08208932548 47.925455856697965 L 428.78820274153 47.90932243862102 L 429.49431615758 47.89313012524491 L 430.20090031591 47.87687165915895 L 430.90701373195 47.860608155967554 L 431.613127148 47.84434394110997 L 432.31924056405 47.8280793678951 L 433.0253539801 47.81181478194941 L 433.73146739615 47.79555052138022 L 434.4375808122 47.779286916928754 L 435.14369422825 47.76302429212791 L 435.8498076443 47.74676296345103 L 436.55592106035 47.73050324045619 L 437.2620344764 47.714245425929846 L 437.96814789245 47.69798981603486 L 438.6742613085 47.681736700441036 L 439.38037472455 47.66548636246415 L 440.0864881406 47.64923907919621 L 440.79260155665 47.63299512163917 L 441.4987149727 47.61675475482531 L 442.20529913103 47.600517907780954 L 442.91141254708 47.584348693089225 L 443.61752596313 47.56823988554896 L 444.32363937918 47.552190505298825 L 445.02975279523 47.536199592559456 L 445.73586621128 47.520266207225404 L 446.44197962733 47.50438942845142 L 447.14809304338 47.48856835425346 L 447.85420645943 47.47280210111995 L 448.56031987548 47.45708980362366 L 449.26643329153 47.44143061404918 L 449.97254670758 47.42582370202456 L 450.67866012363 47.410268254160826 L 451.38477353967 47.394763473698845 L 452.09088695572 47.379308580164036 L 452.79700037177 47.36390280902941 L 453.50311378782 47.34854541138475 L 454.20969794615 47.33325037545774 L 454.9158113622 47.31806840447365 L 455.62192477825 47.30298746649299 L 456.3280381943 47.288005676283376 L 457.03415161035 47.27312118757709 L 457.7402650264 47.25833219225888 L 458.44637844245 47.243636919574556 L 459.1524918585 47.22903363535556 L 459.85860527455 47.21452064125748 L 460.5647186906 47.20009627401561 L 461.27083210665 47.18575890471902 L 461.9769455227 47.17150693809219 L 462.68305893875 47.15733881180233 L 463.3891723548 47.14325299576831 L 464.09528577085 47.129247991496754 L 464.8013991869 47.11532233142077 L 465.50798334523 47.101467324463044 L 466.21409676128 47.08773692493736 L 466.92021017733 47.0741336433656 L 467.62632359338 47.06065499621536 L 468.33243700943 47.04729855140681 L 469.03855042548 47.03406192724498 L 469.74466384153 47.020942791371795 L 470.45077725758 47.0079388597382 L 471.15689067363 46.99504789560609 L 471.86300408967 46.98226770856115 L 472.56911750572 46.969596153552914 L 473.27523092177 46.95703112994772 L 473.98134433782 46.94457058061141 L 474.68745775387 46.9322124910027 L 475.39357116992 46.91995488828866 L 476.09968458597 46.907795840476865 L 476.80579800202 46.89573345556954 L 477.51238216035 46.88376663733203 L 478.2184955764 46.87194428808067 L 478.92460899245 46.860259345711256 L 479.6307224085 46.84870906295919 L 480.33683582455 46.83729074954482 L 481.0429492406 46.826001770983055 L 481.74906265665 46.814839547433735 L 482.4551760727 46.80380155255989 L 483.16128948875 46.79288531241565 L 483.8674029048 46.78208840435997 L 484.57351632085 46.77140845599132 L 485.2796297369 46.760843144099056 L 485.98574315295 46.75039019364863 L 486.691856569 46.74004737677279 L 487.39796998505 46.729812511796126 L 488.1040834011 46.719683462275384 L 488.81019681715 46.70965813605636 L 489.51678097548 46.699745899848836 L 490.22289439153 46.68998021189384 L 490.92900780758 46.680351657593064 L 491.63512122362 46.67085745291399 L 492.34123463967 46.66149487161391 L 493.04734805572 46.65226124403915 L 493.75346147177 46.643153955950254 L 494.45957488782 46.63417044736906 L 495.16568830387 46.625308211449806 L 495.87180171992 46.616564793379155 L 496.57791513597 46.60793778928996 L 497.28402855202 46.59942484520832 L 497.99014196807 46.59102365601183 L 498.69625538412 46.58273196441462 L 499.40236880017 46.57454755997907 L 500.10848221622 46.56646827813364 L 500.81506637455 46.55848797646877 L 501.5211797906 46.55063872491144 L 502.22729320665 46.542921455605494 L 502.9334066227 46.53533345691477 L 503.63952003875 46.52787207352134 L 504.3456334548 46.520534705258854 L 505.05174687085 46.513318805963706 L 505.7578602869 46.50622188235428 L 506.46397370295 46.49924149293071 L 507.170087119 46.49237524690045 L 507.87620053505 46.48562080312382 L 508.5823139511 46.47897586908209 L 509.28842736715 46.47243819986426 L 509.9945407832 46.46600559718428 L 510.70065419925 46.45967590840786 L 511.4067676153 46.453447025602316 L 512.11288103134 46.44731688461144 L 512.81946518967 46.44128441437448 L 513.52557860572 46.43537526921284 L 514.23169202177 46.42958497174641 L 514.93780543782 46.42391105612171 L 515.64391885387 46.41835110772445 L 516.35003226992 46.412902762114356 L 517.05614568597 46.40756370398441 L 517.76225910202 46.402331666136604 L 518.46837251807 46.39720442848733 L 519.17448593412 46.39217981708288 L 519.88059935017 46.38725570314307 L 520.58671276622 46.382430002124295 L 521.29282618227 46.37770067279655 L 521.99893959832 46.37306571634525 L 522.70505301437 46.36852317549108 L 523.41116643042 46.36407113362554 L 524.11727984647 46.359707713964895 L 524.8238640048 46.35543720594916 L 525.52997742085 46.35127448439408 L 526.2360908369 46.34721450850839 L 526.94220425295 46.34325512687644 L 527.648317669 46.339394232808104 L 528.35443108505 46.33562976341102 L 529.0605445011 46.331959698675405 L 529.76665791715 46.32838206059 L 530.4727713332 46.324894912262835 L 531.17888474925 46.321496357068725 L 531.8849981653 46.31818453781557 L 532.59111158134 46.31495763591869 L 533.29722499739 46.31181387060491 L 534.00333841344 46.3087514981205 L 534.70945182949 46.305768810969425 L 535.41556524554 46.30286413715186 L 536.12214940387 46.30003452221632 L 536.82826281992 46.29729212795252 L 537.53437623597 46.294636983373664 L 538.24048965202 46.29206724507884 L 538.94660306807 46.28958110800352 L 539.65271648412 46.28717680462535 L 540.35882990017 46.28485260418495 L 541.06494331622 46.28260681192046 L 541.77105673227 46.280437768316574 L 542.47717014832 46.27834384837831 L 543.18328356437 46.27632346090803 L 543.88939698042 46.27437504780579 L 544.59551039647 46.27249708338121 L 545.30162381252 46.27068807367988 L 546.00773722857 46.26894655582214 L 546.71385064462 46.26727109736055 L 547.41996406067 46.265660295642476 L 548.126548219 46.264113486747306 L 548.83266163505 46.262638160958545 L 549.5387750511 46.261232465536864 L 550.24488846715 46.2598949145256 L 550.9510018832 46.258624052884784 L 551.65711529925 46.257418455852076 L 552.3632287153 46.25627672831206 L 553.06934213134 46.25519750418016 L 553.77545554739 46.254179445799764 L 554.48156896344 46.253221243351675 L 555.18768237949 46.25232161427522 L 555.89379579554 46.251479302700545 L 556.59990921159 46.25069307889589 L 557.30602262764 46.249961738721424 L 558.01213604369 46.24928410310122 L 558.71824945974 46.24865901750144 L 559.42436287579 46.24808535141733 L 560.13094703412 46.24756391283768 L 560.83706045017 46.24709704968308 L 561.54317386622 46.24668323474987 L 562.24928728227 46.24632132230698 L 562.95540069832 46.24601019047219 L 563.66151411437 46.24574874072425 L 564.36762753042 46.24553589741197 L 565.07374094647 46.24537060728227 L 565.77985436252 46.245251839010564 L 566.48596777857 46.24517858274959 L 567.19208119462 46.245149849681184 L 567.89819461067 46.245164671577754 L 568.60430802672 46.24522210037628 L 569.31042144277 46.245321207757286 L 570.01653485882 46.245461084738736 L 570.72264827487 46.245640841268084 L 571.4292324332 46.24585983022661 L 572.13534584925 46.2461180994984 L 572.8414592653 46.246415362487824 L 573.54757268134 46.246750764517174 L 574.25368609739 46.24712346871382 L 574.95979951344 46.24753265564431 L 575.66591292949 46.2479775229441 L 576.37202634554 46.248457284969334 L 577.07813976159 46.24897117244632 L 577.78425317764 46.24951843213228 L 578.49036659369 46.250098326481805 L 579.19648000974 46.25071013331933 L 579.90259342579 46.25135314552267 L 580.60870684184 46.25202667070698 L 581.31482025789 46.25273003092104 L 582.02093367394 46.253462562346215 L 582.72704708999 46.254223615002104 L 583.43363124832 46.25501293304859 L 584.13974466437 46.255828237074866 L 584.84585808042 46.256669388201885 L 585.55197149647 46.257535806527244 L 586.25808491252 46.25842692424078 L 586.96419832857 46.25934218537475 L 587.67031174462 46.26028104555746 L 588.37642516067 46.261242971773754 L 589.08253857672 46.26222744212646 L 589.78865199277 46.26323394560859 L 590.49476540882 46.26426198187289 L 591.20087882487 46.265311061014586 L 591.90699224092 46.2663807033486 L 592.61310565697 46.267470439203066 L 593.31921907302 46.26857980870989 L 594.02533248906 46.269708361597566 L 594.73144590511 46.27085565699616 L 595.43803006344 46.27202087058714 L 596.14414347949 46.27320060542792 L 596.85025689554 46.274395271273534 L 597.55637031159 46.27560451841401 L 598.26248372764 46.27682800443972 L 598.96859714369 46.27806539410426 L 599.67471055974 46.27931635916002 L 600.38082397579 46.28058057822295 L 601.08693739184 46.28185773662983 L 601.79305080789 46.2831475262912 L 602.49916422394 46.28444964556189 L 603.20527763999 46.28576379910305 L 603.91139105604 46.28708969775306 L 604.61750447209 46.288427058398554 L 605.32361788814 46.28977560384817 L 606.02973130419 46.291135062710055 L 606.73631546252 46.29250593754034 L 607.44242887857 46.293883477647626 L 608.14854229462 46.295267416441504 L 608.85465571067 46.296657585939045 L 609.56076912672 46.29805382168644 L 610.26688254277 46.299455962681634 L 610.97299595882 46.300863851299994 L 611.67910937487 46.302277333233576 L 612.38522279092 46.30369625741179 L 613.09133620697 46.305120475938736 L 613.79744962302 46.30654984402645 L 614.50356303906 46.30798421993194 L 615.20967645511 46.309423464893655 L 615.91578987116 46.310867443064865 L 616.62190328721 46.312316021457946 L 617.32801670326 46.31376906988527 L 618.03413011931 46.31522646089769 L 618.74071427764 46.31668820546446 L 619.44682769369 46.31814897283107 L 620.15294110974 46.319609374430115 L 620.85905452579 46.32106938788604 L 621.56516794184 46.32252899132055 L 622.27128135789 46.323988163336765 L 622.97739477394 46.32544688301465 L 623.68350818999 46.32690512989848 L 624.38962160604 46.32836288398721 L 625.09573502209 46.32982012572546 L 625.80184843814 46.33127683599275 L 626.50796185419 46.33273299609726 L 627.21407527024 46.334188587764515 L 627.92018868629 46.33564359313027 L 628.62630210234 46.337097994731266 L 629.33241551839 46.338551775495034 L 630.03852893444 46.340004918735474 L 630.74511309277 46.34145626977386 L 631.45122650882 46.342901351332216 L 632.15733992487 46.344341210656296 L 632.86345334092 46.345775931476 L 633.56956675697 46.34720559580472 L 634.27568017301 46.348630283975695 L 634.98179358906 46.35005007467828 L 635.68790700511 46.3514650449913 L 636.39402042116 46.352875270415325 L 637.10013383721 46.35428082490836 L 637.80624725326 46.35568178091472 L 638.51236066931 46.357078209397514 L 639.21847408536 46.358470179871915 L 639.92458750141 46.359857760431794 L 640.63070091746 46.36124101777892 L 641.33681433351 46.36262001725561 L 642.04339849184 46.36399555539879 L 642.74951190789 46.36536263164567 L 643.45562532394 46.366721115593805 L 644.16173873999 46.368071165992944 L 644.86785215604 46.3694129383166 L 645.57396557209 46.37074658482442 L 646.28007898814 46.372072254634986 L 646.98619240419 46.373390093784906 L 647.69230582024 46.3747002452958 L 648.39841923629 46.37600284923832 L 649.10453265234 46.3772980427903 L 649.81064606839 46.37858596030031 L 650.51675948444 46.37986673334319 L 651.22287290049 46.38114049078018 L 651.92898631654 46.38240735881408 L 652.63509973259 46.383667461043444 L 653.34121314864 46.38492091851839 L 654.04779730697 46.38616786346614 L 654.75391072301 46.38740360778792 L 655.46002413906 46.38862886859857 L 656.16613755511 46.38984384856764 L 656.87225097116 46.39104874617118 L 657.57836438721 46.39224375577402 L 658.28447780326 46.393429067718785 L 658.99059121931 46.3946048684046 L 659.69670463536 46.39577134037444 L 660.40281805141 46.39692866239295 L 661.10893146746 46.39807700952446 L 661.81504488351 46.3992165532091 L 662.52115829956 46.40034746133989 L 663.22727171561 46.40146989833772 L 663.93338513166 46.402584025220506 L 664.63949854771 46.403689999673304 L 665.34561196376 46.40478797612195 L 666.05219612209 46.4058770990506 L 666.75830953814 46.40695400432361 L 667.46442295419 46.408019643877594 L 668.17053637024 46.409074240721054 L 668.87664978629 46.410118013238446 L 669.58276320234 46.411151175285625 L 670.28887661839 46.41217393628892 L 670.99499003444 46.413186501328084 L 671.70110345049 46.41418907123773 L 672.40721686654 46.41518184268625 L 673.11333028259 46.41616500826774 L 673.81944369864 46.417138756584734 L 674.52555711469 46.41810327232969 L 675.23167053073 46.41905873637239 L 675.93778394678 46.42000532582949 L 676.64389736283 46.42094321414976 L 677.35048152116 46.4218730555034 L 678.05659493721 46.42279146466052 L 678.76270835326 46.423698438208135 L 679.46882176931 46.42459420614642 L 680.17493518536 46.42547899370362 L 680.88104860141 46.4263530214339 L 681.58716201746 46.42721650531837 L 682.29327543351 46.428069656853836 L 682.99938884956 46.42891268315293 L 683.70550226561 46.42974578702888 L 684.41161568166 46.430569167089345 L 685.11772909771 46.4313830178221 L 685.82384251376 46.43218752968113 L 686.52995592981 46.43298288917049 L 687.23606934586 46.433769278923705 L 687.94218276191 46.43454687778865 L 688.64829617796 46.43531586090336 L 689.35488033629 46.43607638467637 L 690.06099375234 46.43682561653651 L 690.76710716839 46.437564087319686 L 691.47322058444 46.43829201584737 L 692.17933400049 46.43900961640139 L 692.88544741654 46.43971709881151 L 693.59156083259 46.440414668555036 L 694.29767424864 46.44110252683993 L 695.00378766469 46.441780870701905 L 695.70990108073 46.442449893084074 L 696.41601449678 46.44310978292515 L 697.12212791283 46.4437607252421 L 697.82824132888 46.44440290121298 L 698.53435474493 46.445036488255425 L 699.24046816098 46.44566166010253 L 699.94658157703 46.44627858688415 L 700.65269499308 46.44688743519964 L 701.35927915141 46.44748779173386 L 702.06539256746 46.44807786482784 L 702.77150598351 46.44865825785348 L 703.47761939956 46.44922916939436 L 704.18373281561 46.449790793908505 L 704.88984623166 46.45034332181643 L 705.59595964771 46.45088693958331 L 706.30207306376 46.45142182980311 L 707.00818647981 46.45194817127526 L 707.71429989586 46.45246613908819 L 708.42041331191 46.45297590469545 L 709.12652672796 46.45347763598761 L 709.83264014401 46.45397149736908 L 710.53875356006 46.45445764983208 L 711.24486697611 46.45493625102421 L 711.95098039216 46.455407455320085 L 721.95098039216 46.455407455320085" stroke-linejoin="round" visibility="visible" stroke="rgba(192,192,192,0.0001)" stroke-width="22" class="highcharts-tracker"></path></g><g class="highcharts-markers highcharts-series-0 highcharts-line-series highcharts-color-0 highcharts-tracker " transform="translate(71,10) scale(1 1)" clip-path="none"><path fill="#e41a1c" d="M 707 46.45246613908819 A 0 0 0 1 1 707 46.45246613908819 Z" class="highcharts-halo highcharts-color-0" fill-opacity="0.25"></path><path fill="#FFFFFF" d="M 713 46.45246613908819 A 6 6 0 1 1 712.9999970000002 46.446466140088184 Z" stroke="#e41a1c" stroke-width="3" visibility="hidden"></path></g></g><g class="highcharts-legend" transform="translate(311,482)"><rect fill="none" class="highcharts-legend-box" rx="0" ry="0" x="0" y="0" width="177" height="26" visibility="visible"></rect><g><g><g class="highcharts-legend-item highcharts-line-series highcharts-color-0 highcharts-series-0" transform="translate(8,3)"><path fill="none" d="M 0 11 L 16 11" class="highcharts-graph" stroke="#e41a1c" stroke-width="2"></path><text x="21" style="color:#333333;font-size:12px;font-weight:bold;cursor:pointer;fill:#333333;" text-anchor="start" y="15"><tspan>Measured temperature</tspan></text></g></g></g></g><g class="highcharts-axis-labels highcharts-xaxis-labels "><text x="77.34290619181378" style="color:#666666;cursor:default;font-size:11px;fill:#666666;" text-anchor="middle" transform="translate(0,0)" y="448" opacity="1">0</text><text x="147.9542477947477" style="color:#666666;cursor:default;font-size:11px;fill:#666666;" text-anchor="middle" transform="translate(0,0)" y="448" opacity="1">0.1</text><text x="218.5655893976816" style="color:#666666;cursor:default;font-size:11px;fill:#666666;" text-anchor="middle" transform="translate(0,0)" y="448" opacity="1">0.2</text><text x="289.17693100061547" style="color:#666666;cursor:default;font-size:11px;fill:#666666;" text-anchor="middle" transform="translate(0,0)" y="448" opacity="1">0.3</text><text x="359.78827260354944" style="color:#666666;cursor:default;font-size:11px;fill:#666666;" text-anchor="middle" transform="translate(0,0)" y="448" opacity="1">0.4</text><text x="430.3996142064833" style="color:#666666;cursor:default;font-size:11px;fill:#666666;" text-anchor="middle" transform="translate(0,0)" y="448" opacity="1">0.5</text><text x="501.01095580941717" style="color:#666666;cursor:default;font-size:11px;fill:#666666;" text-anchor="middle" transform="translate(0,0)" y="448" opacity="1">0.6</text><text x="571.6222974123511" style="color:#666666;cursor:default;font-size:11px;fill:#666666;" text-anchor="middle" transform="translate(0,0)" y="448" opacity="1">0.7</text><text x="642.233639015285" style="color:#666666;cursor:default;font-size:11px;fill:#666666;" text-anchor="middle" transform="translate(0,0)" y="448" opacity="1">0.8</text><text x="712.844980618219" style="color:#666666;cursor:default;font-size:11px;fill:#666666;" text-anchor="middle" transform="translate(0,0)" y="448" opacity="1">0.9</text><text x="783.456322221153" style="color:#666666;cursor:default;font-size:11px;fill:#666666;" text-anchor="middle" transform="translate(0,0)" y="448" opacity="1">1</text></g><g class="highcharts-axis-labels highcharts-yaxis-labels "><text x="56" style="color:#666666;cursor:default;font-size:11px;fill:#666666;" text-anchor="end" transform="translate(0,0)" y="434" opacity="1"><tspan>0</tspan></text><text x="56" style="color:#666666;cursor:default;font-size:11px;fill:#666666;" text-anchor="end" transform="translate(0,0)" y="387" opacity="1"><tspan>25</tspan></text><text x="56" style="color:#666666;cursor:default;font-size:11px;fill:#666666;" text-anchor="end" transform="translate(0,0)" y="340" opacity="1"><tspan>50</tspan></text><text x="56" style="color:#666666;cursor:default;font-size:11px;fill:#666666;" text-anchor="end" transform="translate(0,0)" y="294" opacity="1"><tspan>75</tspan></text><text x="56" style="color:#666666;cursor:default;font-size:11px;fill:#666666;" text-anchor="end" transform="translate(0,0)" y="247" opacity="1"><tspan>100</tspan></text><text x="56" style="color:#666666;cursor:default;font-size:11px;fill:#666666;" text-anchor="end" transform="translate(0,0)" y="201" opacity="1"><tspan>125</tspan></text><text x="56" style="color:#666666;cursor:default;font-size:11px;fill:#666666;" text-anchor="end" transform="translate(0,0)" y="154" opacity="1"><tspan>150</tspan></text><text x="56" style="color:#666666;cursor:default;font-size:11px;fill:#666666;" text-anchor="end" transform="translate(0,0)" y="108" opacity="1"><tspan>175</tspan></text><text x="56" style="color:#666666;cursor:default;font-size:11px;fill:#666666;" text-anchor="end" transform="translate(0,0)" y="61" opacity="1"><tspan>200</tspan></text><text x="56" style="color:#666666;cursor:default;font-size:11px;fill:#666666;" text-anchor="end" transform="translate(0,0)" y="15" opacity="1"><tspan>225</tspan></text></g><text x="790" class="highcharts-credits" text-anchor="end" style="cursor:pointer;color:#999999;font-size:9px;fill:#999999;" y="518"></text><g class="highcharts-label highcharts-tooltip highcharts-color-0" style="cursor:default;pointer-events:none;white-space:nowrap;" transform="translate(574,-9999)" opacity="0" visibility="visible"><path fill="none" class="highcharts-label-box highcharts-tooltip-box" d="M 3.5 0.5 L 185.5 0.5 191.5 -5.5 197.5 0.5 221 0.5 C 224.5 0.5 224.5 0.5 224.5 3.5 L 224.5 43.5 C 224.5 46.5 224.5 46.5 221.5 46.5 L 3.5 46.5 C 0.5 46.5 0.5 46.5 0.5 43.5 L 0.5 3.5 C 0.5 0.5 0.5 0.5 3.5 0.5" isShadow="true" stroke="#000000" stroke-opacity="0.049999999999999996" stroke-width="5" transform="translate(1, 1)"></path><path fill="none" class="highcharts-label-box highcharts-tooltip-box" d="M 3.5 0.5 L 185.5 0.5 191.5 -5.5 197.5 0.5 221 0.5 C 224.5 0.5 224.5 0.5 224.5 3.5 L 224.5 43.5 C 224.5 46.5 224.5 46.5 221.5 46.5 L 3.5 46.5 C 0.5 46.5 0.5 46.5 0.5 43.5 L 0.5 3.5 C 0.5 0.5 0.5 0.5 3.5 0.5" isShadow="true" stroke="#000000" stroke-opacity="0.09999999999999999" stroke-width="3" transform="translate(1, 1)"></path><path fill="none" class="highcharts-label-box highcharts-tooltip-box" d="M 3.5 0.5 L 185.5 0.5 191.5 -5.5 197.5 0.5 221 0.5 C 224.5 0.5 224.5 0.5 224.5 3.5 L 224.5 43.5 C 224.5 46.5 224.5 46.5 221.5 46.5 L 3.5 46.5 C 0.5 46.5 0.5 46.5 0.5 43.5 L 0.5 3.5 C 0.5 0.5 0.5 0.5 3.5 0.5" isShadow="true" stroke="#000000" stroke-opacity="0.15" stroke-width="1" transform="translate(1, 1)"></path><path fill="rgba(247,247,247,0.85)" class="highcharts-label-box highcharts-tooltip-box" d="M 3.5 0.5 L 185.5 0.5 191.5 -5.5 197.5 0.5 221 0.5 C 224.5 0.5 224.5 0.5 224.5 3.5 L 224.5 43.5 C 224.5 46.5 224.5 46.5 221.5 46.5 L 3.5 46.5 C 0.5 46.5 0.5 46.5 0.5 43.5 L 0.5 3.5 C 0.5 0.5 0.5 0.5 3.5 0.5" stroke="#e41a1c" stroke-width="1"></path><text x="8" style="font-size:12px;color:#333333;fill:#333333;" y="20"><tspan>0.99</tspan><tspan style="fill: #e41a1c; font-weight: bold;" x="8" dy="15">Measured temperature</tspan><tspan dx="0">: </tspan><tspan style="font-weight:bold" dx="0">200.06</tspan><tspan dx="0"> °C</tspan></text></g></svg>