<svg version="1.1" class="highcharts-root" style="font-family:&quot;Lucida Grande&quot;, &quot;Lucida Sans Unicode&quot;, Arial, Helvetica, sans-serif;font-size:12px;" xmlns="http://www.w3.org/2000/svg" width="800" height="523" viewBox="0 0 800 523"><desc>Created with Highcharts 5.0.9</desc><defs><clipPath id="highcharts-fndqeav-17"><rect x="0" y="0" width="719" height="419" fill="none"></rect></clipPath></defs><rect fill="#ffffff" class="highcharts-background" x="0" y="0" width="800" height="523" rx="0" ry="0"></rect><rect fill="none" class="highcharts-plot-background" x="71" y="10" width="719" height="419"></rect><g class="highcharts-grid highcharts-xaxis-grid "><path fill="none" class="highcharts-grid-line" d="M 641.5 10 L 641.5 429" opacity="1"></path><path fill="none" opacity="1" class="highcharts-grid-line" d="M 76.5 10 L 76.5 429"></path><path fill="none" opacity="1" class="highcharts-grid-line" d="M 147.5 10 L 147.5 429"></path><path fill="none" opacity="1" class="highcharts-grid-line" d="M 218.5 10 L 218.5 429"></path><path fill="none" opacity="1" class="highcharts-grid-line" d="M 288.5 10 L 288.5 429"></path><path fill="none" opacity="1" class="highcharts-grid-line" d="M 359.5 10 L 359.5 429"></path><path fill="none" opacity="1" class="highcharts-grid-line" d="M 429.5 10 L 429.5 429"></path><path fill="none" opacity="1" class="highcharts-grid-line" d="M 500.5 10 L 500.5 429"></path><path fill="none" opacity="1" class="highcharts-grid-line" d="M 571.5 10 L 571.5 429"></path><path fill="none" opacity="1" class="highcharts-grid-line" d="M 712.5 10 L 712.5 429"></path><path fill="none" opacity="1" class="highcharts-grid-line" d="M 782.5 10 L 782.5 429"></path></g><g class="highcharts-grid highcharts-yaxis-grid "><path fill="none" stroke="#aaa" stroke-width="1" opacity="1" class="highcharts-grid-line" d="M 71 429.5 L 790 429.5"></path><path fill="none" stroke="#aaa" stroke-width="1" opacity="1" class="highcharts-grid-line" d="M 71 382.5 L 790 382.5"></path><path fill="none" stroke="#aaa" stroke-width="1" opacity="1" class="highcharts-grid-line" d="M 71 336.5 L 790 336.5"></path><path fill="none" stroke="#aaa" stroke-width="1" opacity="1" class="highcharts-grid-line" d="M 71 289.5 L 790 289.5"></path><path fill="none" stroke="#aaa" stroke-width="1" opacity="1" class="highcharts-grid-line" d="M 71 243.5 L 790 243.5"></path><path fill="none" stroke="#aaa" stroke-width="1" opacity="1" class="highcharts-grid-line" d="M 71 196.5 L 790 196.5"></path><path fill="none" stroke="#aaa" stroke-width="1" opacity="1" class="highcharts-grid-line" d="M 71 150.5 L 790 150.5"></path><path fill="none" stroke="#aaa" stroke-width="1" opacity="1" class="highcharts-grid-line" d="M 71 103.5 L 790 103.5"></path><path fill="none" stroke="#aaa" stroke-width="1" opacity="1" class="highcharts-grid-line" d="M 71 57.5 L 790 57.5"></path><path fill="none" stroke="#aaa" stroke-width="1" opacity="1" class="highcharts-grid-line" d="M 71 9.5 L 790 9.5"></path></g><rect fill="none" class="highcharts-plot-border" x="71" y="10" width="719" height="419"></rect><g class="highcharts-axis highcharts-xaxis "><path fill="none" class="highcharts-tick" stroke="#ccd6eb" stroke-width="1" d="M 641.5 429 L 641.5 439" opacity="1"></path><path fill="none" class="highcharts-tick" stroke="#ccd6eb" stroke-width="1" d="M 76.5 429 L 76.5 439" opacity="1"></path><path fill="none" class="highcharts-tick" stroke="#ccd6eb" stroke-width="1" d="M 147.5 429 L 147.5 439" opacity="1"></path><path fill="none" class="highcharts-tick" stroke="#ccd6eb" stroke-width="1" d="M 218.5 429 L 218.5 439" opacity="1"></path><path fill="none" class="highcharts-tick" stroke="#ccd6eb" stroke-width="1" d="M 288.5 429 L 288.5 439" opacity="1"></path><path fill="none" class="highcharts-tick" stroke="#ccd6eb" stroke-width="1" d="M 359.5 429 L 359.5 439" opacity="1"></path><path fill="none" class="highcharts-tick" stroke="#ccd6eb" stroke-width="1" d="M 429.5 429 L 429.5 439" opacity="1"></path><path fill="none" class="highcharts-tick" stroke="#ccd6eb" stroke-width="1" d="M 500.5 429 L 500.5 439" opacity="1"></path><path fill="none" class="highcharts-tick" stroke="#ccd6eb" stroke-width="1" d="M 571.5 429 L 571.5 439" opacity="1"></path><path fill="none" class="highcharts-tick" stroke="#ccd6eb" stroke-width="1" d="M 712.5 429 L 712.5 439" opacity="1"></path><path fill="none" class="highcharts-tick" stroke="#ccd6eb" stroke-width="1" d="M 782.5 429 L 782.5 439" opacity="1"></path><text x="430.5" text-anchor="middle" transform="translate(0,0)" class="highcharts-axis-title" style="color:#666666;fill:#666666;" y="467"><tspan>Time (min)</tspan></text><path fill="none" class="highcharts-axis-line" stroke="#ccd6eb" stroke-width="1" d="M 71 429.5 L 790 429.5"></path></g><g class="highcharts-axis highcharts-yaxis "><text x="25.140625" text-anchor="middle" transform="translate(0,0) rotate(270 25.140625 219.5)" class="highcharts-axis-title" style="color:#666666;fill:#666666;" y="219.5"><tspan>Temperature (°C)</tspan></text><path fill="none" class="highcharts-axis-line" d="M 71 10 L 71 429"></path></g><g class="highcharts-series-group"><g class="highcharts-series highcharts-series-0 highcharts-line-series highcharts-color-0 " transform="translate(71,10) scale(1 1)" clip-path="url(#highcharts-fndqeav-17)"><path fill="none" d="M 7.0490196078431 381.58934213644034 L 7.7558391372885 381.0945503858581 L 8.4619525533179 380.2793206301995 L 9.1680659693473 379.15031819965657 L 9.8741793853768 377.71439423208597 L 10.580292801406 375.97825715974216 L 11.286406217436 373.9484756752096 L 11.993225746881 371.62902300524286 L 12.700045276326 369.0280997580619 L 13.406864805771 366.1518909166784 L 14.113684335216 363.0064524751832 L 14.82050386466 359.5977141222803 L 15.527323394105 355.9314818689974 L 16.23414292355 352.01344062173575 L 16.940962452995 347.8491567017956 L 17.64778198244 343.44408031249066 L 18.35436614075 338.8112910935802 L 19.06047955678 334.03295862091886 L 19.766592972811 329.1315724395661 L 20.472706388841 324.10991200198015 L 21.178819804871 318.9706987779874 L 21.884933220901 313.7165974599569 L 22.591046636931 308.35021714292793 L 23.297160052961 302.8741124802135 L 24.003273468991 297.2907848149903 L 24.709386885021 291.60268328836895 L 25.415500301051 285.81220592444134 L 26.121613717081 279.92170069277654 L 26.827727133111 273.93346654883476 L 27.533840549141 267.84975445276444 L 28.239953965171 261.6727683670247 L 28.946067381201 255.4046662332746 L 29.652180797231 249.04756092896415 L 30.358764955541 242.63902188879203 L 31.064878371571 236.31256964178448 L 31.770991787601 230.07126750640828 L 32.477105203632 223.91339225514386 L 33.183218619662 217.83725642502006 L 33.889332035692 211.8412075744297 L 34.595445451722 205.9236275553872 L 35.301558867752 200.08293180090965 L 36.007672283782 194.31756862720906 L 36.713785699812 188.6260185503832 L 37.419899115842 183.00679361730934 L 38.126012531872 177.4584367504396 L 38.832125947902 171.97952110621407 L 39.538239363932 166.56864944680652 L 40.244352779962 161.22445352492792 L 40.950466195992 155.94559348140922 L 41.657050354302 150.72730830000717 L 42.363163770332 145.6254678932001 L 43.069277186362 140.68183628168333 L 43.775390602392 135.89307352860885 L 44.481504018422 131.25590915732573 L 45.187617434452 126.76714070786358 L 45.893730850483 122.42363232340944 L 46.599844266513 118.22231336615738 L 47.305957682543 114.16017706191963 L 48.012071098573 110.2342791729165 L 48.718184514603 106.44173669813233 L 49.424297930633 102.77972660069429 L 50.130411346663 99.24548456168395 L 50.836524762693 95.83630375985729 L 51.542638178723 92.54953367671982 L 52.248751594753 89.38257892642855 L 52.954865010783 86.33289811002089 L 53.661449169093 83.39714633116984 L 54.367562585123 80.58960735377883 L 55.073676001153 77.90935574355615 L 55.779789417183 75.35367740096319 L 56.485902833213 72.91991469771978 L 57.192016249243 70.6054653031934 L 57.898129665273 68.40778103517323 L 58.604243081304 66.32436673453265 L 59.310356497334 64.35277916327306 L 60.016469913364 62.49062592547125 L 60.722583329394 60.73556441064591 L 61.428696745424 59.08530075908686 L 62.134810161454 57.53758884868415 L 62.840923577484 56.09022930281594 L 63.547036993514 54.7410685188442 L 64.253150409544 53.48799771681189 L 64.959263825574 52.32895200789977 L 65.665847983884 51.25611859602691 L 66.371961399914 50.25327935724465 L 67.078074815944 49.31708618465041 L 67.784188231974 48.44610830665255 L 68.490301648004 47.638944730642095 L 69.196415064034 46.89422362410437 L 69.902528480064 46.210601708590104 L 70.608641896094 45.58676366628055 L 71.314755312125 45.02142155888225 L 72.020868728155 44.513314258606215 L 72.726982144185 44.061206890960705 L 73.433095560215 43.66389028913335 L 74.139208976245 43.32018045970608 L 74.845322392275 43.02891805947718 L 75.551435808305 42.78896788314967 L 76.257549224335 42.59921836167513 L 76.964133382645 42.458500988643095 L 77.670246798675 42.352089683956706 L 78.376360214705 42.26610218966613 L 79.082473630735 42.20009587007837 L 79.788587046765 42.15363730621709 L 80.494700462795 42.12630210427096 L 81.200813878825 42.117674708021696 L 81.906927294855 42.1273482151704 L 82.613040710885 42.15492419747426 L 83.319154126915 42.2000125246355 L 84.025267542945 42.262231191836236 L 84.731380958976 42.3412061508634 L 85.437494375006 42.43657114474479 L 86.143607791036 42.54796754581662 L 86.849721207066 42.67504419715999 L 87.555834623096 42.817457257330716 L 88.261948039126 42.97487004831959 L 88.968532197436 43.14605954516895 L 89.674645613466 43.3183923924272 L 90.380759029496 43.48842833951386 L 91.086872445526 43.65621383513678 L 91.792985861556 43.821794364027596 L 92.499099277586 43.985214466966625 L 93.205212693616 44.146517760405004 L 93.911326109646 44.305746955666734 L 94.617439525676 44.46294387775896 L 95.323552941706 44.61814948379049 L 96.029666357736 44.77140388100361 L 96.735779773766 44.92274634443942 L 97.441893189797 45.072215334224154 L 98.148006605827 45.21984851250875 L 98.854120021857 45.36568276004533 L 99.560233437887 45.50975419242934 L 100.26634685392 45.65209817599532 L 100.97293101223 45.791511492026814 L 101.67904442826 45.923789438618485 L 102.38515784429 46.048890316268285 L 103.09127126032 46.16696769940387 L 103.79738467635 46.278171966564685 L 104.50349809238 46.38265036681395 L 105.20961150841 46.48054708478122 L 105.91572492444 46.572003304348584 L 106.62183834047 46.657157271014114 L 107.3279517565 46.73614435295957 L 108.03406517253 46.809097100849726 L 108.74017858856 46.876145306386945 L 109.44629200459 46.93741605965204 L 110.15240542062 46.99303380525174 L 110.85851883665 47.043120397294615 L 111.56463225268 47.087795153236016 L 112.27121641099 47.12719947485789 L 112.97732982702 47.16163515417355 L 113.68344324305 47.19146090986652 L 114.38955665908 47.216776434280746 L 115.09567007511 47.23767934414019 L 115.80178349114 47.254265223680704 L 116.50789690717 47.266627666899126 L 117.2140103232 47.27485831890954 L 117.92012373923 47.2790469164533 L 118.62623715526 47.27928132755886 L 119.33235057129 47.2756475903804 L 120.03846398732 47.26822995122649 L 120.74457740335 47.25711090180425 L 121.45069081938 47.24237121568228 L 122.15680423541 47.22408998400476 L 122.86291765144 47.202344650453426 L 123.56903106747 47.17721104548832 L 124.27561522578 47.14887726940498 L 124.98172864181 47.119034132205456 L 125.68784205784 47.08815473281709 L 126.39395547387 47.05626226167709 L 127.1000688899 47.023379425641735 L 127.80618230593 46.989528458039274 L 128.51229572196 46.954731128507206 L 129.21840913799 46.919008752636216 L 129.92452255402 46.88238220140016 L 130.63063597005 46.84487191040529 L 131.33674938608 46.80649788893214 L 132.04286280211 46.7672797288007 L 132.74897621814 46.727236613049456 L 133.45508963417 46.68638732442662 L 134.1612030502 46.6447502537149 L 134.86731646623 46.602343407875935 L 135.57342988226 46.55918441802942 L 136.28001404057 46.51564280940795 L 136.9861274566 46.47294790639836 L 137.69224087263 46.431134450122045 L 138.39835428866 46.39018412881535 L 139.10446770469 46.35007901125368 L 139.81058112072 46.31080153883585 L 140.51669453675 46.272334517848094 L 141.22280795278 46.23466111187565 L 141.92892136881 46.1977648343813 L 142.63503478484 46.16162954142999 L 143.34114820087 46.12623942457435 L 144.0472616169 46.0915790038826 L 144.75337503293 46.05763312110565 L 145.45948844896 46.02438693299689 L 146.16560186499 45.99182590476573 L 146.87171528102 45.95993580366928 L 147.57829943933 45.92868218167723 L 148.28441285536 45.89841134736082 L 148.99052627139 45.86937685430553 L 149.69663968742 45.84155240282149 L 150.40275310345 45.8149122403654 L 151.10886651948 45.789431150169776 L 151.81497993551 45.76508444010864 L 152.52109335154 45.74184793179455 L 153.22720676757 45.71969794989968 L 153.9333201836 45.69861131170552 L 154.63943359963 45.678565316860045 L 155.34554701566 45.65953773735714 L 156.05166043169 45.64150680771655 L 156.75777384772 45.6244512153753 L 157.46388726375 45.60835009127277 L 158.17000067978 45.593183000630574 L 158.87611409581 45.57892993393307 L 159.58269825412 45.56555979127984 L 160.28881167015 45.55303738359544 L 160.99492508618 45.541325811707054 L 161.70103850221 45.530407675100946 L 162.40715191824 45.52026593542132 L 163.11326533427 45.51088390893682 L 163.8193787503 45.50224525917622 L 164.52549216633 45.49433398970888 L 165.23160558236 45.48713443707703 L 165.93771899839 45.480631263876376 L 166.64383241442 45.47480945198038 L 167.34994583045 45.469654295904206 L 168.05605924648 45.46515139630719 L 168.76217266251 45.46128665362909 L 169.46828607854 45.458046261862705 L 170.17439949457 45.455416702449384 L 170.8805129106 45.453384738305544 L 171.58709706891 45.45187554013148 L 172.29321048494 45.45069495301834 L 172.99932390097 45.449822045513315 L 173.705437317 45.449250140645006 L 174.41155073303 45.44897270048017 L 175.11766414906 45.44898332323544 L 175.82377756509 45.44927574044635 L 176.52989098112 45.449843814196925 L 177.23600439715 45.45068153440775 L 177.94211781318 45.4517830161754 L 178.64823122921 45.453142497175406 L 179.35434464524 45.454754335112 L 180.06045806127 45.45661300522357 L 180.7665714773 45.45871309783945 L 181.47268489333 45.46104931599001 L 182.17879830936 45.463616473063325 L 182.88538246767 45.46641138620441 L 183.5922019971 45.469318228773375 L 184.29902152653 45.47223227812873 L 185.00584105595 45.47515331664704 L 185.71266058538 45.478081131300996 L 186.41948011481 45.481015513562 L 187.12629964423 45.48395625930709 L 187.83311917366 45.48690316872597 L 188.53993870308 45.48985604623368 L 189.24675823251 45.49281470037829 L 189.95357776194 45.49577894376267 L 190.66039729136 45.498748592951074 L 191.36721682079 45.50172346839173 L 192.07403635022 45.504703394336275 L 192.78085587964 45.50768819875668 L 193.48767540907 45.510677713273424 L 194.1944949385 45.51367177307492 L 194.90107909679 45.516662594502804 L 195.60789862621 45.51958143474354 L 196.31471815564 45.52240976114484 L 197.02153768507 45.525149486368946 L 197.72835721449 45.52780248326377 L 198.43517674392 45.53037058568748 L 199.14199627335 45.53285558932106 L 199.84881580277 45.535259252463504 L 200.5556353322 45.5375832968075 L 201.26245486162 45.53982940820117 L 201.96927439105 45.54199923739452 L 202.67609392048 45.5440944007683 L 203.3829134499 45.54611648105299 L 204.08973297933 45.548067028024604 L 204.79655250876 45.54994755918966 L 205.50337203818 45.551759560459914 L 206.21019156761 45.5535044868077 L 206.9167757259 45.555179996455024 L 207.62359525533 45.556779989773645 L 208.33041478475 45.55830503527159 L 209.03723431418 45.55975673368647 L 209.74405384361 45.56113665241281 L 210.45087337303 45.56244632620303 L 211.15769290246 45.56368725783881 L 211.86451243189 45.56486091880049 L 212.57133196131 45.56596874991919 L 213.27815149074 45.567012162011565 L 213.98497102017 45.567992536504335 L 214.69179054959 45.568911226047305 L 215.39861007902 45.56976955511146 L 216.10542960844 45.57056882057611 L 216.81224913787 45.57131029229987 L 217.5190686673 45.57199521368557 L 218.22565282559 45.57262465196317 L 218.93247235501 45.57321224393547 L 219.63929188444 45.573767863917 L 220.34611141387 45.57429219674259 L 221.05293094329 45.5747859129807 L 221.75975047272 45.575249669231425 L 222.46657000215 45.575684108416624 L 223.17338953157 45.5760898600638 L 223.880209061 45.57646754058743 L 224.58702859043 45.576817753558146 L 225.29384811985 45.57714108997044 L 226.00066764928 45.5774381285072 L 226.70748717871 45.57770943579317 L 227.41430670813 45.57795556664814 L 228.12112623756 45.578177064330646 L 228.82794576699 45.5783744607769 L 229.53476529641 45.57854827684076 L 230.2413494547 45.57870091497546 L 230.94816898413 45.578849301925686 L 231.65498851356 45.578997175837344 L 232.36180804298 45.579144544806525 L 233.06862757241 45.5792914167651 L 233.77544710183 45.57943779948215 L 234.48226663126 45.57958370056684 L 235.18908616069 45.579729127474934 L 235.89590569011 45.57987408750722 L 236.60272521954 45.5800185878154 L 237.30954474897 45.580162635406964 L 238.01636427839 45.58030623714285 L 238.72318380782 45.580449399747124 L 239.43000333725 45.58059212980493 L 240.13682286667 45.58073443376878 L 240.8436423961 45.58087631795502 L 241.55046192553 45.58101778855524 L 242.25704608382 45.58116219903411 L 242.96386561324 45.5813173308004 L 243.67068514267 45.58148320723029 L 244.3775046721 45.581659590834704 L 245.08432420152 45.58184624908267 L 245.79114373095 45.58204295429044 L 246.49796326037 45.58224948352728 L 247.2047827898 45.582465618512515 L 247.91160231923 45.582691145519505 L 248.61842184865 45.58292585528295 L 249.32524137808 45.583169542904955 L 250.03206090751 45.5834220077611 L 250.73888043693 45.58368305341628 L 251.44569996636 45.583952487534816 L 252.15251949579 45.58423012179475 L 252.85933902521 45.58451577180875 L 253.5659231835 45.584809173871065 L 254.27274271293 45.58511172503273 L 254.97956224236 45.58542400852156 L 255.68638177178 45.585745805855424 L 256.39320130121 45.586076903109245 L 257.10002083064 45.58641709082593 L 257.80684036006 45.58676616392273 L 258.51365988949 45.587123921595946 L 259.22047941892 45.58749016723755 L 259.92729894834 45.58786470834531 L 260.63411847777 45.588247356436284 L 261.34093800719 45.588637926963656 L 262.04775753662 45.58903623923692 L 262.75457706605 45.589442116338546 L 263.46139659547 45.58985538504879 L 264.1682161249 45.590275875765485 L 264.87503565433 45.59070342243177 L 265.58161981262 45.59113750242369 L 266.28843934204 45.59157679016556 L 266.99525887147 45.59202074774595 L 267.7020784009 45.592469264209626 L 268.40889793032 45.59292223092149 L 269.11571745975 45.59337954152261 L 269.82253698918 45.59384109187721 L 270.5293565186 45.59430678003156 L 271.23617604803 45.59477650616634 L 271.94299557746 45.59525017255345 L 272.64981510688 45.59572768350972 L 273.35663463631 45.596208945354704 L 274.06345416573 45.596693866373585 L 274.77027369516 45.59718235677224 L 275.47709322459 45.597674328637254 L 276.18391275401 45.598169695898605 L 276.89073228344 45.598668374288536 L 277.59731644173 45.59916929863272 L 278.30413597116 45.59967116398343 L 279.01095550058 45.60017373596156 L 279.71777503001 45.600676988714724 L 280.42459455944 45.60118089694174 L 281.13141408886 45.60168543587713 L 281.83823361829 45.60219058128337 L 282.54505314772 45.60269630943674 L 283.25187267714 45.603202597119605 L 283.95869220657 45.60370942160688 L 284.665511736 45.60421676065789 L 285.37233126542 45.60472459250485 L 286.07915079485 45.60523289584762 L 286.78597032428 45.60574164983615 L 287.4927898537 45.6062508340645 L 288.19960938313 45.60676042856721 L 288.90619354142 45.60727022437504 L 289.61301307085 45.60777964702453 L 290.31983260027 45.608288044343624 L 291.0266521297 45.60879542808573 L 291.73347165912 45.60930180976686 L 292.44029118855 45.609807200673856 L 293.14711071798 45.61031161187043 L 293.8539302474 45.610815054198156 L 294.56074977683 45.61131753828249 L 295.26756930626 45.61181907453715 L 295.97438883568 45.61231967316951 L 296.68120836511 45.61281934418383 L 297.38802789454 45.61331809738584 L 298.09484742396 45.6138159423856 L 298.80166695339 45.61431288860598 L 299.50848648282 45.614808945280174 L 300.21530601224 45.61530412145993 L 300.92189017053 45.61579821546229 L 301.62870969996 45.61629130847564 L 302.33552922939 45.61678321090943 L 303.04234875881 45.61727393845922 L 303.74916828824 45.61776350650365 L 304.45598781767 45.618251930108386 L 305.16280734709 45.61873922403646 L 305.86962687652 45.619225402750715 L 306.57644640594 45.619710480426136 L 307.28326593537 45.62019447094883 L 307.9900854648 45.62067738792433 L 308.69690499422 45.62115924468725 L 309.40372452365 45.62164005430128 L 310.11054405308 45.62211982956899 L 310.8173635825 45.622598583033266 L 311.52418311193 45.62307632698679 L 312.23100264136 45.6235530734765 L 312.93758679965 45.62402875616817 L 313.64440632907 45.62450383258249 L 314.3512258585 45.624978152801816 L 315.05804538793 45.62545172342584 L 315.76486491735 45.62592455092482 L 316.47168444678 45.62639664164709 L 317.17850397621 45.626868001813534 L 317.88532350563 45.62733863752749 L 318.59214303506 45.62780855477325 L 319.29896256448 45.62827775942009 L 320.00578209391 45.62874625722509 L 320.71260162334 45.629214053832584 L 321.41942115276 45.62968115478071 L 322.12624068219 45.630147565499044 L 322.83306021162 45.63061329131716 L 323.53987974104 45.631078337459314 L 324.24646389933 45.63154256233861 L 324.95328342876 45.63200650393952 L 325.66010295819 45.63247010967831 L 326.36692248761 45.63293337722155 L 327.07374201704 45.63339630429408 L 327.78056154647 45.633858888677935 L 328.48738107589 45.63432112820885 L 329.19420060532 45.63478302077863 L 329.90102013475 45.63524456433146 L 330.60783966417 45.6357057568639 L 331.3146591936 45.636166596423095 L 332.02147872303 45.636627081106326 L 332.72829825245 45.6370872090597 L 333.43511778188 45.63754697847668 L 334.1419373113 45.63800638759818 L 334.84875684073 45.63846543471061 L 335.55557637016 45.63892411814538 L 336.26216052845 45.63938232386687 L 336.96898005787 45.639840540921625 L 337.6757995873 45.64029863363493 L 338.38261911673 45.64075659518085 L 339.08943864615 45.64121441888551 L 339.79625817558 45.64167209822284 L 340.50307770501 45.64212962681279 L 341.20989723443 45.64258699841696 L 341.91671676386 45.64304420693378 L 342.62353629329 45.643501246401456 L 343.33035582271 45.64395811098865 L 344.03717535214 45.64441479499868 L 344.74399488157 45.64487129285834 L 345.45081441099 45.645327599122425 L 346.15763394042 45.64578370846681 L 346.86445346984 45.646239615688046 L 347.57127299927 45.64669531570081 L 348.27785715756 45.64715070951604 L 348.98467668699 45.647606173448764 L 349.69149621641 45.64806154857928 L 350.39831574584 45.64851682736338 L 351.10513527527 45.64897200242564 L 351.81195480469 45.649427066550174 L 352.51877433412 45.649882012684145 L 353.22559386355 45.65033683392812 L 353.93241339297 45.650791523536896 L 354.6392329224 45.651246074914695 L 355.34605245183 45.651700481611726 L 356.05287198125 45.65215473732269 L 356.75969151068 45.65260883588326 L 357.46651104011 45.653062771263365 L 358.17333056953 45.65351653757085 L 358.88015009896 45.65397012904458 L 359.58673425726 45.65442339153492 L 360.29284767331 45.65487621683059 L 360.99896108936 45.65532891907537 L 361.70507450541 45.65578149154402 L 362.41118792146 45.6562339276598 L 363.11730133751 45.65668622099287 L 363.82341475356 45.65713836525549 L 364.52952816961 45.65759035429841 L 365.23564158566 45.65804218211389 L 365.94175500171 45.65849384282387 L 366.64786841776 45.65894533068314 L 367.35398183381 45.65939664007561 L 368.06009524986 45.659847765510165 L 368.76620866591 45.660298701619865 L 369.47232208195 45.660749443157385 L 370.178435498 45.66119998499477 L 370.88454891405 45.66165032211944 L 371.59113307238 45.66210075846442 L 372.29724648843 45.66255072506249 L 373.00335990448 45.66300052032409 L 373.70947332053 45.66345013863514 L 374.41558673658 45.66389957450696 L 375.12170015263 45.66434882257357 L 375.82781356868 45.66479787759113 L 376.53392698473 45.66524673443212 L 377.24004040078 45.66569538808665 L 377.94615381683 45.66614383365811 L 378.65226723288 45.666592066357566 L 379.35838064893 45.66704008150748 L 380.06449406498 45.66748787453639 L 380.77060748103 45.667935440976635 L 381.47672089708 45.66838277646258 L 382.18283431313 45.66882987672756 L 382.88894772918 45.669276737604605 L 383.59553188751 45.66972367644138 L 384.30164530356 45.67017012378733 L 385.00775871961 45.67061637253198 L 385.71387213566 45.671062417728535 L 386.41998555171 45.671508254539106 L 387.12609896776 45.671953878241766 L 387.83221238381 45.67239928421617 L 388.53832579986 45.67284446794821 L 389.24443921591 45.67328942502735 L 389.95055263195 45.673734151142696 L 390.656666048 45.674178642083405 L 391.36277946405 45.6746228937339 L 392.0688928801 45.67506690207426 L 392.77500629615 45.67551066317583 L 393.4811197122 45.67595417320149 L 394.18723312825 45.676397428402424 L 394.89381728658 45.6768407227147 L 395.59993070263 45.6772835076103 L 396.30604411868 45.67772609153951 L 397.01215753473 45.67816846968162 L 397.71827095078 45.67861063732755 L 398.42438436683 45.679052589870764 L 399.13049778288 45.679494322813525 L 399.83661119893 45.67993583175928 L 400.54272461498 45.680377112411804 L 401.24883803103 45.680818160572585 L 401.95495144708 45.681258972139176 L 402.66106486313 45.681699543105196 L 403.36717827918 45.682139869554305 L 404.07329169523 45.68257994766117 L 404.77940511128 45.6830197736889 L 405.48551852733 45.68345934398741 L 406.19163194338 45.683898654990685 L 406.89821610171 45.684338009111286 L 407.60432951776 45.68477687137721 L 408.31044293381 45.68521553558497 L 409.01655634986 45.685653996933354 L 409.72266976591 45.686092250731065 L 410.42878318195 45.68653029238709 L 411.134896598 45.68696811742234 L 411.84101001405 45.68740572145572 L 412.5471234301 45.687843100206806 L 413.25323684615 45.68828024949306 L 413.9593502622 45.6887171652279 L 414.66546367825 45.68915384341773 L 415.3715770943 45.68959028016167 L 416.07769051035 45.690026471648025 L 416.7838039264 45.69046241415384 L 417.48991734245 45.690898104042276 L 418.1960307585 45.691333537760215 L 418.90261491683 45.691769034979075 L 419.60872833288 45.69220405360062 L 420.31484174893 45.6926388790522 L 421.02095516498 45.69307350650598 L 421.72706858103 45.69350793124215 L 422.43318199708 45.69394214864923 L 423.13929541313 45.69437615421788 L 423.84540882918 45.69480994354467 L 424.55152224523 45.69524351232485 L 425.25763566128 45.69567685635127 L 425.96374907733 45.69610997151409 L 426.66986249338 45.696542853796586 L 427.37597590943 45.69697549927628 L 428.08208932548 45.69740790411805 L 428.78820274153 45.69784006457735 L 429.49431615758 45.698271976995215 L 430.20090031591 45.69870392820343 L 430.90701373195 45.6991353911975 L 431.613127148 45.699566669099795 L 432.31924056405 45.69999775698125 L 433.0253539801 45.70042865002165 L 433.73146739615 45.70085934351118 L 434.4375808122 45.70128983284593 L 435.14369422825 45.70172011352696 L 435.8498076443 45.70215018115698 L 436.55592106035 45.70258003143897 L 437.2620344764 45.70300966017447 L 437.96814789245 45.70343906325985 L 438.6742613085 45.703868236687015 L 439.38037472455 45.7042971765386 L 440.0864881406 45.704725878988086 L 440.79260155665 45.705154340296644 L 441.4987149727 45.70558255681169 L 442.20529913103 45.706010823509644 L 442.91141254708 45.706438619846324 L 443.61752596313 45.70686623206677 L 444.32363937918 45.70729365529712 L 445.02975279523 45.70772088477105 L 445.73586621128 45.70814791583035 L 446.44197962733 45.708574743922895 L 447.14809304338 45.709001364600454 L 447.85420645943 45.709427773514506 L 448.56031987548 45.70985396641521 L 449.26643329153 45.71027993915192 L 449.97254670758 45.71070568766703 L 450.67866012363 45.7111312079964 L 451.38477353967 45.71155649626678 L 452.09088695572 45.711981548694325 L 452.79700037177 45.71240636158245 L 453.50311378782 45.71283093131973 L 454.20969794615 45.71325556859205 L 454.9158113622 45.713679743292744 L 455.62192477825 45.714103733625564 L 456.3280381943 45.71452753479571 L 457.03415161035 45.71495114211649 L 457.7402650264 45.71537455100764 L 458.44637844245 45.715797756992515 L 459.1524918585 45.7162207556961 L 459.85860527455 45.71664354284246 L 460.5647186906 45.7170661142531 L 461.27083210665 45.717488465845804 L 461.9769455227 45.71791059363068 L 462.68305893875 45.718332493709624 L 463.3891723548 45.718754162275445 L 464.09528577085 45.71917559560711 L 464.8013991869 45.719596790069204 L 465.50798334523 45.72001802526091 L 466.21409676128 45.72043878552705 L 466.92021017733 45.72085936568266 L 467.62632359338 45.72127976091207 L 468.33243700943 45.72169996650621 L 469.03855042548 45.72211997786383 L 469.74466384153 45.72253979048793 L 470.45077725758 45.72295939998304 L 471.15689067363 45.723378802053105 L 471.86300408967 45.723797992500124 L 472.56911750572 45.72421696722313 L 473.27523092177 45.72463572221329 L 473.98134433782 45.72505425355405 L 474.68745775387 45.72547255741881 L 475.39357116992 45.72589063006882 L 476.09968458597 45.72630846785211 L 476.80579800202 45.72672606719925 L 477.51238216035 45.727143715607326 L 478.2184955764 45.727560904415725 L 478.92460899245 45.727977912633435 L 479.6307224085 45.7283947355283 L 480.33683582455 45.728811368474624 L 481.0429492406 45.72922780695251 L 481.74906265665 45.72964404654334 L 482.4551760727 45.73006008292964 L 483.16128948875 45.73047591189106 L 483.8674029048 45.73089152930322 L 484.57351632085 45.73130693113899 L 485.2796297369 45.73172211345991 L 485.98574315295 45.73213707241928 L 486.691856569 45.73255180425821 L 487.39796998505 45.73296630530439 L 488.1040834011 45.73338057196986 L 488.81019681715 45.733794600750514 L 489.51678097548 45.734208694629956 L 490.22289439153 45.734622336386394 L 490.92900780758 45.73503579732943 L 491.63512122362 45.73544907280751 L 492.34123463967 45.73586215827078 L 493.04734805572 45.73627504927424 L 493.75346147177 45.73668774147319 L 494.45957488782 45.73710023062142 L 495.16568830387 45.73751251256954 L 495.87180171992 45.737924583265 L 496.57791513597 45.7383364387419 L 497.28402855202 45.738748075130616 L 497.99014196807 45.739159488647886 L 498.69625538412 45.73957067559877 L 499.40236880017 45.739981632372064 L 500.10848221622 45.74039235544046 L 500.81506637455 45.74080311751277 L 501.5211797906 45.741213415965774 L 502.22729320665 45.741623538247666 L 502.9334066227 45.74203347967074 L 503.63952003875 45.742443235658584 L 504.3456334548 45.742852801734614 L 505.05174687085 45.743262173523476 L 505.7578602869 45.74367134675089 L 506.46397370295 45.74408031723755 L 507.170087119 45.744489080901076 L 507.87620053505 45.7448976337522 L 508.5823139511 45.745305971890275 L 509.28842736715 45.74571409150673 L 509.9945407832 45.74612198888053 L 510.70065419925 45.746529660374165 L 511.4067676153 45.74693710243554 L 512.11288103134 45.747344311593906 L 512.81946518967 45.74775156833374 L 513.52557860572 45.74815837682519 L 514.23169202177 45.74856500910266 L 514.93780543782 45.748971460555595 L 515.64391885387 45.74937772667562 L 516.35003226992 45.74978380305737 L 517.05614568597 45.75018968539513 L 517.76225910202 45.75059536948061 L 518.46837251807 45.75100085120141 L 519.17448593412 45.751406126538825 L 519.88059935017 45.75181119156241 L 520.58671276622 45.75221604244189 L 521.29282618227 45.752620675424396 L 521.99893959832 45.75302508684655 L 522.70505301437 45.75342927312994 L 523.41116643042 45.753833230778014 L 524.11727984647 45.754236956375735 L 524.8238640048 45.75464074556845 L 525.52997742085 45.7550440939757 L 526.2360908369 45.75544726614629 L 526.94220425295 45.75585025754117 L 527.648317669 45.75625306372365 L 528.35443108505 45.75665568035754 L 529.0605445011 45.757058103205054 L 529.76665791715 45.757460328123386 L 530.4727713332 45.757862351065114 L 531.17888474925 45.7582641680749 L 531.8849981653 45.75866577528899 L 532.59111158134 45.75906716892911 L 533.29722499739 45.75946834530555 L 534.00333841344 45.759869300813534 L 534.70945182949 45.76027003193127 L 535.41556524554 45.760670535217514 L 536.12214940387 45.761071076633414 L 536.82826281992 45.76147116615442 L 537.53437623597 45.76187108398841 L 538.24048965202 45.76227082556454 L 538.94660306807 45.76267038641578 L 539.65271648412 45.76306976217546 L 540.35882990017 45.76346894857505 L 541.06494331622 45.763867941444346 L 541.77105673227 45.764266736705906 L 542.47717014832 45.76466533037751 L 543.18328356437 45.76506371856601 L 543.88939698042 45.76546189746915 L 544.59551039647 45.765859863368064 L 545.30162381252 45.7662576126333 L 546.00773722857 45.76665514171657 L 546.71385064462 45.767052447151855 L 547.41996406067 45.767449525553786 L 548.126548219 45.7678466505057 L 548.83266163505 45.76824333847122 L 549.5387750511 45.76863985466241 L 550.24488846715 45.769036194581304 L 550.9510018832 45.769432353831405 L 551.65711529925 45.769828328115466 L 552.3632287153 45.770224113233155 L 553.06934213134 45.77061970508038 L 553.77545554739 45.77101509964581 L 554.48156896344 45.77141029300941 L 555.18768237949 45.7718052813409 L 555.89379579554 45.77220006089641 L 556.59990921159 45.77259462802152 L 557.30602262764 45.7729889791413 L 558.01213604369 45.77338311076579 L 558.71824945974 45.77377701948444 L 559.42436287579 45.77417070196577 L 560.13094703412 45.77456444661266 L 560.83706045017 45.774957761455596 L 561.54317386622 45.775350904455024 L 562.24928728227 45.775743871183295 L 562.95540069832 45.7761366573157 L 563.66151411437 45.776529258622986 L 564.36762753042 45.7769216709716 L 565.07374094647 45.777313890323 L 565.77985436252 45.7777059127294 L 566.48596777857 45.77809773433421 L 567.19208119462 45.77848935136848 L 567.89819461067 45.7788807601504 L 568.60430802672 45.77927195707986 L 569.31042144277 45.77966293864131 L 570.01653485882 45.78005370140107 L 570.72264827487 45.78044424200266 L 571.4292324332 45.780834819828044 L 572.13534584925 45.78122495708567 L 572.8414592653 45.781614926911516 L 573.54757268134 45.782004724848605 L 574.25368609739 45.782394346540684 L 574.95979951344 45.782783787730466 L 575.66591292949 45.783173044256614 L 576.37202634554 45.783562112051925 L 577.07813976159 45.78395098714134 L 577.78425317764 45.784339665641824 L 578.49036659369 45.784728143757775 L 579.19648000974 45.78511641778039 L 579.90259342579 45.78550448408566 L 580.60870684184 45.785892339134875 L 581.31482025789 45.78627997946586 L 582.02093367394 45.78666740170041 L 582.72704708999 45.78705460253735 L 583.43363124832 45.78744184883351 L 584.13974466437 45.78782866904385 L 584.84585808042 45.78821532173225 L 585.55197149647 45.78860180251314 L 586.25808491252 45.788988107098305 L 586.96419832857 45.78937423130003 L 587.67031174462 45.78976017102093 L 588.37642516067 45.79014592226167 L 589.08253857672 45.79053148110961 L 589.78865199277 45.79091684374305 L 590.49476540882 45.791302006427145 L 591.20087882487 45.79168696551318 L 591.90699224092 45.79207171743519 L 592.61310565697 45.79245625871113 L 593.31921907302 45.79284058593396 L 594.02533248906 45.79322469577994 L 594.73144590511 45.79360858500121 L 595.43803006344 45.79399253494819 L 596.14414347949 45.79437606577363 L 596.85025689554 45.79475942901365 L 597.55637031159 45.79514262035241 L 598.26248372764 45.795525635570186 L 598.96859714369 45.79590847054527 L 599.67471055974 45.796291121247464 L 600.38082397579 45.79667358373814 L 601.08693739184 45.79705585416889 L 601.79305080789 45.79743792877878 L 602.49916422394 45.797819803893105 L 603.20527763999 45.79820147592051 L 603.91139105604 45.79858294135266 L 604.61750447209 45.79896419676095 L 605.32361788814 45.79934523879842 L 606.02973130419 45.79972606419227 L 606.73631546252 45.80010692590713 L 607.44242887857 45.80048735809538 L 608.14854229462 45.800867627004834 L 608.85465571067 45.801247728290036 L 609.56076912672 45.801627657703534 L 610.26688254277 45.802007411093655 L 610.97299595882 45.80238698440269 L 611.67910937487 45.80276637366558 L 612.38522279092 45.80314557500691 L 613.09133620697 45.80352458463864 L 613.79744962302 45.80390339886088 L 614.50356303906 45.804282014057605 L 615.20967645511 45.804660426694966 L 615.91578987116 45.80503863332069 L 616.62190328721 45.805416630558625 L 617.32801670326 45.805794415120374 L 618.03413011931 45.8061719837836 L 618.74071427764 45.80654959684409 L 619.44682769369 45.80692679446037 L 620.15294110974 45.8073038287132 L 620.85905452579 45.807680695326496 L 621.56516794184 45.8080573901201 L 622.27128135789 45.8084339090085 L 622.97739477394 45.80881024799845 L 623.68350818999 45.80918640318896 L 624.38962160604 45.80956237076464 L 625.09573502209 45.809938146999855 L 625.80184843814 45.81031372825288 L 626.50796185419 45.81068911096526 L 627.21407527024 45.8110642916601 L 627.92018868629 45.811439266940624 L 628.62630210234 45.81181403348438 L 629.33241551839 45.81218858805647 L 630.03852893444 45.81256292748577 L 630.74511309277 45.8129373262434 L 631.45122650882 45.81331131630452 L 632.15733992487 45.81368514294189 L 632.86345334092 45.814058801946544 L 633.56956675697 45.81443228920517 L 634.27568017301 45.81480560069656 L 634.98179358906 45.8151787324922 L 635.68790700511 45.81555168075266 L 636.39402042116 45.81592444172355 L 637.10013383721 45.8162970117387 L 637.80624725326 45.816669387214176 L 638.51236066931 45.81704156464849 L 639.21847408536 45.817413540621374 L 639.92458750141 45.817785311790544 L 640.63070091746 45.81815687488967 L 641.33681433351 45.81852822672789 L 642.04339849184 45.8188996140135 L 642.74951190789 45.81927058254195 L 643.45562532394 45.81964139184481 L 644.16173873999 45.820012037685956 L 644.86785215604 45.8203825159232 L 645.57396557209 45.820752822509064 L 646.28007898814 45.82112295348594 L 646.98619240419 45.82149290498802 L 647.69230582024 45.821862673236865 L 648.39841923629 45.82223225453856 L 649.10453265234 45.822601645285374 L 649.81064606839 45.82297084195068 L 650.51675948444 45.823339841088796 L 651.22287290049 45.82370863933454 L 651.92898631654 45.824077233398555 L 652.63509973259 45.824445620067536 L 653.34121314864 45.82481379620481 L 654.04779730697 45.82518201570383 L 654.75391072301 45.82554983012915 L 655.46002413906 45.82591748525067 L 656.16613755511 45.826284976894385 L 656.87225097116 45.82665230098479 L 657.57836438721 45.82701945353841 L 658.28447780326 45.82738643066199 L 658.99059121931 45.82775322854951 L 659.69670463536 45.82811984348348 L 660.40281805141 45.82848627182892 L 661.10893146746 45.82885251003586 L 661.81504488351 45.82921855463371 L 662.52115829956 45.829584402233706 L 663.22727171561 45.82995004952244 L 663.93338513166 45.83031549326415 L 664.63949854771 45.830680730297274 L 665.34561196376 45.8310457575318 L 666.05219612209 45.83141084273069 L 666.75830953814 45.83177552939924 L 667.46442295419 45.83214005669964 L 668.17053637024 45.83250442052895 L 668.87664978629 45.83286861687634 L 669.58276320234 45.83323264182167 L 670.28887661839 45.833596491532774 L 670.99499003444 45.83396016226669 L 671.70110345049 45.83432365036384 L 672.40721686654 45.83468695224735 L 673.11333028259 45.83505006442391 L 673.81944369864 45.835412983479614 L 674.52555711469 45.83577570607838 L 675.23167053073 45.83613822896086 L 675.93778394678 45.83650054894315 L 676.64389736283 45.836862662914314 L 677.35048152116 45.83722481147896 L 678.05659493721 45.83758655178241 L 678.76270835326 45.837948136814475 L 679.46882176931 45.83830956244117 L 680.17493518536 45.838670824625126 L 680.88104860141 45.83903191941931 L 681.58716201746 45.839392842965765 L 682.29327543351 45.839753591493775 L 682.99938884956 45.84011416131932 L 683.70550226561 45.84047454884171 L 684.41161568166 45.840834750541546 L 685.11772909771 45.84119476298076 L 685.82384251376 45.8415545828006 L 686.52995592981 45.84191420671846 L 687.23606934586 45.84227363152678 L 687.94218276191 45.84263285409264 L 688.64829617796 45.84299187135656 L 689.35488033629 45.84335093097326 L 690.06099375234 45.84370959563461 L 690.76710716839 45.84406810494016 L 691.47322058444 45.84442645482926 L 692.17933400049 45.84478464132525 L 692.88544741654 45.84514266054373 L 693.59156083259 45.84550050868734 L 694.29767424864 45.84585818204647 L 695.00378766469 45.846215676995996 L 695.70990108073 45.846572989991785 L 696.41601449678 45.846930117571276 L 697.12212791283 45.847287056352 L 697.82824132888 45.847643803027836 L 698.53435474493 45.84800035436922 L 699.24046816098 45.84835670722015 L 699.94658157703 45.8487128584988 L 700.65269499308 45.849068805193326 L 701.35927915141 45.84942480851504 L 702.06539256746 45.849780423216885 L 702.77150598351 45.850135882508766 L 703.47761939956 45.850491182387714 L 704.18373281561 45.850846318942956 L 704.88984623166 45.85120128835223 L 705.59595964771 45.85155608687944 L 706.30207306376 45.85191071087365 L 707.00818647981 45.85226515676618 L 707.71429989586 45.85261942107098 L 708.42041331191 45.85297350038201 L 709.12652672796 45.85332739136874 L 709.83264014401 45.853681090778935 L 710.53875356006 45.8540345954342 L 711.24486697611 45.85438790222986 L 711.95098039216 45.854741008133544" class="highcharts-graph" stroke="#e41a1c" stroke-width="2" stroke-linejoin="round" stroke-linecap="round"></path><path fill="none" d="M -2.9509803921569002 381.58934213644034 L 7.0490196078431 381.58934213644034 L 7.7558391372885 381.0945503858581 L 8.4619525533179 380.2793206301995 L 9.1680659693473 379.15031819965657 L 9.8741793853768 377.71439423208597 L 10.580292801406 375.97825715974216 L 11.286406217436 373.9484756752096 L 11.993225746881 371.62902300524286 L 12.700045276326 369.0280997580619 L 13.406864805771 366.1518909166784 L 14.113684335216 363.0064524751832 L 14.82050386466 359.5977141222803 L 15.527323394105 355.9314818689974 L 16.23414292355 352.01344062173575 L 16.940962452995 347.8491567017956 L 17.64778198244 343.44408031249066 L 18.35436614075 338.8112910935802 L 19.06047955678 334.03295862091886 L 19.766592972811 329.1315724395661 L 20.472706388841 324.10991200198015 L 21.178819804871 318.9706987779874 L 21.884933220901 313.7165974599569 L 22.591046636931 308.35021714292793 L 23.297160052961 302.8741124802135 L 24.003273468991 297.2907848149903 L 24.709386885021 291.60268328836895 L 25.415500301051 285.81220592444134 L 26.121613717081 279.92170069277654 L 26.827727133111 273.93346654883476 L 27.533840549141 267.84975445276444 L 28.239953965171 261.6727683670247 L 28.946067381201 255.4046662332746 L 29.652180797231 249.04756092896415 L 30.358764955541 242.63902188879203 L 31.064878371571 236.31256964178448 L 31.770991787601 230.07126750640828 L 32.477105203632 223.91339225514386 L 33.183218619662 217.83725642502006 L 33.889332035692 211.8412075744297 L 34.595445451722 205.9236275553872 L 35.301558867752 200.08293180090965 L 36.007672283782 194.31756862720906 L 36.713785699812 188.6260185503832 L 37.419899115842 183.00679361730934 L 38.126012531872 177.4584367504396 L 38.832125947902 171.97952110621407 L 39.538239363932 166.56864944680652 L 40.244352779962 161.22445352492792 L 40.950466195992 155.94559348140922 L 41.657050354302 150.72730830000717 L 42.363163770332 145.6254678932001 L 43.069277186362 140.68183628168333 L 43.775390602392 135.89307352860885 L 44.481504018422 131.25590915732573 L 45.187617434452 126.76714070786358 L 45.893730850483 122.42363232340944 L 46.599844266513 118.22231336615738 L 47.305957682543 114.16017706191963 L 48.012071098573 110.2342791729165 L 48.718184514603 106.44173669813233 L 49.424297930633 102.77972660069429 L 50.130411346663 99.24548456168395 L 50.836524762693 95.83630375985729 L 51.542638178723 92.54953367671982 L 52.248751594753 89.38257892642855 L 52.954865010783 86.33289811002089 L 53.661449169093 83.39714633116984 L 54.367562585123 80.58960735377883 L 55.073676001153 77.90935574355615 L 55.779789417183 75.35367740096319 L 56.485902833213 72.91991469771978 L 57.192016249243 70.6054653031934 L 57.898129665273 68.40778103517323 L 58.604243081304 66.32436673453265 L 59.310356497334 64.35277916327306 L 60.016469913364 62.49062592547125 L 60.722583329394 60.73556441064591 L 61.428696745424 59.08530075908686 L 62.134810161454 57.53758884868415 L 62.840923577484 56.09022930281594 L 63.547036993514 54.7410685188442 L 64.253150409544 53.48799771681189 L 64.959263825574 52.32895200789977 L 65.665847983884 51.25611859602691 L 66.371961399914 50.25327935724465 L 67.078074815944 49.31708618465041 L 67.784188231974 48.44610830665255 L 68.490301648004 47.638944730642095 L 69.196415064034 46.89422362410437 L 69.902528480064 46.210601708590104 L 70.608641896094 45.58676366628055 L 71.314755312125 45.02142155888225 L 72.020868728155 44.513314258606215 L 72.726982144185 44.061206890960705 L 73.433095560215 43.66389028913335 L 74.139208976245 43.32018045970608 L 74.845322392275 43.02891805947718 L 75.551435808305 42.78896788314967 L 76.257549224335 42.59921836167513 L 76.964133382645 42.458500988643095 L 77.670246798675 42.352089683956706 L 78.376360214705 42.26610218966613 L 79.082473630735 42.20009587007837 L 79.788587046765 42.15363730621709 L 80.494700462795 42.12630210427096 L 81.200813878825 42.117674708021696 L 81.906927294855 42.1273482151704 L 82.613040710885 42.15492419747426 L 83.319154126915 42.2000125246355 L 84.025267542945 42.262231191836236 L 84.731380958976 42.3412061508634 L 85.437494375006 42.43657114474479 L 86.143607791036 42.54796754581662 L 86.849721207066 42.67504419715999 L 87.555834623096 42.817457257330716 L 88.261948039126 42.97487004831959 L 88.968532197436 43.14605954516895 L 89.674645613466 43.3183923924272 L 90.380759029496 43.48842833951386 L 91.086872445526 43.65621383513678 L 91.792985861556 43.821794364027596 L 92.499099277586 43.985214466966625 L 93.205212693616 44.146517760405004 L 93.911326109646 44.305746955666734 L 94.617439525676 44.46294387775896 L 95.323552941706 44.61814948379049 L 96.029666357736 44.77140388100361 L 96.735779773766 44.92274634443942 L 97.441893189797 45.072215334224154 L 98.148006605827 45.21984851250875 L 98.854120021857 45.36568276004533 L 99.560233437887 45.50975419242934 L 100.26634685392 45.65209817599532 L 100.97293101223 45.791511492026814 L 101.67904442826 45.923789438618485 L 102.38515784429 46.048890316268285 L 103.09127126032 46.16696769940387 L 103.79738467635 46.278171966564685 L 104.50349809238 46.38265036681395 L 105.20961150841 46.48054708478122 L 105.91572492444 46.572003304348584 L 106.62183834047 46.657157271014114 L 107.3279517565 46.73614435295957 L 108.03406517253 46.809097100849726 L 108.74017858856 46.876145306386945 L 109.44629200459 46.93741605965204 L 110.15240542062 46.99303380525174 L 110.85851883665 47.043120397294615 L 111.56463225268 47.087795153236016 L 112.27121641099 47.12719947485789 L 112.97732982702 47.16163515417355 L 113.68344324305 47.19146090986652 L 114.38955665908 47.216776434280746 L 115.09567007511 47.23767934414019 L 115.80178349114 47.254265223680704 L 116.50789690717 47.266627666899126 L 117.2140103232 47.27485831890954 L 117.92012373923 47.2790469164533 L 118.62623715526 47.27928132755886 L 119.33235057129 47.2756475903804 L 120.03846398732 47.26822995122649 L 120.74457740335 47.25711090180425 L 121.45069081938 47.24237121568228 L 122.15680423541 47.22408998400476 L 122.86291765144 47.202344650453426 L 123.56903106747 47.17721104548832 L 124.27561522578 47.14887726940498 L 124.98172864181 47.119034132205456 L 125.68784205784 47.08815473281709 L 126.39395547387 47.05626226167709 L 127.1000688899 47.023379425641735 L 127.80618230593 46.989528458039274 L 128.51229572196 46.954731128507206 L 129.21840913799 46.919008752636216 L 129.92452255402 46.88238220140016 L 130.63063597005 46.84487191040529 L 131.33674938608 46.80649788893214 L 132.04286280211 46.7672797288007 L 132.74897621814 46.727236613049456 L 133.45508963417 46.68638732442662 L 134.1612030502 46.6447502537149 L 134.86731646623 46.602343407875935 L 135.57342988226 46.55918441802942 L 136.28001404057 46.51564280940795 L 136.9861274566 46.47294790639836 L 137.69224087263 46.431134450122045 L 138.39835428866 46.39018412881535 L 139.10446770469 46.35007901125368 L 139.81058112072 46.31080153883585 L 140.51669453675 46.272334517848094 L 141.22280795278 46.23466111187565 L 141.92892136881 46.1977648343813 L 142.63503478484 46.16162954142999 L 143.34114820087 46.12623942457435 L 144.0472616169 46.0915790038826 L 144.75337503293 46.05763312110565 L 145.45948844896 46.02438693299689 L 146.16560186499 45.99182590476573 L 146.87171528102 45.95993580366928 L 147.57829943933 45.92868218167723 L 148.28441285536 45.89841134736082 L 148.99052627139 45.86937685430553 L 149.69663968742 45.84155240282149 L 150.40275310345 45.8149122403654 L 151.10886651948 45.789431150169776 L 151.81497993551 45.76508444010864 L 152.52109335154 45.74184793179455 L 153.22720676757 45.71969794989968 L 153.9333201836 45.69861131170552 L 154.63943359963 45.678565316860045 L 155.34554701566 45.65953773735714 L 156.05166043169 45.64150680771655 L 156.75777384772 45.6244512153753 L 157.46388726375 45.60835009127277 L 158.17000067978 45.593183000630574 L 158.87611409581 45.57892993393307 L 159.58269825412 45.56555979127984 L 160.28881167015 45.55303738359544 L 160.99492508618 45.541325811707054 L 161.70103850221 45.530407675100946 L 162.40715191824 45.52026593542132 L 163.11326533427 45.51088390893682 L 163.8193787503 45.50224525917622 L 164.52549216633 45.49433398970888 L 165.23160558236 45.48713443707703 L 165.93771899839 45.480631263876376 L 166.64383241442 45.47480945198038 L 167.34994583045 45.469654295904206 L 168.05605924648 45.46515139630719 L 168.76217266251 45.46128665362909 L 169.46828607854 45.458046261862705 L 170.17439949457 45.455416702449384 L 170.8805129106 45.453384738305544 L 171.58709706891 45.45187554013148 L 172.29321048494 45.45069495301834 L 172.99932390097 45.449822045513315 L 173.705437317 45.449250140645006 L 174.41155073303 45.44897270048017 L 175.11766414906 45.44898332323544 L 175.82377756509 45.44927574044635 L 176.52989098112 45.449843814196925 L 177.23600439715 45.45068153440775 L 177.94211781318 45.4517830161754 L 178.64823122921 45.453142497175406 L 179.35434464524 45.454754335112 L 180.06045806127 45.45661300522357 L 180.7665714773 45.45871309783945 L 181.47268489333 45.46104931599001 L 182.17879830936 45.463616473063325 L 182.88538246767 45.46641138620441 L 183.5922019971 45.469318228773375 L 184.29902152653 45.47223227812873 L 185.00584105595 45.47515331664704 L 185.71266058538 45.478081131300996 L 186.41948011481 45.481015513562 L 187.12629964423 45.48395625930709 L 187.83311917366 45.48690316872597 L 188.53993870308 45.48985604623368 L 189.24675823251 45.49281470037829 L 189.95357776194 45.49577894376267 L 190.66039729136 45.498748592951074 L 191.36721682079 45.50172346839173 L 192.07403635022 45.504703394336275 L 192.78085587964 45.50768819875668 L 193.48767540907 45.510677713273424 L 194.1944949385 45.51367177307492 L 194.90107909679 45.516662594502804 L 195.60789862621 45.51958143474354 L 196.31471815564 45.52240976114484 L 197.02153768507 45.525149486368946 L 197.72835721449 45.52780248326377 L 198.43517674392 45.53037058568748 L 199.14199627335 45.53285558932106 L 199.84881580277 45.535259252463504 L 200.5556353322 45.5375832968075 L 201.26245486162 45.53982940820117 L 201.96927439105 45.54199923739452 L 202.67609392048 45.5440944007683 L 203.3829134499 45.54611648105299 L 204.08973297933 45.548067028024604 L 204.79655250876 45.54994755918966 L 205.50337203818 45.551759560459914 L 206.21019156761 45.5535044868077 L 206.9167757259 45.555179996455024 L 207.62359525533 45.556779989773645 L 208.33041478475 45.55830503527159 L 209.03723431418 45.55975673368647 L 209.74405384361 45.56113665241281 L 210.45087337303 45.56244632620303 L 211.15769290246 45.56368725783881 L 211.86451243189 45.56486091880049 L 212.57133196131 45.56596874991919 L 213.27815149074 45.567012162011565 L 213.98497102017 45.567992536504335 L 214.69179054959 45.568911226047305 L 215.39861007902 45.56976955511146 L 216.10542960844 45.57056882057611 L 216.81224913787 45.57131029229987 L 217.5190686673 45.57199521368557 L 218.22565282559 45.57262465196317 L 218.93247235501 45.57321224393547 L 219.63929188444 45.573767863917 L 220.34611141387 45.57429219674259 L 221.05293094329 45.5747859129807 L 221.75975047272 45.575249669231425 L 222.46657000215 45.575684108416624 L 223.17338953157 45.5760898600638 L 223.880209061 45.57646754058743 L 224.58702859043 45.576817753558146 L 225.29384811985 45.57714108997044 L 226.00066764928 45.5774381285072 L 226.70748717871 45.57770943579317 L 227.41430670813 45.57795556664814 L 228.12112623756 45.578177064330646 L 228.82794576699 45.5783744607769 L 229.53476529641 45.57854827684076 L 230.2413494547 45.57870091497546 L 230.94816898413 45.578849301925686 L 231.65498851356 45.578997175837344 L 232.36180804298 45.579144544806525 L 233.06862757241 45.5792914167651 L 233.77544710183 45.57943779948215 L 234.48226663126 45.57958370056684 L 235.18908616069 45.579729127474934 L 235.89590569011 45.57987408750722 L 236.60272521954 45.5800185878154 L 237.30954474897 45.580162635406964 L 238.01636427839 45.58030623714285 L 238.72318380782 45.580449399747124 L 239.43000333725 45.58059212980493 L 240.13682286667 45.58073443376878 L 240.8436423961 45.58087631795502 L 241.55046192553 45.58101778855524 L 242.25704608382 45.58116219903411 L 242.96386561324 45.5813173308004 L 243.67068514267 45.58148320723029 L 244.3775046721 45.581659590834704 L 245.08432420152 45.58184624908267 L 245.79114373095 45.58204295429044 L 246.49796326037 45.58224948352728 L 247.2047827898 45.582465618512515 L 247.91160231923 45.582691145519505 L 248.61842184865 45.58292585528295 L 249.32524137808 45.583169542904955 L 250.03206090751 45.5834220077611 L 250.73888043693 45.58368305341628 L 251.44569996636 45.583952487534816 L 252.15251949579 45.58423012179475 L 252.85933902521 45.58451577180875 L 253.5659231835 45.584809173871065 L 254.27274271293 45.58511172503273 L 254.97956224236 45.58542400852156 L 255.68638177178 45.585745805855424 L 256.39320130121 45.586076903109245 L 257.10002083064 45.58641709082593 L 257.80684036006 45.58676616392273 L 258.51365988949 45.587123921595946 L 259.22047941892 45.58749016723755 L 259.92729894834 45.58786470834531 L 260.63411847777 45.588247356436284 L 261.34093800719 45.588637926963656 L 262.04775753662 45.58903623923692 L 262.75457706605 45.589442116338546 L 263.46139659547 45.58985538504879 L 264.1682161249 45.590275875765485 L 264.87503565433 45.59070342243177 L 265.58161981262 45.59113750242369 L 266.28843934204 45.59157679016556 L 266.99525887147 45.59202074774595 L 267.7020784009 45.592469264209626 L 268.40889793032 45.59292223092149 L 269.11571745975 45.59337954152261 L 269.82253698918 45.59384109187721 L 270.5293565186 45.59430678003156 L 271.23617604803 45.59477650616634 L 271.94299557746 45.59525017255345 L 272.64981510688 45.59572768350972 L 273.35663463631 45.596208945354704 L 274.06345416573 45.596693866373585 L 274.77027369516 45.59718235677224 L 275.47709322459 45.597674328637254 L 276.18391275401 45.598169695898605 L 276.89073228344 45.598668374288536 L 277.59731644173 45.59916929863272 L 278.30413597116 45.59967116398343 L 279.01095550058 45.60017373596156 L 279.71777503001 45.600676988714724 L 280.42459455944 45.60118089694174 L 281.13141408886 45.60168543587713 L 281.83823361829 45.60219058128337 L 282.54505314772 45.60269630943674 L 283.25187267714 45.603202597119605 L 283.95869220657 45.60370942160688 L 284.665511736 45.60421676065789 L 285.37233126542 45.60472459250485 L 286.07915079485 45.60523289584762 L 286.78597032428 45.60574164983615 L 287.4927898537 45.6062508340645 L 288.19960938313 45.60676042856721 L 288.90619354142 45.60727022437504 L 289.61301307085 45.60777964702453 L 290.31983260027 45.608288044343624 L 291.0266521297 45.60879542808573 L 291.73347165912 45.60930180976686 L 292.44029118855 45.609807200673856 L 293.14711071798 45.61031161187043 L 293.8539302474 45.610815054198156 L 294.56074977683 45.61131753828249 L 295.26756930626 45.61181907453715 L 295.97438883568 45.61231967316951 L 296.68120836511 45.61281934418383 L 297.38802789454 45.61331809738584 L 298.09484742396 45.6138159423856 L 298.80166695339 45.61431288860598 L 299.50848648282 45.614808945280174 L 300.21530601224 45.61530412145993 L 300.92189017053 45.61579821546229 L 301.62870969996 45.61629130847564 L 302.33552922939 45.61678321090943 L 303.04234875881 45.61727393845922 L 303.74916828824 45.61776350650365 L 304.45598781767 45.618251930108386 L 305.16280734709 45.61873922403646 L 305.86962687652 45.619225402750715 L 306.57644640594 45.619710480426136 L 307.28326593537 45.62019447094883 L 307.9900854648 45.62067738792433 L 308.69690499422 45.62115924468725 L 309.40372452365 45.62164005430128 L 310.11054405308 45.62211982956899 L 310.8173635825 45.622598583033266 L 311.52418311193 45.62307632698679 L 312.23100264136 45.6235530734765 L 312.93758679965 45.62402875616817 L 313.64440632907 45.62450383258249 L 314.3512258585 45.624978152801816 L 315.05804538793 45.62545172342584 L 315.76486491735 45.62592455092482 L 316.47168444678 45.62639664164709 L 317.17850397621 45.626868001813534 L 317.88532350563 45.62733863752749 L 318.59214303506 45.62780855477325 L 319.29896256448 45.62827775942009 L 320.00578209391 45.62874625722509 L 320.71260162334 45.629214053832584 L 321.41942115276 45.62968115478071 L 322.12624068219 45.630147565499044 L 322.83306021162 45.63061329131716 L 323.53987974104 45.631078337459314 L 324.24646389933 45.63154256233861 L 324.95328342876 45.63200650393952 L 325.66010295819 45.63247010967831 L 326.36692248761 45.63293337722155 L 327.07374201704 45.63339630429408 L 327.78056154647 45.633858888677935 L 328.48738107589 45.63432112820885 L 329.19420060532 45.63478302077863 L 329.90102013475 45.63524456433146 L 330.60783966417 45.6357057568639 L 331.3146591936 45.636166596423095 L 332.02147872303 45.636627081106326 L 332.72829825245 45.6370872090597 L 333.43511778188 45.63754697847668 L 334.1419373113 45.63800638759818 L 334.84875684073 45.63846543471061 L 335.55557637016 45.63892411814538 L 336.26216052845 45.63938232386687 L 336.96898005787 45.639840540921625 L 337.6757995873 45.64029863363493 L 338.38261911673 45.64075659518085 L 339.08943864615 45.64121441888551 L 339.79625817558 45.64167209822284 L 340.50307770501 45.64212962681279 L 341.20989723443 45.64258699841696 L 341.91671676386 45.64304420693378 L 342.62353629329 45.643501246401456 L 343.33035582271 45.64395811098865 L 344.03717535214 45.64441479499868 L 344.74399488157 45.64487129285834 L 345.45081441099 45.645327599122425 L 346.15763394042 45.64578370846681 L 346.86445346984 45.646239615688046 L 347.57127299927 45.64669531570081 L 348.27785715756 45.64715070951604 L 348.98467668699 45.647606173448764 L 349.69149621641 45.64806154857928 L 350.39831574584 45.64851682736338 L 351.10513527527 45.64897200242564 L 351.81195480469 45.649427066550174 L 352.51877433412 45.649882012684145 L 353.22559386355 45.65033683392812 L 353.93241339297 45.650791523536896 L 354.6392329224 45.651246074914695 L 355.34605245183 45.651700481611726 L 356.05287198125 45.65215473732269 L 356.75969151068 45.65260883588326 L 357.46651104011 45.653062771263365 L 358.17333056953 45.65351653757085 L 358.88015009896 45.65397012904458 L 359.58673425726 45.65442339153492 L 360.29284767331 45.65487621683059 L 360.99896108936 45.65532891907537 L 361.70507450541 45.65578149154402 L 362.41118792146 45.6562339276598 L 363.11730133751 45.65668622099287 L 363.82341475356 45.65713836525549 L 364.52952816961 45.65759035429841 L 365.23564158566 45.65804218211389 L 365.94175500171 45.65849384282387 L 366.64786841776 45.65894533068314 L 367.35398183381 45.65939664007561 L 368.06009524986 45.659847765510165 L 368.76620866591 45.660298701619865 L 369.47232208195 45.660749443157385 L 370.178435498 45.66119998499477 L 370.88454891405 45.66165032211944 L 371.59113307238 45.66210075846442 L 372.29724648843 45.66255072506249 L 373.00335990448 45.66300052032409 L 373.70947332053 45.66345013863514 L 374.41558673658 45.66389957450696 L 375.12170015263 45.66434882257357 L 375.82781356868 45.66479787759113 L 376.53392698473 45.66524673443212 L 377.24004040078 45.66569538808665 L 377.94615381683 45.66614383365811 L 378.65226723288 45.666592066357566 L 379.35838064893 45.66704008150748 L 380.06449406498 45.66748787453639 L 380.77060748103 45.667935440976635 L 381.47672089708 45.66838277646258 L 382.18283431313 45.66882987672756 L 382.88894772918 45.669276737604605 L 383.59553188751 45.66972367644138 L 384.30164530356 45.67017012378733 L 385.00775871961 45.67061637253198 L 385.71387213566 45.671062417728535 L 386.41998555171 45.671508254539106 L 387.12609896776 45.671953878241766 L 387.83221238381 45.67239928421617 L 388.53832579986 45.67284446794821 L 389.24443921591 45.67328942502735 L 389.95055263195 45.673734151142696 L 390.656666048 45.674178642083405 L 391.36277946405 45.6746228937339 L 392.0688928801 45.67506690207426 L 392.77500629615 45.67551066317583 L 393.4811197122 45.67595417320149 L 394.18723312825 45.676397428402424 L 394.89381728658 45.6768407227147 L 395.59993070263 45.6772835076103 L 396.30604411868 45.67772609153951 L 397.01215753473 45.67816846968162 L 397.71827095078 45.67861063732755 L 398.42438436683 45.679052589870764 L 399.13049778288 45.679494322813525 L 399.83661119893 45.67993583175928 L 400.54272461498 45.680377112411804 L 401.24883803103 45.680818160572585 L 401.95495144708 45.681258972139176 L 402.66106486313 45.681699543105196 L 403.36717827918 45.682139869554305 L 404.07329169523 45.68257994766117 L 404.77940511128 45.6830197736889 L 405.48551852733 45.68345934398741 L 406.19163194338 45.683898654990685 L 406.89821610171 45.684338009111286 L 407.60432951776 45.68477687137721 L 408.31044293381 45.68521553558497 L 409.01655634986 45.685653996933354 L 409.72266976591 45.686092250731065 L 410.42878318195 45.68653029238709 L 411.134896598 45.68696811742234 L 411.84101001405 45.68740572145572 L 412.5471234301 45.687843100206806 L 413.25323684615 45.68828024949306 L 413.9593502622 45.6887171652279 L 414.66546367825 45.68915384341773 L 415.3715770943 45.68959028016167 L 416.07769051035 45.690026471648025 L 416.7838039264 45.69046241415384 L 417.48991734245 45.690898104042276 L 418.1960307585 45.691333537760215 L 418.90261491683 45.691769034979075 L 419.60872833288 45.69220405360062 L 420.31484174893 45.6926388790522 L 421.02095516498 45.69307350650598 L 421.72706858103 45.69350793124215 L 422.43318199708 45.69394214864923 L 423.13929541313 45.69437615421788 L 423.84540882918 45.69480994354467 L 424.55152224523 45.69524351232485 L 425.25763566128 45.69567685635127 L 425.96374907733 45.69610997151409 L 426.66986249338 45.696542853796586 L 427.37597590943 45.69697549927628 L 428.08208932548 45.69740790411805 L 428.78820274153 45.69784006457735 L 429.49431615758 45.698271976995215 L 430.20090031591 45.69870392820343 L 430.90701373195 45.6991353911975 L 431.613127148 45.699566669099795 L 432.31924056405 45.69999775698125 L 433.0253539801 45.70042865002165 L 433.73146739615 45.70085934351118 L 434.4375808122 45.70128983284593 L 435.14369422825 45.70172011352696 L 435.8498076443 45.70215018115698 L 436.55592106035 45.70258003143897 L 437.2620344764 45.70300966017447 L 437.96814789245 45.70343906325985 L 438.6742613085 45.703868236687015 L 439.38037472455 45.7042971765386 L 440.0864881406 45.704725878988086 L 440.79260155665 45.705154340296644 L 441.4987149727 45.70558255681169 L 442.20529913103 45.706010823509644 L 442.91141254708 45.706438619846324 L 443.61752596313 45.70686623206677 L 444.32363937918 45.70729365529712 L 445.02975279523 45.70772088477105 L 445.73586621128 45.70814791583035 L 446.44197962733 45.708574743922895 L 447.14809304338 45.709001364600454 L 447.85420645943 45.709427773514506 L 448.56031987548 45.70985396641521 L 449.26643329153 45.71027993915192 L 449.97254670758 45.71070568766703 L 450.67866012363 45.7111312079964 L 451.38477353967 45.71155649626678 L 452.09088695572 45.711981548694325 L 452.79700037177 45.71240636158245 L 453.50311378782 45.71283093131973 L 454.20969794615 45.71325556859205 L 454.9158113622 45.713679743292744 L 455.62192477825 45.714103733625564 L 456.3280381943 45.71452753479571 L 457.03415161035 45.71495114211649 L 457.7402650264 45.71537455100764 L 458.44637844245 45.715797756992515 L 459.1524918585 45.7162207556961 L 459.85860527455 45.71664354284246 L 460.5647186906 45.7170661142531 L 461.27083210665 45.717488465845804 L 461.9769455227 45.71791059363068 L 462.68305893875 45.718332493709624 L 463.3891723548 45.718754162275445 L 464.09528577085 45.71917559560711 L 464.8013991869 45.719596790069204 L 465.50798334523 45.72001802526091 L 466.21409676128 45.72043878552705 L 466.92021017733 45.72085936568266 L 467.62632359338 45.72127976091207 L 468.33243700943 45.72169996650621 L 469.03855042548 45.72211997786383 L 469.74466384153 45.72253979048793 L 470.45077725758 45.72295939998304 L 471.15689067363 45.723378802053105 L 471.86300408967 45.723797992500124 L 472.56911750572 45.72421696722313 L 473.27523092177 45.72463572221329 L 473.98134433782 45.72505425355405 L 474.68745775387 45.72547255741881 L 475.39357116992 45.72589063006882 L 476.09968458597 45.72630846785211 L 476.80579800202 45.72672606719925 L 477.51238216035 45.727143715607326 L 478.2184955764 45.727560904415725 L 478.92460899245 45.727977912633435 L 479.6307224085 45.7283947355283 L 480.33683582455 45.728811368474624 L 481.0429492406 45.72922780695251 L 481.74906265665 45.72964404654334 L 482.4551760727 45.73006008292964 L 483.16128948875 45.73047591189106 L 483.8674029048 45.73089152930322 L 484.57351632085 45.73130693113899 L 485.2796297369 45.73172211345991 L 485.98574315295 45.73213707241928 L 486.691856569 45.73255180425821 L 487.39796998505 45.73296630530439 L 488.1040834011 45.73338057196986 L 488.81019681715 45.733794600750514 L 489.51678097548 45.734208694629956 L 490.22289439153 45.734622336386394 L 490.92900780758 45.73503579732943 L 491.63512122362 45.73544907280751 L 492.34123463967 45.73586215827078 L 493.04734805572 45.73627504927424 L 493.75346147177 45.73668774147319 L 494.45957488782 45.73710023062142 L 495.16568830387 45.73751251256954 L 495.87180171992 45.737924583265 L 496.57791513597 45.7383364387419 L 497.28402855202 45.738748075130616 L 497.99014196807 45.739159488647886 L 498.69625538412 45.73957067559877 L 499.40236880017 45.739981632372064 L 500.10848221622 45.74039235544046 L 500.81506637455 45.74080311751277 L 501.5211797906 45.741213415965774 L 502.22729320665 45.741623538247666 L 502.9334066227 45.74203347967074 L 503.63952003875 45.742443235658584 L 504.3456334548 45.742852801734614 L 505.05174687085 45.743262173523476 L 505.7578602869 45.74367134675089 L 506.46397370295 45.74408031723755 L 507.170087119 45.744489080901076 L 507.87620053505 45.7448976337522 L 508.5823139511 45.745305971890275 L 509.28842736715 45.74571409150673 L 509.9945407832 45.74612198888053 L 510.70065419925 45.746529660374165 L 511.4067676153 45.74693710243554 L 512.11288103134 45.747344311593906 L 512.81946518967 45.74775156833374 L 513.52557860572 45.74815837682519 L 514.23169202177 45.74856500910266 L 514.93780543782 45.748971460555595 L 515.64391885387 45.74937772667562 L 516.35003226992 45.74978380305737 L 517.05614568597 45.75018968539513 L 517.76225910202 45.75059536948061 L 518.46837251807 45.75100085120141 L 519.17448593412 45.751406126538825 L 519.88059935017 45.75181119156241 L 520.58671276622 45.75221604244189 L 521.29282618227 45.752620675424396 L 521.99893959832 45.75302508684655 L 522.70505301437 45.75342927312994 L 523.41116643042 45.753833230778014 L 524.11727984647 45.754236956375735 L 524.8238640048 45.75464074556845 L 525.52997742085 45.7550440939757 L 526.2360908369 45.75544726614629 L 526.94220425295 45.75585025754117 L 527.648317669 45.75625306372365 L 528.35443108505 45.75665568035754 L 529.0605445011 45.757058103205054 L 529.76665791715 45.757460328123386 L 530.4727713332 45.757862351065114 L 531.17888474925 45.7582641680749 L 531.8849981653 45.75866577528899 L 532.59111158134 45.75906716892911 L 533.29722499739 45.75946834530555 L 534.00333841344 45.759869300813534 L 534.70945182949 45.76027003193127 L 535.41556524554 45.760670535217514 L 536.12214940387 45.761071076633414 L 536.82826281992 45.76147116615442 L 537.53437623597 45.76187108398841 L 538.24048965202 45.76227082556454 L 538.94660306807 45.76267038641578 L 539.65271648412 45.76306976217546 L 540.35882990017 45.76346894857505 L 541.06494331622 45.763867941444346 L 541.77105673227 45.764266736705906 L 542.47717014832 45.76466533037751 L 543.18328356437 45.76506371856601 L 543.88939698042 45.76546189746915 L 544.59551039647 45.765859863368064 L 545.30162381252 45.7662576126333 L 546.00773722857 45.76665514171657 L 546.71385064462 45.767052447151855 L 547.41996406067 45.767449525553786 L 548.126548219 45.7678466505057 L 548.83266163505 45.76824333847122 L 549.5387750511 45.76863985466241 L 550.24488846715 45.769036194581304 L 550.9510018832 45.769432353831405 L 551.65711529925 45.769828328115466 L 552.3632287153 45.770224113233155 L 553.06934213134 45.77061970508038 L 553.77545554739 45.77101509964581 L 554.48156896344 45.77141029300941 L 555.18768237949 45.7718052813409 L 555.89379579554 45.77220006089641 L 556.59990921159 45.77259462802152 L 557.30602262764 45.7729889791413 L 558.01213604369 45.77338311076579 L 558.71824945974 45.77377701948444 L 559.42436287579 45.77417070196577 L 560.13094703412 45.77456444661266 L 560.83706045017 45.774957761455596 L 561.54317386622 45.775350904455024 L 562.24928728227 45.775743871183295 L 562.95540069832 45.7761366573157 L 563.66151411437 45.776529258622986 L 564.36762753042 45.7769216709716 L 565.07374094647 45.777313890323 L 565.77985436252 45.7777059127294 L 566.48596777857 45.77809773433421 L 567.19208119462 45.77848935136848 L 567.89819461067 45.7788807601504 L 568.60430802672 45.77927195707986 L 569.31042144277 45.77966293864131 L 570.01653485882 45.78005370140107 L 570.72264827487 45.78044424200266 L 571.4292324332 45.780834819828044 L 572.13534584925 45.78122495708567 L 572.8414592653 45.781614926911516 L 573.54757268134 45.782004724848605 L 574.25368609739 45.782394346540684 L 574.95979951344 45.782783787730466 L 575.66591292949 45.783173044256614 L 576.37202634554 45.783562112051925 L 577.07813976159 45.78395098714134 L 577.78425317764 45.784339665641824 L 578.49036659369 45.784728143757775 L 579.19648000974 45.78511641778039 L 579.90259342579 45.78550448408566 L 580.60870684184 45.785892339134875 L 581.31482025789 45.78627997946586 L 582.02093367394 45.78666740170041 L 582.72704708999 45.78705460253735 L 583.43363124832 45.78744184883351 L 584.13974466437 45.78782866904385 L 584.84585808042 45.78821532173225 L 585.55197149647 45.78860180251314 L 586.25808491252 45.788988107098305 L 586.96419832857 45.78937423130003 L 587.67031174462 45.78976017102093 L 588.37642516067 45.79014592226167 L 589.08253857672 45.79053148110961 L 589.78865199277 45.79091684374305 L 590.49476540882 45.791302006427145 L 591.20087882487 45.79168696551318 L 591.90699224092 45.79207171743519 L 592.61310565697 45.79245625871113 L 593.31921907302 45.79284058593396 L 594.02533248906 45.79322469577994 L 594.73144590511 45.79360858500121 L 595.43803006344 45.79399253494819 L 596.14414347949 45.79437606577363 L 596.85025689554 45.79475942901365 L 597.55637031159 45.79514262035241 L 598.26248372764 45.795525635570186 L 598.96859714369 45.79590847054527 L 599.67471055974 45.796291121247464 L 600.38082397579 45.79667358373814 L 601.08693739184 45.79705585416889 L 601.79305080789 45.79743792877878 L 602.49916422394 45.797819803893105 L 603.20527763999 45.79820147592051 L 603.91139105604 45.79858294135266 L 604.61750447209 45.79896419676095 L 605.32361788814 45.79934523879842 L 606.02973130419 45.79972606419227 L 606.73631546252 45.80010692590713 L 607.44242887857 45.80048735809538 L 608.14854229462 45.800867627004834 L 608.85465571067 45.801247728290036 L 609.56076912672 45.801627657703534 L 610.26688254277 45.802007411093655 L 610.97299595882 45.80238698440269 L 611.67910937487 45.80276637366558 L 612.38522279092 45.80314557500691 L 613.09133620697 45.80352458463864 L 613.79744962302 45.80390339886088 L 614.50356303906 45.804282014057605 L 615.20967645511 45.804660426694966 L 615.91578987116 45.80503863332069 L 616.62190328721 45.805416630558625 L 617.32801670326 45.805794415120374 L 618.03413011931 45.8061719837836 L 618.74071427764 45.80654959684409 L 619.44682769369 45.80692679446037 L 620.15294110974 45.8073038287132 L 620.85905452579 45.807680695326496 L 621.56516794184 45.8080573901201 L 622.27128135789 45.8084339090085 L 622.97739477394 45.80881024799845 L 623.68350818999 45.80918640318896 L 624.38962160604 45.80956237076464 L 625.09573502209 45.809938146999855 L 625.80184843814 45.81031372825288 L 626.50796185419 45.81068911096526 L 627.21407527024 45.8110642916601 L 627.92018868629 45.811439266940624 L 628.62630210234 45.81181403348438 L 629.33241551839 45.81218858805647 L 630.03852893444 45.81256292748577 L 630.74511309277 45.8129373262434 L 631.45122650882 45.81331131630452 L 632.15733992487 45.81368514294189 L 632.86345334092 45.814058801946544 L 633.56956675697 45.81443228920517 L 634.27568017301 45.81480560069656 L 634.98179358906 45.8151787324922 L 635.68790700511 45.81555168075266 L 636.39402042116 45.81592444172355 L 637.10013383721 45.8162970117387 L 637.80624725326 45.816669387214176 L 638.51236066931 45.81704156464849 L 639.21847408536 45.817413540621374 L 639.92458750141 45.817785311790544 L 640.63070091746 45.81815687488967 L 641.33681433351 45.81852822672789 L 642.04339849184 45.8188996140135 L 642.74951190789 45.81927058254195 L 643.45562532394 45.81964139184481 L 644.16173873999 45.820012037685956 L 644.86785215604 45.8203825159232 L 645.57396557209 45.820752822509064 L 646.28007898814 45.82112295348594 L 646.98619240419 45.82149290498802 L 647.69230582024 45.821862673236865 L 648.39841923629 45.82223225453856 L 649.10453265234 45.822601645285374 L 649.81064606839 45.82297084195068 L 650.51675948444 45.823339841088796 L 651.22287290049 45.82370863933454 L 651.92898631654 45.824077233398555 L 652.63509973259 45.824445620067536 L 653.34121314864 45.82481379620481 L 654.04779730697 45.82518201570383 L 654.75391072301 45.82554983012915 L 655.46002413906 45.82591748525067 L 656.16613755511 45.826284976894385 L 656.87225097116 45.82665230098479 L 657.57836438721 45.82701945353841 L 658.28447780326 45.82738643066199 L 658.99059121931 45.82775322854951 L 659.69670463536 45.82811984348348 L 660.40281805141 45.82848627182892 L 661.10893146746 45.82885251003586 L 661.81504488351 45.82921855463371 L 662.52115829956 45.829584402233706 L 663.22727171561 45.82995004952244 L 663.93338513166 45.83031549326415 L 664.63949854771 45.830680730297274 L 665.34561196376 45.8310457575318 L 666.05219612209 45.83141084273069 L 666.75830953814 45.83177552939924 L 667.46442295419 45.83214005669964 L 668.17053637024 45.83250442052895 L 668.87664978629 45.83286861687634 L 669.58276320234 45.83323264182167 L 670.28887661839 45.833596491532774 L 670.99499003444 45.83396016226669 L 671.70110345049 45.83432365036384 L 672.40721686654 45.83468695224735 L 673.11333028259 45.83505006442391 L 673.81944369864 45.835412983479614 L 674.52555711469 45.83577570607838 L 675.23167053073 45.83613822896086 L 675.93778394678 45.83650054894315 L 676.64389736283 45.836862662914314 L 677.35048152116 45.83722481147896 L 678.05659493721 45.83758655178241 L 678.76270835326 45.837948136814475 L 679.46882176931 45.83830956244117 L 680.17493518536 45.838670824625126 L 680.88104860141 45.83903191941931 L 681.58716201746 45.839392842965765 L 682.29327543351 45.839753591493775 L 682.99938884956 45.84011416131932 L 683.70550226561 45.84047454884171 L 684.41161568166 45.840834750541546 L 685.11772909771 45.84119476298076 L 685.82384251376 45.8415545828006 L 686.52995592981 45.84191420671846 L 687.23606934586 45.84227363152678 L 687.94218276191 45.84263285409264 L 688.64829617796 45.84299187135656 L 689.35488033629 45.84335093097326 L 690.06099375234 45.84370959563461 L 690.76710716839 45.84406810494016 L 691.47322058444 45.84442645482926 L 692.17933400049 45.84478464132525 L 692.88544741654 45.84514266054373 L 693.59156083259 45.84550050868734 L 694.29767424864 45.84585818204647 L 695.00378766469 45.846215676995996 L 695.70990108073 45.846572989991785 L 696.41601449678 45.846930117571276 L 697.12212791283 45.847287056352 L 697.82824132888 45.847643803027836 L 698.53435474493 45.84800035436922 L 699.24046816098 45.84835670722015 L 699.94658157703 45.8487128584988 L 700.65269499308 45.849068805193326 L 701.35927915141 45.84942480851504 L 702.06539256746 45.849780423216885 L 702.77150598351 45.850135882508766 L 703.47761939956 45.850491182387714 L 704.18373281561 45.850846318942956 L 704.88984623166 45.85120128835223 L 705.59595964771 45.85155608687944 L 706.30207306376 45.85191071087365 L 707.00818647981 45.85226515676618 L 707.71429989586 45.85261942107098 L 708.42041331191 45.85297350038201 L 709.12652672796 45.85332739136874 L 709.83264014401 45.853681090778935 L 710.53875356006 45.8540345954342 L 711.24486697611 45.85438790222986 L 711.95098039216 45.854741008133544 L 721.95098039216 45.854741008133544" stroke-linejoin="round" visibility="visible" stroke="rgba(192,192,192,0.0001)" stroke-width="22" class="highcharts-tracker"></path></g><g class="highcharts-markers highcharts-series-0 highcharts-line-series highcharts-color-0 highcharts-tracker " transform="translate(71,10) scale(1 1)" clip-path="none"><path fill="#e41a1c" d="M 702 45.850135882508766 A 0 0 0 1 1 702 45.850135882508766 Z" class="highcharts-halo highcharts-color-0" fill-opacity="0.25"></path><path fill="#FFFFFF" d="M 708 45.850135882508766 A 6 6 0 1 1 707.9999970000002 45.84413588350876 Z" stroke="#e41a1c" stroke-width="3" visibility="hidden"></path></g></g><g class="highcharts-legend" transform="translate(311,482)"><rect fill="none" class="highcharts-legend-box" rx="0" ry="0" x="0" y="0" width="177" height="26" visibility="visible"></rect><g><g><g class="highcharts-legend-item highcharts-line-series highcharts-color-0 highcharts-series-0" transform="translate(8,3)"><path fill="none" d="M 0 11 L 16 11" class="highcharts-graph" stroke="#e41a1c" stroke-width="2"></path><text x="21" style="color:#333333;font-size:12px;font-weight:bold;cursor:pointer;fill:#333333;" text-anchor="start" y="15"><tspan>Measured temperature</tspan></text></g></g></g></g><g class="highcharts-axis-labels highcharts-xaxis-labels "><text x="642.233639015285" style="color:#666666;cursor:default;font-size:11px;fill:#666666;" text-anchor="middle" transform="translate(0,0)" y="448" opacity="1">0.8</text><text x="77.34290619181378" style="color:#666666;cursor:default;font-size:11px;fill:#666666;" text-anchor="middle" transform="translate(0,0)" y="448" opacity="1">0</text><text x="147.9542477947477" style="color:#666666;cursor:default;font-size:11px;fill:#666666;" text-anchor="middle" transform="translate(0,0)" y="448" opacity="1">0.1</text><text x="218.5655893976816" style="color:#666666;cursor:default;font-size:11px;fill:#666666;" text-anchor="middle" transform="translate(0,0)" y="448" opacity="1">0.2</text><text x="289.17693100061547" style="color:#666666;cursor:default;font-size:11px;fill:#666666;" text-anchor="middle" transform="translate(0,0)" y="448" opacity="1">0.3</text><text x="359.78827260354944" style="color:#666666;cursor:default;font-size:11px;fill:#666666;" text-anchor="middle" transform="translate(0,0)" y="448" opacity="1">0.4</text><text x="430.3996142064833" style="color:#666666;cursor:default;font-size:11px;fill:#666666;" text-anchor="middle" transform="translate(0,0)" y="448" opacity="1">0.5</text><text x="501.01095580941717" style="color:#666666;cursor:default;font-size:11px;fill:#666666;" text-anchor="middle" transform="translate(0,0)" y="448" opacity="1">0.6</text><text x="571.6222974123511" style="color:#666666;cursor:default;font-size:11px;fill:#666666;" text-anchor="middle" transform="translate(0,0)" y="448" opacity="1">0.7</text><text x="712.844980618219" style="color:#666666;cursor:default;font-size:11px;fill:#666666;" text-anchor="middle" transform="translate(0,0)" y="448" opacity="1">0.9</text><text x="783.456322221153" style="color:#666666;cursor:default;font-size:11px;fill:#666666;" text-anchor="middle" transform="translate(0,0)" y="448" opacity="1">1</text></g><g class="highcharts-axis-labels highcharts-yaxis-labels "><text x="56" style="color:#666666;cursor:default;font-size:11px;fill:#666666;" text-anchor="end" transform="translate(0,0)" y="434" opacity="1"><tspan>0</tspan></text><text x="56" style="color:#666666;cursor:default;font-size:11px;fill:#666666;" text-anchor="end" transform="translate(0,0)" y="387" opacity="1"><tspan>25</tspan></text><text x="56" style="color:#666666;cursor:default;font-size:11px;fill:#666666;" text-anchor="end" transform="translate(0,0)" y="340" opacity="1"><tspan>50</tspan></text><text x="56" style="color:#666666;cursor:default;font-size:11px;fill:#666666;" text-anchor="end" transform="translate(0,0)" y="294" opacity="1"><tspan>75</tspan></text><text x="56" style="color:#666666;cursor:default;font-size:11px;fill:#666666;" text-anchor="end" transform="translate(0,0)" y="247" opacity="1"><tspan>100</tspan></text><text x="56" style="color:#666666;cursor:default;font-size:11px;fill:#666666;" text-anchor="end" transform="translate(0,0)" y="201" opacity="1"><tspan>125</tspan></text><text x="56" style="color:#666666;cursor:default;font-size:11px;fill:#666666;" text-anchor="end" transform="translate(0,0)" y="154" opacity="1"><tspan>150</tspan></text><text x="56" style="color:#666666;cursor:default;font-size:11px;fill:#666666;" text-anchor="end" transform="translate(0,0)" y="108" opacity="1"><tspan>175</tspan></text><text x="56" style="color:#666666;cursor:default;font-size:11px;fill:#666666;" text-anchor="end" transform="translate(0,0)" y="61" opacity="1"><tspan>200</tspan></text><text x="56" style="color:#666666;cursor:default;font-size:11px;fill:#666666;" text-anchor="end" transform="translate(0,0)" y="15" opacity="1"><tspan>225</tspan></text></g><text x="790" class="highcharts-credits" text-anchor="end" style="cursor:pointer;color:#999999;font-size:9px;fill:#999999;" y="518"></text><g class="highcharts-label highcharts-tooltip highcharts-color-0" style="cursor:default;pointer-events:none;white-space:nowrap;" transform="translate(574,-9999)" opacity="0" visibility="visible"><path fill="none" class="highcharts-label-box highcharts-tooltip-box" d="M 3.5 0.5 L 193.5 0.5 199.5 -5.5 205.5 0.5 221 0.5 C 224.5 0.5 224.5 0.5 224.5 3.5 L 224.5 43.5 C 224.5 46.5 224.5 46.5 221.5 46.5 L 3.5 46.5 C 0.5 46.5 0.5 46.5 0.5 43.5 L 0.5 3.5 C 0.5 0.5 0.5 0.5 3.5 0.5" isShadow="true" stroke="#000000" stroke-opacity="0.049999999999999996" stroke-width="5" transform="translate(1, 1)"></path><path fill="none" class="highcharts-label-box highcharts-tooltip-box" d="M 3.5 0.5 L 193.5 0.5 199.5 -5.5 205.5 0.5 221 0.5 C 224.5 0.5 224.5 0.5 224.5 3.5 L 224.5 43.5 C 224.5 46.5 224.5 46.5 221.5 46.5 L 3.5 46.5 C 0.5 46.5 0.5 46.5 0.5 43.5 L 0.5 3.5 C 0.5 0.5 0.5 0.5 3.5 0.5" isShadow="true" stroke="#000000" stroke-opacity="0.09999999999999999" stroke-width="3" transform="translate(1, 1)"></path><path fill="none" class="highcharts-label-box highcharts-tooltip-box" d="M 3.5 0.5 L 193.5 0.5 199.5 -5.5 205.5 0.5 221 0.5 C 224.5 0.5 224.5 0.5 224.5 3.5 L 224.5 43.5 C 224.5 46.5 224.5 46.5 221.5 46.5 L 3.5 46.5 C 0.5 46.5 0.5 46.5 0.5 43.5 L 0.5 3.5 C 0.5 0.5 0.5 0.5 3.5 0.5" isShadow="true" stroke="#000000" stroke-opacity="0.15" stroke-width="1" transform="translate(1, 1)"></path><path fill="rgba(247,247,247,0.85)" class="highcharts-label-box highcharts-tooltip-box" d="M 3.5 0.5 L 193.5 0.5 199.5 -5.5 205.5 0.5 221 0.5 C 224.5 0.5 224.5 0.5 224.5 3.5 L 224.5 43.5 C 224.5 46.5 224.5 46.5 221.5 46.5 L 3.5 46.5 C 0.5 46.5 0.5 46.5 0.5 43.5 L 0.5 3.5 C 0.5 0.5 0.5 0.5 3.5 0.5" stroke="#e41a1c" stroke-width="1"></path><text x="8" style="font-size:12px;color:#333333;fill:#333333;" y="20"><tspan>0.99</tspan><tspan style="fill: #e41a1c; font-weight: bold;" x="8" dy="15">Measured temperature</tspan><tspan dx="0">: </tspan><tspan style="font-weight:bold" dx="0">200.38</tspan><tspan dx="0"> °C</tspan></text></g></svg>