<svg version="1.1" class="highcharts-root" style="font-family:&quot;Lucida Grande&quot;, &quot;Lucida Sans Unicode&quot;, Arial, Helvetica, sans-serif;font-size:12px;" xmlns="http://www.w3.org/2000/svg" width="800" height="523" viewBox="0 0 800 523"><desc>Created with Highcharts 5.0.9</desc><defs><clipPath id="highcharts-m4icvuj-5"><rect x="0" y="0" width="719" height="419" fill="none"></rect></clipPath></defs><rect fill="#ffffff" class="highcharts-background" x="0" y="0" width="800" height="523" rx="0" ry="0"></rect><rect fill="none" class="highcharts-plot-background" x="71" y="10" width="719" height="419"></rect><g class="highcharts-grid highcharts-xaxis-grid "><path fill="none" opacity="1" class="highcharts-grid-line" d="M 76.5 10 L 76.5 429"></path><path fill="none" opacity="1" class="highcharts-grid-line" d="M 147.5 10 L 147.5 429"></path><path fill="none" opacity="1" class="highcharts-grid-line" d="M 218.5 10 L 218.5 429"></path><path fill="none" opacity="1" class="highcharts-grid-line" d="M 288.5 10 L 288.5 429"></path><path fill="none" opacity="1" class="highcharts-grid-line" d="M 359.5 10 L 359.5 429"></path><path fill="none" opacity="1" class="highcharts-grid-line" d="M 429.5 10 L 429.5 429"></path><path fill="none" opacity="1" class="highcharts-grid-line" d="M 500.5 10 L 500.5 429"></path><path fill="none" opacity="1" class="highcharts-grid-line" d="M 571.5 10 L 571.5 429"></path><path fill="none" opacity="1" class="highcharts-grid-line" d="M 641.5 10 L 641.5 429"></path><path fill="none" opacity="1" class="highcharts-grid-line" d="M 712.5 10 L 712.5 429"></path><path fill="none" opacity="1" class="highcharts-grid-line" d="M 782.5 10 L 782.5 429"></path></g><g class="highcharts-grid highcharts-yaxis-grid "><path fill="none" stroke="#aaa" stroke-width="1" opacity="1" class="highcharts-grid-line" d="M 71 429.5 L 790 429.5"></path><path fill="none" stroke="#aaa" stroke-width="1" opacity="1" class="highcharts-grid-line" d="M 71 369.5 L 790 369.5"></path><path fill="none" stroke="#aaa" stroke-width="1" opacity="1" class="highcharts-grid-line" d="M 71 309.5 L 790 309.5"></path><path fill="none" stroke="#aaa" stroke-width="1" opacity="1" class="highcharts-grid-line" d="M 71 249.5 L 790 249.5"></path><path fill="none" stroke="#aaa" stroke-width="1" opacity="1" class="highcharts-grid-line" d="M 71 190.5 L 790 190.5"></path><path fill="none" stroke="#aaa" stroke-width="1" opacity="1" class="highcharts-grid-line" d="M 71 130.5 L 790 130.5"></path><path fill="none" stroke="#aaa" stroke-width="1" opacity="1" class="highcharts-grid-line" d="M 71 70.5 L 790 70.5"></path><path fill="none" stroke="#aaa" stroke-width="1" opacity="1" class="highcharts-grid-line" d="M 71 9.5 L 790 9.5"></path></g><rect fill="none" class="highcharts-plot-border" x="71" y="10" width="719" height="419"></rect><g class="highcharts-axis highcharts-xaxis "><path fill="none" class="highcharts-tick" stroke="#ccd6eb" stroke-width="1" d="M 76.5 429 L 76.5 439" opacity="1"></path><path fill="none" class="highcharts-tick" stroke="#ccd6eb" stroke-width="1" d="M 147.5 429 L 147.5 439" opacity="1"></path><path fill="none" class="highcharts-tick" stroke="#ccd6eb" stroke-width="1" d="M 218.5 429 L 218.5 439" opacity="1"></path><path fill="none" class="highcharts-tick" stroke="#ccd6eb" stroke-width="1" d="M 288.5 429 L 288.5 439" opacity="1"></path><path fill="none" class="highcharts-tick" stroke="#ccd6eb" stroke-width="1" d="M 359.5 429 L 359.5 439" opacity="1"></path><path fill="none" class="highcharts-tick" stroke="#ccd6eb" stroke-width="1" d="M 429.5 429 L 429.5 439" opacity="1"></path><path fill="none" class="highcharts-tick" stroke="#ccd6eb" stroke-width="1" d="M 500.5 429 L 500.5 439" opacity="1"></path><path fill="none" class="highcharts-tick" stroke="#ccd6eb" stroke-width="1" d="M 571.5 429 L 571.5 439" opacity="1"></path><path fill="none" class="highcharts-tick" stroke="#ccd6eb" stroke-width="1" d="M 641.5 429 L 641.5 439" opacity="1"></path><path fill="none" class="highcharts-tick" stroke="#ccd6eb" stroke-width="1" d="M 712.5 429 L 712.5 439" opacity="1"></path><path fill="none" class="highcharts-tick" stroke="#ccd6eb" stroke-width="1" d="M 782.5 429 L 782.5 439" opacity="1"></path><text x="430.5" text-anchor="middle" transform="translate(0,0)" class="highcharts-axis-title" style="color:#666666;fill:#666666;" y="467"><tspan>Time (min)</tspan></text><path fill="none" class="highcharts-axis-line" stroke="#ccd6eb" stroke-width="1" d="M 71 429.5 L 790 429.5"></path></g><g class="highcharts-axis highcharts-yaxis "><text x="25.140625" text-anchor="middle" transform="translate(0,0) rotate(270 25.140625 219.5)" class="highcharts-axis-title" style="color:#666666;fill:#666666;" y="219.5"><tspan>Temperature (°C)</tspan></text><path fill="none" class="highcharts-axis-line" d="M 71 10 L 71 429"></path></g><g class="highcharts-series-group"><g class="highcharts-series highcharts-series-0 highcharts-line-series highcharts-color-0 " transform="translate(71,10) scale(1 1)" clip-path="url(#highcharts-m4icvuj-5)"><path fill="none" d="M 7.0490196078431 394.85926973914854 L 7.755448792275 394.2704922039497 L 8.4614073376768 393.3001064829531 L 9.1678365221088 391.9551603505881 L 9.8742657065409 390.24434677323325 L 10.580224251943 388.1771634725395 L 11.286653436375 385.75868513372535 L 11.993317940322 382.9968678371563 L 12.699747124753 379.90106508742673 L 13.406176309185 376.4777693263312 L 14.112840813131 372.73288312092734 L 14.819269997563 368.6759544101172 L 15.525934501509 364.31119032399613 L 16.232363685941 359.6482604999074 L 16.938792870372 354.69238203087457 L 17.645457374319 349.44824347851807 L 18.351886558752 343.92568577447355 L 19.057845104154 338.1331758358335 L 19.764274288587 332.0690715498681 L 20.470703473019 325.7431018559199 L 21.176662018422 319.1655693295284 L 21.883091202854 312.3334125582677 L 22.589049748257 305.2613197326156 L 23.295478932689 297.9453343839997 L 24.001908117122 290.3954522171257 L 24.707866662524 282.6221804275042 L 25.414295846957 274.6202921977707 L 26.120254392359 266.405475594015 L 26.826683576792 257.9717029306581 L 27.533112761225 249.32920390602473 L 28.239071306627 240.48866378531375 L 28.94550049106 231.44291859546985 L 29.651459036462 222.20854427966998 L 30.357888220895 212.77766076805773 L 31.064317405328 203.1607022794354 L 31.77027595073 193.36850827651708 L 32.476705135163 183.39218305858964 L 33.182663680565 173.24908967659678 L 33.889092864998 163.116271881405 L 34.59552204943 153.5652663154114 L 35.301480594833 144.62822566954992 L 36.007909779265 136.28018388502232 L 36.713868324668 128.51949704693828 L 37.4202975091 121.32330530813636 L 38.126726693533 114.68471630679329 L 38.832685238935 108.5956069145297 L 39.539114423368 103.0361115452485 L 40.24507296877 98.00214572993741 L 40.951502153203 93.47573485623042 L 41.657931337636 89.44937321963147 L 42.363889883038 85.91445227458769 L 43.070319067471 82.85568529010112 L 43.776277612873 80.26680359620957 L 44.482706797306 78.13421768607839 L 45.189135981738 76.44987616097177 L 45.895094527141 75.20473992464747 L 46.601523711573 74.38763156134013 L 47.307482256976 73.9903289263948 L 48.013911441408 74.00317742414234 L 48.720340625841 74.41764083214684 L 49.426299171243 75.2242988667441 L 50.132728355676 76.41566077203305 L 50.838686901078 77.98175858371468 L 51.545116085511 79.91646737827443 L 52.251545269944 82.2108208782355 L 52.957503815346 84.85506202146274 L 53.663932999779 87.84500626569428 L 54.369891545181 91.16912671165295 L 55.076320729614 94.82446334131447 L 55.782749914046 98.80166909755229 L 56.488708459449 103.09069008857693 L 57.195137643882 107.69030553948494 L 57.901096189284 112.58759780175313 L 58.607525373717 117.78244343253897 L 59.313954558149 123.26515892508843 L 60.019913103552 129.02542949154105 L 60.726342287984 135.06468988857705 L 61.432300833387 141.36878307008328 L 62.138730017819 147.94012664088973 L 62.845159202252 154.76874052257227 L 63.551117747654 161.84408135007857 L 64.257546932087 169.16996197480128 L 64.963505477489 176.73112214953144 L 65.669934661922 184.53225453084903 L 66.376363846355 192.562557425776 L 67.082322391757 200.38667908802893 L 67.78875157619 207.65455545793841 L 68.494710121592 214.36856360132958 L 69.201139306025 220.54947577241913 L 69.907568490457 226.20421495490345 L 70.61352703586 231.34086524402633 L 71.319956220292 235.97737256042961 L 72.025914765695 240.11841555260324 L 72.732343950127 243.78015530165808 L 73.43877313456 246.97009218878583 L 74.144731679962 249.69676685834696 L 74.851160864395 251.9738034953133 L 75.557119409797 253.8079401637455 L 76.26354859423 255.21119924424565 L 76.969977778663 256.19159461543006 L 77.675936324065 256.758071646305 L 78.382365508498 256.92037635974486 L 79.0883240539 256.68708827900457 L 79.794753238333 256.0665163812794 L 80.501182422765 255.06713054584955 L 81.207140968168 253.6982342409666 L 81.9135701526 251.96609460732168 L 82.619528698003 249.88093646723374 L 83.325957882436 247.44773822048387 L 84.032387066868 244.6753740149006 L 84.738345612271 241.5734634730827 L 85.444774796703 238.1451542568099 L 86.150733342106 234.4021399498765 L 86.857162526538 230.3464129648163 L 87.563591710971 225.9872051755732 L 88.269550256373 221.33441462781536 L 88.975979440806 216.3883930076356 L 89.681937986208 211.1621437882845 L 90.388367170641 205.65498356236893 L 91.094796355074 199.87646005954937 L 91.800754900476 193.8367158106025 L 92.507184084909 187.5335977091574 L 93.213142630311 180.98127614966583 L 93.919571814744 174.38216643727398 L 94.626000999176 168.2956313002298 L 95.331959544579 162.74508542070976 L 96.038388729011 157.7116559545443 L 96.744347274414 153.19082619156768 L 97.450776458846 149.1655690542732 L 98.157205643279 145.62829060701534 L 98.863164188681 142.57032087540767 L 99.569593373114 139.97725632548054 L 100.27555191852 137.84244967471614 L 100.98198110295 136.15315393511798 L 101.68841028738 134.9012435321157 L 102.39436883278 134.07762930235305 L 103.10079801722 133.671918458042 L 103.80675656262 133.6755584705021 L 104.51318574705 134.07964277103986 L 105.21961493148 134.8755735889522 L 105.92557347689 136.05389077612273 L 106.63200266132 137.6077995167197 L 107.33796120672 139.5270448296069 L 108.04439039115 141.80616480086377 L 108.75081957559 144.43614294706367 L 109.45677812099 147.40719150093724 L 110.16320730542 150.71574206796885 L 110.86916585082 154.35001972290002 L 111.57559503526 158.30765096940115 L 112.28202421969 162.5792487297449 L 112.98798276509 167.15473662714638 L 113.69441194952 172.0334382504397 L 114.40037049493 177.2022229762827 L 115.10679967936 182.66148507433033 L 115.81322886379 188.39979905002744 L 116.51918740919 193.96244876429873 L 117.22561659363 199.0167376916279 L 117.93157513903 203.5669640513031 L 118.63800432346 207.63000723047818 L 119.3444335079 211.2132613011372 L 120.0503920533 214.32517836390195 L 120.75682123773 216.98005843871007 L 121.46277978313 219.18429480373362 L 122.16920896757 220.9505588123064 L 122.875638152 222.2867674903601 L 123.5815966974 223.20178535278774 L 124.28802588183 223.70596915222248 L 124.99398442724 223.80758572662614 L 125.70041361167 223.51553059470123 L 126.4068427961 222.83818530232017 L 127.1128013415 221.78477939217044 L 127.81923052594 220.3621321100101 L 128.52518907134 218.5801845039475 L 129.23161825577 216.44444529794754 L 129.9380474402 213.96370798190114 L 130.64400598561 211.14752449616844 L 131.35043517004 207.99954181727986 L 132.05639371544 204.53119579436932 L 132.76282289987 200.74495854118277 L 133.46925208431 196.64998818948868 L 134.17521062971 192.25612072912503 L 134.88163981414 187.56415962327827 L 135.58759835954 182.58687406483617 L 136.29402754398 177.3240147612096 L 137.00045672841 171.78745727644974 L 137.70641527381 166.43976266617165 L 138.41284445824 161.60482445061712 L 139.11880300365 157.27795509247977 L 139.82523218808 153.44247791214286 L 140.53166137251 150.09075813771386 L 141.23761991791 147.21409433851704 L 141.94404910235 144.79841089855097 L 142.65000764775 142.83690849654408 L 143.35643683218 141.31715384735594 L 144.06286601661 140.23098548826886 L 144.76882456202 139.5692868089194 L 145.47525374645 139.32195849128044 L 146.18121229185 139.48031287408423 L 146.88764147628 140.03572406423194 L 147.59407066072 140.97956285320635 L 148.30002920612 142.30234525103054 L 149.00645839055 143.99753890714084 L 149.71241693595 146.05476891947603 L 150.41884612039 148.46882432445761 L 151.12527530482 151.2306612030684 L 151.83123385022 154.33047118750602 L 152.53766303465 157.76492044430466 L 153.24362158006 161.5221278134622 L 153.95005076449 165.5999439964407 L 154.65647994892 169.98895807873683 L 155.36243849432 174.67907599684418 L 156.06886767876 179.6698307875231 L 156.77482622416 184.94799790553822 L 157.48125540859 190.28765777562072 L 158.18768459303 195.14359723861054 L 158.89364313843 199.50000138488875 L 159.60007232286 203.37339946135245 L 160.30603086826 206.76911871656705 L 161.0124600527 209.7019656083152 L 161.71888923713 212.17958956347974 L 162.42484778253 214.21064343811557 L 163.13127696696 215.80748511110505 L 163.83723551237 216.97742748959413 L 164.5436646968 217.73128249300512 L 165.25009388123 218.07719364818786 L 165.95605242663 218.0242028293985 L 166.66248161107 217.5809250818464 L 167.36844015647 216.75644841482412 L 168.0748693409 215.55800108612678 L 168.78129852533 213.9941651826464 L 169.48725707074 212.07432656013714 L 170.19368625517 209.80374317066878 L 170.89964480057 207.19308862738478 L 171.606073985 204.24637737022437 L 172.31250316944 200.97258007560504 L 173.01846171484 197.38138606604602 L 173.72489089927 193.4750434146653 L 174.43084944467 189.26564079819804 L 175.13727862911 184.7543117414142 L 175.84370781354 179.95037055364696 L 176.54966635894 174.86377358035367 L 177.25609554337 169.5688243421329 L 177.96205408878 164.6660796778028 L 178.66848327321 160.2667331764635 L 179.37491245764 156.36328002317595 L 180.08087100304 152.94712176895837 L 180.78730018748 150.0032160902419 L 181.49325873288 147.5252254642852 L 182.19968791731 145.4997907524517 L 182.90611710174 143.91886618233264 L 183.61278160567 142.77249531030293 L 184.31921079008 142.051994088656 L 185.02587529401 141.74762757160732 L 185.73230447842 141.8505406317422 L 186.43873366284 142.35169638837453 L 187.14539816677 143.24277357212048 L 187.85182735118 144.5146755296941 L 188.55849185511 146.15991982290325 L 189.26492103952 148.1692583415994 L 189.97135022393 150.53519700291997 L 190.67801472786 153.2508833951312 L 191.38444391227 156.30685580106018 L 192.0911084162 159.69765320151157 L 192.79753760062 163.41368007511164 L 193.50396678503 167.44882803820508 L 194.21063128896 171.79756382654142 L 194.91706047337 176.45010342650647 L 195.6237249773 181.4027992328054 L 196.33015416171 186.40094270267113 L 197.03658334612 190.9174782909969 L 197.74324785005 194.9459590926884 L 198.44967703447 198.49427569482413 L 199.15634153839 201.57515012423306 L 199.86277072281 204.19666803978484 L 200.56919990722 206.36985649972567 L 201.27586441115 208.10493821725214 L 201.98229359556 209.41027455665457 L 202.68895809949 210.29605808944552 L 203.3953872839 210.77082327754744 L 204.10181646832 210.84386637738157 L 204.80848097224 210.52376204993675 L 205.51491015666 209.81928919698953 L 206.22157466058 208.73836954452517 L 206.928003845 207.2899353223183 L 207.63443302941 205.48172778486222 L 208.34109753334 203.3208410738341 L 209.04752671775 200.81642373088874 L 209.75419122168 197.9743594180012 L 210.46062040609 194.8039322197424 L 211.16704959051 191.31148663644993 L 211.87371409443 187.50278709597407 L 212.58014327885 183.38730869130677 L 213.28680778278 178.96910655024183 L 213.99323696719 174.5151692473147 L 214.6996661516 170.54312757303697 L 215.40633065553 167.0563799316503 L 216.11275983994 164.04672772285377 L 216.81942434387 161.5018595064426 L 217.52585352828 159.41338326836166 L 218.2322827127 157.77050047807825 L 218.93894721663 156.56321228101382 L 219.64537640104 155.78285335854946 L 220.35204090497 155.4196274885545 L 221.05847008938 155.4646978007471 L 221.76489927379 155.9089871433971 L 222.47156377772 156.74413570355813 L 223.17799296213 157.9610644122394 L 223.88465746606 159.55223494242034 L 224.59108665048 161.50841634192403 L 225.29751583489 163.82207791114195 L 226.00418033882 166.48633217820088 L 226.71060952323 169.49173397601518 L 227.41727402716 172.8327712502813 L 228.12370321157 176.4998646444764 L 228.83013239598 180.47723436649298 L 229.53679689991 184.2589998001136 L 230.24322608432 187.56627665971334 L 230.94989058825 190.41150954028737 L 231.65631977267 192.80282667627586 L 232.36274895708 194.75106379805314 L 233.06941346101 196.26626161649915 L 233.77584264542 197.3568205661 L 234.48250714935 198.03268494093533 L 235.18893633376 198.30242605742075 L 235.89536551817 198.17516867019575 L 236.6020300221 197.6593243308243 L 237.30845920652 196.76370564429138 L 238.01512371044 195.49601229794916 L 238.72155289486 193.86520823303633 L 239.42798207927 191.87888104696287 L 240.1346465832 189.54397877658434 L 240.84107576761 186.86967884247932 L 241.54774027154 183.8616664820639 L 242.25416945595 180.52925286869703 L 242.96059864037 176.89036707631112 L 243.66726314429 173.45938723802576 L 244.37369232871 170.50413696431198 L 245.08035683264 168.012369279475 L 245.78678601705 165.9756844252061 L 246.49321520146 164.3833288105858 L 247.19987970539 163.2253462731114 L 247.9063088898 162.49306458903266 L 248.61297339373 162.17674497109925 L 249.31940257814 162.26754417404362 L 250.02583176256 162.7564252030508 L 250.73249626648 163.63506637994323 L 251.4389254509 164.89438301437548 L 252.14558995483 166.52688788878717 L 252.85201913924 168.5233449057203 L 253.55844832365 170.87625921836178 L 254.26511282758 173.5787773883944 L 254.97154201199 176.6214497801226 L 255.67820651592 179.9988097572345 L 256.38463570033 183.41239102975658 L 257.09106488475 186.369291916725 L 257.79772938868 188.87169001374136 L 258.50415857309 190.9277823066404 L 259.21082307702 192.54860113994556 L 259.91725226143 193.7425238258804 L 260.62368144584 194.51941941366667 L 261.33034594977 194.88840819020635 L 262.03677513418 194.85812219435132 L 262.74343963811 194.4372380352997 L 263.44986882253 193.63454758533643 L 264.15629800694 192.45830719357622 L 264.86296251087 190.91610164161958 L 265.56939169528 189.01694837093297 L 266.27605619921 186.76740951043467 L 266.98248538362 184.17664389878837 L 267.68891456803 181.25145919108598 L 268.39557907196 177.9980609568676 L 269.10200825638 174.53936692922792 L 269.8086727603 171.46972255259317 L 270.51510194472 168.86786228690934 L 271.22153112913 166.7225774232819 L 271.92819563306 165.0234784233134 L 272.63462481747 163.7620035357837 L 273.3412893214 162.92781658600848 L 274.04771850581 162.5121796056922 L 274.75414769023 162.50564667130277 L 275.46081219415 162.89950674606155 L 276.16724137857 163.68477302430878 L 276.87390588249 164.85342206282473 L 277.58033506691 166.39631097468387 L 278.28676425132 168.30557756219665 L 278.99342875525 170.57401865098873 L 279.69985793966 173.1922711657004 L 280.40652244359 176.1543872972736 L 281.112951628 179.45086600353574 L 281.81938081242 183.05676490928002 L 282.52604531634 186.4364321357184 L 283.23247450076 189.35045334240246 L 283.93913900469 191.8108295816937 L 284.6455681891 193.82576771484932 L 285.35199737351 195.40579995833585 L 286.05866187744 196.56067802203154 L 286.76509106185 197.29887548397565 L 287.47175556578 197.62993845157484 L 288.17818475019 197.56250791766573 L 288.88461393461 197.10543595550777 L 289.59127843854 196.26687449828083 L 290.29770762295 195.0557008944095 L 291.00437212688 193.4792574706366 L 291.71080131129 191.54656979256865 L 292.4172304957 189.2649805303794 L 293.12389499963 186.641204551414 L 293.83032418404 183.68447646301718 L 294.53698868797 180.40016089005277 L 295.24341787239 176.79762338690176 L 295.9498470568 172.90420064616615 L 296.65651156073 169.2620064964854 L 297.36294074514 166.1002978376661 L 298.06960524907 163.40659236085082 L 298.77603443348 161.17252909110715 L 299.48246361789 159.38719274157262 L 300.18912812182 158.0404732641138 L 300.89555730623 157.1237342754651 L 301.60222181016 156.62702606858966 L 302.30865099458 156.54153937822662 L 303.01508017899 156.85809211279252 L 303.72174468292 157.56822452669053 L 304.42817386733 158.66288326304868 L 305.13483837126 160.1343921579283 L 305.84126755567 161.97354477431907 L 306.54769674008 164.17271610967006 L 307.25436124401 166.72492889621665 L 307.96079042843 169.62076077896583 L 308.66745493235 172.85457595207825 L 309.37388411677 176.4168167942408 L 310.08031330118 180.30125686870744 L 310.78697780511 184.50225031770242 L 311.49340698952 188.87522482956928 L 312.20007149345 192.83175906186406 L 312.90650067786 196.30976335764868 L 313.61292986228 199.32095281709616 L 314.3195943662 201.87620537757567 L 315.02602355062 203.98371333774304 L 315.73268805455 205.65457318926047 L 316.43911723896 206.89715817420966 L 317.14554642337 207.72138287642616 L 317.8522109273 208.13641074450123 L 318.55864011171 208.1508706237802 L 319.26530461564 207.77349584361113 L 319.97173380005 207.01307563620645 L 320.67816298447 205.87790682852284 L 321.38482748839 204.3756125458333 L 322.09125667281 202.51520837564763 L 322.79792117674 200.30330648604019 L 323.50435036115 197.74906435790223 L 324.21077954556 194.85932557438807 L 324.91744404949 191.6403297138629 L 325.6238732339 188.1014343008208 L 326.33053773783 184.24734817168618 L 327.03696692224 180.0875541080683 L 327.74339610666 175.6560891653832 L 328.45006061059 171.50863246429435 L 329.156489795 167.85278268032914 L 329.86315429893 164.67549994920566 L 330.56958348334 161.9685218649783 L 331.27601266775 159.72055154815854 L 331.98267717168 157.92111561153263 L 332.68910635609 156.56166934500038 L 333.39577086002 155.6317625327747 L 334.10220004444 155.12267322248488 L 334.80862922885 155.02487650997267 L 335.51529373278 155.32958626692863 L 336.22172291719 156.02783024569027 L 336.92838742112 157.11148312258206 L 337.63481660553 158.57141564731268 L 338.34124578994 160.39969491284165 L 339.04791029387 162.5890505350332 L 339.75433947829 165.13013176500587 L 340.46100398221 168.0168998569286 L 341.16743316663 171.23986526721015 L 341.87386235104 174.7925250769982 L 342.58052685497 178.66897025655487 L 343.28695603938 182.70755166324224 L 343.99362054331 186.3256940085191 L 344.70004972772 189.47292146058362 L 345.40647891214 192.16067871557001 L 346.11314341606 194.39958635041833 L 346.81957260048 196.19789729867298 L 347.5262371044 197.5663550598672 L 348.23266628882 198.5133904026853 L 348.93909547323 199.04867522698683 L 349.64575997716 199.1811420368997 L 350.35218916157 198.91947278270996 L 351.0588536655 198.27208449780596 L 351.76528284991 197.24781672407863 L 352.47171203433 195.8547485557118 L 353.17837653825 194.10029595071566 L 353.88480572267 191.99352083012454 L 354.5914702266 189.54075209428436 L 355.29789941101 186.75119104412957 L 356.00432859542 183.6314859886019 L 356.71099309935 180.18769074048234 L 357.41742228376 176.589112374058 L 358.12408678769 173.41519366968703 L 358.8305159721 170.71132345290243 L 359.53694515653 168.46621149528477 L 360.24290370195 166.67096478794147 L 360.9493328864 165.31345980069403 L 361.65529143183 164.38598640330608 L 362.36172061628 163.8779792178927 L 363.06814980073 163.78105897112772 L 363.77410834615 164.08594123709986 L 364.4805375306 164.78427478786386 L 365.18649607603 165.86656129540197 L 365.89292526048 167.32584719061452 L 366.59935444493 169.1533118281514 L 367.30531299035 171.33932477242865 L 368.01174217481 173.8789181551418 L 368.71770072023 176.76099651757454 L 369.42412990468 179.9818451858678 L 370.13055908913 183.49411395119228 L 370.83651763455 186.7245188226371 L 371.54294681901 189.49595869890086 L 372.24890536443 191.81471278104664 L 372.95533454888 193.6936455234626 L 373.66176373333 195.1406365502205 L 374.36772227875 196.1645171788959 L 375.07415146321 196.7758272561557 L 375.78011000863 196.98272800323247 L 376.48653919308 196.79429170114724 L 377.19296837753 196.21886476786662 L 377.89892692296 195.26564540928155 L 378.60535610741 193.94162061555102 L 379.31131465283 192.25663344935802 L 380.01774383728 190.21635467290687 L 380.72417302173 187.8295447026504 L 381.43013156716 185.1057258243858 L 382.13656075161 182.04869892548496 L 382.84251929703 178.6698087544795 L 383.54894848148 175.3548984441754 L 384.25537766593 172.5118399339192 L 384.96133621136 170.1319679158919 L 385.66776539581 168.2021100102691 L 386.37372394123 166.71505519485913 L 387.08015312568 165.6592337171017 L 387.78658231014 165.02639041914557 L 388.49254085556 164.80733856136828 L 389.19897004001 164.99278584812913 L 389.90492858543 165.57368010258378 L 390.61135776988 166.5421667217257 L 391.31778695434 167.88953520725227 L 392.02374549976 169.60624148317902 L 392.73017468421 171.6864736320998 L 393.43613322963 174.11953468606885 L 394.14256241408 176.90090195762187 L 394.84899159854 180.02146139103309 L 395.55495014396 183.47135355906676 L 396.26137932841 187.07620349614615 L 396.96733787383 190.25578957838994 L 397.67376705829 192.97741028259003 L 398.38019624274 195.2487552030648 L 399.08615478816 197.07850637559505 L 399.79258397261 198.47865205277793 L 400.49854251803 199.45666819641693 L 401.20497170249 200.02301376741264 L 401.91140088694 200.18586668630905 L 402.61735943236 199.95429333604667 L 403.32378861681 199.33657952510768 L 404.02974716223 198.341956534852 L 404.73617634669 196.977338385039 L 405.44260553114 195.2513363670572 L 406.14856407656 193.17335664886318 L 406.85499326101 190.74836429031689 L 407.56095180644 187.98715838422774 L 408.26738099089 184.89347397440756 L 408.97381017534 181.4763062787908 L 409.67976872076 177.745361162811 L 410.38619790521 173.87850312616868 L 411.09215645064 170.45382473573716 L 411.79858563509 167.50121483180538 L 412.50501481954 165.01284609194465 L 413.21097336496 162.97986790376848 L 413.91740254942 161.38972787485847 L 414.62383173387 160.23428925249084 L 415.32979027929 159.50445764907306 L 416.03621946374 159.1900205495927 L 416.74217800916 159.28235784176047 L 417.44860719362 159.77273417561116 L 418.15503637807 160.65254369987497 L 418.86099492349 161.9123235381706 L 419.56742410794 163.54543721069015 L 420.27338265336 165.54157284282053 L 420.97981183782 167.8954187133532 L 421.68624102227 170.59795303711525 L 422.39219956769 173.63938755580253 L 423.09862875214 177.01629248133898 L 423.80458729757 180.71684559945493 L 424.51101648202 184.5586847697995 L 425.21744566647 187.96791516152297 L 425.92340421189 190.91019294981828 L 426.62983339634 193.39950251396607 L 427.33579194177 195.4423702270073 L 428.04222112622 197.05116651094832 L 428.74865031067 198.2338332881069 L 429.45460885609 198.9992512551328 L 430.16103804055 199.3574971662391 L 430.86699658597 199.31695352485787 L 431.57342577042 198.88624908553896 L 432.27985495487 198.07378573164547 L 432.98581350029 196.88880550600123 L 433.69224268475 195.33787972334383 L 434.39820123017 193.43104942655853 L 435.10463041462 191.17358731492217 L 435.81105959907 188.57430312186654 L 436.51701814449 185.642757983698 L 437.22344732895 182.38237979505308 L 437.92940587437 178.80469031238374 L 438.63583505882 175.0963668437311 L 439.34226424327 171.82872344201152 L 440.0482227887 169.0337994502485 L 440.75465197315 166.69767621777524 L 441.46061051857 164.8134953539687 L 442.16703970302 163.36897267289265 L 442.87346888747 162.35593951319248 L 443.5794274329 161.76527671621687 L 444.28585661735 161.5870228706334 L 444.99181516277 161.81244053432198 L 445.69824434722 162.4330346459236 L 446.40467353167 163.44017121318538 L 447.1106320771 164.8243656422554 L 447.81706126155 166.5792063480406 L 448.52301980697 168.69427699297552 L 449.22944899142 171.16448101624684 L 449.93587817588 173.98077188073836 L 450.6418367213 177.1333423568619 L 451.34826590575 180.61896396153978 L 452.05422445117 184.4257215955919 L 452.76065363562 188.3628080674166 L 453.46708282008 191.8611317563755 L 454.1730413655 194.89042457636765 L 454.87947054995 197.46482909634108 L 455.58542909537 199.5907995620062 L 456.29185827983 201.28085763330478 L 456.99828746428 202.54292880603631 L 457.7042460097 203.38588147653834 L 458.41067519415 203.81993374253574 L 459.11663373957 203.85340424196335 L 459.82306292403 203.49505681647955 L 460.52949210848 202.7532790950745 L 461.2354506539 201.6373025788241 L 461.94187983835 200.15382476497385 L 462.64783838377 198.31283026358543 L 463.35426756823 196.11971232602588 L 464.06069675268 193.58326838423838 L 464.7666552981 190.71305061333734 L 465.47308448255 187.51259944655828 L 466.17904302798 183.9933868937462 L 466.88547221243 180.15778416933884 L 467.59190139688 176.01534719541044 L 468.2978599423 171.99611708962559 L 469.00428912675 168.4614773514621 L 469.71024767218 165.40561274987314 L 470.41667685663 162.81413409904656 L 471.12310604108 160.67913070560132 L 471.8290645865 158.99168584807035 L 472.53549377095 157.7398661408181 L 473.24145231638 156.91586603842728 L 473.94788150083 156.50930262681203 L 474.65431068528 156.51177054065107 L 475.3602692307 156.91396383390997 L 476.06669841516 157.7077028080697 L 476.77265696058 158.8834028900419 L 477.47908614503 160.43427512459675 L 478.18551532948 162.35147520427614 L 478.8914738749 164.62535314806635 L 479.59790305936 167.25109585644165 L 480.30386160478 170.21752988305107 L 481.01029078923 173.5210890961531 L 481.71671997368 177.15254038694582 L 482.4226785191 181.101930391154 L 483.12910770356 185.31194780737852 L 483.83506624898 189.19126632945907 L 484.54149543343 192.59786676988497 L 485.24792461788 195.53928434659537 L 485.95388316331 198.0240798502866 L 486.66031234776 200.06541895052615 L 487.36627089318 201.67022069974686 L 488.07270007763 202.85007128740304 L 488.77912926208 203.6130117647494 L 489.48508780751 203.9680014646152 L 490.19151699196 203.92438198532406 L 490.89747553738 203.49088744197397 L 491.60390472183 202.67544246868968 L 492.31033390629 201.486537238406 L 493.01629245171 199.9334836379976 L 493.72272163616 198.02219303906105 L 494.42868018158 195.76302113300207 L 495.13510936603 193.160608612931 L 495.84153855049 190.2238437480882 L 496.54749709591 186.96234960814877 L 497.25392628036 183.37896184805666 L 497.95988482578 179.48548360488394 L 498.66631401023 175.4868343136193 L 499.37274319469 171.94322628035795 L 500.07870174011 168.87852210004516 L 500.78513092456 166.27831831085294 L 501.49108946998 164.13598599791536 L 502.19751865444 162.43877681694863 L 502.90394783889 161.17857858286266 L 503.60990638431 160.34631634226162 L 504.31633556876 159.93159392293887 L 505.02229411418 159.92587877309842 L 505.72872329864 160.32025966052635 L 506.43515248309 161.10615258709936 L 507.14111102851 162.27411190907787 L 507.84754021296 163.81733633153416 L 508.55349875838 165.7255922818116 L 509.25992794284 167.9934102221942 L 509.96635712729 170.61178777816252 L 510.67231567271 173.57095194334298 L 511.37874485716 176.86732507515106 L 512.08470340259 180.48915492857483 L 512.79113258704 184.22627724046674 L 513.49756177149 187.52124298068256 L 514.20352031691 190.35182708553705 L 514.90994950136 192.73181298546552 L 515.61590804679 194.66782182312028 L 516.32233723124 196.17203165879002 L 517.02876641569 197.25240757199623 L 517.73472496111 197.91784831502278 L 518.44115414557 198.1782505032926 L 519.14711269099 198.0420811893109 L 519.85354187544 197.51779671816087 L 520.55997105989 196.61381943646103 L 521.26592960531 195.33940725895815 L 521.97235878977 193.70097009273806 L 522.67831733519 191.7086243322024 L 523.38474651964 189.36748822604002 L 524.09117570409 186.68638954753393 L 524.79713424951 183.67490334086165 L 525.50356343397 180.33631295255265 L 526.20952197939 176.68220721396693 L 526.91595116384 172.9271000588304 L 527.62238034829 169.62525727189544 L 528.32833889372 166.79694639040187 L 529.03476807817 164.42818773936307 L 529.74072662359 162.51215026186594 L 530.44715580804 161.03649146740509 L 531.15358499249 159.9930486742245 L 531.85954353792 159.37270708969208 L 532.56597272237 159.16545086880149 L 533.27193126779 159.36256667319572 L 533.97836045224 159.9555074553827 L 534.68478963669 160.93564435458006 L 535.39074818212 162.29349645672897 L 536.09717736657 164.0226036740045 L 536.80313591199 166.112570867246 L 537.50956509644 168.55825517538835 L 538.2159942809 171.3506144304814 L 538.92195282632 174.47984446618696 L 539.62838201077 177.9426736337241 L 540.33434055619 181.72720541916877 L 541.04076974064 185.61430224647322 L 541.7471989251 189.05257573591732 L 542.45315747052 192.0232229709734 L 543.15958665497 194.54027981995208 L 543.86554520039 196.61024905157768 L 544.57197438485 198.24555032405914 L 545.2784035693 199.45412012012372 L 545.98436211472 200.24483503418452 L 546.69079129917 200.62781785016875 L 547.39674984459 200.61143014519158 L 548.10317902905 200.20434467597846 L 548.8096082135 199.41495859065972 L 549.51556675892 198.25251040018088 L 550.22199594337 196.7236125356691 L 550.92795448879 194.83828752304217 L 551.63438367325 192.6018473532492 L 552.3408128577 190.02309765780606 L 553.04677140312 187.11159655381942 L 553.75320058757 183.8708086305365 L 554.459159133 180.31223929493225 L 555.16558831745 176.659942564052 L 555.8720175019 173.46186572169876 L 556.57797604732 170.73491475089665 L 557.28440523177 168.4652939215584 L 557.9903637772 166.64608782338192 L 558.69679296165 165.2651298645984 L 559.4032221461 164.31423791095074 L 560.10918069152 163.78428249382813 L 560.81560987597 163.66541221470513 L 561.5215684214 163.94883894666768 L 562.22799760585 164.62617284717078 L 562.9344267903 165.68876811870024 L 563.64038533572 167.12713120839547 L 564.34681452018 168.9349489265338 L 565.0527730656 171.10175995072584 L 565.75920225005 173.62256180085885 L 566.4656314345 176.48829763428876 L 567.17158997992 179.68915247705192 L 567.87801916438 183.15130806547873 L 568.5839777098 186.27683661833288 L 569.29040689425 188.94562394541722 L 569.9968360787 191.16536975490433 L 570.70279462412 192.9447634550414 L 571.40922380858 194.2957009037965 L 572.115182354 195.22569892540886 L 572.82161153845 195.74512824449363 L 573.5280407229 195.86217545465348 L 574.23399926833 195.58591314558424 L 574.94042845278 194.92454480772477 L 575.6463869982 193.88733764893792 L 576.35281618265 192.48112711291083 L 577.0592453671 190.71453186912018 L 577.76520391253 188.59696324495255 L 578.47163309698 186.13331304972104 L 579.1775916424 183.33441186328633 L 579.88402082685 180.20392484604108 L 580.59045001131 176.75449023712247 L 581.29640855673 173.4599926270304 L 582.00283774118 170.6347522359299 L 582.7087962866 168.27233787616345 L 583.41522547105 166.35960767528468 L 584.12165465551 164.8884996996946 L 584.82761320093 163.84997899714546 L 585.53404238538 163.2332804126602 L 586.2400009308 163.0300485785008 L 586.94643011525 163.2310188020074 L 587.65285929971 163.82765191281075 L 588.35881784513 164.81053786834127 L 589.06524702958 166.17254400861137 L 589.771205575 167.90359545444122 L 590.47763475946 169.9979052759376 L 591.18406394391 172.44651104548078 L 591.89002248933 175.23967139868054 L 592.59645167378 178.3735111904665 L 593.3024102192 181.83642022660302 L 594.00883940366 185.39076716908417 L 594.71526858811 188.49775950897535 L 595.42122713353 191.1445640796226 L 596.12765631798 193.34463446436027 L 596.8336148634 195.10474856082325 L 597.54004404786 196.43676858491554 L 598.24647323231 197.3486984979812 L 598.95243177773 197.8494676133525 L 599.65886096218 197.94867663388598 L 600.36481950761 197.65493269490045 L 601.07124869206 196.97640883327097 L 601.77767787651 195.9215618802872 L 602.48363642193 194.49967674637355 L 603.19006560638 192.71689797161648 L 603.89602415181 190.5834670287113 L 604.60245333626 188.10424814479538 L 605.30888252071 185.28809962172562 L 606.01484106613 182.14462029208912 L 606.72127025059 178.67685562996803 L 607.42722879601 174.89650604183547 L 608.13365798046 171.04532884238762 L 608.84008716491 167.6584117395097 L 609.54604571033 164.7469746808463 L 610.25247489479 162.29688768232472 L 610.95843344021 160.3013894326386 L 611.66486262466 158.7479936437769 L 612.37129180911 157.62855412421322 L 613.07725035453 156.93396870479302 L 613.78367953899 156.65408701128172 L 614.48963808441 156.78025770638055 L 615.19606726886 157.30380507406778 L 615.90249645331 158.21611470501546 L 616.60845499874 159.50771665701552 L 617.31488418319 161.17203051544197 L 618.02084272861 163.19871617382654 L 618.72727191306 165.58251571903352 L 619.43370109751 168.31439960105624 L 620.13965964294 171.3845731404293 L 620.84608882739 174.78965714388457 L 621.55204737281 178.51780386059164 L 622.25847655726 182.56681963975586 L 622.96490574171 186.9216140713658 L 623.67086428714 191.09314478684328 L 624.37729347159 194.78574782294862 L 625.08325201701 198.00490369487088 L 625.78968120146 200.76509755731675 L 626.49611038592 203.07401375977307 L 627.20206893134 204.94033131643081 L 627.90849811579 206.3761078197234 L 628.61445666121 207.3887918944005 L 629.32088584566 207.98890846259678 L 630.02731503012 208.18463135982833 L 630.73327357554 207.9850248830128 L 631.43970275999 207.39843599425194 L 632.14566130541 206.43407263261278 L 632.85209048986 205.09890693230705 L 633.55851967432 203.40154714067353 L 634.26447821974 201.35139817875995 L 634.97090740419 198.9534788964539 L 635.67686594961 196.2185686343715 L 636.38329513407 193.15045349276411 L 637.08972431852 189.7581265795319 L 637.79568286394 186.0512932654917 L 638.50211204839 182.0319886014737 L 639.20807059381 177.71239421674747 L 639.91449977827 173.34450135661493 L 640.62092896272 169.45508871383342 L 641.32688750814 166.05238417912625 L 642.03331669259 163.1213756661644 L 642.73927523802 160.65572049998116 L 643.44570442247 158.64208778157086 L 644.15213360692 157.07243488529565 L 644.85809215234 155.937740930497 L 645.56452133679 155.22706429779362 L 646.27047988222 154.93212765052976 L 646.97690906667 155.0434977745939 L 647.68333825112 155.55265205551927 L 648.38929679654 156.4501922957133 L 649.09572598099 157.72882861829964 L 649.80168452642 159.37855474700257 L 650.50811371087 161.39343368266276 L 651.21454289532 163.76451708005098 L 651.92050144074 166.48207341927613 L 652.6269306252 169.54208765840164 L 653.33288917062 172.93300972625985 L 654.03931835507 176.65203746493327 L 654.74574753952 180.68230873892708 L 655.45170608494 184.5243546090911 L 656.1581352694 187.89456644124672 L 656.86409381482 190.7987019469853 L 657.57052299927 193.2506769201936 L 658.27695218372 195.25824178092745 L 658.98291072914 196.83012635407488 L 659.6893399136 197.9778554442526 L 660.39529845902 198.7091243072763 L 661.10172764347 199.03394820422912 L 661.80815682792 198.96055899239786 L 662.51411537335 198.4980652580654 L 663.2205445578 197.6543372196637 L 663.92650310322 196.43880194438486 L 664.63293228767 194.8579756376366 L 665.33936147212 192.92051732959607 L 666.04532001755 190.63587036687525 L 666.751749202 188.00862729688015 L 667.45770774742 185.0497618423657 L 668.16413693187 181.7626525346272 L 668.87056611633 178.16477567843495 L 669.57652466175 174.75980482332986 L 670.2829538462 171.8263968024991 L 670.98891239162 169.35821505205092 L 671.69534157607 167.34192815979253 L 672.40177076053 165.769497939535 L 673.10772930595 164.6319082199285 L 673.8141584904 163.91821620121044 L 674.52011703582 163.6201511870153 L 675.22654622027 163.72827836206906 L 675.93297540473 164.2340796772531 L 676.63893395015 165.1281617410024 L 677.3453631346 166.40323247802547 L 678.05132168002 168.0492927231018 L 678.75775086448 170.06040290210342 L 679.46418004893 172.42761934565965 L 680.17013859435 175.14121542415438 L 680.8765677788 178.19717298638244 L 681.58252632422 181.5839494903998 L 682.28895550868 185.0323476426588 L 682.99538469313 188.02763926067936 L 683.70134323855 190.56525708425102 L 684.407772423 192.65845824262124 L 685.11373096842 194.31411325987756 L 685.82016015288 195.5438962947007 L 686.52658933733 196.35583393063996 L 687.23254788275 196.75887311473574 L 687.9389770672 196.7624384447204 L 688.64493561263 196.37521968839917 L 689.35136479708 195.60522133558152 L 690.05779398153 194.46092020558524 L 690.76375252695 192.9516167073036 L 691.4701817114 191.08329759179006 L 692.17614025683 188.86627797058097 L 692.88256944128 186.30527108468272 L 693.58899862573 183.40915285435761 L 694.29495717115 180.18753569021385 L 695.00138635561 176.74015887949417 L 695.70734490103 173.66871262373118 L 696.41377408548 171.06180952238788 L 697.12020326993 168.91154599681195 L 697.82616181535 167.20901207142384 L 698.53259099981 165.94225105072667 L 699.23854954523 165.10347417556576 L 699.94497872968 164.68227576937343 L 700.65140791413 164.67025737083839 L 701.35736645955 165.05811960387922 L 702.06379564401 165.8376607882448 L 702.76975418943 166.999312456986 L 703.47618337388 168.5362641679303 L 704.18261255833 170.43967832543365 L 704.88857110376 172.69991135756774 L 705.59500028821 175.3121293837374 L 706.30095883363 178.26517444647132 L 707.00738801808 181.55546008039343 L 707.71381720253 185.16257765006105 L 708.41977574796 188.57082453645904 L 709.12620493241 191.516312909469 L 709.83216347783 194.00517153498072 L 710.53859266228 196.05057152364085 L 711.24502184673 197.66035606376084 L 711.95098039216 198.8433282010241" class="highcharts-graph" stroke="#e41a1c" stroke-width="2" stroke-linejoin="round" stroke-linecap="round"></path><path fill="none" d="M -2.9509803921569002 394.85926973914854 L 7.0490196078431 394.85926973914854 L 7.755448792275 394.2704922039497 L 8.4614073376768 393.3001064829531 L 9.1678365221088 391.9551603505881 L 9.8742657065409 390.24434677323325 L 10.580224251943 388.1771634725395 L 11.286653436375 385.75868513372535 L 11.993317940322 382.9968678371563 L 12.699747124753 379.90106508742673 L 13.406176309185 376.4777693263312 L 14.112840813131 372.73288312092734 L 14.819269997563 368.6759544101172 L 15.525934501509 364.31119032399613 L 16.232363685941 359.6482604999074 L 16.938792870372 354.69238203087457 L 17.645457374319 349.44824347851807 L 18.351886558752 343.92568577447355 L 19.057845104154 338.1331758358335 L 19.764274288587 332.0690715498681 L 20.470703473019 325.7431018559199 L 21.176662018422 319.1655693295284 L 21.883091202854 312.3334125582677 L 22.589049748257 305.2613197326156 L 23.295478932689 297.9453343839997 L 24.001908117122 290.3954522171257 L 24.707866662524 282.6221804275042 L 25.414295846957 274.6202921977707 L 26.120254392359 266.405475594015 L 26.826683576792 257.9717029306581 L 27.533112761225 249.32920390602473 L 28.239071306627 240.48866378531375 L 28.94550049106 231.44291859546985 L 29.651459036462 222.20854427966998 L 30.357888220895 212.77766076805773 L 31.064317405328 203.1607022794354 L 31.77027595073 193.36850827651708 L 32.476705135163 183.39218305858964 L 33.182663680565 173.24908967659678 L 33.889092864998 163.116271881405 L 34.59552204943 153.5652663154114 L 35.301480594833 144.62822566954992 L 36.007909779265 136.28018388502232 L 36.713868324668 128.51949704693828 L 37.4202975091 121.32330530813636 L 38.126726693533 114.68471630679329 L 38.832685238935 108.5956069145297 L 39.539114423368 103.0361115452485 L 40.24507296877 98.00214572993741 L 40.951502153203 93.47573485623042 L 41.657931337636 89.44937321963147 L 42.363889883038 85.91445227458769 L 43.070319067471 82.85568529010112 L 43.776277612873 80.26680359620957 L 44.482706797306 78.13421768607839 L 45.189135981738 76.44987616097177 L 45.895094527141 75.20473992464747 L 46.601523711573 74.38763156134013 L 47.307482256976 73.9903289263948 L 48.013911441408 74.00317742414234 L 48.720340625841 74.41764083214684 L 49.426299171243 75.2242988667441 L 50.132728355676 76.41566077203305 L 50.838686901078 77.98175858371468 L 51.545116085511 79.91646737827443 L 52.251545269944 82.2108208782355 L 52.957503815346 84.85506202146274 L 53.663932999779 87.84500626569428 L 54.369891545181 91.16912671165295 L 55.076320729614 94.82446334131447 L 55.782749914046 98.80166909755229 L 56.488708459449 103.09069008857693 L 57.195137643882 107.69030553948494 L 57.901096189284 112.58759780175313 L 58.607525373717 117.78244343253897 L 59.313954558149 123.26515892508843 L 60.019913103552 129.02542949154105 L 60.726342287984 135.06468988857705 L 61.432300833387 141.36878307008328 L 62.138730017819 147.94012664088973 L 62.845159202252 154.76874052257227 L 63.551117747654 161.84408135007857 L 64.257546932087 169.16996197480128 L 64.963505477489 176.73112214953144 L 65.669934661922 184.53225453084903 L 66.376363846355 192.562557425776 L 67.082322391757 200.38667908802893 L 67.78875157619 207.65455545793841 L 68.494710121592 214.36856360132958 L 69.201139306025 220.54947577241913 L 69.907568490457 226.20421495490345 L 70.61352703586 231.34086524402633 L 71.319956220292 235.97737256042961 L 72.025914765695 240.11841555260324 L 72.732343950127 243.78015530165808 L 73.43877313456 246.97009218878583 L 74.144731679962 249.69676685834696 L 74.851160864395 251.9738034953133 L 75.557119409797 253.8079401637455 L 76.26354859423 255.21119924424565 L 76.969977778663 256.19159461543006 L 77.675936324065 256.758071646305 L 78.382365508498 256.92037635974486 L 79.0883240539 256.68708827900457 L 79.794753238333 256.0665163812794 L 80.501182422765 255.06713054584955 L 81.207140968168 253.6982342409666 L 81.9135701526 251.96609460732168 L 82.619528698003 249.88093646723374 L 83.325957882436 247.44773822048387 L 84.032387066868 244.6753740149006 L 84.738345612271 241.5734634730827 L 85.444774796703 238.1451542568099 L 86.150733342106 234.4021399498765 L 86.857162526538 230.3464129648163 L 87.563591710971 225.9872051755732 L 88.269550256373 221.33441462781536 L 88.975979440806 216.3883930076356 L 89.681937986208 211.1621437882845 L 90.388367170641 205.65498356236893 L 91.094796355074 199.87646005954937 L 91.800754900476 193.8367158106025 L 92.507184084909 187.5335977091574 L 93.213142630311 180.98127614966583 L 93.919571814744 174.38216643727398 L 94.626000999176 168.2956313002298 L 95.331959544579 162.74508542070976 L 96.038388729011 157.7116559545443 L 96.744347274414 153.19082619156768 L 97.450776458846 149.1655690542732 L 98.157205643279 145.62829060701534 L 98.863164188681 142.57032087540767 L 99.569593373114 139.97725632548054 L 100.27555191852 137.84244967471614 L 100.98198110295 136.15315393511798 L 101.68841028738 134.9012435321157 L 102.39436883278 134.07762930235305 L 103.10079801722 133.671918458042 L 103.80675656262 133.6755584705021 L 104.51318574705 134.07964277103986 L 105.21961493148 134.8755735889522 L 105.92557347689 136.05389077612273 L 106.63200266132 137.6077995167197 L 107.33796120672 139.5270448296069 L 108.04439039115 141.80616480086377 L 108.75081957559 144.43614294706367 L 109.45677812099 147.40719150093724 L 110.16320730542 150.71574206796885 L 110.86916585082 154.35001972290002 L 111.57559503526 158.30765096940115 L 112.28202421969 162.5792487297449 L 112.98798276509 167.15473662714638 L 113.69441194952 172.0334382504397 L 114.40037049493 177.2022229762827 L 115.10679967936 182.66148507433033 L 115.81322886379 188.39979905002744 L 116.51918740919 193.96244876429873 L 117.22561659363 199.0167376916279 L 117.93157513903 203.5669640513031 L 118.63800432346 207.63000723047818 L 119.3444335079 211.2132613011372 L 120.0503920533 214.32517836390195 L 120.75682123773 216.98005843871007 L 121.46277978313 219.18429480373362 L 122.16920896757 220.9505588123064 L 122.875638152 222.2867674903601 L 123.5815966974 223.20178535278774 L 124.28802588183 223.70596915222248 L 124.99398442724 223.80758572662614 L 125.70041361167 223.51553059470123 L 126.4068427961 222.83818530232017 L 127.1128013415 221.78477939217044 L 127.81923052594 220.3621321100101 L 128.52518907134 218.5801845039475 L 129.23161825577 216.44444529794754 L 129.9380474402 213.96370798190114 L 130.64400598561 211.14752449616844 L 131.35043517004 207.99954181727986 L 132.05639371544 204.53119579436932 L 132.76282289987 200.74495854118277 L 133.46925208431 196.64998818948868 L 134.17521062971 192.25612072912503 L 134.88163981414 187.56415962327827 L 135.58759835954 182.58687406483617 L 136.29402754398 177.3240147612096 L 137.00045672841 171.78745727644974 L 137.70641527381 166.43976266617165 L 138.41284445824 161.60482445061712 L 139.11880300365 157.27795509247977 L 139.82523218808 153.44247791214286 L 140.53166137251 150.09075813771386 L 141.23761991791 147.21409433851704 L 141.94404910235 144.79841089855097 L 142.65000764775 142.83690849654408 L 143.35643683218 141.31715384735594 L 144.06286601661 140.23098548826886 L 144.76882456202 139.5692868089194 L 145.47525374645 139.32195849128044 L 146.18121229185 139.48031287408423 L 146.88764147628 140.03572406423194 L 147.59407066072 140.97956285320635 L 148.30002920612 142.30234525103054 L 149.00645839055 143.99753890714084 L 149.71241693595 146.05476891947603 L 150.41884612039 148.46882432445761 L 151.12527530482 151.2306612030684 L 151.83123385022 154.33047118750602 L 152.53766303465 157.76492044430466 L 153.24362158006 161.5221278134622 L 153.95005076449 165.5999439964407 L 154.65647994892 169.98895807873683 L 155.36243849432 174.67907599684418 L 156.06886767876 179.6698307875231 L 156.77482622416 184.94799790553822 L 157.48125540859 190.28765777562072 L 158.18768459303 195.14359723861054 L 158.89364313843 199.50000138488875 L 159.60007232286 203.37339946135245 L 160.30603086826 206.76911871656705 L 161.0124600527 209.7019656083152 L 161.71888923713 212.17958956347974 L 162.42484778253 214.21064343811557 L 163.13127696696 215.80748511110505 L 163.83723551237 216.97742748959413 L 164.5436646968 217.73128249300512 L 165.25009388123 218.07719364818786 L 165.95605242663 218.0242028293985 L 166.66248161107 217.5809250818464 L 167.36844015647 216.75644841482412 L 168.0748693409 215.55800108612678 L 168.78129852533 213.9941651826464 L 169.48725707074 212.07432656013714 L 170.19368625517 209.80374317066878 L 170.89964480057 207.19308862738478 L 171.606073985 204.24637737022437 L 172.31250316944 200.97258007560504 L 173.01846171484 197.38138606604602 L 173.72489089927 193.4750434146653 L 174.43084944467 189.26564079819804 L 175.13727862911 184.7543117414142 L 175.84370781354 179.95037055364696 L 176.54966635894 174.86377358035367 L 177.25609554337 169.5688243421329 L 177.96205408878 164.6660796778028 L 178.66848327321 160.2667331764635 L 179.37491245764 156.36328002317595 L 180.08087100304 152.94712176895837 L 180.78730018748 150.0032160902419 L 181.49325873288 147.5252254642852 L 182.19968791731 145.4997907524517 L 182.90611710174 143.91886618233264 L 183.61278160567 142.77249531030293 L 184.31921079008 142.051994088656 L 185.02587529401 141.74762757160732 L 185.73230447842 141.8505406317422 L 186.43873366284 142.35169638837453 L 187.14539816677 143.24277357212048 L 187.85182735118 144.5146755296941 L 188.55849185511 146.15991982290325 L 189.26492103952 148.1692583415994 L 189.97135022393 150.53519700291997 L 190.67801472786 153.2508833951312 L 191.38444391227 156.30685580106018 L 192.0911084162 159.69765320151157 L 192.79753760062 163.41368007511164 L 193.50396678503 167.44882803820508 L 194.21063128896 171.79756382654142 L 194.91706047337 176.45010342650647 L 195.6237249773 181.4027992328054 L 196.33015416171 186.40094270267113 L 197.03658334612 190.9174782909969 L 197.74324785005 194.9459590926884 L 198.44967703447 198.49427569482413 L 199.15634153839 201.57515012423306 L 199.86277072281 204.19666803978484 L 200.56919990722 206.36985649972567 L 201.27586441115 208.10493821725214 L 201.98229359556 209.41027455665457 L 202.68895809949 210.29605808944552 L 203.3953872839 210.77082327754744 L 204.10181646832 210.84386637738157 L 204.80848097224 210.52376204993675 L 205.51491015666 209.81928919698953 L 206.22157466058 208.73836954452517 L 206.928003845 207.2899353223183 L 207.63443302941 205.48172778486222 L 208.34109753334 203.3208410738341 L 209.04752671775 200.81642373088874 L 209.75419122168 197.9743594180012 L 210.46062040609 194.8039322197424 L 211.16704959051 191.31148663644993 L 211.87371409443 187.50278709597407 L 212.58014327885 183.38730869130677 L 213.28680778278 178.96910655024183 L 213.99323696719 174.5151692473147 L 214.6996661516 170.54312757303697 L 215.40633065553 167.0563799316503 L 216.11275983994 164.04672772285377 L 216.81942434387 161.5018595064426 L 217.52585352828 159.41338326836166 L 218.2322827127 157.77050047807825 L 218.93894721663 156.56321228101382 L 219.64537640104 155.78285335854946 L 220.35204090497 155.4196274885545 L 221.05847008938 155.4646978007471 L 221.76489927379 155.9089871433971 L 222.47156377772 156.74413570355813 L 223.17799296213 157.9610644122394 L 223.88465746606 159.55223494242034 L 224.59108665048 161.50841634192403 L 225.29751583489 163.82207791114195 L 226.00418033882 166.48633217820088 L 226.71060952323 169.49173397601518 L 227.41727402716 172.8327712502813 L 228.12370321157 176.4998646444764 L 228.83013239598 180.47723436649298 L 229.53679689991 184.2589998001136 L 230.24322608432 187.56627665971334 L 230.94989058825 190.41150954028737 L 231.65631977267 192.80282667627586 L 232.36274895708 194.75106379805314 L 233.06941346101 196.26626161649915 L 233.77584264542 197.3568205661 L 234.48250714935 198.03268494093533 L 235.18893633376 198.30242605742075 L 235.89536551817 198.17516867019575 L 236.6020300221 197.6593243308243 L 237.30845920652 196.76370564429138 L 238.01512371044 195.49601229794916 L 238.72155289486 193.86520823303633 L 239.42798207927 191.87888104696287 L 240.1346465832 189.54397877658434 L 240.84107576761 186.86967884247932 L 241.54774027154 183.8616664820639 L 242.25416945595 180.52925286869703 L 242.96059864037 176.89036707631112 L 243.66726314429 173.45938723802576 L 244.37369232871 170.50413696431198 L 245.08035683264 168.012369279475 L 245.78678601705 165.9756844252061 L 246.49321520146 164.3833288105858 L 247.19987970539 163.2253462731114 L 247.9063088898 162.49306458903266 L 248.61297339373 162.17674497109925 L 249.31940257814 162.26754417404362 L 250.02583176256 162.7564252030508 L 250.73249626648 163.63506637994323 L 251.4389254509 164.89438301437548 L 252.14558995483 166.52688788878717 L 252.85201913924 168.5233449057203 L 253.55844832365 170.87625921836178 L 254.26511282758 173.5787773883944 L 254.97154201199 176.6214497801226 L 255.67820651592 179.9988097572345 L 256.38463570033 183.41239102975658 L 257.09106488475 186.369291916725 L 257.79772938868 188.87169001374136 L 258.50415857309 190.9277823066404 L 259.21082307702 192.54860113994556 L 259.91725226143 193.7425238258804 L 260.62368144584 194.51941941366667 L 261.33034594977 194.88840819020635 L 262.03677513418 194.85812219435132 L 262.74343963811 194.4372380352997 L 263.44986882253 193.63454758533643 L 264.15629800694 192.45830719357622 L 264.86296251087 190.91610164161958 L 265.56939169528 189.01694837093297 L 266.27605619921 186.76740951043467 L 266.98248538362 184.17664389878837 L 267.68891456803 181.25145919108598 L 268.39557907196 177.9980609568676 L 269.10200825638 174.53936692922792 L 269.8086727603 171.46972255259317 L 270.51510194472 168.86786228690934 L 271.22153112913 166.7225774232819 L 271.92819563306 165.0234784233134 L 272.63462481747 163.7620035357837 L 273.3412893214 162.92781658600848 L 274.04771850581 162.5121796056922 L 274.75414769023 162.50564667130277 L 275.46081219415 162.89950674606155 L 276.16724137857 163.68477302430878 L 276.87390588249 164.85342206282473 L 277.58033506691 166.39631097468387 L 278.28676425132 168.30557756219665 L 278.99342875525 170.57401865098873 L 279.69985793966 173.1922711657004 L 280.40652244359 176.1543872972736 L 281.112951628 179.45086600353574 L 281.81938081242 183.05676490928002 L 282.52604531634 186.4364321357184 L 283.23247450076 189.35045334240246 L 283.93913900469 191.8108295816937 L 284.6455681891 193.82576771484932 L 285.35199737351 195.40579995833585 L 286.05866187744 196.56067802203154 L 286.76509106185 197.29887548397565 L 287.47175556578 197.62993845157484 L 288.17818475019 197.56250791766573 L 288.88461393461 197.10543595550777 L 289.59127843854 196.26687449828083 L 290.29770762295 195.0557008944095 L 291.00437212688 193.4792574706366 L 291.71080131129 191.54656979256865 L 292.4172304957 189.2649805303794 L 293.12389499963 186.641204551414 L 293.83032418404 183.68447646301718 L 294.53698868797 180.40016089005277 L 295.24341787239 176.79762338690176 L 295.9498470568 172.90420064616615 L 296.65651156073 169.2620064964854 L 297.36294074514 166.1002978376661 L 298.06960524907 163.40659236085082 L 298.77603443348 161.17252909110715 L 299.48246361789 159.38719274157262 L 300.18912812182 158.0404732641138 L 300.89555730623 157.1237342754651 L 301.60222181016 156.62702606858966 L 302.30865099458 156.54153937822662 L 303.01508017899 156.85809211279252 L 303.72174468292 157.56822452669053 L 304.42817386733 158.66288326304868 L 305.13483837126 160.1343921579283 L 305.84126755567 161.97354477431907 L 306.54769674008 164.17271610967006 L 307.25436124401 166.72492889621665 L 307.96079042843 169.62076077896583 L 308.66745493235 172.85457595207825 L 309.37388411677 176.4168167942408 L 310.08031330118 180.30125686870744 L 310.78697780511 184.50225031770242 L 311.49340698952 188.87522482956928 L 312.20007149345 192.83175906186406 L 312.90650067786 196.30976335764868 L 313.61292986228 199.32095281709616 L 314.3195943662 201.87620537757567 L 315.02602355062 203.98371333774304 L 315.73268805455 205.65457318926047 L 316.43911723896 206.89715817420966 L 317.14554642337 207.72138287642616 L 317.8522109273 208.13641074450123 L 318.55864011171 208.1508706237802 L 319.26530461564 207.77349584361113 L 319.97173380005 207.01307563620645 L 320.67816298447 205.87790682852284 L 321.38482748839 204.3756125458333 L 322.09125667281 202.51520837564763 L 322.79792117674 200.30330648604019 L 323.50435036115 197.74906435790223 L 324.21077954556 194.85932557438807 L 324.91744404949 191.6403297138629 L 325.6238732339 188.1014343008208 L 326.33053773783 184.24734817168618 L 327.03696692224 180.0875541080683 L 327.74339610666 175.6560891653832 L 328.45006061059 171.50863246429435 L 329.156489795 167.85278268032914 L 329.86315429893 164.67549994920566 L 330.56958348334 161.9685218649783 L 331.27601266775 159.72055154815854 L 331.98267717168 157.92111561153263 L 332.68910635609 156.56166934500038 L 333.39577086002 155.6317625327747 L 334.10220004444 155.12267322248488 L 334.80862922885 155.02487650997267 L 335.51529373278 155.32958626692863 L 336.22172291719 156.02783024569027 L 336.92838742112 157.11148312258206 L 337.63481660553 158.57141564731268 L 338.34124578994 160.39969491284165 L 339.04791029387 162.5890505350332 L 339.75433947829 165.13013176500587 L 340.46100398221 168.0168998569286 L 341.16743316663 171.23986526721015 L 341.87386235104 174.7925250769982 L 342.58052685497 178.66897025655487 L 343.28695603938 182.70755166324224 L 343.99362054331 186.3256940085191 L 344.70004972772 189.47292146058362 L 345.40647891214 192.16067871557001 L 346.11314341606 194.39958635041833 L 346.81957260048 196.19789729867298 L 347.5262371044 197.5663550598672 L 348.23266628882 198.5133904026853 L 348.93909547323 199.04867522698683 L 349.64575997716 199.1811420368997 L 350.35218916157 198.91947278270996 L 351.0588536655 198.27208449780596 L 351.76528284991 197.24781672407863 L 352.47171203433 195.8547485557118 L 353.17837653825 194.10029595071566 L 353.88480572267 191.99352083012454 L 354.5914702266 189.54075209428436 L 355.29789941101 186.75119104412957 L 356.00432859542 183.6314859886019 L 356.71099309935 180.18769074048234 L 357.41742228376 176.589112374058 L 358.12408678769 173.41519366968703 L 358.8305159721 170.71132345290243 L 359.53694515653 168.46621149528477 L 360.24290370195 166.67096478794147 L 360.9493328864 165.31345980069403 L 361.65529143183 164.38598640330608 L 362.36172061628 163.8779792178927 L 363.06814980073 163.78105897112772 L 363.77410834615 164.08594123709986 L 364.4805375306 164.78427478786386 L 365.18649607603 165.86656129540197 L 365.89292526048 167.32584719061452 L 366.59935444493 169.1533118281514 L 367.30531299035 171.33932477242865 L 368.01174217481 173.8789181551418 L 368.71770072023 176.76099651757454 L 369.42412990468 179.9818451858678 L 370.13055908913 183.49411395119228 L 370.83651763455 186.7245188226371 L 371.54294681901 189.49595869890086 L 372.24890536443 191.81471278104664 L 372.95533454888 193.6936455234626 L 373.66176373333 195.1406365502205 L 374.36772227875 196.1645171788959 L 375.07415146321 196.7758272561557 L 375.78011000863 196.98272800323247 L 376.48653919308 196.79429170114724 L 377.19296837753 196.21886476786662 L 377.89892692296 195.26564540928155 L 378.60535610741 193.94162061555102 L 379.31131465283 192.25663344935802 L 380.01774383728 190.21635467290687 L 380.72417302173 187.8295447026504 L 381.43013156716 185.1057258243858 L 382.13656075161 182.04869892548496 L 382.84251929703 178.6698087544795 L 383.54894848148 175.3548984441754 L 384.25537766593 172.5118399339192 L 384.96133621136 170.1319679158919 L 385.66776539581 168.2021100102691 L 386.37372394123 166.71505519485913 L 387.08015312568 165.6592337171017 L 387.78658231014 165.02639041914557 L 388.49254085556 164.80733856136828 L 389.19897004001 164.99278584812913 L 389.90492858543 165.57368010258378 L 390.61135776988 166.5421667217257 L 391.31778695434 167.88953520725227 L 392.02374549976 169.60624148317902 L 392.73017468421 171.6864736320998 L 393.43613322963 174.11953468606885 L 394.14256241408 176.90090195762187 L 394.84899159854 180.02146139103309 L 395.55495014396 183.47135355906676 L 396.26137932841 187.07620349614615 L 396.96733787383 190.25578957838994 L 397.67376705829 192.97741028259003 L 398.38019624274 195.2487552030648 L 399.08615478816 197.07850637559505 L 399.79258397261 198.47865205277793 L 400.49854251803 199.45666819641693 L 401.20497170249 200.02301376741264 L 401.91140088694 200.18586668630905 L 402.61735943236 199.95429333604667 L 403.32378861681 199.33657952510768 L 404.02974716223 198.341956534852 L 404.73617634669 196.977338385039 L 405.44260553114 195.2513363670572 L 406.14856407656 193.17335664886318 L 406.85499326101 190.74836429031689 L 407.56095180644 187.98715838422774 L 408.26738099089 184.89347397440756 L 408.97381017534 181.4763062787908 L 409.67976872076 177.745361162811 L 410.38619790521 173.87850312616868 L 411.09215645064 170.45382473573716 L 411.79858563509 167.50121483180538 L 412.50501481954 165.01284609194465 L 413.21097336496 162.97986790376848 L 413.91740254942 161.38972787485847 L 414.62383173387 160.23428925249084 L 415.32979027929 159.50445764907306 L 416.03621946374 159.1900205495927 L 416.74217800916 159.28235784176047 L 417.44860719362 159.77273417561116 L 418.15503637807 160.65254369987497 L 418.86099492349 161.9123235381706 L 419.56742410794 163.54543721069015 L 420.27338265336 165.54157284282053 L 420.97981183782 167.8954187133532 L 421.68624102227 170.59795303711525 L 422.39219956769 173.63938755580253 L 423.09862875214 177.01629248133898 L 423.80458729757 180.71684559945493 L 424.51101648202 184.5586847697995 L 425.21744566647 187.96791516152297 L 425.92340421189 190.91019294981828 L 426.62983339634 193.39950251396607 L 427.33579194177 195.4423702270073 L 428.04222112622 197.05116651094832 L 428.74865031067 198.2338332881069 L 429.45460885609 198.9992512551328 L 430.16103804055 199.3574971662391 L 430.86699658597 199.31695352485787 L 431.57342577042 198.88624908553896 L 432.27985495487 198.07378573164547 L 432.98581350029 196.88880550600123 L 433.69224268475 195.33787972334383 L 434.39820123017 193.43104942655853 L 435.10463041462 191.17358731492217 L 435.81105959907 188.57430312186654 L 436.51701814449 185.642757983698 L 437.22344732895 182.38237979505308 L 437.92940587437 178.80469031238374 L 438.63583505882 175.0963668437311 L 439.34226424327 171.82872344201152 L 440.0482227887 169.0337994502485 L 440.75465197315 166.69767621777524 L 441.46061051857 164.8134953539687 L 442.16703970302 163.36897267289265 L 442.87346888747 162.35593951319248 L 443.5794274329 161.76527671621687 L 444.28585661735 161.5870228706334 L 444.99181516277 161.81244053432198 L 445.69824434722 162.4330346459236 L 446.40467353167 163.44017121318538 L 447.1106320771 164.8243656422554 L 447.81706126155 166.5792063480406 L 448.52301980697 168.69427699297552 L 449.22944899142 171.16448101624684 L 449.93587817588 173.98077188073836 L 450.6418367213 177.1333423568619 L 451.34826590575 180.61896396153978 L 452.05422445117 184.4257215955919 L 452.76065363562 188.3628080674166 L 453.46708282008 191.8611317563755 L 454.1730413655 194.89042457636765 L 454.87947054995 197.46482909634108 L 455.58542909537 199.5907995620062 L 456.29185827983 201.28085763330478 L 456.99828746428 202.54292880603631 L 457.7042460097 203.38588147653834 L 458.41067519415 203.81993374253574 L 459.11663373957 203.85340424196335 L 459.82306292403 203.49505681647955 L 460.52949210848 202.7532790950745 L 461.2354506539 201.6373025788241 L 461.94187983835 200.15382476497385 L 462.64783838377 198.31283026358543 L 463.35426756823 196.11971232602588 L 464.06069675268 193.58326838423838 L 464.7666552981 190.71305061333734 L 465.47308448255 187.51259944655828 L 466.17904302798 183.9933868937462 L 466.88547221243 180.15778416933884 L 467.59190139688 176.01534719541044 L 468.2978599423 171.99611708962559 L 469.00428912675 168.4614773514621 L 469.71024767218 165.40561274987314 L 470.41667685663 162.81413409904656 L 471.12310604108 160.67913070560132 L 471.8290645865 158.99168584807035 L 472.53549377095 157.7398661408181 L 473.24145231638 156.91586603842728 L 473.94788150083 156.50930262681203 L 474.65431068528 156.51177054065107 L 475.3602692307 156.91396383390997 L 476.06669841516 157.7077028080697 L 476.77265696058 158.8834028900419 L 477.47908614503 160.43427512459675 L 478.18551532948 162.35147520427614 L 478.8914738749 164.62535314806635 L 479.59790305936 167.25109585644165 L 480.30386160478 170.21752988305107 L 481.01029078923 173.5210890961531 L 481.71671997368 177.15254038694582 L 482.4226785191 181.101930391154 L 483.12910770356 185.31194780737852 L 483.83506624898 189.19126632945907 L 484.54149543343 192.59786676988497 L 485.24792461788 195.53928434659537 L 485.95388316331 198.0240798502866 L 486.66031234776 200.06541895052615 L 487.36627089318 201.67022069974686 L 488.07270007763 202.85007128740304 L 488.77912926208 203.6130117647494 L 489.48508780751 203.9680014646152 L 490.19151699196 203.92438198532406 L 490.89747553738 203.49088744197397 L 491.60390472183 202.67544246868968 L 492.31033390629 201.486537238406 L 493.01629245171 199.9334836379976 L 493.72272163616 198.02219303906105 L 494.42868018158 195.76302113300207 L 495.13510936603 193.160608612931 L 495.84153855049 190.2238437480882 L 496.54749709591 186.96234960814877 L 497.25392628036 183.37896184805666 L 497.95988482578 179.48548360488394 L 498.66631401023 175.4868343136193 L 499.37274319469 171.94322628035795 L 500.07870174011 168.87852210004516 L 500.78513092456 166.27831831085294 L 501.49108946998 164.13598599791536 L 502.19751865444 162.43877681694863 L 502.90394783889 161.17857858286266 L 503.60990638431 160.34631634226162 L 504.31633556876 159.93159392293887 L 505.02229411418 159.92587877309842 L 505.72872329864 160.32025966052635 L 506.43515248309 161.10615258709936 L 507.14111102851 162.27411190907787 L 507.84754021296 163.81733633153416 L 508.55349875838 165.7255922818116 L 509.25992794284 167.9934102221942 L 509.96635712729 170.61178777816252 L 510.67231567271 173.57095194334298 L 511.37874485716 176.86732507515106 L 512.08470340259 180.48915492857483 L 512.79113258704 184.22627724046674 L 513.49756177149 187.52124298068256 L 514.20352031691 190.35182708553705 L 514.90994950136 192.73181298546552 L 515.61590804679 194.66782182312028 L 516.32233723124 196.17203165879002 L 517.02876641569 197.25240757199623 L 517.73472496111 197.91784831502278 L 518.44115414557 198.1782505032926 L 519.14711269099 198.0420811893109 L 519.85354187544 197.51779671816087 L 520.55997105989 196.61381943646103 L 521.26592960531 195.33940725895815 L 521.97235878977 193.70097009273806 L 522.67831733519 191.7086243322024 L 523.38474651964 189.36748822604002 L 524.09117570409 186.68638954753393 L 524.79713424951 183.67490334086165 L 525.50356343397 180.33631295255265 L 526.20952197939 176.68220721396693 L 526.91595116384 172.9271000588304 L 527.62238034829 169.62525727189544 L 528.32833889372 166.79694639040187 L 529.03476807817 164.42818773936307 L 529.74072662359 162.51215026186594 L 530.44715580804 161.03649146740509 L 531.15358499249 159.9930486742245 L 531.85954353792 159.37270708969208 L 532.56597272237 159.16545086880149 L 533.27193126779 159.36256667319572 L 533.97836045224 159.9555074553827 L 534.68478963669 160.93564435458006 L 535.39074818212 162.29349645672897 L 536.09717736657 164.0226036740045 L 536.80313591199 166.112570867246 L 537.50956509644 168.55825517538835 L 538.2159942809 171.3506144304814 L 538.92195282632 174.47984446618696 L 539.62838201077 177.9426736337241 L 540.33434055619 181.72720541916877 L 541.04076974064 185.61430224647322 L 541.7471989251 189.05257573591732 L 542.45315747052 192.0232229709734 L 543.15958665497 194.54027981995208 L 543.86554520039 196.61024905157768 L 544.57197438485 198.24555032405914 L 545.2784035693 199.45412012012372 L 545.98436211472 200.24483503418452 L 546.69079129917 200.62781785016875 L 547.39674984459 200.61143014519158 L 548.10317902905 200.20434467597846 L 548.8096082135 199.41495859065972 L 549.51556675892 198.25251040018088 L 550.22199594337 196.7236125356691 L 550.92795448879 194.83828752304217 L 551.63438367325 192.6018473532492 L 552.3408128577 190.02309765780606 L 553.04677140312 187.11159655381942 L 553.75320058757 183.8708086305365 L 554.459159133 180.31223929493225 L 555.16558831745 176.659942564052 L 555.8720175019 173.46186572169876 L 556.57797604732 170.73491475089665 L 557.28440523177 168.4652939215584 L 557.9903637772 166.64608782338192 L 558.69679296165 165.2651298645984 L 559.4032221461 164.31423791095074 L 560.10918069152 163.78428249382813 L 560.81560987597 163.66541221470513 L 561.5215684214 163.94883894666768 L 562.22799760585 164.62617284717078 L 562.9344267903 165.68876811870024 L 563.64038533572 167.12713120839547 L 564.34681452018 168.9349489265338 L 565.0527730656 171.10175995072584 L 565.75920225005 173.62256180085885 L 566.4656314345 176.48829763428876 L 567.17158997992 179.68915247705192 L 567.87801916438 183.15130806547873 L 568.5839777098 186.27683661833288 L 569.29040689425 188.94562394541722 L 569.9968360787 191.16536975490433 L 570.70279462412 192.9447634550414 L 571.40922380858 194.2957009037965 L 572.115182354 195.22569892540886 L 572.82161153845 195.74512824449363 L 573.5280407229 195.86217545465348 L 574.23399926833 195.58591314558424 L 574.94042845278 194.92454480772477 L 575.6463869982 193.88733764893792 L 576.35281618265 192.48112711291083 L 577.0592453671 190.71453186912018 L 577.76520391253 188.59696324495255 L 578.47163309698 186.13331304972104 L 579.1775916424 183.33441186328633 L 579.88402082685 180.20392484604108 L 580.59045001131 176.75449023712247 L 581.29640855673 173.4599926270304 L 582.00283774118 170.6347522359299 L 582.7087962866 168.27233787616345 L 583.41522547105 166.35960767528468 L 584.12165465551 164.8884996996946 L 584.82761320093 163.84997899714546 L 585.53404238538 163.2332804126602 L 586.2400009308 163.0300485785008 L 586.94643011525 163.2310188020074 L 587.65285929971 163.82765191281075 L 588.35881784513 164.81053786834127 L 589.06524702958 166.17254400861137 L 589.771205575 167.90359545444122 L 590.47763475946 169.9979052759376 L 591.18406394391 172.44651104548078 L 591.89002248933 175.23967139868054 L 592.59645167378 178.3735111904665 L 593.3024102192 181.83642022660302 L 594.00883940366 185.39076716908417 L 594.71526858811 188.49775950897535 L 595.42122713353 191.1445640796226 L 596.12765631798 193.34463446436027 L 596.8336148634 195.10474856082325 L 597.54004404786 196.43676858491554 L 598.24647323231 197.3486984979812 L 598.95243177773 197.8494676133525 L 599.65886096218 197.94867663388598 L 600.36481950761 197.65493269490045 L 601.07124869206 196.97640883327097 L 601.77767787651 195.9215618802872 L 602.48363642193 194.49967674637355 L 603.19006560638 192.71689797161648 L 603.89602415181 190.5834670287113 L 604.60245333626 188.10424814479538 L 605.30888252071 185.28809962172562 L 606.01484106613 182.14462029208912 L 606.72127025059 178.67685562996803 L 607.42722879601 174.89650604183547 L 608.13365798046 171.04532884238762 L 608.84008716491 167.6584117395097 L 609.54604571033 164.7469746808463 L 610.25247489479 162.29688768232472 L 610.95843344021 160.3013894326386 L 611.66486262466 158.7479936437769 L 612.37129180911 157.62855412421322 L 613.07725035453 156.93396870479302 L 613.78367953899 156.65408701128172 L 614.48963808441 156.78025770638055 L 615.19606726886 157.30380507406778 L 615.90249645331 158.21611470501546 L 616.60845499874 159.50771665701552 L 617.31488418319 161.17203051544197 L 618.02084272861 163.19871617382654 L 618.72727191306 165.58251571903352 L 619.43370109751 168.31439960105624 L 620.13965964294 171.3845731404293 L 620.84608882739 174.78965714388457 L 621.55204737281 178.51780386059164 L 622.25847655726 182.56681963975586 L 622.96490574171 186.9216140713658 L 623.67086428714 191.09314478684328 L 624.37729347159 194.78574782294862 L 625.08325201701 198.00490369487088 L 625.78968120146 200.76509755731675 L 626.49611038592 203.07401375977307 L 627.20206893134 204.94033131643081 L 627.90849811579 206.3761078197234 L 628.61445666121 207.3887918944005 L 629.32088584566 207.98890846259678 L 630.02731503012 208.18463135982833 L 630.73327357554 207.9850248830128 L 631.43970275999 207.39843599425194 L 632.14566130541 206.43407263261278 L 632.85209048986 205.09890693230705 L 633.55851967432 203.40154714067353 L 634.26447821974 201.35139817875995 L 634.97090740419 198.9534788964539 L 635.67686594961 196.2185686343715 L 636.38329513407 193.15045349276411 L 637.08972431852 189.7581265795319 L 637.79568286394 186.0512932654917 L 638.50211204839 182.0319886014737 L 639.20807059381 177.71239421674747 L 639.91449977827 173.34450135661493 L 640.62092896272 169.45508871383342 L 641.32688750814 166.05238417912625 L 642.03331669259 163.1213756661644 L 642.73927523802 160.65572049998116 L 643.44570442247 158.64208778157086 L 644.15213360692 157.07243488529565 L 644.85809215234 155.937740930497 L 645.56452133679 155.22706429779362 L 646.27047988222 154.93212765052976 L 646.97690906667 155.0434977745939 L 647.68333825112 155.55265205551927 L 648.38929679654 156.4501922957133 L 649.09572598099 157.72882861829964 L 649.80168452642 159.37855474700257 L 650.50811371087 161.39343368266276 L 651.21454289532 163.76451708005098 L 651.92050144074 166.48207341927613 L 652.6269306252 169.54208765840164 L 653.33288917062 172.93300972625985 L 654.03931835507 176.65203746493327 L 654.74574753952 180.68230873892708 L 655.45170608494 184.5243546090911 L 656.1581352694 187.89456644124672 L 656.86409381482 190.7987019469853 L 657.57052299927 193.2506769201936 L 658.27695218372 195.25824178092745 L 658.98291072914 196.83012635407488 L 659.6893399136 197.9778554442526 L 660.39529845902 198.7091243072763 L 661.10172764347 199.03394820422912 L 661.80815682792 198.96055899239786 L 662.51411537335 198.4980652580654 L 663.2205445578 197.6543372196637 L 663.92650310322 196.43880194438486 L 664.63293228767 194.8579756376366 L 665.33936147212 192.92051732959607 L 666.04532001755 190.63587036687525 L 666.751749202 188.00862729688015 L 667.45770774742 185.0497618423657 L 668.16413693187 181.7626525346272 L 668.87056611633 178.16477567843495 L 669.57652466175 174.75980482332986 L 670.2829538462 171.8263968024991 L 670.98891239162 169.35821505205092 L 671.69534157607 167.34192815979253 L 672.40177076053 165.769497939535 L 673.10772930595 164.6319082199285 L 673.8141584904 163.91821620121044 L 674.52011703582 163.6201511870153 L 675.22654622027 163.72827836206906 L 675.93297540473 164.2340796772531 L 676.63893395015 165.1281617410024 L 677.3453631346 166.40323247802547 L 678.05132168002 168.0492927231018 L 678.75775086448 170.06040290210342 L 679.46418004893 172.42761934565965 L 680.17013859435 175.14121542415438 L 680.8765677788 178.19717298638244 L 681.58252632422 181.5839494903998 L 682.28895550868 185.0323476426588 L 682.99538469313 188.02763926067936 L 683.70134323855 190.56525708425102 L 684.407772423 192.65845824262124 L 685.11373096842 194.31411325987756 L 685.82016015288 195.5438962947007 L 686.52658933733 196.35583393063996 L 687.23254788275 196.75887311473574 L 687.9389770672 196.7624384447204 L 688.64493561263 196.37521968839917 L 689.35136479708 195.60522133558152 L 690.05779398153 194.46092020558524 L 690.76375252695 192.9516167073036 L 691.4701817114 191.08329759179006 L 692.17614025683 188.86627797058097 L 692.88256944128 186.30527108468272 L 693.58899862573 183.40915285435761 L 694.29495717115 180.18753569021385 L 695.00138635561 176.74015887949417 L 695.70734490103 173.66871262373118 L 696.41377408548 171.06180952238788 L 697.12020326993 168.91154599681195 L 697.82616181535 167.20901207142384 L 698.53259099981 165.94225105072667 L 699.23854954523 165.10347417556576 L 699.94497872968 164.68227576937343 L 700.65140791413 164.67025737083839 L 701.35736645955 165.05811960387922 L 702.06379564401 165.8376607882448 L 702.76975418943 166.999312456986 L 703.47618337388 168.5362641679303 L 704.18261255833 170.43967832543365 L 704.88857110376 172.69991135756774 L 705.59500028821 175.3121293837374 L 706.30095883363 178.26517444647132 L 707.00738801808 181.55546008039343 L 707.71381720253 185.16257765006105 L 708.41977574796 188.57082453645904 L 709.12620493241 191.516312909469 L 709.83216347783 194.00517153498072 L 710.53859266228 196.05057152364085 L 711.24502184673 197.66035606376084 L 711.95098039216 198.8433282010241 L 721.95098039216 198.8433282010241" stroke-linejoin="round" visibility="visible" stroke="rgba(192,192,192,0.0001)" stroke-width="22" class="highcharts-tracker"></path></g><g class="highcharts-markers highcharts-series-0 highcharts-line-series highcharts-color-0 highcharts-tracker " transform="translate(71,10) scale(1 1)" clip-path="none"><path fill="#e41a1c" d="M 711 198.8433282010241 A 0 0 0 1 1 711 198.8433282010241 Z" class="highcharts-halo highcharts-color-0" fill-opacity="0.25"></path><path fill="#FFFFFF" d="M 717 198.8433282010241 A 6 6 0 1 1 716.9999970000002 198.83732820202408 Z" stroke="#e41a1c" stroke-width="3" visibility="hidden"></path></g></g><g class="highcharts-legend" transform="translate(311,482)"><rect fill="none" class="highcharts-legend-box" rx="0" ry="0" x="0" y="0" width="177" height="26" visibility="visible"></rect><g><g><g class="highcharts-legend-item highcharts-line-series highcharts-color-0 highcharts-series-0" transform="translate(8,3)"><path fill="none" d="M 0 11 L 16 11" class="highcharts-graph" stroke="#e41a1c" stroke-width="2"></path><text x="21" style="color:#333333;font-size:12px;font-weight:bold;cursor:pointer;fill:#333333;" text-anchor="start" y="15"><tspan>Measured temperature</tspan></text></g></g></g></g><g class="highcharts-axis-labels highcharts-xaxis-labels "><text x="77.34306106244146" style="color:#666666;cursor:default;font-size:11px;fill:#666666;" text-anchor="middle" transform="translate(0,0)" y="448" opacity="1">0</text><text x="147.93891560260744" style="color:#666666;cursor:default;font-size:11px;fill:#666666;" text-anchor="middle" transform="translate(0,0)" y="448" opacity="1">0.1</text><text x="218.53477014277337" style="color:#666666;cursor:default;font-size:11px;fill:#666666;" text-anchor="middle" transform="translate(0,0)" y="448" opacity="1">0.2</text><text x="289.13062468293936" style="color:#666666;cursor:default;font-size:11px;fill:#666666;" text-anchor="middle" transform="translate(0,0)" y="448" opacity="1">0.3</text><text x="359.7264792231053" style="color:#666666;cursor:default;font-size:11px;fill:#666666;" text-anchor="middle" transform="translate(0,0)" y="448" opacity="1">0.4</text><text x="430.3223337632712" style="color:#666666;cursor:default;font-size:11px;fill:#666666;" text-anchor="middle" transform="translate(0,0)" y="448" opacity="1">0.5</text><text x="500.91818830343715" style="color:#666666;cursor:default;font-size:11px;fill:#666666;" text-anchor="middle" transform="translate(0,0)" y="448" opacity="1">0.6</text><text x="571.5140428436032" style="color:#666666;cursor:default;font-size:11px;fill:#666666;" text-anchor="middle" transform="translate(0,0)" y="448" opacity="1">0.7</text><text x="642.1098973837692" style="color:#666666;cursor:default;font-size:11px;fill:#666666;" text-anchor="middle" transform="translate(0,0)" y="448" opacity="1">0.8</text><text x="712.705751923935" style="color:#666666;cursor:default;font-size:11px;fill:#666666;" text-anchor="middle" transform="translate(0,0)" y="448" opacity="1">0.9</text><text x="783.301606464101" style="color:#666666;cursor:default;font-size:11px;fill:#666666;" text-anchor="middle" transform="translate(0,0)" y="448" opacity="1">1</text></g><g class="highcharts-axis-labels highcharts-yaxis-labels "><text x="56" style="color:#666666;cursor:default;font-size:11px;fill:#666666;" text-anchor="end" transform="translate(0,0)" y="434" opacity="1"><tspan>0</tspan></text><text x="56" style="color:#666666;cursor:default;font-size:11px;fill:#666666;" text-anchor="end" transform="translate(0,0)" y="374" opacity="1"><tspan>50</tspan></text><text x="56" style="color:#666666;cursor:default;font-size:11px;fill:#666666;" text-anchor="end" transform="translate(0,0)" y="314" opacity="1"><tspan>100</tspan></text><text x="56" style="color:#666666;cursor:default;font-size:11px;fill:#666666;" text-anchor="end" transform="translate(0,0)" y="254" opacity="1"><tspan>150</tspan></text><text x="56" style="color:#666666;cursor:default;font-size:11px;fill:#666666;" text-anchor="end" transform="translate(0,0)" y="194" opacity="1"><tspan>200</tspan></text><text x="56" style="color:#666666;cursor:default;font-size:11px;fill:#666666;" text-anchor="end" transform="translate(0,0)" y="134" opacity="1"><tspan>250</tspan></text><text x="56" style="color:#666666;cursor:default;font-size:11px;fill:#666666;" text-anchor="end" transform="translate(0,0)" y="74" opacity="1"><tspan>300</tspan></text><text x="56" style="color:#666666;cursor:default;font-size:11px;fill:#666666;" text-anchor="end" transform="translate(0,0)" y="15" opacity="1"><tspan>350</tspan></text></g><text x="790" class="highcharts-credits" text-anchor="end" style="cursor:pointer;color:#999999;font-size:9px;fill:#999999;" y="518"></text><g class="highcharts-label highcharts-tooltip highcharts-color-0" style="cursor:default;pointer-events:none;white-space:nowrap;" transform="translate(574,-9999)" opacity="0" visibility="visible"><path fill="none" class="highcharts-label-box highcharts-tooltip-box" d="M 3.5 0.5 L 221.5 0.5 C 224.5 0.5 224.5 0.5 224.5 3.5 L 224.5 43.5 C 224.5 46.5 224.5 46.5 221.5 46.5 L 214.5 46.5 208.5 52.5 202.5 46.5 3.5 46.5 C 0.5 46.5 0.5 46.5 0.5 43.5 L 0.5 3.5 C 0.5 0.5 0.5 0.5 3.5 0.5" isShadow="true" stroke="#000000" stroke-opacity="0.049999999999999996" stroke-width="5" transform="translate(1, 1)"></path><path fill="none" class="highcharts-label-box highcharts-tooltip-box" d="M 3.5 0.5 L 221.5 0.5 C 224.5 0.5 224.5 0.5 224.5 3.5 L 224.5 43.5 C 224.5 46.5 224.5 46.5 221.5 46.5 L 214.5 46.5 208.5 52.5 202.5 46.5 3.5 46.5 C 0.5 46.5 0.5 46.5 0.5 43.5 L 0.5 3.5 C 0.5 0.5 0.5 0.5 3.5 0.5" isShadow="true" stroke="#000000" stroke-opacity="0.09999999999999999" stroke-width="3" transform="translate(1, 1)"></path><path fill="none" class="highcharts-label-box highcharts-tooltip-box" d="M 3.5 0.5 L 221.5 0.5 C 224.5 0.5 224.5 0.5 224.5 3.5 L 224.5 43.5 C 224.5 46.5 224.5 46.5 221.5 46.5 L 214.5 46.5 208.5 52.5 202.5 46.5 3.5 46.5 C 0.5 46.5 0.5 46.5 0.5 43.5 L 0.5 3.5 C 0.5 0.5 0.5 0.5 3.5 0.5" isShadow="true" stroke="#000000" stroke-opacity="0.15" stroke-width="1" transform="translate(1, 1)"></path><path fill="rgba(247,247,247,0.85)" class="highcharts-label-box highcharts-tooltip-box" d="M 3.5 0.5 L 221.5 0.5 C 224.5 0.5 224.5 0.5 224.5 3.5 L 224.5 43.5 C 224.5 46.5 224.5 46.5 221.5 46.5 L 214.5 46.5 208.5 52.5 202.5 46.5 3.5 46.5 C 0.5 46.5 0.5 46.5 0.5 43.5 L 0.5 3.5 C 0.5 0.5 0.5 0.5 3.5 0.5" stroke="#e41a1c" stroke-width="1"></path><text x="8" style="font-size:12px;color:#333333;fill:#333333;" y="20"><tspan>1.00</tspan><tspan style="fill: #e41a1c; font-weight: bold;" x="8" dy="15">Measured temperature</tspan><tspan dx="0">: </tspan><tspan style="font-weight:bold" dx="0">183.90</tspan><tspan dx="0"> °C</tspan></text></g></svg>