<svg version="1.1" class="highcharts-root" style="font-family:&quot;Lucida Grande&quot;, &quot;Lucida Sans Unicode&quot;, Arial, Helvetica, sans-serif;font-size:12px;" xmlns="http://www.w3.org/2000/svg" width="800" height="523" viewBox="0 0 800 523"><desc>Created with Highcharts 5.0.9</desc><defs><clipPath id="highcharts-m4icvuj-1"><rect x="0" y="0" width="719" height="419" fill="none"></rect></clipPath></defs><rect fill="#ffffff" class="highcharts-background" x="0" y="0" width="800" height="523" rx="0" ry="0"></rect><rect fill="none" class="highcharts-plot-background" x="71" y="10" width="719" height="419"></rect><g class="highcharts-grid highcharts-xaxis-grid "><path fill="none" class="highcharts-grid-line" d="M 76.5 10 L 76.5 429" opacity="1"></path><path fill="none" class="highcharts-grid-line" d="M 147.5 10 L 147.5 429" opacity="1"></path><path fill="none" class="highcharts-grid-line" d="M 218.5 10 L 218.5 429" opacity="1"></path><path fill="none" class="highcharts-grid-line" d="M 288.5 10 L 288.5 429" opacity="1"></path><path fill="none" class="highcharts-grid-line" d="M 359.5 10 L 359.5 429" opacity="1"></path><path fill="none" class="highcharts-grid-line" d="M 429.5 10 L 429.5 429" opacity="1"></path><path fill="none" class="highcharts-grid-line" d="M 500.5 10 L 500.5 429" opacity="1"></path><path fill="none" class="highcharts-grid-line" d="M 571.5 10 L 571.5 429" opacity="1"></path><path fill="none" class="highcharts-grid-line" d="M 641.5 10 L 641.5 429" opacity="1"></path><path fill="none" class="highcharts-grid-line" d="M 712.5 10 L 712.5 429" opacity="1"></path><path fill="none" class="highcharts-grid-line" d="M 782.5 10 L 782.5 429" opacity="1"></path></g><g class="highcharts-grid highcharts-yaxis-grid "><path fill="none" stroke="#aaa" stroke-width="1" class="highcharts-grid-line" d="M 71 429.5 L 790 429.5" opacity="1"></path><path fill="none" stroke="#aaa" stroke-width="1" class="highcharts-grid-line" d="M 71 359.5 L 790 359.5" opacity="1"></path><path fill="none" stroke="#aaa" stroke-width="1" class="highcharts-grid-line" d="M 71 289.5 L 790 289.5" opacity="1"></path><path fill="none" stroke="#aaa" stroke-width="1" class="highcharts-grid-line" d="M 71 220.5 L 790 220.5" opacity="1"></path><path fill="none" stroke="#aaa" stroke-width="1" class="highcharts-grid-line" d="M 71 150.5 L 790 150.5" opacity="1"></path><path fill="none" stroke="#aaa" stroke-width="1" class="highcharts-grid-line" d="M 71 80.5 L 790 80.5" opacity="1"></path><path fill="none" stroke="#aaa" stroke-width="1" class="highcharts-grid-line" d="M 71 9.5 L 790 9.5" opacity="1"></path></g><rect fill="none" class="highcharts-plot-border" x="71" y="10" width="719" height="419"></rect><g class="highcharts-axis highcharts-xaxis "><path fill="none" class="highcharts-tick" stroke="#ccd6eb" stroke-width="1" d="M 76.5 429 L 76.5 439" opacity="1"></path><path fill="none" class="highcharts-tick" stroke="#ccd6eb" stroke-width="1" d="M 147.5 429 L 147.5 439" opacity="1"></path><path fill="none" class="highcharts-tick" stroke="#ccd6eb" stroke-width="1" d="M 218.5 429 L 218.5 439" opacity="1"></path><path fill="none" class="highcharts-tick" stroke="#ccd6eb" stroke-width="1" d="M 288.5 429 L 288.5 439" opacity="1"></path><path fill="none" class="highcharts-tick" stroke="#ccd6eb" stroke-width="1" d="M 359.5 429 L 359.5 439" opacity="1"></path><path fill="none" class="highcharts-tick" stroke="#ccd6eb" stroke-width="1" d="M 429.5 429 L 429.5 439" opacity="1"></path><path fill="none" class="highcharts-tick" stroke="#ccd6eb" stroke-width="1" d="M 500.5 429 L 500.5 439" opacity="1"></path><path fill="none" class="highcharts-tick" stroke="#ccd6eb" stroke-width="1" d="M 571.5 429 L 571.5 439" opacity="1"></path><path fill="none" class="highcharts-tick" stroke="#ccd6eb" stroke-width="1" d="M 641.5 429 L 641.5 439" opacity="1"></path><path fill="none" class="highcharts-tick" stroke="#ccd6eb" stroke-width="1" d="M 712.5 429 L 712.5 439" opacity="1"></path><path fill="none" class="highcharts-tick" stroke="#ccd6eb" stroke-width="1" d="M 782.5 429 L 782.5 439" opacity="1"></path><text x="430.5" text-anchor="middle" transform="translate(0,0)" class="highcharts-axis-title" style="color:#666666;fill:#666666;" y="467"><tspan>Time (min)</tspan></text><path fill="none" class="highcharts-axis-line" stroke="#ccd6eb" stroke-width="1" d="M 71 429.5 L 790 429.5"></path></g><g class="highcharts-axis highcharts-yaxis "><text x="25.140625" text-anchor="middle" transform="translate(0,0) rotate(270 25.140625 219.5)" class="highcharts-axis-title" style="color:#666666;fill:#666666;" y="219.5"><tspan>Temperature (°C)</tspan></text><path fill="none" class="highcharts-axis-line" d="M 71 10 L 71 429"></path></g><g class="highcharts-series-group"><g class="highcharts-series highcharts-series-0 highcharts-line-series highcharts-color-0 " transform="translate(71,10) scale(1 1)" clip-path="url(#highcharts-m4icvuj-1)"><path fill="none" d="M 7.0490196078431 390.83581469567326 L 7.7558563665427 390.1486039309757 L 8.4619869946144 389.01634038144965 L 9.1681176226861 387.44828145014 L 9.8742482507578 385.45394260629183 L 10.580378878829 383.04264111692544 L 11.286509506901 380.22350016618543 L 11.993346265601 377.002038124565 L 12.7001830243 373.38964472570245 L 13.407019782999 369.3949102237811 L 14.113856541698 365.02624572170464 L 14.820693300397 360.29188689822814 L 15.527530059096 355.1998976575571 L 16.234366817796 349.7581737030268 L 16.941203576495 343.97444603644317 L 17.648040335194 337.8562843846306 L 18.354170963267 331.41770005861605 L 19.060301591339 324.65998216498554 L 19.766432219411 317.5902154078629 L 20.472562847483 310.2153368098732 L 21.178693475556 302.54213878159743 L 21.884824103628 294.57727212724717 L 22.5909547317 286.32724898787194 L 23.297085359773 277.7984457234047 L 24.003215987845 268.9971057348134 L 24.709346615917 259.92934222760414 L 25.415477243989 250.60114091789697 L 26.121607872062 241.0183626822623 L 26.827738500134 231.18674615249284 L 27.533869128206 221.1119102564504 L 28.239999756279 210.7993567061099 L 28.946130384351 200.25447243390357 L 29.652261012423 189.482531978427 L 30.358391640495 178.48869982057036 L 31.064522268568 167.27803267110153 L 31.77065289664 155.85548171071054 L 32.476783524712 144.22589478350028 L 33.182914152785 132.56732840852732 L 33.889044780857 121.55936226381613 L 34.595175408929 111.2570031595904 L 35.301306037001 101.6451110889638 L 36.007436665074 92.70886114970915 L 36.713567293146 84.43373699551694 L 37.419697921218 76.80552442333459 L 38.125828549291 69.81030509398533 L 38.831959177363 63.434450383264334 L 39.538089805435 57.66461536082801 L 40.244220433508 52.487732894205635 L 40.95035106158 47.891007875341074 L 41.656481689652 43.86191156710862 L 42.362612317724 40.38817606732505 L 43.068742945797 37.45778888779455 L 43.774873573869 35.05898764601761 L 44.481004201941 33.18025486721632 L 45.187134830014 31.810312894361687 L 45.893265458086 30.938118904006558 L 46.599396086158 30.552860025668906 L 47.30552671423 30.643948562657954 L 48.011657342303 31.201017312208194 L 48.717787970375 32.21391498287812 L 49.423918598447 33.67270170716807 L 50.13004922652 35.567644647404336 L 50.836179854592 37.88921369293075 L 51.542310482664 40.628077246719386 L 52.248441110736 43.77509809955052 L 52.954571738809 47.32132938991816 L 53.660702366881 51.25801064790295 L 54.366832994953 55.57656392125915 L 55.072963623026 60.26858998200538 L 55.779094251098 65.32586461184786 L 56.48522487917 70.74033496479143 L 57.191355507242 76.50411600535392 L 57.897486135315 82.6094870207865 L 58.603616763387 89.04888820578094 L 59.309747391459 95.8149173181531 L 60.015878019532 102.90032640401921 L 60.722008647604 110.2980185910364 L 61.428139275676 118.00104494827593 L 62.134269903748 126.00260141135641 L 62.840400531821 134.29602577147892 L 63.546531159893 142.8114036297818 L 64.252661787965 150.86805451910442 L 64.958792416038 158.29390596990498 L 65.66492304411 165.10252992464126 L 66.371053672182 171.3072158209153 L 67.077184300254 176.92097646273666 L 67.783314928327 181.95655376978095 L 68.489445556399 186.4264244071672 L 69.195576184471 190.34280529823562 L 69.901706812544 193.7176590227743 L 70.607837440616 196.56269910305048 L 71.313968068688 198.8893951800015 L 72.02009869676 200.70897808185384 L 72.726229324833 202.03244478740692 L 73.432359952905 202.87056328617575 L 74.138490580977 203.23387733753341 L 74.84462120905 203.132711130951 L 75.550751837122 202.57717384939355 L 76.256882465194 201.57716413787944 L 76.963013093266 200.14237447917915 L 77.669143721339 198.28229547858146 L 78.375274349411 196.00622005961355 L 79.081404977483 193.32324757257217 L 79.787535605556 190.24228781766965 L 80.493666233628 186.7720649845786 L 81.1997968617 182.92112151010443 L 81.905927489773 178.69782185568735 L 82.612058117845 174.1103562064078 L 83.318188745917 169.1667440931218 L 84.024319373989 163.87483793931605 L 84.730450002062 158.24232653426554 L 85.436580630134 152.27673843400055 L 86.142711258206 145.98544529161086 L 86.848841886279 139.37650565891983 L 87.554972514351 132.9565925272471 L 88.261103142423 127.14221375857363 L 88.967233770495 121.92031370631145 L 89.673364398568 117.27810850819475 L 90.37949502664 113.2030804377901 L 91.085625654712 109.68297237339146 L 91.791756282785 106.70578238185436 L 92.497886910857 104.25975841499235 L 93.204017538929 102.33339311618198 L 93.910148167001 100.91541873489615 L 94.616278795074 99.99480214692534 L 95.322409423146 99.56073997807675 L 96.028540051218 99.60265382921756 L 96.734670679291 100.11018560053952 L 97.440801307363 101.07319291300166 L 98.146931935435 102.481744624913 L 98.853062563507 104.32611644169288 L 99.55919319158 106.59678661686212 L 100.26532381965 109.28443174237486 L 100.97145444772 112.37992262643485 L 101.6775850758 115.87432025697393 L 102.38371570387 119.75887184901745 L 103.08984633194 124.02500697418452 L 103.79597696001 128.6643337706339 L 104.50210758809 133.6686352317601 L 105.20823821616 139.02986557202456 L 105.91436884423 144.37827149444996 L 106.6204994723 149.16102472264447 L 107.32663010037 153.3842539201881 L 108.03276072845 157.06004659927305 L 108.73889135652 160.20023861878923 L 109.44502198459 162.81641941445514 L 110.15115261266 164.9199371202569 L 110.85728324074 166.52190358345965 L 111.56341386881 167.6331992754003 L 112.26954449688 168.2644781002262 L 112.97567512495 168.42617210369986 L 113.68180575303 168.12849608415252 L 114.3879363811 167.38145210761544 L 115.09406700917 166.19483392911437 L 115.80019763724 164.5782313220931 L 116.50632826531 162.5410343178579 L 117.21245889339 160.092437356924 L 117.91858952146 157.24144335409198 L 118.62472014953 153.99686767904427 L 119.3308507776 150.3673420542201 L 120.03698140568 146.36131837169012 L 120.74311203375 141.9870724307051 L 121.44924266182 137.3684406135112 L 122.15537328989 133.20155059755115 L 122.86150391797 129.59116411608505 L 123.56763454604 126.52524665358118 L 124.27376517411 123.99201425624028 L 124.97989580218 121.97992832454156 L 125.68602643025 120.47769051400473 L 126.39215705833 119.4742377419214 L 127.0982876864 118.95873729785058 L 127.80441831447 118.92058205573284 L 128.51054894254 119.3493857854927 L 129.21667957062 120.23497856207797 L 129.92281019869 121.56740226990752 L 130.62894082676 123.33690620073747 L 131.33507145483 125.53394274301365 L 132.0412020829 128.14916316080183 L 132.74733271098 131.1734134604423 L 133.45346333905 134.59773034309433 L 134.15959396712 138.4133372414007 L 134.86572459519 142.39078570875182 L 135.57185522327 145.87009901163066 L 136.27798585134 148.81831946745945 L 136.98411647941 151.2469424094583 L 137.69024710748 153.167223825108 L 138.39637773556 154.59018533051074 L 139.10250836363 155.52661904138108 L 139.8086389917 155.98709234280665 L 140.51476961977 155.98195255988782 L 141.22090024784 155.52133153131774 L 141.92703087592 154.61515008791457 L 142.63316150399 153.27312243808404 L 143.33929213206 151.50476046214692 L 144.04542276013 149.3193779174253 L 144.75155338821 146.72609455593783 L 145.45768401628 143.7338401565304 L 146.16381464435 140.35135847320413 L 146.86994527242 136.89048498614096 L 147.5760759005 133.9541248346398 L 148.28220652857 131.54747627936104 L 148.98833715664 129.6590627941543 L 149.69446778471 128.27764681766774 L 150.40059841278 127.39222478688936 L 151.10672904086 126.99202227390276 L 151.81285966893 127.06648922370772 L 152.518990297 127.60529529100177 L 153.22512092507 128.59832527387016 L 153.93125155315 130.035674642375 L 154.63738218122 131.9076451600596 L 155.34351280929 134.2047405964488 L 156.04964343736 136.91766252864636 L 156.75577406544 140.03152310965612 L 157.46190469351 142.9842490436697 L 158.16803532158 145.41740060347848 L 158.87416594965 147.34223317898085 L 159.58029657772 148.76976780123317 L 160.2864272058 149.71079601317973 L 160.99255783387 150.17588463915467 L 161.69868846194 150.17538045527715 L 162.40481909001 149.719414762781 L 163.11094971809 148.8179078663125 L 163.81708034616 147.48057345915396 L 164.52321097423 145.71692291732631 L 165.2293416023 143.53626950444374 L 165.93547223037 140.94773248919574 L 166.64160285845 138.10229401798762 L 167.34773348652 135.69340907791474 L 168.05386411459 133.80272175695382 L 168.75999474266 132.41899535591517 L 169.46612537074 131.53122715594867 L 170.17225599881 131.12864355567314 L 170.87838662688 131.2006953093624 L 171.58451725495 131.7370528640858 L 172.29064788303 132.7276017937529 L 172.9967785111 134.16243832804236 L 173.70290913917 136.03186497424497 L 174.40903976724 138.32638623009524 L 175.11517039531 140.92735678790098 L 175.82130102339 143.13746288288843 L 176.52743165146 144.84415081497912 L 177.23356227953 146.0583395045025 L 177.9396929076 146.7907205059297 L 178.64582353568 147.05176273327322 L 179.35195416375 146.85171708729547 L 180.05808479182 146.2006209865466 L 180.76421541989 145.10830280425353 L 181.47034604797 143.5843862129936 L 182.17647667604 141.63829443908764 L 182.88260730411 139.29006940897926 L 183.58944406279 137.12758773461587 L 184.29628082147 135.4788855496313 L 185.00311758015 134.3328062779774 L 185.70995433883 133.67842588990118 L 186.41679109751 133.50504806408946 L 187.12362785619 133.80219945045286 L 187.83046461487 134.55962503144764 L 188.53730137356 135.7672835798998 L 189.24413813224 137.41534321130376 L 189.95097489092 139.4941770286519 L 190.6578116496 141.59827625190678 L 191.36464840828 143.20294199692694 L 192.07148516696 144.31642194635708 L 192.77832192564 144.94939169080794 L 193.48515868432 145.1123042909639 L 194.191995443 144.81539490707257 L 194.89883220168 144.06868533212423 L 195.60566896036 142.88198843073656 L 196.31250571904 141.26491248570227 L 197.01934247772 139.24518280071703 L 197.72617923641 137.44105256497392 L 198.43301599509 136.14288986199233 L 199.13985275377 135.3397009763753 L 199.84668951245 135.02072135086576 L 200.55352627113 135.175410818972 L 201.26036302981 135.79344893676347 L 201.96719978849 136.86473041177527 L 202.67403654717 138.37936062699902 L 203.38087330585 140.28170868044532 L 204.08771006453 141.90216349752222 L 204.79454682321 143.03111568137234 L 205.50138358189 143.67924740179438 L 206.20822034057 143.85701816181444 L 206.91505709925 143.5746694300193 L 207.62189385794 142.84222917652693 L 208.32873061662 141.6695163145974 L 209.0355673753 140.0661450498555 L 209.74240413398 138.32713684372823 L 210.44924089266 137.07147610363916 L 211.15607765134 136.30984409837663 L 211.86291441002 136.03149599111111 L 212.5697511687 136.22591092549612 L 213.27658792738 136.88278736599875 L 213.98342468606 137.99203853516372 L 214.69026144474 139.54378794578412 L 215.39709820342 141.12714778055113 L 216.1039349621 142.2220298967688 L 216.81077172079 142.8368504856805 L 217.51760847947 142.98205321282245 L 218.22444523815 142.66786403878865 L 218.93128199683 141.90429574834985 L 219.63811875551 140.7011523853525 L 220.34495551419 139.12062010417776 L 221.05179227287 137.83907143379042 L 221.75862903155 137.05209940089208 L 222.46546579023 136.7489477618908 L 223.17230254891 136.91908449096974 L 223.87913930759 137.55219711548142 L 224.58597606627 138.63818814837543 L 225.29281282495 140.12633109958097 L 225.99964958363 141.35309653538638 L 226.70648634232 142.09694591146638 L 227.413323101 142.3683823839864 L 228.12015985968 142.17769016654808 L 228.82699661836 141.53493908504902 L 229.53383337704 140.4499890377931 L 230.24067013572 139.0258355366493 L 230.9475068944 137.9597555053283 L 231.65434365308 137.38355636911405 L 232.36118041176 137.2865797780899 L 233.06801717044 137.65838956353315 L 233.77485392912 138.488767115676 L 234.4816906878 139.76558681275083 L 235.18852744648 140.95802651298527 L 235.89536420517 141.66830604186538 L 236.60220096385 141.90691278983599 L 237.30903772253 141.68411553277417 L 238.01587448121 141.00996898002688 L 238.72271123989 139.89431822784235 L 239.42954799857 138.66827004023105 L 240.13638475725 137.92277937465042 L 240.84322151593 137.6601874556921 L 241.55005827461 137.86998148826302 L 242.25689503329 138.5418678303489 L 242.96373179197 139.66576743375958 L 243.67056855065 140.77010743773758 L 244.37740530933 141.3942110359685 L 245.08424206801 141.5485245990523 L 245.7910788267 141.2432776481644 L 246.49791558538 140.4884864546052 L 247.20475234406 139.32896795836882 L 247.91158910274 138.41967992668378 L 248.61842586142 137.99684805274535 L 249.3252626201 138.04988539064982 L 250.03209937878 138.568425690193 L 250.73893613746 139.54231880552868 L 251.44577289614 140.58824295840566 L 252.15260965482 141.15999420633102 L 252.8594464135 141.26310060652423 L 253.56628317218 140.9077678019881 L 254.27311993086 140.10398868262445 L 254.97995668955 139.03148080919925 L 255.68679344823 138.3775276840709 L 256.39363020691 138.20447001609062 L 257.10046696559 138.50183678141457 L 257.80730372427 139.25937524025983 L 258.51414048295 140.28975505595997 L 259.22097724163 140.90833648211265 L 259.92781400031 141.05725826644561 L 260.63465075899 140.74674720218457 L 261.34148751767 139.98681688944657 L 262.04832427635 139.0106865541543 L 262.75516103503 138.4795766121125 L 263.46199779371 138.4266842942663 L 264.16883455239 138.84159440309276 L 264.87567131108 139.7132683231269 L 265.58250806976 140.53115505808057 L 266.28934482844 140.8750488321317 L 266.99618158712 140.75526676690652 L 267.7030183458 140.1819109117422 L 268.40985510448 139.25451124745325 L 269.11669186316 138.66976612060688 L 269.82352862184 138.56440291459938 L 270.53036538052 138.92798216381232 L 271.2372021392 139.74726697715846 L 271.94403889788 140.48104877553618 L 272.65087565656 140.74267058771176 L 273.35771241524 140.5424113226303 L 274.06454917393 139.89033561192412 L 274.77138593261 139.0626616233181 L 275.47822269129 138.69282361410797 L 276.18505944997 138.79768604596012 L 276.89189620865 139.36690704765851 L 277.59873296733 140.19006276427854 L 278.30556972601 140.59298938408483 L 279.01240648469 140.5309602108236 L 279.71924324337 140.0141039711832 L 280.42608000205 139.2096330415224 L 281.13291676073 138.8093102381995 L 281.83975351941 138.88434945621196 L 282.54659027809 139.42439503481802 L 283.25342703677 140.1861634498568 L 283.96026379546 140.51394923036338 L 284.66710055414 140.37841754317475 L 285.37393731282 139.78966295954012 L 286.0807740715 139.09538740151606 L 286.78761083018 138.87308590913125 L 287.49444758886 139.1222675391566 L 288.20128434754 139.81683123070763 L 288.90812110622 140.34554460050697 L 289.6149578649 140.40656750271557 L 290.32179462358 140.0100856683536 L 291.02863138226 139.29511780054867 L 291.73546814094 138.9598937610172 L 292.44230489962 139.09861065996546 L 293.14914165831 139.70017917190665 L 293.85597841699 140.25561054822077 L 294.56281517567 140.3427713703465 L 295.26965193435 139.9718594604753 L 295.97648869303 139.29852117574347 L 296.68332545171 139.01782557927066 L 297.39016221039 139.20988200417474 L 298.09699896907 139.83817446877032 L 298.80383572775 140.26358939452786 L 299.51067248643 140.2235655536693 L 300.21750924511 139.72824173479324 L 300.92434600379 139.1759875956294 L 301.63118276247 139.09914342403607 L 302.33801952115 139.49060939111462 L 303.04485627984 140.08558785871992 L 303.75169303852 140.24216434438364 L 304.4585297972 139.93915821446268 L 305.16536655588 139.33432941126932 L 305.87220331456 139.12225565521715 L 306.57904007324 139.38143706033856 L 307.28587683192 139.97401911537708 L 307.9927135906 140.20129355543435 L 308.69955034928 139.96744632285646 L 309.40638710796 139.3891924677033 L 310.11322386664 139.16583224140663 L 310.82006062532 139.41397210563787 L 311.526897384 139.97559367946513 L 312.23373414269 140.15586619038453 L 312.94057090137 139.8760417467431 L 313.64740766005 139.33743154220116 L 314.35424441873 139.21849880575382 L 315.06108117741 139.56879047610613 L 315.76791793609 140.05043055434152 L 316.47475469477 140.077011083588 L 317.18159145345 139.64724889186976 L 317.88842821213 139.26056358673583 L 318.59526497081 139.34893386615772 L 319.30210172949 139.85066522473056 L 320.00893848817 140.0898289776997 L 320.71577524685 139.8676144107585 L 321.42261200553 139.37423846937685 L 322.12944876422 139.2931595128777 L 322.8362855229 139.680263842001 L 323.54312228158 140.04286993340622 L 324.24995904026 139.94140992263186 L 324.95679579894 139.46307258861128 L 325.66363255762 139.30066448295042 L 326.3704693163 139.60842603289808 L 327.07730607498 140.004381556375 L 327.78414283366 139.94052237833625 L 328.49097959234 139.4856224960795 L 329.19781635102 139.3253763158408 L 329.9046531097 139.6352521869195 L 330.61148986838 139.99341865500116 L 331.31832662707 139.889123005565 L 332.02516338575 139.44713030010797 L 332.73200014443 139.36689141733865 L 333.43883690311 139.74449772241252 L 334.14567366179 139.9892094034077 L 334.85251042047 139.7724240164007 L 335.55934717915 139.389805877365 L 336.26618393783 139.46096887437187 L 336.97302069651 139.8772774124996 L 337.67985745519 139.93921844654278 L 338.38669421387 139.56483247070986 L 339.09353097255 139.38115852406196 L 339.80036773123 139.6681148286192 L 340.50720448991 139.95097762560567 L 341.2140412486 139.77151316165373 L 341.92087800728 139.41534120259473 L 342.62771476596 139.5095295861659 L 343.33455152464 139.88928275626068 L 344.04138828332 139.8703720321372 L 344.748225042 139.49071957118036 L 345.45506180068 139.448397965384 L 346.16189855936 139.8132826623853 L 346.86873531804 139.9017684535258 L 347.57557207672 139.56085881109817 L 348.2824088354 139.4346883376556 L 348.98924559408 139.75729823620128 L 349.69608235276 139.90296325247454 L 350.40291911145 139.6001053612868 L 351.10975587013 139.44054017039065 L 351.81659262881 139.73818927286868 L 352.52342938749 139.89229287794143 L 353.23026614617 139.59885375130932 L 353.93710290485 139.45471333747867 L 354.64393966353 139.7569158020712 L 355.35077642221 139.87254030561508 L 356.05761318089 139.56322882080804 L 356.76444993957 139.48227736649972 L 357.47128669825 139.80179389811047 L 358.17812345693 139.83319798070568 L 358.88496021561 139.51265153098478 L 359.59179697431 139.53946456316777 L 360.2979276024 139.8467943228623 L 361.00405823049 139.75418985769295 L 361.71018885858 139.47892664358 L 362.41631948667 139.65005302365142 L 363.12245011476 139.85842438506563 L 363.82858074286 139.61570880735303 L 364.53471137095 139.49744917299438 L 365.24084199904 139.78644903678605 L 365.94697262713 139.79986130807487 L 366.65310325522 139.51020653949257 L 367.35923388332 139.60945236748722 L 368.06536451141 139.84303481596424 L 368.7714951395 139.63142448922804 L 369.47762576759 139.51253705782068 L 370.18375639568 139.78822125348398 L 370.88988702378 139.76815449082272 L 371.59601765187 139.50904751110596 L 372.30214827996 139.6750671033546 L 373.00827890805 139.8223233419705 L 373.71440953614 139.56370435882314 L 374.42054016423 139.57493899518033 L 375.12667079233 139.82044749953224 L 375.83280142042 139.64610591767195 L 376.53893204851 139.5321480628807 L 377.2450626766 139.7892520247504 L 377.95119330469 139.72007523522979 L 378.65732393279 139.5232458849548 L 379.36345456088 139.74989949523348 L 380.06958518897 139.7580276748733 L 380.77571581706 139.52903263247129 L 381.48184644515 139.71546363933817 L 382.18797707325 139.77408198146583 L 382.89410770134 139.53889828654826 L 383.60023832943 139.69535720991547 L 384.30636895752 139.7774460805531 L 385.01249958561 139.5450577440305 L 385.7186302137 139.69042865171764 L 386.4247608418 139.77355479571952 L 387.13089146989 139.5473589279997 L 387.83702209798 139.7000519628055 L 388.54315272607 139.7617957530024 L 389.24928335416 139.54710262680982 L 389.95541398226 139.72187377064478 L 390.66154461035 139.74078774418604 L 391.36767523844 139.5484541032202 L 392.07380586653 139.74737538404065 L 392.77993649462 139.7049603357791 L 393.48606712272 139.559562610044 L 394.19219775081 139.770163578515 L 394.8983283789 139.64786489022669 L 395.60445900699 139.58828722130556 L 396.31058963508 139.77866262787865 L 397.01672026318 139.59374519976575 L 397.72285089127 139.64679012432185 L 398.42898151936 139.7614429153881 L 399.13511214745 139.5644687841281 L 399.84124277554 139.7250042483746 L 400.54737340363 139.7036774521536 L 401.25350403173 139.57490184171655 L 401.95963465982 139.76649226546039 L 402.66576528791 139.6121862231372 L 403.371895916 139.64213722061112 L 404.07802654409 139.75206456046874 L 404.78415717219 139.57056284890905 L 405.49028780028 139.73807435518518 L 406.19641842837 139.6643194672817 L 406.90254905646 139.60504637095238 L 407.60867968455 139.76022349385124 L 408.31481031265 139.58131201684046 L 409.02094094074 139.71532433106728 L 409.72707156883 139.68841496618109 L 410.43320219692 139.59781730324772 L 411.13933282501 139.7574175507778 L 411.8454634531 139.58695537296228 L 412.5515940812 139.71435707412456 L 413.25772470929 139.67950234582383 L 413.96385533738 139.6095986559219 L 414.66998596547 139.74923965926365 L 415.37611659356 139.5841018149435 L 416.08224722166 139.73310483768893 L 416.78837784975 139.63907322418908 L 417.49450847784 139.64762496166833 L 418.20063910593 139.72560620327533 L 418.90676973402 139.59090686804484 L 419.61290036212 139.7476427975211 L 420.31903099021 139.59849508930722 L 421.0251616183 139.71329405479156 L 421.73129224639 139.65780853014502 L 422.43742287448 139.63988014403384 L 423.14355350258 139.7228953038222 L 423.84968413067 139.59692579956402 L 424.55581475876 139.74341765079822 L 425.26194538685 139.59605587525465 L 425.96807601494 139.72656951627113 L 426.67420664303 139.62933876623418 L 427.38033727113 139.67962916761707 L 428.08646789922 139.68703709797927 L 428.79259852731 139.6257836119782 L 429.4987291554 139.72570309461196 L 430.20485978349 139.60006707052486 L 430.91099041159 139.73818176430058 L 431.61712103968 139.59830403925918 L 432.32325166777 139.7306598067387 L 433.02938229586 139.6150277885951 L 433.73551292395 139.70689389311877 L 434.44164355205 139.6450476160071 L 435.14777418014 139.6731969759603 L 435.85390480823 139.6810853734915 L 436.56003543632 139.6399323407826 L 437.26616606441 139.70740517239966 L 437.9722966925 139.6193699934841 L 438.6784273206 139.72222154877073 L 439.38455794869 139.6082877480659 L 440.09068857678 139.7290717425584 L 440.79681920487 139.6045406237634 L 441.50294983296 139.7306624605456 L 442.20908046106 139.60496147150678 L 442.91521108915 139.72856866578672 L 443.62134171724 139.60789575548364 L 444.32747234533 139.72488883668876 L 445.03360297342 139.61180960033693 L 445.73973360152 139.72147428239225 L 446.44586422961 139.6148599494511 L 447.1519948577 139.71884201083628 L 447.85812548579 139.61679152238264 L 448.56425611388 139.71759019264363 L 449.27038674197 139.61750148426017 L 449.97651737007 139.71738177219657 L 450.68264799816 139.61748644975876 L 451.38877862625 139.717751089189 L 452.09490925434 139.61645208502802 L 452.80103988243 139.71889832609924 L 453.50717051053 139.61503236029523 L 454.21330113862 139.7206189741654 L 454.91943176671 139.61351899018797 L 455.6255623948 139.72126167436898 L 456.33169302289 139.61325042306868 L 457.03782365099 139.7204050325198 L 457.74395427908 139.61594960441363 L 458.45008490717 139.71587823057627 L 459.15621553526 139.62277691121466 L 459.86234616335 139.70684994327945 L 460.56847679145 139.63469801735943 L 461.27460741954 139.69205710156336 L 461.98073804763 139.6536816567043 L 462.68686867572 139.66881073634676 L 463.39299930381 139.68061306902234 L 464.0991299319 139.6425398085185 L 464.80526056 139.70228205242074 L 465.51139118809 139.62491560280228 L 466.21752181618 139.71449740593602 L 466.92365244427 139.61847142527586 L 467.62978307236 139.71462542705126 L 468.33591370046 139.62491611597943 L 469.04204432855 139.7007785838873 L 469.74817495664 139.64676658965948 L 470.45430558473 139.6718099775046 L 471.16043621282 139.68177577091404 L 471.86656684092 139.63883822695527 L 472.57269746901 139.70629993410307 L 473.2788280971 139.6221150685309 L 473.98495872519 139.71419349154257 L 474.69108935328 139.62314369281535 L 475.39721998137 139.70369652958453 L 476.10335060947 139.64359552260402 L 476.80948123756 139.67370523194182 L 477.51561186565 139.68188469396114 L 478.22174249374 139.63718636572463 L 478.92787312183 139.70779972323703 L 479.63400374993 139.6220982159328 L 480.34013437802 139.71063054585483 L 481.04626500611 139.63206354451336 L 481.7523956342 139.6878170054332 L 482.45852626229 139.6692874258194 L 483.16465689039 139.6443165247706 L 483.87078751848 139.70446124692677 L 484.57691814657 139.62374644196825 L 485.28304877466 139.7087631941667 L 485.98917940275 139.63614713571002 L 486.69531003084 139.67940328057836 L 487.40144065894 139.68125128330405 L 488.10757128703 139.63510793747173 L 488.81370191512 139.70867920029428 L 489.51983254321 139.62562839630658 L 490.2259631713 139.6992769513767 L 490.9320937994 139.65472451420618 L 491.63822442749 139.65390795134135 L 492.34435505558 139.69971872351192 L 493.05048568367 139.6257949607591 L 493.75661631176 139.70736167502224 L 494.46274693986 139.638765896491 L 495.16887756795 139.67408017230258 L 495.87500819604 139.68725349210968 L 496.58113882413 139.63096780549245 L 497.28726945222 139.70880398406217 L 497.99340008032 139.63100911250706 L 498.69953070841 139.6871874790515 L 499.4056613365 139.6746844368863 L 500.11179196459 139.6380731201744 L 500.81792259268 139.70714765807725 L 501.52405322077 139.62818676161226 L 502.23018384887 139.69303136383695 L 502.93631447696 139.66767016329788 L 503.64244510505 139.64128225475122 L 504.34857573314 139.7059123180711 L 505.05470636123 139.6291231460039 L 505.76083698933 139.69113655894017 L 506.46696761742 139.67131339895423 L 507.17309824551 139.6389300334053 L 507.8792288736 139.70635741067815 L 508.58535950169 139.63143570471175 L 509.29149012979 139.68507338424632 L 509.99762075788 139.67987027545382 L 510.70375138597 139.6339025875413 L 511.40988201406 139.7057973765265 L 512.11601264215 139.63887957937402 L 512.82214327024 139.66988814900503 L 513.52827389834 139.69301944106093 L 514.23440452643 139.6293161612207 L 514.94053515452 139.70049118732697 L 515.64666578261 139.6555048665129 L 516.3527964107 139.6475214653198 L 517.0589270388 139.70317006658178 L 517.76505766689 139.6325253273762 L 518.47118829498 139.6824759332086 L 519.17731892307 139.68457058874145 L 519.88344955116 139.6319620526986 L 520.58958017926 139.70149923220623 L 521.29571080735 139.6525661307657 L 522.00184143544 139.64953676281317 L 522.70797206353 139.70234812526445 L 523.41410269162 139.6334666161436 L 524.12023331971 139.67985353749538 L 524.82636394781 139.68743296608568 L 525.5324945759 139.6313185139379 L 526.23862520399 139.6981960388158 L 526.94475583208 139.66119596852548 L 527.65088646017 139.64239929390408 L 528.35701708827 139.70326730612123 L 529.06314771636 139.64029010660374 L 529.76927834445 139.66455345905132 L 530.47540897254 139.69684940222982 L 531.18153960063 139.63160113311721 L 531.88767022873 139.68762084569198 L 532.59380085682 139.6805956225499 L 533.29993148491 139.63336150774722 L 534.006062113 139.6993188959314 L 534.71219274109 139.6585108013399 L 535.41832336919 139.64336066999567 L 536.12445399728 139.7023816518166 L 536.83058462537 139.64306719987354 L 537.53671525346 139.658792767023 L 538.24284588155 139.69914626985906 L 538.94897650964 139.63463966147606 L 539.65510713774 139.6768244620548 L 540.36123776583 139.690847013123 L 541.06736839392 139.63216202970148 L 541.77349902201 139.68982598678883 L 542.4796296501 139.6782850071079 L 543.1857602782 139.63418455104528 L 543.89189090629 139.69863193138468 L 544.59802153438 139.66037868560858 L 545.30415216247 139.6418920049278 L 546.01028279056 139.70196281121446 L 546.71641341866 139.64632107936637 L 547.42254404675 139.65404000161567 L 548.12867467484 139.70060797406967 L 548.83480530293 139.6367402656537 L 549.54093593102 139.67166362835212 L 550.24706655911 139.69395461819795 L 550.95319718721 139.6323690048264 L 551.6593278153 139.6865642759741 L 552.36545844339 139.68264872223062 L 553.07158907148 139.63325310386875 L 553.77771969957 139.69518885100564 L 554.48385032767 139.66903423071233 L 555.18998095576 139.63766385547655 L 555.89611158385 139.69990805356315 L 556.60224221194 139.655707911177 L 557.30837284003 139.64460828648504 L 558.01450346813 139.70137317238857 L 558.72063409622 139.6466751023612 L 559.42676472431 139.65286742474524 L 560.1328953524 139.70033757074185 L 560.83902598049 139.64087161274142 L 561.54515660858 139.66095119009583 L 562.25128723668 139.69817873155654 L 562.95741786477 139.63818107088656 L 563.66354849286 139.6673914593788 L 564.36967912095 139.6962295156889 L 565.07580974904 139.63553754365654 L 565.78194037714 139.67490235216525 L 566.48807100523 139.6927480671979 L 567.19420163332 139.63403655710613 L 567.90033226141 139.68091536174643 L 568.6064628895 139.68878085158883 L 569.3125935176 139.63379827900758 L 570.01872414569 139.68451467645002 L 570.72485477378 139.6858272101788 L 571.43098540187 139.63390794496502 L 572.13711602996 139.686753684606 L 572.84324665806 139.6838483888409 L 573.54937728615 139.63408760453729 L 574.25550791424 139.6876695065713 L 574.96163854233 139.6829910390711 L 575.66776917042 139.63439312714172 L 576.37389979851 139.68782270696158 L 577.08003042661 139.68270367631607 L 577.7861610547 139.6343974870681 L 578.49229168279 139.6880353074801 L 579.19842231088 139.68247436200437 L 579.90455293897 139.63446232829216 L 580.61068356707 139.68830339650464 L 581.31681419516 139.68220439808522 L 582.02294482325 139.63452743753993 L 582.72907545134 139.68762118885053 L 583.43520607943 139.68301781086603 L 584.14133670753 139.6345089982974 L 584.84746733562 139.68699831984645 L 585.55359796371 139.68374547641508 L 586.2597285918 139.63443993892758 L 586.96585921989 139.6862928601962 L 587.67198984798 139.68439181038713 L 588.37812047608 139.63466215328066 L 589.08425110417 139.68502631604673 L 589.79038173226 139.68580800648846 L 590.49651236035 139.6347844872824 L 591.20264298844 139.6825412283016 L 591.90877361654 139.68825477881785 L 592.61490424463 139.6352214946943 L 593.32103487272 139.67917122725942 L 594.02716550081 139.69074896472364 L 594.7332961289 139.63548745473486 L 595.439426757 139.67701124654303 L 596.14555738509 139.6919144972485 L 596.85168801318 139.6356350838351 L 597.55781864127 139.6757220020416 L 598.26394926936 139.69272487959955 L 598.97007989745 139.63624756860168 L 599.67621052555 139.67366416408544 L 600.38234115364 139.69377269335018 L 601.08847178173 139.63675609420665 L 601.79460240982 139.6713249644659 L 602.50073303791 139.69478490738481 L 603.20686366601 139.63823882293406 L 603.9129942941 139.66656723446778 L 604.61912492219 139.6963592456289 L 605.32525555028 139.64033210782225 L 606.03138617837 139.6613735869788 L 606.73751680647 139.69781161393212 L 607.44364743456 139.6420323426903 L 608.14977806265 139.6580906846225 L 608.85590869074 139.69850274452176 L 609.56203931883 139.64383638772847 L 610.26816994693 139.65478837715978 L 610.97430057502 139.6990184372683 L 611.68043120311 139.6460781619818 L 612.3865618312 139.65191896796108 L 613.09269245929 139.69926201430582 L 613.79882308738 139.64796917251573 L 614.50495371548 139.65004798879016 L 615.21108434357 139.69947512018314 L 615.91721497166 139.6494479116879 L 616.62334559975 139.64832907270835 L 617.32947622784 139.69899818405952 L 618.03560685594 139.65283045557686 L 618.74173748403 139.64519212820397 L 619.44786811212 139.6988120400186 L 620.15399874021 139.65611298228475 L 620.8601293683 139.6431382170834 L 621.5662599964 139.69873205905452 L 622.27239062449 139.65770746587106 L 622.97852125258 139.64207575876077 L 623.68465188067 139.6979636678954 L 624.39078250876 139.66043692023896 L 625.09691313685 139.6407584813466 L 625.80304376495 139.69688643852737 L 626.50917439304 139.66501584895462 L 627.21530502113 139.63873033228077 L 627.92143564922 139.69465264132356 L 628.62756627731 139.67125747746633 L 629.33369690541 139.63695863502267 L 630.0398275335 139.69246273490893 L 630.74595816159 139.67646547913017 L 631.45208878968 139.63566796042647 L 632.15821941777 139.68976400304717 L 632.86435004587 139.6807281922703 L 633.57048067396 139.63544257434876 L 634.27661130205 139.6851969807921 L 634.98274193014 139.6859634023711 L 635.68887255823 139.6352668797245 L 636.39500318632 139.68061569477368 L 637.10113381442 139.68979984510895 L 637.80726444251 139.6357619345838 L 638.5133950706 139.67658999312863 L 639.21952569869 139.69231153242526 L 639.92565632678 139.63696727268103 L 640.63178695488 139.67104840647647 L 641.33791758297 139.6948631187551 L 642.04404821106 139.63901699469596 L 642.75017883915 139.66441633855078 L 643.45630946724 139.69700857733739 L 644.16244009534 139.64165852475065 L 644.86857072343 139.6582889233993 L 645.57470135152 139.6982876436316 L 646.28083197961 139.64544550748116 L 646.9869626077 139.65246363192705 L 647.6930932358 139.69854158199252 L 648.39922386389 139.6510067789448 L 649.10535449198 139.64653428571586 L 649.81148512007 139.6984405094123 L 650.51761574816 139.65648741169252 L 651.22374637625 139.64260981788078 L 651.92987700435 139.69711472782 L 652.63600763244 139.66354905771738 L 653.34213826053 139.63933912608314 L 654.04826888862 139.69462086920504 L 654.75439951671 139.67184745755543 L 655.46053014481 139.63692667845635 L 656.1666607729 139.69063054430927 L 656.87279140099 139.67957427308875 L 657.57892202908 139.6356028309403 L 658.28505265717 139.684797708549 L 658.99118328527 139.68672927990872 L 659.69731391336 139.6359689621836 L 660.40344454145 139.6773945274515 L 661.10957516954 139.691846441577 L 661.81570579763 139.63756205120546 L 662.52183642572 139.66949943264672 L 663.22796705382 139.69546269020793 L 663.93409768191 139.6403749644091 L 664.64022831 139.66077750167005 L 665.34635893809 139.6977727674892 L 666.05248956618 139.6442457479559 L 666.75862019428 139.65380451765395 L 667.46475082237 139.69829825847972 L 668.17088145046 139.6510223131407 L 668.87701207855 139.64622992974626 L 669.58314270664 139.69746573166026 L 670.28927333474 139.66043134847035 L 670.99540396283 139.64044378463723 L 671.70153459092 139.6950314786514 L 672.40766521901 139.67075297452863 L 673.1137958471 139.6370749466265 L 673.81992647519 139.69075955803874 L 674.52605710329 139.67929821643946 L 675.23218773138 139.6356881518539 L 675.93831835947 139.68563432515867 L 676.64444898756 139.6857795659373 L 677.35057961565 139.63557455958454 L 678.05671024375 139.67957939824225 L 678.76284087184 139.69056345023853 L 679.46897149993 139.63651334217116 L 680.17510212802 139.672943418467 L 680.88123275611 139.69423219610513 L 681.58736338421 139.63893524771157 L 682.2934940123 139.6646239884471 L 682.99962464039 139.69690475535396 L 683.70575526848 139.6427390480145 L 684.41188589657 139.65615909003327 L 685.11801652467 139.69823313991753 L 685.82414715276 139.6487181792387 L 686.53027778085 139.64830282146096 L 687.23640840894 139.69756065689364 L 687.94253903703 139.6588823131491 L 688.64866966512 139.64125759709577 L 689.35480029322 139.6946512667763 L 690.06093092131 139.67161610732234 L 690.7670615494 139.63719611981412 L 691.47319217749 139.68811645917992 L 692.17932280558 139.68352431275497 L 692.88545343368 139.6365098616464 L 693.59158406177 139.67719499694698 L 694.29771468986 139.69230115362268 L 695.00384531795 139.6400863489971 L 695.70997594604 139.66123439219626 L 696.41610657414 139.69704570513233 L 697.12223720223 139.6484915940366 L 697.82836783032 139.64826935021182 L 698.53449845841 139.69720235195626 L 699.2406290865 139.6605054955579 L 699.94675971459 139.64034129954842 L 700.65289034269 139.693507939938 L 701.35902097078 139.6741852666521 L 702.06515159887 139.63654578336434 L 702.77128222696 139.68708364888585 L 703.47741285505 139.68448728719727 L 704.18354348315 139.63606311923985 L 704.88967411124 139.67833851852038 L 705.59580473933 139.69159297240265 L 706.30193536742 139.63864160958371 L 707.00806599551 139.66586085378515 L 707.71419662361 139.69629038192784 L 708.4203272517 139.64413493529497 L 709.12645787979 139.65384516457408 L 709.83258850788 139.69810520604403 L 710.53871913597 139.65226783161813 L 711.24484976406 139.64532613222264 L 711.95098039216 139.69696623714964" class="highcharts-graph" stroke="#e41a1c" stroke-width="2" stroke-linejoin="round" stroke-linecap="round"></path><path fill="none" d="M -2.9509803921569002 390.83581469567326 L 7.0490196078431 390.83581469567326 L 7.7558563665427 390.1486039309757 L 8.4619869946144 389.01634038144965 L 9.1681176226861 387.44828145014 L 9.8742482507578 385.45394260629183 L 10.580378878829 383.04264111692544 L 11.286509506901 380.22350016618543 L 11.993346265601 377.002038124565 L 12.7001830243 373.38964472570245 L 13.407019782999 369.3949102237811 L 14.113856541698 365.02624572170464 L 14.820693300397 360.29188689822814 L 15.527530059096 355.1998976575571 L 16.234366817796 349.7581737030268 L 16.941203576495 343.97444603644317 L 17.648040335194 337.8562843846306 L 18.354170963267 331.41770005861605 L 19.060301591339 324.65998216498554 L 19.766432219411 317.5902154078629 L 20.472562847483 310.2153368098732 L 21.178693475556 302.54213878159743 L 21.884824103628 294.57727212724717 L 22.5909547317 286.32724898787194 L 23.297085359773 277.7984457234047 L 24.003215987845 268.9971057348134 L 24.709346615917 259.92934222760414 L 25.415477243989 250.60114091789697 L 26.121607872062 241.0183626822623 L 26.827738500134 231.18674615249284 L 27.533869128206 221.1119102564504 L 28.239999756279 210.7993567061099 L 28.946130384351 200.25447243390357 L 29.652261012423 189.482531978427 L 30.358391640495 178.48869982057036 L 31.064522268568 167.27803267110153 L 31.77065289664 155.85548171071054 L 32.476783524712 144.22589478350028 L 33.182914152785 132.56732840852732 L 33.889044780857 121.55936226381613 L 34.595175408929 111.2570031595904 L 35.301306037001 101.6451110889638 L 36.007436665074 92.70886114970915 L 36.713567293146 84.43373699551694 L 37.419697921218 76.80552442333459 L 38.125828549291 69.81030509398533 L 38.831959177363 63.434450383264334 L 39.538089805435 57.66461536082801 L 40.244220433508 52.487732894205635 L 40.95035106158 47.891007875341074 L 41.656481689652 43.86191156710862 L 42.362612317724 40.38817606732505 L 43.068742945797 37.45778888779455 L 43.774873573869 35.05898764601761 L 44.481004201941 33.18025486721632 L 45.187134830014 31.810312894361687 L 45.893265458086 30.938118904006558 L 46.599396086158 30.552860025668906 L 47.30552671423 30.643948562657954 L 48.011657342303 31.201017312208194 L 48.717787970375 32.21391498287812 L 49.423918598447 33.67270170716807 L 50.13004922652 35.567644647404336 L 50.836179854592 37.88921369293075 L 51.542310482664 40.628077246719386 L 52.248441110736 43.77509809955052 L 52.954571738809 47.32132938991816 L 53.660702366881 51.25801064790295 L 54.366832994953 55.57656392125915 L 55.072963623026 60.26858998200538 L 55.779094251098 65.32586461184786 L 56.48522487917 70.74033496479143 L 57.191355507242 76.50411600535392 L 57.897486135315 82.6094870207865 L 58.603616763387 89.04888820578094 L 59.309747391459 95.8149173181531 L 60.015878019532 102.90032640401921 L 60.722008647604 110.2980185910364 L 61.428139275676 118.00104494827593 L 62.134269903748 126.00260141135641 L 62.840400531821 134.29602577147892 L 63.546531159893 142.8114036297818 L 64.252661787965 150.86805451910442 L 64.958792416038 158.29390596990498 L 65.66492304411 165.10252992464126 L 66.371053672182 171.3072158209153 L 67.077184300254 176.92097646273666 L 67.783314928327 181.95655376978095 L 68.489445556399 186.4264244071672 L 69.195576184471 190.34280529823562 L 69.901706812544 193.7176590227743 L 70.607837440616 196.56269910305048 L 71.313968068688 198.8893951800015 L 72.02009869676 200.70897808185384 L 72.726229324833 202.03244478740692 L 73.432359952905 202.87056328617575 L 74.138490580977 203.23387733753341 L 74.84462120905 203.132711130951 L 75.550751837122 202.57717384939355 L 76.256882465194 201.57716413787944 L 76.963013093266 200.14237447917915 L 77.669143721339 198.28229547858146 L 78.375274349411 196.00622005961355 L 79.081404977483 193.32324757257217 L 79.787535605556 190.24228781766965 L 80.493666233628 186.7720649845786 L 81.1997968617 182.92112151010443 L 81.905927489773 178.69782185568735 L 82.612058117845 174.1103562064078 L 83.318188745917 169.1667440931218 L 84.024319373989 163.87483793931605 L 84.730450002062 158.24232653426554 L 85.436580630134 152.27673843400055 L 86.142711258206 145.98544529161086 L 86.848841886279 139.37650565891983 L 87.554972514351 132.9565925272471 L 88.261103142423 127.14221375857363 L 88.967233770495 121.92031370631145 L 89.673364398568 117.27810850819475 L 90.37949502664 113.2030804377901 L 91.085625654712 109.68297237339146 L 91.791756282785 106.70578238185436 L 92.497886910857 104.25975841499235 L 93.204017538929 102.33339311618198 L 93.910148167001 100.91541873489615 L 94.616278795074 99.99480214692534 L 95.322409423146 99.56073997807675 L 96.028540051218 99.60265382921756 L 96.734670679291 100.11018560053952 L 97.440801307363 101.07319291300166 L 98.146931935435 102.481744624913 L 98.853062563507 104.32611644169288 L 99.55919319158 106.59678661686212 L 100.26532381965 109.28443174237486 L 100.97145444772 112.37992262643485 L 101.6775850758 115.87432025697393 L 102.38371570387 119.75887184901745 L 103.08984633194 124.02500697418452 L 103.79597696001 128.6643337706339 L 104.50210758809 133.6686352317601 L 105.20823821616 139.02986557202456 L 105.91436884423 144.37827149444996 L 106.6204994723 149.16102472264447 L 107.32663010037 153.3842539201881 L 108.03276072845 157.06004659927305 L 108.73889135652 160.20023861878923 L 109.44502198459 162.81641941445514 L 110.15115261266 164.9199371202569 L 110.85728324074 166.52190358345965 L 111.56341386881 167.6331992754003 L 112.26954449688 168.2644781002262 L 112.97567512495 168.42617210369986 L 113.68180575303 168.12849608415252 L 114.3879363811 167.38145210761544 L 115.09406700917 166.19483392911437 L 115.80019763724 164.5782313220931 L 116.50632826531 162.5410343178579 L 117.21245889339 160.092437356924 L 117.91858952146 157.24144335409198 L 118.62472014953 153.99686767904427 L 119.3308507776 150.3673420542201 L 120.03698140568 146.36131837169012 L 120.74311203375 141.9870724307051 L 121.44924266182 137.3684406135112 L 122.15537328989 133.20155059755115 L 122.86150391797 129.59116411608505 L 123.56763454604 126.52524665358118 L 124.27376517411 123.99201425624028 L 124.97989580218 121.97992832454156 L 125.68602643025 120.47769051400473 L 126.39215705833 119.4742377419214 L 127.0982876864 118.95873729785058 L 127.80441831447 118.92058205573284 L 128.51054894254 119.3493857854927 L 129.21667957062 120.23497856207797 L 129.92281019869 121.56740226990752 L 130.62894082676 123.33690620073747 L 131.33507145483 125.53394274301365 L 132.0412020829 128.14916316080183 L 132.74733271098 131.1734134604423 L 133.45346333905 134.59773034309433 L 134.15959396712 138.4133372414007 L 134.86572459519 142.39078570875182 L 135.57185522327 145.87009901163066 L 136.27798585134 148.81831946745945 L 136.98411647941 151.2469424094583 L 137.69024710748 153.167223825108 L 138.39637773556 154.59018533051074 L 139.10250836363 155.52661904138108 L 139.8086389917 155.98709234280665 L 140.51476961977 155.98195255988782 L 141.22090024784 155.52133153131774 L 141.92703087592 154.61515008791457 L 142.63316150399 153.27312243808404 L 143.33929213206 151.50476046214692 L 144.04542276013 149.3193779174253 L 144.75155338821 146.72609455593783 L 145.45768401628 143.7338401565304 L 146.16381464435 140.35135847320413 L 146.86994527242 136.89048498614096 L 147.5760759005 133.9541248346398 L 148.28220652857 131.54747627936104 L 148.98833715664 129.6590627941543 L 149.69446778471 128.27764681766774 L 150.40059841278 127.39222478688936 L 151.10672904086 126.99202227390276 L 151.81285966893 127.06648922370772 L 152.518990297 127.60529529100177 L 153.22512092507 128.59832527387016 L 153.93125155315 130.035674642375 L 154.63738218122 131.9076451600596 L 155.34351280929 134.2047405964488 L 156.04964343736 136.91766252864636 L 156.75577406544 140.03152310965612 L 157.46190469351 142.9842490436697 L 158.16803532158 145.41740060347848 L 158.87416594965 147.34223317898085 L 159.58029657772 148.76976780123317 L 160.2864272058 149.71079601317973 L 160.99255783387 150.17588463915467 L 161.69868846194 150.17538045527715 L 162.40481909001 149.719414762781 L 163.11094971809 148.8179078663125 L 163.81708034616 147.48057345915396 L 164.52321097423 145.71692291732631 L 165.2293416023 143.53626950444374 L 165.93547223037 140.94773248919574 L 166.64160285845 138.10229401798762 L 167.34773348652 135.69340907791474 L 168.05386411459 133.80272175695382 L 168.75999474266 132.41899535591517 L 169.46612537074 131.53122715594867 L 170.17225599881 131.12864355567314 L 170.87838662688 131.2006953093624 L 171.58451725495 131.7370528640858 L 172.29064788303 132.7276017937529 L 172.9967785111 134.16243832804236 L 173.70290913917 136.03186497424497 L 174.40903976724 138.32638623009524 L 175.11517039531 140.92735678790098 L 175.82130102339 143.13746288288843 L 176.52743165146 144.84415081497912 L 177.23356227953 146.0583395045025 L 177.9396929076 146.7907205059297 L 178.64582353568 147.05176273327322 L 179.35195416375 146.85171708729547 L 180.05808479182 146.2006209865466 L 180.76421541989 145.10830280425353 L 181.47034604797 143.5843862129936 L 182.17647667604 141.63829443908764 L 182.88260730411 139.29006940897926 L 183.58944406279 137.12758773461587 L 184.29628082147 135.4788855496313 L 185.00311758015 134.3328062779774 L 185.70995433883 133.67842588990118 L 186.41679109751 133.50504806408946 L 187.12362785619 133.80219945045286 L 187.83046461487 134.55962503144764 L 188.53730137356 135.7672835798998 L 189.24413813224 137.41534321130376 L 189.95097489092 139.4941770286519 L 190.6578116496 141.59827625190678 L 191.36464840828 143.20294199692694 L 192.07148516696 144.31642194635708 L 192.77832192564 144.94939169080794 L 193.48515868432 145.1123042909639 L 194.191995443 144.81539490707257 L 194.89883220168 144.06868533212423 L 195.60566896036 142.88198843073656 L 196.31250571904 141.26491248570227 L 197.01934247772 139.24518280071703 L 197.72617923641 137.44105256497392 L 198.43301599509 136.14288986199233 L 199.13985275377 135.3397009763753 L 199.84668951245 135.02072135086576 L 200.55352627113 135.175410818972 L 201.26036302981 135.79344893676347 L 201.96719978849 136.86473041177527 L 202.67403654717 138.37936062699902 L 203.38087330585 140.28170868044532 L 204.08771006453 141.90216349752222 L 204.79454682321 143.03111568137234 L 205.50138358189 143.67924740179438 L 206.20822034057 143.85701816181444 L 206.91505709925 143.5746694300193 L 207.62189385794 142.84222917652693 L 208.32873061662 141.6695163145974 L 209.0355673753 140.0661450498555 L 209.74240413398 138.32713684372823 L 210.44924089266 137.07147610363916 L 211.15607765134 136.30984409837663 L 211.86291441002 136.03149599111111 L 212.5697511687 136.22591092549612 L 213.27658792738 136.88278736599875 L 213.98342468606 137.99203853516372 L 214.69026144474 139.54378794578412 L 215.39709820342 141.12714778055113 L 216.1039349621 142.2220298967688 L 216.81077172079 142.8368504856805 L 217.51760847947 142.98205321282245 L 218.22444523815 142.66786403878865 L 218.93128199683 141.90429574834985 L 219.63811875551 140.7011523853525 L 220.34495551419 139.12062010417776 L 221.05179227287 137.83907143379042 L 221.75862903155 137.05209940089208 L 222.46546579023 136.7489477618908 L 223.17230254891 136.91908449096974 L 223.87913930759 137.55219711548142 L 224.58597606627 138.63818814837543 L 225.29281282495 140.12633109958097 L 225.99964958363 141.35309653538638 L 226.70648634232 142.09694591146638 L 227.413323101 142.3683823839864 L 228.12015985968 142.17769016654808 L 228.82699661836 141.53493908504902 L 229.53383337704 140.4499890377931 L 230.24067013572 139.0258355366493 L 230.9475068944 137.9597555053283 L 231.65434365308 137.38355636911405 L 232.36118041176 137.2865797780899 L 233.06801717044 137.65838956353315 L 233.77485392912 138.488767115676 L 234.4816906878 139.76558681275083 L 235.18852744648 140.95802651298527 L 235.89536420517 141.66830604186538 L 236.60220096385 141.90691278983599 L 237.30903772253 141.68411553277417 L 238.01587448121 141.00996898002688 L 238.72271123989 139.89431822784235 L 239.42954799857 138.66827004023105 L 240.13638475725 137.92277937465042 L 240.84322151593 137.6601874556921 L 241.55005827461 137.86998148826302 L 242.25689503329 138.5418678303489 L 242.96373179197 139.66576743375958 L 243.67056855065 140.77010743773758 L 244.37740530933 141.3942110359685 L 245.08424206801 141.5485245990523 L 245.7910788267 141.2432776481644 L 246.49791558538 140.4884864546052 L 247.20475234406 139.32896795836882 L 247.91158910274 138.41967992668378 L 248.61842586142 137.99684805274535 L 249.3252626201 138.04988539064982 L 250.03209937878 138.568425690193 L 250.73893613746 139.54231880552868 L 251.44577289614 140.58824295840566 L 252.15260965482 141.15999420633102 L 252.8594464135 141.26310060652423 L 253.56628317218 140.9077678019881 L 254.27311993086 140.10398868262445 L 254.97995668955 139.03148080919925 L 255.68679344823 138.3775276840709 L 256.39363020691 138.20447001609062 L 257.10046696559 138.50183678141457 L 257.80730372427 139.25937524025983 L 258.51414048295 140.28975505595997 L 259.22097724163 140.90833648211265 L 259.92781400031 141.05725826644561 L 260.63465075899 140.74674720218457 L 261.34148751767 139.98681688944657 L 262.04832427635 139.0106865541543 L 262.75516103503 138.4795766121125 L 263.46199779371 138.4266842942663 L 264.16883455239 138.84159440309276 L 264.87567131108 139.7132683231269 L 265.58250806976 140.53115505808057 L 266.28934482844 140.8750488321317 L 266.99618158712 140.75526676690652 L 267.7030183458 140.1819109117422 L 268.40985510448 139.25451124745325 L 269.11669186316 138.66976612060688 L 269.82352862184 138.56440291459938 L 270.53036538052 138.92798216381232 L 271.2372021392 139.74726697715846 L 271.94403889788 140.48104877553618 L 272.65087565656 140.74267058771176 L 273.35771241524 140.5424113226303 L 274.06454917393 139.89033561192412 L 274.77138593261 139.0626616233181 L 275.47822269129 138.69282361410797 L 276.18505944997 138.79768604596012 L 276.89189620865 139.36690704765851 L 277.59873296733 140.19006276427854 L 278.30556972601 140.59298938408483 L 279.01240648469 140.5309602108236 L 279.71924324337 140.0141039711832 L 280.42608000205 139.2096330415224 L 281.13291676073 138.8093102381995 L 281.83975351941 138.88434945621196 L 282.54659027809 139.42439503481802 L 283.25342703677 140.1861634498568 L 283.96026379546 140.51394923036338 L 284.66710055414 140.37841754317475 L 285.37393731282 139.78966295954012 L 286.0807740715 139.09538740151606 L 286.78761083018 138.87308590913125 L 287.49444758886 139.1222675391566 L 288.20128434754 139.81683123070763 L 288.90812110622 140.34554460050697 L 289.6149578649 140.40656750271557 L 290.32179462358 140.0100856683536 L 291.02863138226 139.29511780054867 L 291.73546814094 138.9598937610172 L 292.44230489962 139.09861065996546 L 293.14914165831 139.70017917190665 L 293.85597841699 140.25561054822077 L 294.56281517567 140.3427713703465 L 295.26965193435 139.9718594604753 L 295.97648869303 139.29852117574347 L 296.68332545171 139.01782557927066 L 297.39016221039 139.20988200417474 L 298.09699896907 139.83817446877032 L 298.80383572775 140.26358939452786 L 299.51067248643 140.2235655536693 L 300.21750924511 139.72824173479324 L 300.92434600379 139.1759875956294 L 301.63118276247 139.09914342403607 L 302.33801952115 139.49060939111462 L 303.04485627984 140.08558785871992 L 303.75169303852 140.24216434438364 L 304.4585297972 139.93915821446268 L 305.16536655588 139.33432941126932 L 305.87220331456 139.12225565521715 L 306.57904007324 139.38143706033856 L 307.28587683192 139.97401911537708 L 307.9927135906 140.20129355543435 L 308.69955034928 139.96744632285646 L 309.40638710796 139.3891924677033 L 310.11322386664 139.16583224140663 L 310.82006062532 139.41397210563787 L 311.526897384 139.97559367946513 L 312.23373414269 140.15586619038453 L 312.94057090137 139.8760417467431 L 313.64740766005 139.33743154220116 L 314.35424441873 139.21849880575382 L 315.06108117741 139.56879047610613 L 315.76791793609 140.05043055434152 L 316.47475469477 140.077011083588 L 317.18159145345 139.64724889186976 L 317.88842821213 139.26056358673583 L 318.59526497081 139.34893386615772 L 319.30210172949 139.85066522473056 L 320.00893848817 140.0898289776997 L 320.71577524685 139.8676144107585 L 321.42261200553 139.37423846937685 L 322.12944876422 139.2931595128777 L 322.8362855229 139.680263842001 L 323.54312228158 140.04286993340622 L 324.24995904026 139.94140992263186 L 324.95679579894 139.46307258861128 L 325.66363255762 139.30066448295042 L 326.3704693163 139.60842603289808 L 327.07730607498 140.004381556375 L 327.78414283366 139.94052237833625 L 328.49097959234 139.4856224960795 L 329.19781635102 139.3253763158408 L 329.9046531097 139.6352521869195 L 330.61148986838 139.99341865500116 L 331.31832662707 139.889123005565 L 332.02516338575 139.44713030010797 L 332.73200014443 139.36689141733865 L 333.43883690311 139.74449772241252 L 334.14567366179 139.9892094034077 L 334.85251042047 139.7724240164007 L 335.55934717915 139.389805877365 L 336.26618393783 139.46096887437187 L 336.97302069651 139.8772774124996 L 337.67985745519 139.93921844654278 L 338.38669421387 139.56483247070986 L 339.09353097255 139.38115852406196 L 339.80036773123 139.6681148286192 L 340.50720448991 139.95097762560567 L 341.2140412486 139.77151316165373 L 341.92087800728 139.41534120259473 L 342.62771476596 139.5095295861659 L 343.33455152464 139.88928275626068 L 344.04138828332 139.8703720321372 L 344.748225042 139.49071957118036 L 345.45506180068 139.448397965384 L 346.16189855936 139.8132826623853 L 346.86873531804 139.9017684535258 L 347.57557207672 139.56085881109817 L 348.2824088354 139.4346883376556 L 348.98924559408 139.75729823620128 L 349.69608235276 139.90296325247454 L 350.40291911145 139.6001053612868 L 351.10975587013 139.44054017039065 L 351.81659262881 139.73818927286868 L 352.52342938749 139.89229287794143 L 353.23026614617 139.59885375130932 L 353.93710290485 139.45471333747867 L 354.64393966353 139.7569158020712 L 355.35077642221 139.87254030561508 L 356.05761318089 139.56322882080804 L 356.76444993957 139.48227736649972 L 357.47128669825 139.80179389811047 L 358.17812345693 139.83319798070568 L 358.88496021561 139.51265153098478 L 359.59179697431 139.53946456316777 L 360.2979276024 139.8467943228623 L 361.00405823049 139.75418985769295 L 361.71018885858 139.47892664358 L 362.41631948667 139.65005302365142 L 363.12245011476 139.85842438506563 L 363.82858074286 139.61570880735303 L 364.53471137095 139.49744917299438 L 365.24084199904 139.78644903678605 L 365.94697262713 139.79986130807487 L 366.65310325522 139.51020653949257 L 367.35923388332 139.60945236748722 L 368.06536451141 139.84303481596424 L 368.7714951395 139.63142448922804 L 369.47762576759 139.51253705782068 L 370.18375639568 139.78822125348398 L 370.88988702378 139.76815449082272 L 371.59601765187 139.50904751110596 L 372.30214827996 139.6750671033546 L 373.00827890805 139.8223233419705 L 373.71440953614 139.56370435882314 L 374.42054016423 139.57493899518033 L 375.12667079233 139.82044749953224 L 375.83280142042 139.64610591767195 L 376.53893204851 139.5321480628807 L 377.2450626766 139.7892520247504 L 377.95119330469 139.72007523522979 L 378.65732393279 139.5232458849548 L 379.36345456088 139.74989949523348 L 380.06958518897 139.7580276748733 L 380.77571581706 139.52903263247129 L 381.48184644515 139.71546363933817 L 382.18797707325 139.77408198146583 L 382.89410770134 139.53889828654826 L 383.60023832943 139.69535720991547 L 384.30636895752 139.7774460805531 L 385.01249958561 139.5450577440305 L 385.7186302137 139.69042865171764 L 386.4247608418 139.77355479571952 L 387.13089146989 139.5473589279997 L 387.83702209798 139.7000519628055 L 388.54315272607 139.7617957530024 L 389.24928335416 139.54710262680982 L 389.95541398226 139.72187377064478 L 390.66154461035 139.74078774418604 L 391.36767523844 139.5484541032202 L 392.07380586653 139.74737538404065 L 392.77993649462 139.7049603357791 L 393.48606712272 139.559562610044 L 394.19219775081 139.770163578515 L 394.8983283789 139.64786489022669 L 395.60445900699 139.58828722130556 L 396.31058963508 139.77866262787865 L 397.01672026318 139.59374519976575 L 397.72285089127 139.64679012432185 L 398.42898151936 139.7614429153881 L 399.13511214745 139.5644687841281 L 399.84124277554 139.7250042483746 L 400.54737340363 139.7036774521536 L 401.25350403173 139.57490184171655 L 401.95963465982 139.76649226546039 L 402.66576528791 139.6121862231372 L 403.371895916 139.64213722061112 L 404.07802654409 139.75206456046874 L 404.78415717219 139.57056284890905 L 405.49028780028 139.73807435518518 L 406.19641842837 139.6643194672817 L 406.90254905646 139.60504637095238 L 407.60867968455 139.76022349385124 L 408.31481031265 139.58131201684046 L 409.02094094074 139.71532433106728 L 409.72707156883 139.68841496618109 L 410.43320219692 139.59781730324772 L 411.13933282501 139.7574175507778 L 411.8454634531 139.58695537296228 L 412.5515940812 139.71435707412456 L 413.25772470929 139.67950234582383 L 413.96385533738 139.6095986559219 L 414.66998596547 139.74923965926365 L 415.37611659356 139.5841018149435 L 416.08224722166 139.73310483768893 L 416.78837784975 139.63907322418908 L 417.49450847784 139.64762496166833 L 418.20063910593 139.72560620327533 L 418.90676973402 139.59090686804484 L 419.61290036212 139.7476427975211 L 420.31903099021 139.59849508930722 L 421.0251616183 139.71329405479156 L 421.73129224639 139.65780853014502 L 422.43742287448 139.63988014403384 L 423.14355350258 139.7228953038222 L 423.84968413067 139.59692579956402 L 424.55581475876 139.74341765079822 L 425.26194538685 139.59605587525465 L 425.96807601494 139.72656951627113 L 426.67420664303 139.62933876623418 L 427.38033727113 139.67962916761707 L 428.08646789922 139.68703709797927 L 428.79259852731 139.6257836119782 L 429.4987291554 139.72570309461196 L 430.20485978349 139.60006707052486 L 430.91099041159 139.73818176430058 L 431.61712103968 139.59830403925918 L 432.32325166777 139.7306598067387 L 433.02938229586 139.6150277885951 L 433.73551292395 139.70689389311877 L 434.44164355205 139.6450476160071 L 435.14777418014 139.6731969759603 L 435.85390480823 139.6810853734915 L 436.56003543632 139.6399323407826 L 437.26616606441 139.70740517239966 L 437.9722966925 139.6193699934841 L 438.6784273206 139.72222154877073 L 439.38455794869 139.6082877480659 L 440.09068857678 139.7290717425584 L 440.79681920487 139.6045406237634 L 441.50294983296 139.7306624605456 L 442.20908046106 139.60496147150678 L 442.91521108915 139.72856866578672 L 443.62134171724 139.60789575548364 L 444.32747234533 139.72488883668876 L 445.03360297342 139.61180960033693 L 445.73973360152 139.72147428239225 L 446.44586422961 139.6148599494511 L 447.1519948577 139.71884201083628 L 447.85812548579 139.61679152238264 L 448.56425611388 139.71759019264363 L 449.27038674197 139.61750148426017 L 449.97651737007 139.71738177219657 L 450.68264799816 139.61748644975876 L 451.38877862625 139.717751089189 L 452.09490925434 139.61645208502802 L 452.80103988243 139.71889832609924 L 453.50717051053 139.61503236029523 L 454.21330113862 139.7206189741654 L 454.91943176671 139.61351899018797 L 455.6255623948 139.72126167436898 L 456.33169302289 139.61325042306868 L 457.03782365099 139.7204050325198 L 457.74395427908 139.61594960441363 L 458.45008490717 139.71587823057627 L 459.15621553526 139.62277691121466 L 459.86234616335 139.70684994327945 L 460.56847679145 139.63469801735943 L 461.27460741954 139.69205710156336 L 461.98073804763 139.6536816567043 L 462.68686867572 139.66881073634676 L 463.39299930381 139.68061306902234 L 464.0991299319 139.6425398085185 L 464.80526056 139.70228205242074 L 465.51139118809 139.62491560280228 L 466.21752181618 139.71449740593602 L 466.92365244427 139.61847142527586 L 467.62978307236 139.71462542705126 L 468.33591370046 139.62491611597943 L 469.04204432855 139.7007785838873 L 469.74817495664 139.64676658965948 L 470.45430558473 139.6718099775046 L 471.16043621282 139.68177577091404 L 471.86656684092 139.63883822695527 L 472.57269746901 139.70629993410307 L 473.2788280971 139.6221150685309 L 473.98495872519 139.71419349154257 L 474.69108935328 139.62314369281535 L 475.39721998137 139.70369652958453 L 476.10335060947 139.64359552260402 L 476.80948123756 139.67370523194182 L 477.51561186565 139.68188469396114 L 478.22174249374 139.63718636572463 L 478.92787312183 139.70779972323703 L 479.63400374993 139.6220982159328 L 480.34013437802 139.71063054585483 L 481.04626500611 139.63206354451336 L 481.7523956342 139.6878170054332 L 482.45852626229 139.6692874258194 L 483.16465689039 139.6443165247706 L 483.87078751848 139.70446124692677 L 484.57691814657 139.62374644196825 L 485.28304877466 139.7087631941667 L 485.98917940275 139.63614713571002 L 486.69531003084 139.67940328057836 L 487.40144065894 139.68125128330405 L 488.10757128703 139.63510793747173 L 488.81370191512 139.70867920029428 L 489.51983254321 139.62562839630658 L 490.2259631713 139.6992769513767 L 490.9320937994 139.65472451420618 L 491.63822442749 139.65390795134135 L 492.34435505558 139.69971872351192 L 493.05048568367 139.6257949607591 L 493.75661631176 139.70736167502224 L 494.46274693986 139.638765896491 L 495.16887756795 139.67408017230258 L 495.87500819604 139.68725349210968 L 496.58113882413 139.63096780549245 L 497.28726945222 139.70880398406217 L 497.99340008032 139.63100911250706 L 498.69953070841 139.6871874790515 L 499.4056613365 139.6746844368863 L 500.11179196459 139.6380731201744 L 500.81792259268 139.70714765807725 L 501.52405322077 139.62818676161226 L 502.23018384887 139.69303136383695 L 502.93631447696 139.66767016329788 L 503.64244510505 139.64128225475122 L 504.34857573314 139.7059123180711 L 505.05470636123 139.6291231460039 L 505.76083698933 139.69113655894017 L 506.46696761742 139.67131339895423 L 507.17309824551 139.6389300334053 L 507.8792288736 139.70635741067815 L 508.58535950169 139.63143570471175 L 509.29149012979 139.68507338424632 L 509.99762075788 139.67987027545382 L 510.70375138597 139.6339025875413 L 511.40988201406 139.7057973765265 L 512.11601264215 139.63887957937402 L 512.82214327024 139.66988814900503 L 513.52827389834 139.69301944106093 L 514.23440452643 139.6293161612207 L 514.94053515452 139.70049118732697 L 515.64666578261 139.6555048665129 L 516.3527964107 139.6475214653198 L 517.0589270388 139.70317006658178 L 517.76505766689 139.6325253273762 L 518.47118829498 139.6824759332086 L 519.17731892307 139.68457058874145 L 519.88344955116 139.6319620526986 L 520.58958017926 139.70149923220623 L 521.29571080735 139.6525661307657 L 522.00184143544 139.64953676281317 L 522.70797206353 139.70234812526445 L 523.41410269162 139.6334666161436 L 524.12023331971 139.67985353749538 L 524.82636394781 139.68743296608568 L 525.5324945759 139.6313185139379 L 526.23862520399 139.6981960388158 L 526.94475583208 139.66119596852548 L 527.65088646017 139.64239929390408 L 528.35701708827 139.70326730612123 L 529.06314771636 139.64029010660374 L 529.76927834445 139.66455345905132 L 530.47540897254 139.69684940222982 L 531.18153960063 139.63160113311721 L 531.88767022873 139.68762084569198 L 532.59380085682 139.6805956225499 L 533.29993148491 139.63336150774722 L 534.006062113 139.6993188959314 L 534.71219274109 139.6585108013399 L 535.41832336919 139.64336066999567 L 536.12445399728 139.7023816518166 L 536.83058462537 139.64306719987354 L 537.53671525346 139.658792767023 L 538.24284588155 139.69914626985906 L 538.94897650964 139.63463966147606 L 539.65510713774 139.6768244620548 L 540.36123776583 139.690847013123 L 541.06736839392 139.63216202970148 L 541.77349902201 139.68982598678883 L 542.4796296501 139.6782850071079 L 543.1857602782 139.63418455104528 L 543.89189090629 139.69863193138468 L 544.59802153438 139.66037868560858 L 545.30415216247 139.6418920049278 L 546.01028279056 139.70196281121446 L 546.71641341866 139.64632107936637 L 547.42254404675 139.65404000161567 L 548.12867467484 139.70060797406967 L 548.83480530293 139.6367402656537 L 549.54093593102 139.67166362835212 L 550.24706655911 139.69395461819795 L 550.95319718721 139.6323690048264 L 551.6593278153 139.6865642759741 L 552.36545844339 139.68264872223062 L 553.07158907148 139.63325310386875 L 553.77771969957 139.69518885100564 L 554.48385032767 139.66903423071233 L 555.18998095576 139.63766385547655 L 555.89611158385 139.69990805356315 L 556.60224221194 139.655707911177 L 557.30837284003 139.64460828648504 L 558.01450346813 139.70137317238857 L 558.72063409622 139.6466751023612 L 559.42676472431 139.65286742474524 L 560.1328953524 139.70033757074185 L 560.83902598049 139.64087161274142 L 561.54515660858 139.66095119009583 L 562.25128723668 139.69817873155654 L 562.95741786477 139.63818107088656 L 563.66354849286 139.6673914593788 L 564.36967912095 139.6962295156889 L 565.07580974904 139.63553754365654 L 565.78194037714 139.67490235216525 L 566.48807100523 139.6927480671979 L 567.19420163332 139.63403655710613 L 567.90033226141 139.68091536174643 L 568.6064628895 139.68878085158883 L 569.3125935176 139.63379827900758 L 570.01872414569 139.68451467645002 L 570.72485477378 139.6858272101788 L 571.43098540187 139.63390794496502 L 572.13711602996 139.686753684606 L 572.84324665806 139.6838483888409 L 573.54937728615 139.63408760453729 L 574.25550791424 139.6876695065713 L 574.96163854233 139.6829910390711 L 575.66776917042 139.63439312714172 L 576.37389979851 139.68782270696158 L 577.08003042661 139.68270367631607 L 577.7861610547 139.6343974870681 L 578.49229168279 139.6880353074801 L 579.19842231088 139.68247436200437 L 579.90455293897 139.63446232829216 L 580.61068356707 139.68830339650464 L 581.31681419516 139.68220439808522 L 582.02294482325 139.63452743753993 L 582.72907545134 139.68762118885053 L 583.43520607943 139.68301781086603 L 584.14133670753 139.6345089982974 L 584.84746733562 139.68699831984645 L 585.55359796371 139.68374547641508 L 586.2597285918 139.63443993892758 L 586.96585921989 139.6862928601962 L 587.67198984798 139.68439181038713 L 588.37812047608 139.63466215328066 L 589.08425110417 139.68502631604673 L 589.79038173226 139.68580800648846 L 590.49651236035 139.6347844872824 L 591.20264298844 139.6825412283016 L 591.90877361654 139.68825477881785 L 592.61490424463 139.6352214946943 L 593.32103487272 139.67917122725942 L 594.02716550081 139.69074896472364 L 594.7332961289 139.63548745473486 L 595.439426757 139.67701124654303 L 596.14555738509 139.6919144972485 L 596.85168801318 139.6356350838351 L 597.55781864127 139.6757220020416 L 598.26394926936 139.69272487959955 L 598.97007989745 139.63624756860168 L 599.67621052555 139.67366416408544 L 600.38234115364 139.69377269335018 L 601.08847178173 139.63675609420665 L 601.79460240982 139.6713249644659 L 602.50073303791 139.69478490738481 L 603.20686366601 139.63823882293406 L 603.9129942941 139.66656723446778 L 604.61912492219 139.6963592456289 L 605.32525555028 139.64033210782225 L 606.03138617837 139.6613735869788 L 606.73751680647 139.69781161393212 L 607.44364743456 139.6420323426903 L 608.14977806265 139.6580906846225 L 608.85590869074 139.69850274452176 L 609.56203931883 139.64383638772847 L 610.26816994693 139.65478837715978 L 610.97430057502 139.6990184372683 L 611.68043120311 139.6460781619818 L 612.3865618312 139.65191896796108 L 613.09269245929 139.69926201430582 L 613.79882308738 139.64796917251573 L 614.50495371548 139.65004798879016 L 615.21108434357 139.69947512018314 L 615.91721497166 139.6494479116879 L 616.62334559975 139.64832907270835 L 617.32947622784 139.69899818405952 L 618.03560685594 139.65283045557686 L 618.74173748403 139.64519212820397 L 619.44786811212 139.6988120400186 L 620.15399874021 139.65611298228475 L 620.8601293683 139.6431382170834 L 621.5662599964 139.69873205905452 L 622.27239062449 139.65770746587106 L 622.97852125258 139.64207575876077 L 623.68465188067 139.6979636678954 L 624.39078250876 139.66043692023896 L 625.09691313685 139.6407584813466 L 625.80304376495 139.69688643852737 L 626.50917439304 139.66501584895462 L 627.21530502113 139.63873033228077 L 627.92143564922 139.69465264132356 L 628.62756627731 139.67125747746633 L 629.33369690541 139.63695863502267 L 630.0398275335 139.69246273490893 L 630.74595816159 139.67646547913017 L 631.45208878968 139.63566796042647 L 632.15821941777 139.68976400304717 L 632.86435004587 139.6807281922703 L 633.57048067396 139.63544257434876 L 634.27661130205 139.6851969807921 L 634.98274193014 139.6859634023711 L 635.68887255823 139.6352668797245 L 636.39500318632 139.68061569477368 L 637.10113381442 139.68979984510895 L 637.80726444251 139.6357619345838 L 638.5133950706 139.67658999312863 L 639.21952569869 139.69231153242526 L 639.92565632678 139.63696727268103 L 640.63178695488 139.67104840647647 L 641.33791758297 139.6948631187551 L 642.04404821106 139.63901699469596 L 642.75017883915 139.66441633855078 L 643.45630946724 139.69700857733739 L 644.16244009534 139.64165852475065 L 644.86857072343 139.6582889233993 L 645.57470135152 139.6982876436316 L 646.28083197961 139.64544550748116 L 646.9869626077 139.65246363192705 L 647.6930932358 139.69854158199252 L 648.39922386389 139.6510067789448 L 649.10535449198 139.64653428571586 L 649.81148512007 139.6984405094123 L 650.51761574816 139.65648741169252 L 651.22374637625 139.64260981788078 L 651.92987700435 139.69711472782 L 652.63600763244 139.66354905771738 L 653.34213826053 139.63933912608314 L 654.04826888862 139.69462086920504 L 654.75439951671 139.67184745755543 L 655.46053014481 139.63692667845635 L 656.1666607729 139.69063054430927 L 656.87279140099 139.67957427308875 L 657.57892202908 139.6356028309403 L 658.28505265717 139.684797708549 L 658.99118328527 139.68672927990872 L 659.69731391336 139.6359689621836 L 660.40344454145 139.6773945274515 L 661.10957516954 139.691846441577 L 661.81570579763 139.63756205120546 L 662.52183642572 139.66949943264672 L 663.22796705382 139.69546269020793 L 663.93409768191 139.6403749644091 L 664.64022831 139.66077750167005 L 665.34635893809 139.6977727674892 L 666.05248956618 139.6442457479559 L 666.75862019428 139.65380451765395 L 667.46475082237 139.69829825847972 L 668.17088145046 139.6510223131407 L 668.87701207855 139.64622992974626 L 669.58314270664 139.69746573166026 L 670.28927333474 139.66043134847035 L 670.99540396283 139.64044378463723 L 671.70153459092 139.6950314786514 L 672.40766521901 139.67075297452863 L 673.1137958471 139.6370749466265 L 673.81992647519 139.69075955803874 L 674.52605710329 139.67929821643946 L 675.23218773138 139.6356881518539 L 675.93831835947 139.68563432515867 L 676.64444898756 139.6857795659373 L 677.35057961565 139.63557455958454 L 678.05671024375 139.67957939824225 L 678.76284087184 139.69056345023853 L 679.46897149993 139.63651334217116 L 680.17510212802 139.672943418467 L 680.88123275611 139.69423219610513 L 681.58736338421 139.63893524771157 L 682.2934940123 139.6646239884471 L 682.99962464039 139.69690475535396 L 683.70575526848 139.6427390480145 L 684.41188589657 139.65615909003327 L 685.11801652467 139.69823313991753 L 685.82414715276 139.6487181792387 L 686.53027778085 139.64830282146096 L 687.23640840894 139.69756065689364 L 687.94253903703 139.6588823131491 L 688.64866966512 139.64125759709577 L 689.35480029322 139.6946512667763 L 690.06093092131 139.67161610732234 L 690.7670615494 139.63719611981412 L 691.47319217749 139.68811645917992 L 692.17932280558 139.68352431275497 L 692.88545343368 139.6365098616464 L 693.59158406177 139.67719499694698 L 694.29771468986 139.69230115362268 L 695.00384531795 139.6400863489971 L 695.70997594604 139.66123439219626 L 696.41610657414 139.69704570513233 L 697.12223720223 139.6484915940366 L 697.82836783032 139.64826935021182 L 698.53449845841 139.69720235195626 L 699.2406290865 139.6605054955579 L 699.94675971459 139.64034129954842 L 700.65289034269 139.693507939938 L 701.35902097078 139.6741852666521 L 702.06515159887 139.63654578336434 L 702.77128222696 139.68708364888585 L 703.47741285505 139.68448728719727 L 704.18354348315 139.63606311923985 L 704.88967411124 139.67833851852038 L 705.59580473933 139.69159297240265 L 706.30193536742 139.63864160958371 L 707.00806599551 139.66586085378515 L 707.71419662361 139.69629038192784 L 708.4203272517 139.64413493529497 L 709.12645787979 139.65384516457408 L 709.83258850788 139.69810520604403 L 710.53871913597 139.65226783161813 L 711.24484976406 139.64532613222264 L 711.95098039216 139.69696623714964 L 721.95098039216 139.69696623714964" stroke-linejoin="round" visibility="visible" stroke="rgba(192,192,192,0.0001)" stroke-width="22" class="highcharts-tracker"></path></g><g class="highcharts-markers highcharts-series-0 highcharts-line-series highcharts-color-0 highcharts-tracker " transform="translate(71,10) scale(1 1)" clip-path="none"><path fill="#e41a1c" d="M 711 139.69696623714964 A 0 0 0 1 1 711 139.69696623714964 Z" class="highcharts-halo highcharts-color-0" fill-opacity="0.25"></path><path fill="#FFFFFF" d="M 717 140 A 6 6 0 1 1 716.9999970000002 139.994000001 Z" stroke="#e41a1c" stroke-width="3" visibility="hidden"></path></g></g><g class="highcharts-legend" transform="translate(311,482)"><rect fill="none" class="highcharts-legend-box" rx="0" ry="0" x="0" y="0" width="177" height="26" visibility="visible"></rect><g><g><g class="highcharts-legend-item highcharts-line-series highcharts-color-0 highcharts-series-0" transform="translate(8,3)"><path fill="none" d="M 0 11 L 16 11" class="highcharts-graph" stroke="#e41a1c" stroke-width="2"></path><text x="21" style="color:#333333;font-size:12px;font-weight:bold;cursor:pointer;fill:#333333;" text-anchor="start" y="15"><tspan>Measured temperature</tspan></text></g></g></g></g><g class="highcharts-axis-labels highcharts-xaxis-labels "><text x="77.34288897977154" style="color:#666666;cursor:default;font-size:11px;fill:#666666;" text-anchor="middle" transform="translate(0,0)" y="448" opacity="1">0</text><text x="147.95595178692975" style="color:#666666;cursor:default;font-size:11px;fill:#666666;" text-anchor="middle" transform="translate(0,0)" y="448" opacity="1">0.1</text><text x="218.56901459408795" style="color:#666666;cursor:default;font-size:11px;fill:#666666;" text-anchor="middle" transform="translate(0,0)" y="448" opacity="1">0.2</text><text x="289.18207740124615" style="color:#666666;cursor:default;font-size:11px;fill:#666666;" text-anchor="middle" transform="translate(0,0)" y="448" opacity="1">0.3</text><text x="359.79514020840435" style="color:#666666;cursor:default;font-size:11px;fill:#666666;" text-anchor="middle" transform="translate(0,0)" y="448" opacity="1">0.4</text><text x="430.4082030155626" style="color:#666666;cursor:default;font-size:11px;fill:#666666;" text-anchor="middle" transform="translate(0,0)" y="448" opacity="1">0.5</text><text x="501.02126582272075" style="color:#666666;cursor:default;font-size:11px;fill:#666666;" text-anchor="middle" transform="translate(0,0)" y="448" opacity="1">0.6</text><text x="571.634328629879" style="color:#666666;cursor:default;font-size:11px;fill:#666666;" text-anchor="middle" transform="translate(0,0)" y="448" opacity="1">0.7</text><text x="642.2473914370372" style="color:#666666;cursor:default;font-size:11px;fill:#666666;" text-anchor="middle" transform="translate(0,0)" y="448" opacity="1">0.8</text><text x="712.8604542441954" style="color:#666666;cursor:default;font-size:11px;fill:#666666;" text-anchor="middle" transform="translate(0,0)" y="448" opacity="1">0.9</text><text x="783.4735170513536" style="color:#666666;cursor:default;font-size:11px;fill:#666666;" text-anchor="middle" transform="translate(0,0)" y="448" opacity="1">1</text></g><g class="highcharts-axis-labels highcharts-yaxis-labels "><text x="56" style="color:#666666;cursor:default;font-size:11px;fill:#666666;" text-anchor="end" transform="translate(0,0)" y="434" opacity="1"><tspan>0</tspan></text><text x="56" style="color:#666666;cursor:default;font-size:11px;fill:#666666;" text-anchor="end" transform="translate(0,0)" y="364" opacity="1"><tspan>50</tspan></text><text x="56" style="color:#666666;cursor:default;font-size:11px;fill:#666666;" text-anchor="end" transform="translate(0,0)" y="294" opacity="1"><tspan>100</tspan></text><text x="56" style="color:#666666;cursor:default;font-size:11px;fill:#666666;" text-anchor="end" transform="translate(0,0)" y="224" opacity="1"><tspan>150</tspan></text><text x="56" style="color:#666666;cursor:default;font-size:11px;fill:#666666;" text-anchor="end" transform="translate(0,0)" y="154" opacity="1"><tspan>200</tspan></text><text x="56" style="color:#666666;cursor:default;font-size:11px;fill:#666666;" text-anchor="end" transform="translate(0,0)" y="84" opacity="1"><tspan>250</tspan></text><text x="56" style="color:#666666;cursor:default;font-size:11px;fill:#666666;" text-anchor="end" transform="translate(0,0)" y="15" opacity="1"><tspan>300</tspan></text></g><text x="790" class="highcharts-credits" text-anchor="end" style="cursor:pointer;color:#999999;font-size:9px;fill:#999999;" y="518"></text><g class="highcharts-label highcharts-tooltip highcharts-color-0" style="cursor:default;pointer-events:none;white-space:nowrap;" transform="translate(574,-9999)" opacity="0" visibility="visible"><path fill="none" class="highcharts-label-box highcharts-tooltip-box" d="M 3.5 0.5 L 221.5 0.5 C 224.5 0.5 224.5 0.5 224.5 3.5 L 224.5 43.5 C 224.5 46.5 224.5 46.5 221.5 46.5 L 214.5 46.5 208.5 52.5 202.5 46.5 3.5 46.5 C 0.5 46.5 0.5 46.5 0.5 43.5 L 0.5 3.5 C 0.5 0.5 0.5 0.5 3.5 0.5" isShadow="true" stroke="#000000" stroke-opacity="0.049999999999999996" stroke-width="5" transform="translate(1, 1)"></path><path fill="none" class="highcharts-label-box highcharts-tooltip-box" d="M 3.5 0.5 L 221.5 0.5 C 224.5 0.5 224.5 0.5 224.5 3.5 L 224.5 43.5 C 224.5 46.5 224.5 46.5 221.5 46.5 L 214.5 46.5 208.5 52.5 202.5 46.5 3.5 46.5 C 0.5 46.5 0.5 46.5 0.5 43.5 L 0.5 3.5 C 0.5 0.5 0.5 0.5 3.5 0.5" isShadow="true" stroke="#000000" stroke-opacity="0.09999999999999999" stroke-width="3" transform="translate(1, 1)"></path><path fill="none" class="highcharts-label-box highcharts-tooltip-box" d="M 3.5 0.5 L 221.5 0.5 C 224.5 0.5 224.5 0.5 224.5 3.5 L 224.5 43.5 C 224.5 46.5 224.5 46.5 221.5 46.5 L 214.5 46.5 208.5 52.5 202.5 46.5 3.5 46.5 C 0.5 46.5 0.5 46.5 0.5 43.5 L 0.5 3.5 C 0.5 0.5 0.5 0.5 3.5 0.5" isShadow="true" stroke="#000000" stroke-opacity="0.15" stroke-width="1" transform="translate(1, 1)"></path><path fill="rgba(247,247,247,0.85)" class="highcharts-label-box highcharts-tooltip-box" d="M 3.5 0.5 L 221.5 0.5 C 224.5 0.5 224.5 0.5 224.5 3.5 L 224.5 43.5 C 224.5 46.5 224.5 46.5 221.5 46.5 L 214.5 46.5 208.5 52.5 202.5 46.5 3.5 46.5 C 0.5 46.5 0.5 46.5 0.5 43.5 L 0.5 3.5 C 0.5 0.5 0.5 0.5 3.5 0.5" stroke="#e41a1c" stroke-width="1"></path><text x="8" style="font-size:12px;color:#333333;fill:#333333;" y="20"><tspan>1.00</tspan><tspan style="fill: #e41a1c; font-weight: bold;" x="8" dy="15">Measured temperature</tspan><tspan dx="0">: </tspan><tspan style="font-weight:bold" dx="0">199.98</tspan><tspan dx="0"> °C</tspan></text></g></svg>