<?xml version="1.0" encoding="UTF-8"?>
<svg width="569px" height="366px" viewBox="0 0 569 366" version="1.1" xmlns="http://www.w3.org/2000/svg" xmlns:xlink="http://www.w3.org/1999/xlink" xmlns:sketch="http://www.bohemiancoding.com/sketch/ns">
    <!-- Generator: Sketch 3.5.1 (25234) - http://www.bohemiancoding.com/sketch -->
    <title>step</title>
    <desc>Created with Sketch.</desc>
    <defs></defs>
    <g id="Page-1" stroke="none" stroke-width="1" fill="none" fill-rule="evenodd" sketch:type="MSPage">
        <path d="M563.5,6.5 L563.5,257.5" id="Line" stroke="#979797" stroke-width="3" stroke-linecap="square" sketch:type="MSShapeGroup"></path>
        <path id="Line-decoration-1" d="M563.5,6.5 L566.5,17.3 L560.5,17.3 L563.5,6.5 Z" stroke="#979797" stroke-width="3" stroke-linecap="square"></path>
        <path id="Line-decoration-2" d="M563.5,257.5 L566.5,246.7 L560.5,246.7 L563.5,257.5 Z" stroke="#979797" stroke-width="3" stroke-linecap="square"></path>
        <path d="M563.5,345.375216 L563.5,364.500001" id="Line" stroke="#979797" stroke-width="3" stroke-linecap="square" sketch:type="MSShapeGroup"></path>
        <path id="Line-decoration-1" d="M563.5,345.375216 L566.5,356.175216 L560.5,356.175216 L563.5,345.375216 Z" stroke="#979797" stroke-width="3" stroke-linecap="square"></path>
        <path d="M563.5,294.375216 L563.5,313.500001" id="Line" stroke="#979797" stroke-width="3" stroke-linecap="square" sketch:type="MSShapeGroup"></path>
        <path id="Line-decoration-1" d="M563.5,313.500001 L566.5,302.700001 L560.5,302.700001 L563.5,313.500001 Z" stroke="#979797" stroke-width="3" stroke-linecap="square"></path>
        <path d="M563.5,291.375216 L563.5,363.500003" id="Line" stroke="#979797" stroke-width="3" stroke-linecap="square" sketch:type="MSShapeGroup"></path>
        <text id="A" sketch:type="MSTextLayer" transform="translate(552.500000, 329.500000) rotate(-90.000000) translate(-552.500000, -329.500000) " font-family="Helvetica" font-size="16" font-weight="normal" fill="#979797">
            <tspan x="547" y="335">A</tspan>
        </text>
        <path d="M249,99 L249,258.18" id="Line" stroke="#979797" stroke-width="3" stroke-linecap="square" sketch:type="MSShapeGroup"></path>
        <path id="Line-decoration-1" d="M249,99 L252,109.8 L246,109.8 L249,99 Z" stroke="#979797" stroke-width="3" stroke-linecap="square"></path>
        <path id="Line-decoration-2" d="M249,258.18 L252,247.38 L246,247.38 L249,258.18 Z" stroke="#979797" stroke-width="3" stroke-linecap="square"></path>
        <path d="M202,133 L202,258.5" id="Line" stroke="#979797" stroke-width="3" stroke-linecap="square" sketch:type="MSShapeGroup"></path>
        <path id="Line-decoration-1" d="M202,133 L205,143.8 L199,143.8 L202,133 Z" stroke="#979797" stroke-width="3" stroke-linecap="square"></path>
        <path id="Line-decoration-2" d="M202,258.5 L205,247.7 L199,247.7 L202,258.5 Z" stroke="#979797" stroke-width="3" stroke-linecap="square"></path>
        <path d="M7.48425711,262.5 L567.484346,262.5" id="Line" stroke="#979797" stroke-linecap="square" sketch:type="MSShapeGroup"></path>
        <path d="M2,344.5 L568.296513,344.5" id="Line" stroke="#979797" stroke-linecap="square" sketch:type="MSShapeGroup"></path>
        <path d="M94.5,2.50146199 L94.5,344.505057" id="Line" stroke="#979797" stroke-linecap="square" sketch:type="MSShapeGroup"></path>
        <path d="M201.5,2.50146199 L201.5,344.505057" id="Line" stroke="#979797" stroke-linecap="square" sketch:type="MSShapeGroup"></path>
        <path d="M247.5,2.50146199 L247.5,344.505057" id="Line" stroke="#979797" stroke-linecap="square" sketch:type="MSShapeGroup"></path>
        <g id="Group" sketch:type="MSLayerGroup" transform="translate(245.000000, 346.000000)" font-weight="260" font-family="Helvetica" fill="#000000" sketch:alignment="middle">
            <text id="t" sketch:type="MSTextLayer" font-size="16">
                <tspan x="0.276" y="15">t</tspan>
            </text>
            <text id="3" sketch:type="MSTextLayer" font-size="10">
                <tspan x="5.22" y="18">3</tspan>
            </text>
        </g>
        <g id="Group" sketch:type="MSLayerGroup" transform="translate(199.000000, 346.000000)" font-weight="260" font-family="Helvetica" fill="#000000" sketch:alignment="middle">
            <text id="t" sketch:type="MSTextLayer" font-size="16">
                <tspan x="0.276" y="15">t</tspan>
            </text>
            <text id="2" sketch:type="MSTextLayer" font-size="10">
                <tspan x="5.22" y="18">2</tspan>
            </text>
        </g>
        <g id="Group" sketch:type="MSLayerGroup" transform="translate(92.000000, 346.000000)" font-weight="260" font-family="Helvetica" fill="#000000" sketch:alignment="middle">
            <text id="t" sketch:type="MSTextLayer" font-size="16">
                <tspan x="0.276" y="15">t</tspan>
            </text>
            <text id="Type-something" sketch:type="MSTextLayer" font-size="10">
                <tspan x="5.22" y="18">0</tspan>
            </text>
        </g>
        <text id="output" sketch:type="MSTextLayer" font-family="Helvetica" font-size="16" font-weight="normal" sketch:alignment="middle" fill="#FF7F00">
            <tspan x="4.7578125" y="334">output</tspan>
        </text>
        <text id="temperature" sketch:type="MSTextLayer" font-family="Helvetica" font-size="16" font-weight="normal" sketch:alignment="middle" fill="#377EB8">
            <tspan x="4.3671875" y="254">temperature</tspan>
        </text>
        <path d="M5,262.709124 L77.551468,262.709124 L85.794269,262.980505 L87.442863,262.922952 L89.0914148,262.866129 L90.7399665,262.810029 L92.3885183,262.754645 L94.0370701,262.699971 L95.685664,262.645996 L97.3342158,262.592717 L98.9827676,262.540124 L100.631066,262.488216 L102.278013,262.437019 L103.798356,262.117658 L104.938635,261.480044 L105.825452,260.79121 L106.585582,260.087068 L107.345796,259.292066 L107.979237,258.568846 L108.612678,257.796875 L109.246204,256.981503 L109.879645,256.127863 L110.386398,255.420309 L110.893151,254.69309 L111.399988,253.947973 L111.906741,253.186942 L112.413494,252.411471 L112.920247,251.623025 L113.427084,250.822817 L113.933837,250.01235 L114.44059,249.192629 L114.947343,248.364695 L115.454181,247.529368 L115.960934,246.687806 L116.467686,245.840678 L116.974439,244.988724 L117.481277,244.132484 L117.98803,243.272866 L118.494783,242.410301 L119.001536,241.545315 L119.508373,240.678245 L120.015126,239.809823 L120.521879,238.940309 L121.028632,238.070076 L121.535469,237.199319 L122.042222,236.328639 L122.548975,235.458178 L123.055728,234.588197 L123.562481,233.718935 L124.069318,232.850467 L124.576071,231.983283 L125.082824,231.11742 L125.589577,230.253046 L126.096415,229.39017 L126.603167,228.529218 L127.10992,227.670174 L127.616673,226.813153 L128.123511,225.958119 L128.630264,225.105451 L129.137017,224.255094 L129.64377,223.407126 L130.150607,222.561479 L130.65736,221.7185 L131.164113,220.878104 L131.670866,220.040345 L132.177703,219.205132 L132.684456,218.372784 L133.191209,217.543201 L133.697962,216.716417 L134.204799,215.892324 L134.711552,215.071224 L135.218305,214.253003 L135.725058,213.437682 L136.231811,212.625279 L136.738649,211.815674 L137.245401,211.00915 L137.752154,210.205584 L138.258907,209.404985 L138.765745,208.607228 L139.272498,207.812585 L139.779251,207.020926 L140.286004,206.232256 L140.792841,205.446445 L141.299594,204.663756 L141.806347,203.884057 L142.3131,203.107349 L142.819937,202.333499 L143.32669,201.562763 L143.833443,200.795008 L144.340196,200.03023 L144.847033,199.268298 L145.353786,198.509459 L145.860539,197.753582 L146.367292,197.000659 L146.87413,196.250559 L147.380882,195.503526 L147.887635,194.759425 L148.394388,194.018251 L148.901141,193.279993 L149.407979,192.544523 L149.914732,191.812076 L150.421485,191.082521 L150.928238,190.355849 L151.435075,189.63193 L151.941828,188.910996 L152.448581,188.192918 L152.955334,187.477685 L153.462171,186.765169 L153.968924,186.055599 L154.475677,185.348844 L154.98243,184.644896 L155.489267,183.943628 L156.122708,183.071106 L156.75615,182.202917 L157.389675,181.338928 L158.023116,180.479349 L158.656558,179.624043 L159.289999,178.772992 L159.923524,177.926062 L160.556966,177.083459 L161.190407,176.24505 L161.823932,175.410704 L162.457374,174.580623 L163.090815,173.754676 L163.72434,172.932734 L164.358415,172.114179 L164.99249,171.299707 L165.626564,170.489296 L166.260597,169.682982 L166.894671,168.880636 L167.528746,168.082293 L168.162778,167.287986 L168.796853,166.497589 L169.430927,165.711135 L170.06496,164.928659 L170.699034,164.150035 L171.333109,163.375296 L171.967184,162.604424 L172.601216,161.837451 L173.235291,161.074254 L173.869365,160.314866 L174.503398,159.559319 L175.137472,158.807493 L175.771547,158.05942 L176.405579,157.31513 L177.039654,156.574506 L177.673728,155.83758 L178.307803,155.104331 L178.941835,154.374792 L179.57591,153.648845 L180.209985,152.926523 L180.844017,152.207854 L181.478092,151.492726 L182.112166,150.781167 L182.746199,150.073207 L183.380273,149.368735 L184.014348,148.667779 L184.648423,147.970323 L185.282455,147.276395 L185.91653,146.585885 L186.550604,145.898823 L187.184636,145.215236 L187.818711,144.535016 L189.213633,143.050506 L189.974523,142.247612 L190.735412,141.449526 L191.496259,140.656263 L192.257149,139.867706 L193.018038,139.08387 L193.778886,138.304771 L194.539775,137.530295 L195.300665,136.760456 L196.061512,135.995268 L196.822402,135.234621 L197.583249,134.47857 L198.344139,133.727004 L199.105028,132.979939 L199.865875,132.237388 L200.626765,131.499243 L201.387654,130.765518 L202.148502,130.036226 L202.909391,129.311261 L203.670281,128.590637 L204.431128,127.874368 L205.192018,127.162348 L205.952865,126.454631 L206.713754,125.751113 L207.474644,125.051807 L208.235491,124.356728 L208.996381,123.665771 L209.75727,122.978953 L210.518118,122.296285 L211.279007,121.617666 L212.039897,120.943112 L212.800744,120.272633 L213.561634,119.606133 L214.322523,118.943623 L215.08337,118.285117 L215.84426,117.630518 L217.365997,116.333091 L218.253701,115.583403 L219.141364,114.838986 L220.029068,114.099731 L220.91673,113.365673 L221.804435,112.636706 L222.692139,111.912828 L223.579801,111.194039 L224.467506,110.480235 L225.355168,109.771449 L226.242872,109.067578 L227.130535,108.368656 L228.018239,107.67458 L228.905944,106.985351 L229.793606,106.300966 L230.68131,105.621328 L231.568973,104.946468 L232.456677,104.276288 L233.344381,103.610787 L234.232044,102.949964 L235.119748,102.293725 L236.00741,101.642098 L236.895115,100.994991 L237.782777,100.352432 L238.670482,99.71433 L239.558186,99.0806833 L240.445848,98.4514908 L241.333553,97.8266618 L242.221215,97.2062251 L243.996582,95.9782885 L245.898805,94.6815676 L246.913283,93.9979315 L247.927802,93.3197198 L248.942279,92.6469455 L249.956798,91.9795093 L250.971276,91.317424 L251.985795,90.6605922 L253.000272,90.0090262 L254.014792,89.3626301 L255.029269,88.7214163 L256.043788,88.0852902 L257.058265,87.4542641 L258.072785,86.8282448 L259.087262,86.2072445 L260.101781,85.5911715 L261.116258,84.9800377 L262.130778,84.373753 L263.145255,83.7723289 L264.159774,83.1756769 L265.174251,82.5838083 L266.188771,81.996636 L267.203248,81.4141711 L268.217767,80.8363278 L270.246764,79.6944547 L272.27576,78.5707238 L274.431572,77.3963144 L275.572906,76.7825999 L276.714198,76.1744119 L277.85549,75.5716782 L278.996824,74.974328 L280.138117,74.3823569 L281.279451,73.7956732 L282.420743,73.2142725 L283.562077,72.6380648 L284.703369,72.0670459 L285.844704,71.5011271 L286.985996,70.9403044 L288.12733,70.3844909 L289.268622,69.8336825 L290.409914,69.2878138 L291.550108,68.7473588 L292.690387,68.2117065 L293.830581,67.6808929 L294.970859,67.1547964 L297.251332,66.1167413 L299.531805,65.0972047 L301.812278,64.0958562 L304.219438,63.0582528 L305.486405,62.5199963 L306.753288,61.9871313 L308.020254,61.4595334 L309.287137,60.9372202 L310.554104,60.4200698 L311.82107,59.9080655 L313.087953,59.4011896 L314.354919,58.899324 L315.621802,58.4024853 L316.888769,57.9105576 L318.155735,57.423525 L319.422618,56.9413708 L320.689585,56.4639824 L321.956467,55.9913758 L323.223434,55.5234406 L324.4904,55.0601618 L327.02425,54.1474185 L329.558099,53.2527493 L332.091948,52.3757963 L334.625797,51.5162088 L337.159731,50.673615 L339.820268,49.8068733 L341.213923,49.3600655 L342.607494,48.9181725 L344.001149,48.4810874 L345.394804,48.0487842 L346.788374,47.6212363 L348.182029,47.1983401 L349.575684,46.7800706 L350.969255,46.3664021 L352.36291,45.9572343 L353.756565,45.552543 L355.150136,45.1523033 L356.543791,44.7564183 L357.937361,44.3648879 L359.331016,43.9776175 L360.724671,43.594584 L362.118242,43.2157638 L364.905552,42.470466 L367.692778,41.7414086 L370.480003,41.0282157 L373.267313,40.3305214 L376.054539,39.64803 L378.841764,38.98039 L381.629075,38.3272585 L384.4163,37.688359 L387.203526,37.0633623 L389.990836,36.4519474 L391.511095,36.1240947 L393.031438,35.8001348 L394.551781,35.4800394 L396.072124,35.1637624 L397.592383,34.8512755 L399.112727,34.542499 L400.63307,34.2374059 L402.153329,33.9359689 L403.673672,33.638111 L405.194015,33.3438063 L406.714358,33.0530124 L408.234617,32.7657031 L409.75496,32.4818053 L411.275304,32.2012941 L412.795563,31.9241445 L414.315906,31.6502856 L415.836249,31.3796935 L417.356592,31.1123294 L418.876851,30.8481692 L420.397194,30.5871455 L421.917538,30.3292357 L424.95814,29.8226229 L427.998826,29.3280108 L431.039428,28.845142 L434.080115,28.3737115 L437.120717,27.9134738 L440.161319,27.4641507 L443.202006,27.0254712 L446.242608,26.5972071 L449.283294,26.1790877 L452.323896,25.7708954 L455.364583,25.3723725 L458.405185,24.9833115 L461.445872,24.6034666 L464.486474,24.2326402 L467.527076,23.8706079 L470.567762,23.5171514 L473.608364,23.1720869 L476.649051,22.8351963 L479.689653,22.5063043 L482.730339,22.1852031 L485.770942,21.8717257 L488.811544,21.5656823 L491.85223,21.2668886 L494.892832,20.9751889 L497.933519,20.6903991 L500.974121,20.4123709 L504.014807,20.1409286 L507.055409,19.875931 L510.096096,19.6172107 L513.136698,19.3646331 L516.1773,19.1180454 L519.217987,18.8772988 L522.258589,18.6422681 L525.299275,18.4128049 L528.339877,18.1887897 L531.380564,17.970081 L534.421166,17.756565 L537.461853,17.5481068 L540.502455,17.3445979 L543.543057,17.1459151" id="Shape" stroke="#377EB8" stroke-width="2" sketch:type="MSShapeGroup"></path>
        <path d="M1,343.86836 L94.8499946,343.86836 L94.8499946,315 L566.031397,315" id="Path-5" stroke="#FF7F00" stroke-width="2" sketch:type="MSShapeGroup"></path>
        <text id="B" sketch:type="MSTextLayer" transform="translate(552.500000, 127.500000) rotate(-90.000000) translate(-552.500000, -127.500000) " font-family="Helvetica" font-size="16" font-weight="normal" fill="#979797">
            <tspan x="547" y="133">B</tspan>
        </text>
        <text id="0.5-B" sketch:type="MSTextLayer" transform="translate(190.500000, 198.000000) rotate(-90.000000) translate(-190.500000, -198.000000) " font-family="Helvetica" font-size="16" font-weight="normal" fill="#979797">
            <tspan x="171.5" y="203.5">0.5 B</tspan>
        </text>
        <text id="0.632-B" sketch:type="MSTextLayer" transform="translate(237.500000, 178.000000) rotate(-90.000000) translate(-237.500000, -178.000000) " font-family="Helvetica" font-size="16" font-weight="normal" fill="#979797">
            <tspan x="209.5" y="183.5">0.632 B</tspan>
        </text>
        <path d="M1.5,1.5 L567.796513,1.5" id="Line" stroke="#979797" stroke-linecap="square" sketch:type="MSShapeGroup"></path>
    </g>
</svg>